# Made in Blockbench 4.8.3
mtllib angled_spikes_3.mtl

o cube
v 0.6558539065909774 2.948856970189359 -0.6542490028417247
v 0.6889147096708788 2.876998584370786 -0.8242478430944191
v 0.26219583303745964 -0.1073971269902354 0.5610700764946761
v 0.29525663611736075 -0.1792555128088087 0.3910712362419818
v 0.4726416743392931 2.9569300241362333 -0.6932919760036872
v 0.5057024774191943 2.88507163831766 -0.8632908162563815
v 0.07898360078577521 -0.09932407304336133 0.5220271033327137
v 0.11204440386567636 -0.17118245886193462 0.35202826308001933
v 0.6597862819349536 3.240494367513758 -0.912549127206245
v 0.5987155378510588 3.2431853854960497 -0.9255634515935658
v 0.6519709760202868 3.2827252827497455 -0.8671429515052348
v 0.5909002319363921 3.285416300732037 -0.8801572758925555
vt 0.15625 0
vt 0.15625 0.5520833333333333
vt 0.1328125 0.5520833333333333
vt 0.1328125 0
vt 0.078125 0.01041666666666663
vt 0.078125 0.5625
vt 0.0546875 0.5625
vt 0.0546875 0.01041666666666663
vt 0.3359375 0.71875
vt 0.3359375 0.7083333333333333
vt 0.34375 0.7083333333333333
vt 0.34375 0.71875
vt 0.125 0.6041666666666667
vt 0.125 0.6354166666666667
vt 0.1015625 0.6354166666666667
vt 0.1015625 0.6041666666666667
vt 0.125 0
vt 0.125 0.5520833333333333
vt 0.1015625 0.5520833333333333
vt 0.1015625 0
vt 0.1015625 0.01041666666666663
vt 0.1015625 0.5625
vt 0.078125 0.5625
vt 0.078125 0.01041666666666663
vt 0.3355600386320154 0.8386087751807152
vt 0.3287656957460614 0.84375
vt 0.3125 0.7814168295466828
vt 0.33556003863201544 0.7760991527790789
vt 0.328125 0.84375
vt 0.3203125 0.84375
vt 0.3125 0.782090625
vt 0.3359375 0.782090625
vt 0.32792270731195633 0.8541666666666666
vt 0.32056556954300414 0.8506625074202355
vt 0.3125 0.7890613396896756
vt 0.33588684746603126 0.7890613396896757
vt 0.3125 0.8333333333333334
vt 0.3046875 0.8333333333333334
vt 0.296875 0.7681625
vt 0.3203125 0.7681625
vn 0.9771319053423168 -0.0430562877166617 0.20822919019713304
vn -0.9771319053423168 0.0430562877166617 -0.20822919019713304
vn 0.171979690335511 0.7359231647806411 -0.6548588257413557
vn -0.1188401731482318 -0.9226427463183681 0.3668887786675927
vn -0.17632428309280618 0.38324472436572377 0.9066604813477029
vn 0.17632428309280618 -0.38324472436572377 -0.9066604813477029
vn 0.9920664750614655 0.07559056386262586 0.10044986667014122
vn 0.1943156074875491 -0.21682659071042426 -0.9566753233190657
vn -0.9261115183166783 0.18319296423138703 -0.32978446521522947
vn -0.15434991027391612 0.5299324129218396 0.8338751362963589
usemtl m_d604dd17-84f2-ad66-337d-7c0b3eede555
f 4/1/1 2/2/1 1/3/1 3/4/1
f 7/5/2 5/6/2 6/7/2 8/8/2
f 11/9/3 9/10/3 10/11/3 12/12/3
f 4/13/4 3/14/4 7/15/4 8/16/4
f 3/17/5 1/18/5 5/19/5 7/20/5
f 8/21/6 6/22/6 2/23/6 4/24/6
f 9/25/7 11/26/7 1/27/7 2/28/7
f 10/29/8 9/30/8 2/31/8 6/32/8
f 12/33/9 10/34/9 6/35/9 5/36/9
f 11/37/10 12/38/10 5/39/10 1/40/10
o cube
v -0.22302756931309503 2.58594731797833 -1.3456553413840202
v -0.223027569313095 2.4784017361625086 -1.499246349688206
v -0.22302756931309495 -0.07629682596089249 0.5184680767568808
v -0.22302756931309492 -0.1838424077767138 0.3648770684526948
v -0.410527569313095 2.58594731797833 -1.3456553413840202
v -0.410527569313095 2.4784017361625086 -1.499246349688206
v -0.410527569313095 -0.07629682596089249 0.5184680767568808
v -0.410527569313095 -0.1838424077767138 0.3648770684526948
v -0.2879968702267976 2.9643765496246015 -1.762651593498428
v -0.3483672343698642 2.977627308993142 -1.7719298750952832
v -0.285187904256326 3.008267794972811 -1.7182453068718708
v -0.34555826839939263 3.021518554341352 -1.7275235884687261
vt 0.078125 0
vt 0.078125 0.5416666666666667
vt 0.0546875 0.5416666666666667
vt 0.0546875 0
vt 0.09375 0
vt 0.09375 0.5416666666666667
vt 0.0703125 0.5416666666666667
vt 0.0703125 0
vt 0.34375 0.6249996924087289
vt 0.34375 0.6145825890324665
vt 0.3515624026281355 0.614583463162486
vt 0.3515617470306208 0.625
vt 0.140625 0.5833333333333333
vt 0.140625 0.6145833333333333
vt 0.1171875 0.6145833333333333
vt 0.1171875 0.5833333333333333
vt 0.1484375 0.01041666666666663
vt 0.1484375 0.5520833333333333
vt 0.125 0.5520833333333333
vt 0.125 0.01041666666666663
vt 0.1171875 0.01041666666666663
vt 0.1171875 0.5520833333333333
vt 0.09375 0.5520833333333333
vt 0.09375 0.01041666666666663
vt 0.33574375462555117 0.8200863971361201
vt 0.32822583480013307 0.8229166666666666
vt 0.3125 0.7308396351047252
vt 0.33574375462555117 0.7273442016231875
vt 0.3359852064662693 0.8229166666666666
vt 0.32843553081814403 0.8202382879995999
vt 0.3203125 0.7281110847834895
vt 0.34373766051474575 0.7281110847834895
vt 0.32016740118759446 0.8229166666666666
vt 0.31237091153543667 0.82224765230136
vt 0.296875 0.7291403419629178
vt 0.32016740118759446 0.7257719094917621
vt 0.3201623829021618 0.8087337437664917
vt 0.3128780432039868 0.8125
vt 0.296875 0.7177230387877913
vt 0.3201623829021618 0.7143028939094089
vn 1 4.616155547280026e-17 2.4030184781356415e-17
vn -1 -4.616155547280026e-17 -2.4030184781356415e-17
vn 0.25488700224417904 0.6796188970538597 -0.6878595575073965
vn 2.4030184781356455e-17 -0.8191520442889915 0.5735764363510465
vn -4.6161555472800244e-17 0.5735764363510465 0.8191520442889915
vn 4.6161555472800244e-17 -0.5735764363510465 -0.8191520442889915
vn 0.9926733611819452 0.04845630304266527 -0.11068687679746396
vn 0.03149647642478481 -0.4730250768104567 -0.880485802657422
vn -0.9939655418451387 0.10267368168712064 -0.038608505711975605
vn 0.028273718264402455 0.6565797996042715 0.7537264514445012
usemtl m_d604dd17-84f2-ad66-337d-7c0b3eede555
f 16/41/11 14/42/11 13/43/11 15/44/11
f 19/45/12 17/46/12 18/47/12 20/48/12
f 23/49/13 21/50/13 22/51/13 24/52/13
f 16/53/14 15/54/14 19/55/14 20/56/14
f 15/57/15 13/58/15 17/59/15 19/60/15
f 20/61/16 18/62/16 14/63/16 16/64/16
f 21/65/17 23/66/17 13/67/17 14/68/17
f 22/69/18 21/70/18 14/71/18 18/72/18
f 24/73/19 22/74/19 18/75/19 17/76/19
f 23/77/20 24/78/20 17/79/20 13/80/20