# Made in Blockbench 4.8.3
mtllib angled_spikes.mtl

o cube
v 0.3103612139821052 2.401692550813169 -0.03156606460587541
v 0.31036121398210526 2.329939407244715 -0.20479347695174155
v 0.31036121398210526 -0.08123369281091389 0.9968956598753034
v 0.31036121398210526 -0.15298683637936822 0.8236682475294371
v 0.1228612139821052 2.401692550813169 -0.03156606460587541
v 0.1228612139821052 2.329939407244715 -0.20479347695174155
v 0.12286121398210526 -0.08123369281091389 0.9968956598753034
v 0.12286121398210526 -0.15298683637936822 0.8236682475294371
v 0.22598621398210533 2.8220457670651165 -0.3409810928011313
v 0.20723621398210534 2.8095480089812375 -0.33580435190353086
v 0.22598621398210533 2.845963481587934 -0.28323862201917593
v 0.20723621398210534 2.833465723504056 -0.2780618811215755
vt 0.75 0
vt 0.75 0.44791666666666663
vt 0.7265625 0.44791666666666663
vt 0.7265625 0
vt 0.734375 0
vt 0.734375 0.44791666666666663
vt 0.7109375 0.44791666666666663
vt 0.7109375 0
vt 0.9921875 0.7916666666666666
vt 0.984375 0.7916666666666666
vt 0.984375 0.7878135416666666
vt 0.9921875 0.7878135416666666
vt 0.9375 0.7083333333333333
vt 0.9375 0.7395833333333333
vt 0.9140625 0.7395833333333333
vt 0.9140625 0.7083333333333333
vt 0.703125 0
vt 0.703125 0.44791666666666663
vt 0.6796875 0.44791666666666663
vt 0.6796875 0
vt 0.78125 0
vt 0.78125 0.44791666666666663
vt 0.7578125 0.44791666666666663
vt 0.7578125 0
vt 0.9609375 0.8333333333333334
vt 0.953125 0.8333333333333334
vt 0.9453125 0.7477104166666666
vt 0.96875 0.7477104166666666
vt 0.9449174166004515 0.8306045025497
vt 0.9428767683422394 0.8333333333333334
vt 0.921875 0.7517507596321981
vt 0.9449174166004516 0.7465923969792616
vt 0.9453125 0.8333333333333334
vt 0.9375 0.8333333333333334
vt 0.9296875 0.7499333333333333
vt 0.953125 0.7499333333333333
vt 0.9660825224404774 0.8333333333333334
vt 0.9637262209983289 0.8311014979436374
vt 0.953125 0.7482507304206443
vt 0.9764384949729028 0.7482507304206443
vn 1 3.168098226511848e-17 4.128745992443466e-17
vn -1 -3.168098226511848e-17 -4.128745992443466e-17
vn -0.5850871067233722 0.7492390040843869 -0.3103449569506638
vn 1.3469384207077284e-17 -0.9238795325112867 0.3826834323650897
vn -5.0268426207478254e-17 0.3826834323650897 0.9238795325112867
vn 5.0268426207478254e-17 -0.3826834323650897 -0.9238795325112867
vn 0.9864209374292534 0.15173503973832234 -0.06285071134683358
vn -0.07871512454132923 -0.2784049378233914 -0.9572327928795569
vn -0.9856820267638439 0.1557797388615779 -0.0645260805794047
vn -0.1026727898854312 0.5082237763633861 0.8550829733751462
usemtl m_a994c48f-5230-42fa-7f78-8d6b13670935
f 4/1/1 2/2/1 1/3/1 3/4/1
f 7/5/2 5/6/2 6/7/2 8/8/2
f 11/9/3 9/10/3 10/11/3 12/12/3
f 4/13/4 3/14/4 7/15/4 8/16/4
f 3/17/5 1/18/5 5/19/5 7/20/5
f 8/21/6 6/22/6 2/23/6 4/24/6
f 9/25/7 11/26/7 1/27/7 2/28/7
f 10/29/8 9/30/8 2/31/8 6/32/8
f 12/33/9 10/34/9 6/35/9 5/36/9
f 11/37/10 12/38/10 5/39/10 1/40/10
o cube
v 0.8212730959100625 3.142695244258036 0.22346148742984212
v 0.8513537203858802 3.1016558243680588 0.042997718084749004
v 0.8988926623626001 -0.08362800795274805 0.9701004397674164
v 0.9289732868384178 -0.12466742784272533 0.7896366704223234
v 0.636253900531686 3.1316863731693596 0.19512507800855067
v 0.6663345250075038 3.090646953279382 0.01466130866345755
v 0.7138734669842236 -0.0946368790414247 0.941764030346125
v 0.7439540914600414 -0.13567629893140198 0.761300261001032
v 0.7603857817237822 3.4554868999550337 0.0239046716168565
v 0.7172146361354944 3.4529181633676758 0.017292842751888526
v 0.7528187433211198 3.510912317689165 0.05177962451026308
v 0.7096475977328319 3.5083435811018076 0.045167795645295106
vt 0.7890625 0
vt 0.7890625 0.5520833333333333
vt 0.765625 0.5520833333333333
vt 0.765625 0
vt 0.7265625 0
vt 0.7265625 0.5520833333333333
vt 0.703125 0.5520833333333333
vt 0.703125 0
vt 0.9609375 0.8333333333333334
vt 0.9609375 0.8229166666666666
vt 0.96640625 0.8229166666666666
vt 0.96640625 0.8333333333333334
vt 0.9609375 0.6770833333333333
vt 0.9609375 0.7083333333333333
vt 0.9375 0.7083333333333333
vt 0.9375 0.6770833333333333
vt 0.765625 0
vt 0.765625 0.5520833333333333
vt 0.7421875 0.5520833333333333
vt 0.7421875 0
vt 0.6953125 0
vt 0.6953125 0.5520833333333333
vt 0.671875 0.5520833333333333
vt 0.671875 0
vt 0.9445455157356673 0.7826261065637236
vt 0.9406642925935951 0.7916666666666666
vt 0.921875 0.7277327803702707
vt 0.9445455157356673 0.7218895783060075
vt 0.944140625 0.78125
vt 0.938671875 0.78125
vt 0.9296875 0.721465625
vt 0.953125 0.721465625
vt 0.936788308551313 0.78125
vt 0.9315254534183774 0.7735523638537661
vt 0.921875 0.7139525584195404
vt 0.944236839923531 0.7139525584195404
vt 0.944140625 0.7708333333333334
vt 0.938671875 0.7708333333333334
vt 0.9296875 0.7032197916666667
vt 0.953125 0.7032197916666667
vn 0.9867690420180079 0.05871397913960888 0.15112751691355453
vn -0.9867690420180079 -0.05871397913960888 -0.15112751691355453
vn 0.1078345016536757 0.45839565259372705 -0.8821820367340715
vn 0.023432321947935895 -0.9739843780258971 0.2254004384415319
vn -0.1604299972043614 0.21887690607987884 0.9624734365071633
vn 0.1604299972043614 -0.21887690607987884 -0.9624734365071633
vn 0.9858610569365717 0.15985873681936427 -0.05023107283767121
vn 0.15219877268271134 -0.014197325680161937 -0.9882479291844775
vn -0.8660901971020023 0.12515579258514575 -0.48396673239614185
vn -0.16201789312512963 0.3920921663792894 0.9055462083026408
usemtl m_a994c48f-5230-42fa-7f78-8d6b13670935
f 16/41/11 14/42/11 13/43/11 15/44/11
f 19/45/12 17/46/12 18/47/12 20/48/12
f 23/49/13 21/50/13 22/51/13 24/52/13
f 16/53/14 15/54/14 19/55/14 20/56/14
f 15/57/15 13/58/15 17/59/15 19/60/15
f 20/61/16 18/62/16 14/63/16 16/64/16
f 21/65/17 23/66/17 13/67/17 14/68/17
f 22/69/18 21/70/18 14/71/18 18/72/18
f 24/73/19 22/74/19 18/75/19 17/76/19
f 23/77/20 24/78/20 17/79/20 13/80/20