# Made in Blockbench 4.8.3
mtllib angled_spikes_2.mtl

o cube
v 0.40941191850222486 3.1022222438958376 0.33562386454246307
v 0.44937780785195214 3.06331481276605 0.15661216243512543
v 0.29196084182946863 0.04533537759283757 0.9738032524990461
v 0.33192673117919597 0.006427946463049672 0.7947915503917085
v 0.22635641716723728 3.1007885512062954 0.29506676952484223
v 0.26632230651696465 3.0618811200765075 0.11605506741750465
v 0.10890534049448108 0.04390168490329582 0.9332461574814253
v 0.14887122984420842 0.004994253773507928 0.7542344553740876
v 0.37634422189011085 3.4378912787649334 0.1407236884662553
v 0.33363127157861383 3.4375567504707067 0.13126036629547713
v 0.3702912118420371 3.460199461414358 0.1672555125549108
v 0.32757826153054004 3.4598649331201314 0.15779219038413264
vt 0.75 0
vt 0.75 0.5208333333333333
vt 0.7265625 0.5208333333333333
vt 0.7265625 0
vt 0.7265625 0
vt 0.7265625 0.5208333333333333
vt 0.703125 0.5208333333333333
vt 0.703125 0
vt 0.9921875 0.8541666666666666
vt 0.9921875 0.8483020833333333
vt 0.99765625 0.8483020833333333
vt 0.99765625 0.8541666666666666
vt 0.9453125 0.6979166666666667
vt 0.9453125 0.7291666666666667
vt 0.921875 0.7291666666666667
vt 0.921875 0.6979166666666667
vt 0.71875 0
vt 0.71875 0.5208333333333333
vt 0.6953125 0.5208333333333333
vt 0.6953125 0
vt 0.765625 0
vt 0.765625 0.5208333333333333
vt 0.7421875 0.5208333333333333
vt 0.7421875 0
vt 0.9525571235414056 0.9025914703741192
vt 0.949119133665446 0.90625
vt 0.9296875 0.8452716496708481
vt 0.9525571235414056 0.8389879191825753
vt 0.944140625 0.9270833333333334
vt 0.938671875 0.9270833333333334
vt 0.9296875 0.8645604166666667
vt 0.953125 0.8645604166666667
vt 0.9434437421208862 0.9166666666666666
vt 0.9395132508862891 0.9140341183239279
vt 0.9296875 0.8517367334342959
vt 0.9529811251322493 0.8517367334342959
vt 0.944140625 0.90625
vt 0.938671875 0.90625
vt 0.9296875 0.8410875
vt 0.953125 0.8410875
vn 0.9762960071199337 0.007646361010892798 0.21630450676064442
vn -0.9762960071199337 -0.007646361010892798 -0.21630450676064442
vn 0.13136355583185017 0.7733263757832937 -0.620249895378539
vn -0.03758434453528196 -0.9782037972169598 0.2042174041461065
vn -0.21315140986521247 0.20750629935886786 0.9547290779058005
vn 0.21315140986521247 -0.20750629935886786 -0.9547290779058005
vn 0.9836008082313249 0.15266169515804434 0.09604091252251237
vn 0.21630508316767494 0.0007614284894620629 -0.9763255252335058
vn -0.9160029786934585 0.17865642902739354 -0.359194130508687
vn -0.20134244666885398 0.39878790776679846 0.8946672139898608
usemtl m_495bac1a-97df-8a5b-0889-2447a5300801
f 4/1/1 2/2/1 1/3/1 3/4/1
f 7/5/2 5/6/2 6/7/2 8/8/2
f 11/9/3 9/10/3 10/11/3 12/12/3
f 4/13/4 3/14/4 7/15/4 8/16/4
f 3/17/5 1/18/5 5/19/5 7/20/5
f 8/21/6 6/22/6 2/23/6 4/24/6
f 9/25/7 11/26/7 1/27/7 2/28/7
f 10/29/8 9/30/8 2/31/8 6/32/8
f 12/33/9 10/34/9 6/35/9 5/36/9
f 11/37/10 12/38/10 5/39/10 1/40/10
o cube
v 0.7151533151475339 0.8465885598178972 0.1969694728516454
v 0.7509755863490271 0.7338758969968908 0.05147421339016045
v 0.6793598271617239 0.0028718262306526576 0.8417695579033468
v 0.7151820983632171 -0.10984083659035362 0.6962742984418618
v 0.531215508428794 0.8297505168099527 0.16472643380192065
v 0.567037779630287 0.7170378539889464 0.019231174340435753
v 0.495422020442984 -0.013966216777291734 0.809526518853622
v 0.5312442916444772 -0.12667887959829804 0.6640312593921371
v 0.6852106436584484 1.1262969129223759 -0.2507714158402853
v 0.6606856027626165 1.1240518405213165 -0.2550704877135819
v 0.6790749948420602 1.1585191355653999 -0.23259637301928093
v 0.6545499539462283 1.1562740631643404 -0.23689544489257752
vt 0.7109375 0.05208333333333337
vt 0.7109375 0.22916666666666663
vt 0.6875 0.22916666666666663
vt 0.6875 0.05208333333333337
vt 0.765625 0.05208333333333337
vt 0.765625 0.22916666666666663
vt 0.7421875 0.22916666666666663
vt 0.7421875 0.05208333333333337
vt 0.984375 0.8229166666666666
vt 0.984375 0.8166666666666667
vt 0.9875 0.8166666666666667
vt 0.9875 0.8229166666666666
vt 0.9375 0.7083333333333333
vt 0.9375 0.7395833333333333
vt 0.9140625 0.7395833333333333
vt 0.9140625 0.7083333333333333
vt 0.78125 0.05208333333333337
vt 0.78125 0.22916666666666663
vt 0.7578125 0.22916666666666663
vt 0.7578125 0.05208333333333337
vt 0.7421875 0.05208333333333337
vt 0.7421875 0.22916666666666663
vt 0.71875 0.22916666666666663
vt 0.71875 0.05208333333333337
vt 0.9765136358243183 0.6537290824951774
vt 0.972223814561525 0.65625
vt 0.953125 0.5713014140661379
vt 0.9765136358243183 0.5704705703422441
vt 0.95859375 0.6666666666666667
vt 0.95546875 0.6666666666666667
vt 0.9453125 0.5844958333333334
vt 0.96875 0.5844958333333334
vt 0.9592096006588641 0.65625
vt 0.9548689659643417 0.6538903984860471
vt 0.953125 0.5706447286649226
vt 0.9765085311188856 0.5706447286649226
vt 0.95078125 0.65625
vt 0.94765625 0.65625
vt 0.9375 0.56860625
vt 0.9609375 0.56860625
vn 0.9810016358332799 0.0898028960423702 0.17196287493186535
vn -0.9810016358332799 -0.0898028960423702 -0.17196287493186535
vn 0.10423612163650048 0.5035960146342313 -0.8576280574880347
vn -0.033687988692526954 -0.7940863374938769 0.606870668283954
vn -0.1910521130746302 0.6011342017120337 0.7759747171279195
vn 0.1910521130746302 -0.6011342017120337 -0.7759747171279195
vn 0.9853575089819336 0.16622467769500082 0.03794648887725772
vn 0.19192751352707887 -0.5784623254128696 -0.7928084053724761
vn -0.9468688096061815 0.0011100691547878405 -0.32161813559164304
vn -0.17536402936761192 0.7895666799709277 0.588074752972479
usemtl m_495bac1a-97df-8a5b-0889-2447a5300801
f 16/41/11 14/42/11 13/43/11 15/44/11
f 19/45/12 17/46/12 18/47/12 20/48/12
f 23/49/13 21/50/13 22/51/13 24/52/13
f 16/53/14 15/54/14 19/55/14 20/56/14
f 15/57/15 13/58/15 17/59/15 19/60/15
f 20/61/16 18/62/16 14/63/16 16/64/16
f 21/65/17 23/66/17 13/67/17 14/68/17
f 22/69/18 21/70/18 14/71/18 18/72/18
f 24/73/19 22/74/19 18/75/19 17/76/19
f 23/77/20 24/78/20 17/79/20 13/80/20
o cube
v 1.0766209117623482 2.37608478709196 0.31970032429858114
v 1.1055011270283903 2.3192636943215272 0.14336670134889823
v 0.950937033056101 -0.06591616632528297 1.0860169404192501
v 0.9798172483221431 -0.12273725909571542 0.9096833174695673
v 0.8915868345335642 2.3760968475185478 0.2893912477927136
v 0.9204670497996064 2.319275754748115 0.11305762484303067
v 0.765902955827317 -0.06590410589869489 1.0557078639133826
v 0.7947831710933592 -0.12272519866912734 0.8793742409636998
v 1.0462780048397033 2.6714895585199274 0.02029352920280386
v 1.0159395367287016 2.6766826364747094 0.013651246043597937
v 1.03718742715228 2.695529163217766 0.07726316438079373
v 1.0068489590412786 2.7007222411725484 0.07062088122158777
vt 0.1328125 0
vt 0.1328125 0.42708333333333337
vt 0.109375 0.42708333333333337
vt 0.109375 0
vt 0.0703125 0
vt 0.0703125 0.42708333333333337
vt 0.046875 0.42708333333333337
vt 0.046875 0
vt 0.3359375 0.8645242561773615
vt 0.3359375 0.8541083002641097
vt 0.339873191666404 0.8541673774200815
vt 0.339873191666404 0.8645833333333334
vt 0.3203125 0.6979166666666667
vt 0.3203125 0.7291666666666667
vt 0.296875 0.7291666666666667
vt 0.296875 0.6979166666666667
vt 0.15625 0
vt 0.15625 0.42708333333333337
vt 0.1328125 0.42708333333333337
vt 0.1328125 0
vt 0.1015625 0
vt 0.1015625 0.42708333333333337
vt 0.078125 0.42708333333333337
vt 0.078125 0
vt 0.3440949285182093 0.8750121232049465
vt 0.3447544224116139 0.8853909086532407
vt 0.296875 0.90625
vt 0.296875 0.8750059743210802
vt 0.318359375 0.9479166666666666
vt 0.3144828125 0.9470083333333333
vt 0.3046875 0.8854145833333333
vt 0.328125 0.8854145833333333
vt 0.3124713247234738 0.9270833333333334
vt 0.3046875 0.9261866344603631
vt 0.3046875 0.862342664187928
vt 0.3281227559904917 0.8623522497826094
vt 0.32765269138496933 0.9148194271336063
vt 0.3239689719620178 0.9166666666666666
vt 0.3046875 0.8537001105446506
vt 0.32765269138496933 0.8476795875698969
vn 0.9868484118868477 -0.00006432227513476774 0.16164840803129357
vn -0.9868484118868477 0.00006432227513476774 -0.16164840803129357
vn 0.23148412850465533 0.9089896675960877 -0.3466307580899228
vn -0.049047367299998874 -0.9529759818213629 0.2990503867787976
vn -0.1540278147522247 0.30304582810897496 0.9404459890649755
vn 0.1540278147522247 -0.30304582810897496 -0.9404459890649755
vn 0.9801395129628833 0.18154859679512578 0.07979124093910732
vn 0.1541021292707102 -0.30272730996831804 -0.9405363945927767
vn -0.9538426788702936 0.19014659133964626 -0.23244013803010827
vn -0.07942297586535929 0.5763292685693684 0.8133489811237163
usemtl m_495bac1a-97df-8a5b-0889-2447a5300801
f 28/81/21 26/82/21 25/83/21 27/84/21
f 31/85/22 29/86/22 30/87/22 32/88/22
f 35/89/23 33/90/23 34/91/23 36/92/23
f 28/93/24 27/94/24 31/95/24 32/96/24
f 27/97/25 25/98/25 29/99/25 31/100/25
f 32/101/26 30/102/26 26/103/26 28/104/26
f 33/105/27 35/106/27 25/107/27 26/108/27
f 34/109/28 33/110/28 26/111/28 30/112/28
f 36/113/29 34/114/29 30/115/29 29/116/29
f 35/117/30 36/118/30 29/119/30 25/120/30