# Made in Blockbench 4.9.4
mtllib animal_skull_5.mtl

o cube
v 0.3723225878040252 0.38193942521322893 0.5595603711684239
v 0.4830944037889921 0.29883049864020894 0.9253609034776558
v 0.3545901092201542 -0.023918136502556725 0.5271092812099732
v 0.47008263248571747 0.02796387971092633 0.8998707083641448
v 0.6709976723601991 0.3762253849657753 0.46781728636410236
v 0.781769488345166 0.29311645839275524 0.8336178186733343
v 0.6532651937763282 -0.02963217675001037 0.4353661964056518
v 0.7687577170418913 0.02224983946347267 0.8081276235598234
vt 0.04221127249303209 0.65625
vt 0.13665397689132058 0.65625
vt 0.14874990484801942 0.8125
vt 0.007500095151980579 0.8099779911953097
vt 0.15625 0.8587276769229792
vt 0.15625 1
vt 0 0.9849815601076978
vt 0.0016860013826019982 0.8905539062482464
vt 0.34375 1
vt 0.34375 0.84375
vt 0.46875 0.84375
vt 0.46875 1
vt 0.34375 0.8125
vt 0.34375 0.65625
vt 0.46875 0.65625
vt 0.46875 0.8125
vt 0.3125 0.59375
vt 0.3125 0.75
vt 0.1875 0.75
vt 0.1875 0.59375
vt 0.25 0.46875
vt 0.25 0.5625
vt 0.125 0.5625
vt 0.125 0.46875
vn -0.9557602705797561 0.018284928791851698 0.29357787137382885
vn 0.9557602705797561 -0.018284928791851698 -0.29357787137382885
vn 0.07948018955180532 0.9769941530567585 0.19790231014749712
vn 0.021376666748137086 -0.9911092188050344 0.13132233061598333
vn -0.29091078652512725 0.08887822640306087 -0.9526130248714733
vn 0.290241580011882 -0.10346967274901737 0.951343183111866
usemtl m_332c0200-4532-0bde-077e-2f1ff65ade09
f 4/1/1 2/2/1 1/3/1 3/4/1
f 7/5/2 5/6/2 6/7/2 8/8/2
f 1/9/3 2/10/3 6/11/3 5/12/3
f 4/13/4 3/14/4 7/15/4 8/16/4
f 3/17/5 1/18/5 5/19/5 7/20/5
f 8/21/6 6/22/6 2/23/6 4/24/6
o cube
v 0.3694262568040346 0.27350847463044714 0.29837446272773305
v 0.38751737817264686 0.31407532195868193 0.5600320254147089
v 0.3551677227920809 0.12631410260141096 0.2611226710206618
v 0.38817706675742203 0.12708457340241183 0.5738260373523897
v 0.5230305860043526 0.2705698253603281 0.2511923048283677
v 0.6563249542732034 0.30893268573597366 0.4774632490908194
v 0.5087720519923989 0.12337545333129196 0.2139405131212964
v 0.6569846428579785 0.12194193717970354 0.4912572610285003
vt 0.5001110809642983 0.5624871903047907
vt 0.5625 0.5662118086149881
vt 0.5491909711424506 0.6708953503540082
vt 0.5001110809642983 0.6875
vt 0.6249510734325765 0.71875
vt 0.6081790248143111 0.7683496689299069
vt 0.503445156289872 0.78125
vt 0.5 0.71875
vt 0.59375 0.90625
vt 0.6171875 1
vt 0.5078125 1
vt 0.53125 0.90625
vt 0.4609375 0.5
vt 0.4375 0.625
vt 0.375 0.625
vt 0.3515625 0.5
vt 0.1875 0.375
vt 0.1875 0.4375
vt 0.125 0.4375
vt 0.125 0.375
vt 0.625 0.8125
vt 0.625 0.875
vt 0.5 0.875
vt 0.5 0.8125
vn -0.9976336527947121 0.001551001014282066 0.06873637470316475
vn 0.8571810495295772 0.04676693788602519 -0.5128874163480105
vn -0.02756687062491238 0.9881052903268089 -0.15128781468486519
vn -0.017794398467896412 -0.9998322396244924 0.004341887911666287
vn -0.2788918633743642 0.26091129709406513 -0.9241994501146749
vn 0.29412569842017644 0.07134633894627287 0.9531000857453571
usemtl m_332c0200-4532-0bde-077e-2f1ff65ade09
f 12/25/7 10/26/7 9/27/7 11/28/7
f 15/29/8 13/30/8 14/31/8 16/32/8
f 9/33/9 10/34/9 14/35/9 13/36/9
f 12/37/10 11/38/10 15/39/10 16/40/10
f 11/41/11 9/42/11 13/43/11 15/44/11
f 16/45/12 14/46/12 10/47/12 12/48/12
o cube
v 0.35374740839572716 0.2970856087712836 0.13181398851930134
v 0.37461186068525626 0.2815367966181784 0.36037591375825484
v 0.33487164209165576 0.15262216478697282 0.07936043113148278
v 0.36717287570185697 0.12614270766296898 0.34583627414108337
v 0.44334993376257936 0.29537139669704754 0.1042910630780049
v 0.5538169114189606 0.2781083724697062 0.3053300628756619
v 0.42447416745850797 0.15090795271273671 0.0518375056901863
v 0.5463779264355613 0.12271428351449677 0.29079042325849047
vt 0.46875 0.40625
vt 0.46875 0.46875
vt 0.390240625 0.466709375
vt 0.375 0.40625
vt 0.22096788825135927 0.3337154383211205
vt 0.25 0.34999800420802896
vt 0.25 0.4375
vt 0.21875 0.43640727559364967
vt 0.328125 0.375
vt 0.34375 0.46875
vt 0.28125 0.46875
vt 0.296875 0.375
vt 0.5625 0.375
vt 0.5625 0.47775739404660866
vt 0.5308866155515818 0.4825091810545443
vt 0.5 0.3845035740158713
vt 0.625 0.34375
vt 0.625 0.40625
vt 0.59375 0.40625
vt 0.59375 0.34375
vt 0.65625 0.5
vt 0.65625 0.5625
vt 0.59375 0.5625
vt 0.59375 0.5
vn -0.9948633794732128 0.03888096006668371 0.09346190201055896
vn 0.8770179309626268 0.05855770327568413 -0.47687581628460696
vn 0.03882577921443937 0.9971755281801511 0.06429249463995505
vn -0.04760950389375551 -0.9945221693133404 -0.09305369354989732
vn -0.26769885930467385 0.359547218185696 -0.8939033049619539
vn 0.29026822134071434 -0.10291412013598827 0.9513953140289968
usemtl m_332c0200-4532-0bde-077e-2f1ff65ade09
f 20/49/13 18/50/13 17/51/13 19/52/13
f 23/53/14 21/54/14 22/55/14 24/56/14
f 17/57/15 18/58/15 22/59/15 21/60/15
f 20/61/16 19/62/16 23/63/16 24/64/16
f 19/65/17 17/66/17 21/67/17 23/68/17
f 24/69/18 22/70/18 18/71/18 20/72/18
o cube
v 0.330320713608105 0.12840658639088362 0.18010142433556986
v 0.39741281204255025 0.046733221474281036 0.6088980852314474
v 0.3235025688157866 0.03636582180104201 0.1636371279549667
v 0.3905946672502319 -0.04530754311556056 0.5924337888508443
v 0.48392504280842297 0.1254679371207646 0.1329192664362045
v 0.6662203881431068 0.04159058525157275 0.526329308907558
v 0.4771068980161046 0.03342717253092299 0.11645497005560135
v 0.6594022433507885 -0.05045017933826884 0.5098650125269548
vt 0.78125 0.65625
vt 0.78125 0.6875
vt 0.59375 0.6875
vt 0.59375 0.65625
vt 0.78125 0.59375
vt 0.78125 0.625
vt 0.59375 0.625
vt 0.59375 0.59375
vt 0.25775217091182556 0.8032886631124272
vt 0.3042651963827787 0.9864337009043054
vt 0.1957348036172213 1
vt 0.1957348036172213 0.8110408340242528
vt 0.09375 0.40625
vt 0.09375 0.5952091659757472
vt 0.04651302547095315 0.6029613368875728
vt 0 0.4198162990956946
vt 0.0625 0.34375
vt 0.0625 0.375
vt 0 0.375
vt 0 0.34375
vt 0.71875 0.4375
vt 0.71875 0.46875
vt 0.59375 0.46875
vt 0.59375 0.4375
vn -0.9857137055279538 0.0439334154588983 0.16259872613420556
vn 0.907923997432486 0.007705679674072244 -0.4190640015403086
vn 0.07272687778472915 0.9817681556249771 0.17561916139310046
vn -0.07272687778472915 -0.9817681556249771 -0.17561916139310046
vn -0.2850142214504331 0.189200819183765 -0.9396648038482638
vn 0.2850142214504331 -0.189200819183765 0.9396648038482638
usemtl m_332c0200-4532-0bde-077e-2f1ff65ade09
f 28/73/19 26/74/19 25/75/19 27/76/19
f 31/77/20 29/78/20 30/79/20 32/80/20
f 25/81/21 26/82/21 30/83/21 29/84/21
f 28/85/22 27/86/22 31/87/22 32/88/22
f 27/89/23 25/90/23 29/91/23 31/92/23
f 32/93/24 30/94/24 26/95/24 28/96/24