# Made in Blockbench 4.9.4
mtllib animal_skull_6.mtl

o cube
v 0.24732258780402466 0.381939425213229 0.2626853711684242
v 0.35809440378899154 0.298830498640209 0.628485903477656
v 0.2295901092201537 -0.023918136502556656 0.23023428120997358
v 0.3450826324857169 0.027963879710926398 0.6029957083641452
v 0.5459976723601986 0.37622538496577534 0.17094228636410266
v 0.6567694883451655 0.29311645839275535 0.5367428186733345
v 0.5282651937763276 -0.0296321767500103 0.13849119640565202
v 0.6437577170418909 0.02224983946347274 0.5112526235598236
vt 0.021105636246516044 0.65625
vt 0.06832698844566029 0.65625
vt 0.07437495242400971 0.8125
vt 0.0037500475759902896 0.8099779911953097
vt 0.078125 0.8587276769229792
vt 0.078125 1
vt 0 0.9849815601076978
vt 0.0008430006913009991 0.8905539062482464
vt 0.171875 1
vt 0.171875 0.84375
vt 0.234375 0.84375
vt 0.234375 1
vt 0.171875 0.8125
vt 0.171875 0.65625
vt 0.234375 0.65625
vt 0.234375 0.8125
vt 0.15625 0.59375
vt 0.15625 0.75
vt 0.09375 0.75
vt 0.09375 0.59375
vt 0.125 0.46875
vt 0.125 0.5625
vt 0.0625 0.5625
vt 0.0625 0.46875
vn -0.9557602705797561 0.018284928791851698 0.29357787137382885
vn 0.9557602705797561 -0.018284928791851698 -0.29357787137382885
vn 0.07948018955180532 0.9769941530567585 0.19790231014749712
vn 0.021376666748137086 -0.9911092188050344 0.13132233061598333
vn -0.29091078652512725 0.08887822640306087 -0.9526130248714733
vn 0.290241580011882 -0.10346967274901737 0.951343183111866
usemtl m_78ccab82-8b40-6d79-1111-aefe7a138bc1
f 4/1/1 2/2/1 1/3/1 3/4/1
f 7/5/2 5/6/2 6/7/2 8/8/2
f 1/9/3 2/10/3 6/11/3 5/12/3
f 4/13/4 3/14/4 7/15/4 8/16/4
f 3/17/5 1/18/5 5/19/5 7/20/5
f 8/21/6 6/22/6 2/23/6 4/24/6
o cube
v 0.24442625680403401 0.27350847463044725 0.0014994627277331585
v 0.26251737817264625 0.31407532195868204 0.2631570254147089
v 0.2301677227920803 0.12631410260141107 -0.03575232897933814
v 0.2631770667574214 0.12708457340241194 0.2769510373523898
v 0.39803058600435204 0.2705698253603282 -0.045682695171632204
v 0.5313249542732028 0.30893268573597377 0.18058824909081952
v 0.3837720519923984 0.12337545333129207 -0.0829344868787035
v 0.531984642857978 0.12194193717970365 0.1943822610285004
vt 0.2500555404821492 0.5624871903047907
vt 0.28125 0.5662118086149881
vt 0.2745954855712253 0.6708953503540082
vt 0.2500555404821492 0.6875
vt 0.31247553671628825 0.71875
vt 0.30408951240715554 0.7683496689299069
vt 0.251722578144936 0.78125
vt 0.25 0.71875
vt 0.296875 0.90625
vt 0.30859375 1
vt 0.25390625 1
vt 0.265625 0.90625
vt 0.23046875 0.5
vt 0.21875 0.625
vt 0.1875 0.625
vt 0.17578125 0.5
vt 0.09375 0.375
vt 0.09375 0.4375
vt 0.0625 0.4375
vt 0.0625 0.375
vt 0.3125 0.8125
vt 0.3125 0.875
vt 0.25 0.875
vt 0.25 0.8125
vn -0.9976336527947121 0.001551001014282066 0.06873637470316475
vn 0.8571810495295772 0.04676693788602519 -0.5128874163480105
vn -0.02756687062491238 0.9881052903268089 -0.15128781468486519
vn -0.017794398467896412 -0.9998322396244924 0.004341887911666287
vn -0.2788918633743642 0.26091129709406513 -0.9241994501146749
vn 0.29412569842017644 0.07134633894627287 0.9531000857453571
usemtl m_78ccab82-8b40-6d79-1111-aefe7a138bc1
f 12/25/7 10/26/7 9/27/7 11/28/7
f 15/29/8 13/30/8 14/31/8 16/32/8
f 9/33/9 10/34/9 14/35/9 13/36/9
f 12/37/10 11/38/10 15/39/10 16/40/10
f 11/41/11 9/42/11 13/43/11 15/44/11
f 16/45/12 14/46/12 10/47/12 12/48/12
o cube
v 0.22874740839572655 0.2970856087712836 -0.1650610114806985
v 0.24961186068525565 0.2815367966181784 0.063500913758255
v 0.20987164209165515 0.1526221647869728 -0.21751456886851706
v 0.24217287570185633 0.12614270766296895 0.04896127414108356
v 0.3183499337625787 0.29537139669704754 -0.19258393692199494
v 0.42881691141896 0.27810837246970616 0.00845506287566207
v 0.2994741674585073 0.1509079527127367 -0.24503749430981353
v 0.4213779264355607 0.12271428351449676 -0.006084576741509376
vt 0.234375 0.40625
vt 0.234375 0.46875
vt 0.1951203125 0.466709375
vt 0.1875 0.40625
vt 0.11048394412567963 0.3337154383211205
vt 0.125 0.34999800420802896
vt 0.125 0.4375
vt 0.109375 0.43640727559364967
vt 0.1640625 0.375
vt 0.171875 0.46875
vt 0.140625 0.46875
vt 0.1484375 0.375
vt 0.28125 0.375
vt 0.28125 0.47775739404660866
vt 0.2654433077757909 0.4825091810545443
vt 0.25 0.3845035740158713
vt 0.3125 0.34375
vt 0.3125 0.40625
vt 0.296875 0.40625
vt 0.296875 0.34375
vt 0.328125 0.5
vt 0.328125 0.5625
vt 0.296875 0.5625
vt 0.296875 0.5
vn -0.9948633794732128 0.03888096006668371 0.09346190201055896
vn 0.8770179309626268 0.05855770327568413 -0.47687581628460696
vn 0.03882577921443937 0.9971755281801511 0.06429249463995505
vn -0.04760950389375551 -0.9945221693133404 -0.09305369354989732
vn -0.26769885930467385 0.359547218185696 -0.8939033049619539
vn 0.29026822134071434 -0.10291412013598827 0.9513953140289968
usemtl m_78ccab82-8b40-6d79-1111-aefe7a138bc1
f 20/49/13 18/50/13 17/51/13 19/52/13
f 23/53/14 21/54/14 22/55/14 24/56/14
f 17/57/15 18/58/15 22/59/15 21/60/15
f 20/61/16 19/62/16 23/63/16 24/64/16
f 19/65/17 17/66/17 21/67/17 23/68/17
f 24/69/18 22/70/18 18/71/18 20/72/18
o cube
v 0.20532071360810436 0.12840658639088365 -0.11677357566443006
v 0.27241281204254963 0.046733221474281064 0.3120230852314475
v 0.19850256881578598 0.03636582180104204 -0.1332378720450332
v 0.2655946672502313 -0.04530754311556053 0.29555878885084436
v 0.3589250428084224 0.12546793712076462 -0.16395573356379542
v 0.5412203881431061 0.041590585251572776 0.22945430890755814
v 0.352106898016104 0.03342717253092302 -0.18042002994439857
v 0.5344022433507878 -0.050450179338268814 0.21299001252695496
vt 0.390625 0.65625
vt 0.390625 0.6875
vt 0.296875 0.6875
vt 0.296875 0.65625
vt 0.390625 0.59375
vt 0.390625 0.625
vt 0.296875 0.625
vt 0.296875 0.59375
vt 0.12887608545591278 0.8032886631124272
vt 0.15213259819138936 0.9864337009043054
vt 0.09786740180861064 1
vt 0.09786740180861064 0.8110408340242528
vt 0.046875 0.40625
vt 0.046875 0.5952091659757472
vt 0.023256512735476575 0.6029613368875728
vt 0 0.4198162990956946
vt 0.03125 0.34375
vt 0.03125 0.375
vt 0 0.375
vt 0 0.34375
vt 0.359375 0.4375
vt 0.359375 0.46875
vt 0.296875 0.46875
vt 0.296875 0.4375
vn -0.9857137055279538 0.0439334154588983 0.16259872613420556
vn 0.907923997432486 0.007705679674072244 -0.4190640015403086
vn 0.07272687778472915 0.9817681556249771 0.17561916139310046
vn -0.07272687778472915 -0.9817681556249771 -0.17561916139310046
vn -0.2850142214504331 0.189200819183765 -0.9396648038482638
vn 0.2850142214504331 -0.189200819183765 0.9396648038482638
usemtl m_78ccab82-8b40-6d79-1111-aefe7a138bc1
f 28/73/19 26/74/19 25/75/19 27/76/19
f 31/77/20 29/78/20 30/79/20 32/80/20
f 25/81/21 26/82/21 30/83/21 29/84/21
f 28/85/22 27/86/22 31/87/22 32/88/22
f 27/89/23 25/90/23 29/91/23 31/92/23
f 32/93/24 30/94/24 26/95/24 28/96/24
o cube
v 0.36086737681880526 0.125 1.0716598091277236
v 0.4412158280296227 0.125 0.9759042537378513
v 0.36086737681880526 0 1.0716598091277236
v 0.4412158280296227 0 0.9759042537378513
v -0.11791040013055609 0.125 0.6699175530736365
v -0.03756194891973863 0.125 0.5741619976837642
v -0.11791040013055609 0 0.6699175530736365
v -0.03756194891973863 0 0.5741619976837642
v 0.5431631637760834 0.140625 1.0002572588747622
v 0.402553374157153 0.140625 1.1678294808070386
v 0.5431631637760834 -0.015625 1.0002572588747622
v 0.402553374157153 -0.015625 1.1678294808070386
v -0.23182718030075078 0.140625 0.6355209915353732
v -0.09121739068182033 0.140625 0.46794876960309684
v -0.23182718030075078 -0.015625 0.6355209915353732
v -0.09121739068182033 -0.015625 0.46794876960309684
vt 0.5625 0.53125
vt 0.5625 0.625
vt 0.5 0.625
vt 0.5 0.53125
vt 0.640625 0.53125
vt 0.640625 0.625
vt 0.578125 0.625
vt 0.578125 0.53125
vt 0.6796875 0.9140625
vt 0.6796875 0.9765625
vt 0.5234375 0.9765625
vt 0.5234375 0.9140625
vt 0.7265625 0.7734375
vt 0.7265625 0.8359375
vt 0.5703125 0.8359375
vt 0.5703125 0.7734375
vt 0.65625 0.65625
vt 0.65625 0.71875
vt 0.5 0.71875
vt 0.5 0.65625
vt 0.828125 0.65625
vt 0.828125 0.71875
vt 0.671875 0.71875
vt 0.671875 0.65625
vt 0.5 0.84375
vt 0.5 0.765625
vt 0.515625 0.7734375
vt 0.515625 0.8359375
vt 0.69579375 0.890625
vt 0.69579375 1
vt 0.6796875 0.9765625
vt 0.6796875 0.9140625
vt 0.671875 0.546875
vt 0.671875 0.625
vt 0.65625 0.6171875
vt 0.65625 0.5546875
vt 0.7426671874999999 0.75
vt 0.7426671874999999 0.859375
vt 0.7265625 0.8359375
vt 0.7265625 0.7734375
vt 0.6875 0.625
vt 0.6875 0.546875
vt 0.703125 0.5546875
vt 0.703125 0.6171875
vt 0.50733125 1
vt 0.50733125 0.890625
vt 0.5234375 0.9140625
vt 0.5234375 0.9765625
vt 0.734375 0.921875
vt 0.734375 1
vt 0.71875 0.9921875
vt 0.71875 0.9296875
vt 0.5542078125000001 0.859375
vt 0.5542078125000001 0.75
vt 0.5703125 0.7734375
vt 0.5703125 0.8359375
vn 0.7660444431189781 0 0.6427876096865394
vn -0.7660444431189781 0 -0.6427876096865394
vn 0 1 0
vn 0 -1 0
vn -0.6427876096865394 0 0.7660444431189781
vn 0.6427876096865394 0 -0.7660444431189781
vn 0.23234122642148058 0 -0.9726343375107434
vn -0.1259369306796564 0.9863939238321437 -0.10567363208489834
vn -0.9175122058614829 0 0.39770762136926147
vn -0.1259369306796564 -0.9863939238321437 -0.10567363208489834
vn -0.28905534708667285 0 0.9573123870088609
vn 0.10833504408394042 0.9899494936611667 0.09090389553440875
vn 0.8925747265144668 0 -0.4508994983226582
vn 0.10833504408394042 -0.9899494936611667 0.09090389553440875
usemtl m_78ccab82-8b40-6d79-1111-aefe7a138bc1
f 43/97/25 41/98/25 42/99/25 44/100/25
f 47/101/26 45/102/26 46/103/26 48/104/26
f 33/105/27 34/106/27 38/107/27 37/108/27
f 36/109/28 35/110/28 39/111/28 40/112/28
f 35/113/29 33/114/29 37/115/29 39/116/29
f 40/117/30 38/118/30 34/119/30 36/120/30
f 41/121/31 43/122/31 36/123/31 34/124/31
f 42/125/32 41/126/32 34/127/32 33/128/32
f 44/129/33 42/130/33 33/131/33 35/132/33
f 43/133/34 44/134/34 35/135/34 36/136/34
f 45/137/35 47/138/35 39/139/35 37/140/35
f 46/141/36 45/142/36 37/143/36 38/144/36
f 48/145/37 46/146/37 38/147/37 40/148/37
f 47/149/38 48/150/38 40/151/38 39/152/38
o cube
v 1.029179275056056 0.07416652254759246 1.284218907690232
v 1.1119012326601974 0.09108730757035025 1.2182616745684056
v 1.0217766042780096 -0.019802739530998342 1.2508276176618884
v 1.104498561882151 -0.002881954508240553 1.1848703845400617
v 0.6511110605316355 0.25587584970347366 0.8566709797800178
v 0.7338330181357768 0.2727966347262315 0.7907137466581915
v 0.6437083897535891 0.1619065876248829 0.8232796897516743
v 0.7264303473577305 0.17882737264764068 0.7573224566298478
v 1.2112420692850985 0.0767870970467903 1.2739166888113456
v 1.0664786434778515 0.04717572325696419 1.389341846774542
v 1.2019887308125405 -0.0406744805514483 1.232177576275916
v 1.0572253050052933 -0.07028585434127442 1.3476027342391124
v 0.553620891601246 0.2936683757466815 0.809363788044164
v 0.698384317408493 0.3232797495365076 0.6939386300809676
v 0.544367553128688 0.17620679814844287 0.7676246755087344
v 0.6891309789359352 0.205818171938269 0.652199517545538
vt 0.5625 0.53125
vt 0.5625 0.625
vt 0.5 0.625
vt 0.5 0.53125
vt 0.640625 0.53125
vt 0.640625 0.625
vt 0.578125 0.625
vt 0.578125 0.53125
vt 0.6796875 0.9140625
vt 0.6796875 0.9765625
vt 0.5234375 0.9765625
vt 0.5234375 0.9140625
vt 0.7265625 0.7734375
vt 0.7265625 0.8359375
vt 0.5703125 0.8359375
vt 0.5703125 0.7734375
vt 0.65625 0.65625
vt 0.65625 0.71875
vt 0.5 0.71875
vt 0.5 0.65625
vt 0.828125 0.65625
vt 0.828125 0.71875
vt 0.671875 0.71875
vt 0.671875 0.65625
vt 0.5 0.84375
vt 0.5 0.765625
vt 0.515625 0.7734375
vt 0.515625 0.8359375
vt 0.69579375 0.890625
vt 0.69579375 1
vt 0.6796875 0.9765625
vt 0.6796875 0.9140625
vt 0.671875 0.546875
vt 0.671875 0.625
vt 0.65625 0.6171875
vt 0.65625 0.5546875
vt 0.7426671874999999 0.75
vt 0.7426671874999999 0.859375
vt 0.7265625 0.8359375
vt 0.7265625 0.7734375
vt 0.6875 0.625
vt 0.6875 0.546875
vt 0.703125 0.5546875
vt 0.703125 0.6171875
vt 0.50733125 1
vt 0.50733125 0.890625
vt 0.5234375 0.9140625
vt 0.5234375 0.9765625
vt 0.734375 0.921875
vt 0.734375 1
vt 0.71875 0.9921875
vt 0.71875 0.9296875
vt 0.5542078125000001 0.859375
vt 0.5542078125000001 0.75
vt 0.5703125 0.7734375
vt 0.5703125 0.8359375
vn 0.6312095407712068 -0.30337557229503664 0.7138191492066189
vn -0.6312095407712068 0.30337557229503664 -0.7138191492066189
vn 0.07402670778046322 0.9396926207859088 0.3339129002834368
vn -0.07402670778046322 -0.9396926207859088 -0.3339129002834368
vn -0.7720716043053185 -0.15792732687907268 0.6156008424703806
vn 0.7720716043053185 0.15792732687907268 -0.6156008424703806
vn 0.500293224449676 0.25465583640329026 -0.8275609310228986
vn 0.0001281303491773578 0.9685945113379697 0.2486456438158001
vn -0.9449113463259768 -0.04096090870596153 0.3247533703326448
vn -0.1469209778923375 -0.8980420857871552 -0.4146500191851137
vn -0.500293224449676 -0.25465583640329026 0.8275609310228986
vn 0.1469209778923375 0.8980420857871552 0.4146500191851137
vn 0.9449113463259768 0.04096090870596153 -0.3247533703326448
vn -0.0001281303491773578 -0.9685945113379697 -0.2486456438158001
usemtl m_78ccab82-8b40-6d79-1111-aefe7a138bc1
f 59/153/39 57/154/39 58/155/39 60/156/39
f 63/157/40 61/158/40 62/159/40 64/160/40
f 49/161/41 50/162/41 54/163/41 53/164/41
f 52/165/42 51/166/42 55/167/42 56/168/42
f 51/169/43 49/170/43 53/171/43 55/172/43
f 56/173/44 54/174/44 50/175/44 52/176/44
f 57/177/45 59/178/45 52/179/45 50/180/45
f 58/181/46 57/182/46 50/183/46 49/184/46
f 60/185/47 58/186/47 49/187/47 51/188/47
f 59/189/48 60/190/48 51/191/48 52/192/48
f 61/193/49 63/194/49 55/195/49 53/196/49
f 62/197/50 61/198/50 53/199/50 54/200/50
f 64/201/51 62/202/51 54/203/51 56/204/51
f 63/205/52 64/206/52 56/207/52 55/208/52
o cube
v 1.1880107093398093 0.16137895834972782 0.7453832781332448
v 1.1684016376078696 0.1602083902832912 0.6038831815201343
v 1.1879628599027212 0.011384153359751247 0.7466307501570943
v 1.1683537881707817 0.010213585293314637 0.6051306535439838
v 0.543131466548018 0.16232786146861072 0.834742740616343
v 0.5235223948160784 0.1611572934021741 0.6932426440032325
v 0.54308361711093 0.012333056478634162 0.8359902126401924
v 0.5234745453789904 0.011162488412197552 0.694490116027082
v 1.3029276503022222 0.17831001919597028 0.5310056295409551
v 1.3372435258331166 0.18035851331223435 0.7786307986138985
v 1.3028678385058623 -0.009183487041500389 0.5325649695707668
v 1.3371837140367566 -0.00713499292523632 0.7801901386437102
v 0.4086174162129374 0.18172493380342575 0.90730842458956
v 0.3743015406820431 0.17967643968716168 0.6596832555166164
v 0.4085576044165774 -0.005768572434044921 0.9088677646193717
v 0.3742417288856831 -0.00781706655030899 0.6612425955464283
vt 0.5625 0.53125
vt 0.5625 0.625
vt 0.5 0.625
vt 0.5 0.53125
vt 0.640625 0.53125
vt 0.640625 0.625
vt 0.578125 0.625
vt 0.578125 0.53125
vt 0.6796875 0.9140625
vt 0.6796875 0.9765625
vt 0.5234375 0.9765625
vt 0.5234375 0.9140625
vt 0.7265625 0.7734375
vt 0.7265625 0.8359375
vt 0.5703125 0.8359375
vt 0.5703125 0.7734375
vt 0.65625 0.65625
vt 0.65625 0.71875
vt 0.5 0.71875
vt 0.5 0.65625
vt 0.828125 0.65625
vt 0.828125 0.71875
vt 0.671875 0.71875
vt 0.671875 0.65625
vt 0.5 0.84375
vt 0.5 0.765625
vt 0.515625 0.7734375
vt 0.515625 0.8359375
vt 0.69579375 0.890625
vt 0.69579375 1
vt 0.6796875 0.9765625
vt 0.6796875 0.9140625
vt 0.671875 0.546875
vt 0.671875 0.625
vt 0.65625 0.6171875
vt 0.65625 0.5546875
vt 0.7426671874999999 0.75
vt 0.7426671874999999 0.859375
vt 0.7265625 0.8359375
vt 0.7265625 0.7734375
vt 0.6875 0.625
vt 0.6875 0.546875
vt 0.703125 0.5546875
vt 0.703125 0.6171875
vt 0.50733125 1
vt 0.50733125 0.890625
vt 0.5234375 0.9140625
vt 0.5234375 0.9765625
vt 0.734375 0.921875
vt 0.734375 1
vt 0.71875 0.9921875
vt 0.71875 0.9296875
vt 0.5542078125000001 0.859375
vt 0.5542078125000001 0.75
vt 0.5703125 0.7734375
vt 0.5703125 0.8359375
vn 0.9905345169281913 -0.001457515190604157 -0.1372561343740388
vn -0.9905345169281913 0.001457515190604157 0.1372561343740388
vn 0.0003189962472534744 0.9999653665998435 -0.00831648015899613
vn -0.0003189962472534744 -0.9999653665998435 0.00831648015899613
vn 0.1372635021235772 0.008193976465056282 0.9905006762917736
vn -0.1372635021235772 -0.008193976465056282 -0.9905006762917736
vn -0.47557245234375634 -0.007164112295941568 -0.8796473827999245
vn -0.12825666588444057 0.991694834032858 0.009569942985699124
vn -0.21844256190004838 0.008185315907204555 0.9758154783328881
vn -0.12888926095391579 -0.9913164584304295 0.026062188237064597
vn 0.47557245234375634 0.007164112295941568 0.8796473827999245
vn 0.12888926095391579 0.9913164584304295 -0.026062188237064597
vn 0.21844256190004838 -0.008185315907204555 -0.9758154783328881
vn 0.12825666588444057 -0.991694834032858 -0.009569942985699124
usemtl m_78ccab82-8b40-6d79-1111-aefe7a138bc1
f 75/209/53 73/210/53 74/211/53 76/212/53
f 79/213/54 77/214/54 78/215/54 80/216/54
f 65/217/55 66/218/55 70/219/55 69/220/55
f 68/221/56 67/222/56 71/223/56 72/224/56
f 67/225/57 65/226/57 69/227/57 71/228/57
f 72/229/58 70/230/58 66/231/58 68/232/58
f 73/233/59 75/234/59 68/235/59 66/236/59
f 74/237/60 73/238/60 66/239/60 65/240/60
f 76/241/61 74/242/61 65/243/61 67/244/61
f 75/245/62 76/246/62 67/247/62 68/248/62
f 77/249/63 79/250/63 71/251/63 69/252/63
f 78/253/64 77/254/64 69/255/64 70/256/64
f 80/257/65 78/258/65 70/259/65 72/260/65
f 79/261/66 80/262/66 72/263/66 71/264/66
o cube
v 0.9468447273927282 0.084375 -0.028577915265845993
v 0.857898772205965 0.084375 -0.03635967801117265
v 0.9468447273927282 0.009375000000000001 -0.028577915265845993
v 0.857898772205965 0.009375000000000001 -0.03635967801117265
v 0.8969117497768822 0.084375 0.542158630515883
v 0.8079657945901191 0.084375 0.5343768677705563
v 0.8969117497768822 0.009375000000000001 0.542158630515883
v 0.8079657945901191 0.009375000000000001 0.5343768677705563
v 0.8336227622138102 0.09375 -0.14304812009189372
v 0.9892781837906452 0.09375 -0.12943003528757208
v 0.8336227622138102 0 -0.14304812009189372
v 0.9892781837906452 0 -0.12943003528757208
v 0.9239113767299014 0.09375 0.617715988281237
v 0.7682559551530662 0.09375 0.6040979034769153
v 0.9239113767299014 0 0.617715988281237
v 0.7682559551530662 0 0.6040979034769153
v 0.8390699961355388 0.09375 -0.2053102887226278
v 0.994725417712374 0.09375 -0.19169220391830616
v 0.8390699961355388 0 -0.2053102887226278
v 0.994725417712374 0 -0.19169220391830616
vt 0.5625 0.53125
vt 0.5625 0.625
vt 0.5 0.625
vt 0.5 0.53125
vt 0.640625 0.53125
vt 0.640625 0.625
vt 0.578125 0.625
vt 0.578125 0.53125
vt 0.6796875 0.9140625
vt 0.6796875 0.9765625
vt 0.5234375 0.9765625
vt 0.5234375 0.9140625
vt 0.7265625 0.7734375
vt 0.7265625 0.8359375
vt 0.5703125 0.8359375
vt 0.5703125 0.7734375
vt 0.65625 0.65625
vt 0.65625 0.71875
vt 0.5 0.71875
vt 0.5 0.65625
vt 0.828125 0.65625
vt 0.828125 0.71875
vt 0.671875 0.71875
vt 0.671875 0.65625
vt 0.5 0.84375
vt 0.5 0.765625
vt 0.515625 0.7734375
vt 0.515625 0.8359375
vt 0.69579375 0.890625
vt 0.69579375 1
vt 0.6796875 0.9765625
vt 0.6796875 0.9140625
vt 0.671875 0.546875
vt 0.671875 0.625
vt 0.65625 0.6171875
vt 0.65625 0.5546875
vt 0.7426671874999999 0.75
vt 0.7426671874999999 0.859375
vt 0.7265625 0.8359375
vt 0.7265625 0.7734375
vt 0.6875 0.625
vt 0.6875 0.546875
vt 0.703125 0.5546875
vt 0.703125 0.6171875
vt 0.50733125 1
vt 0.50733125 0.890625
vt 0.5234375 0.9140625
vt 0.5234375 0.9765625
vt 0.734375 0.921875
vt 0.734375 1
vt 0.71875 0.9921875
vt 0.71875 0.9296875
vt 0.5542078125000001 0.859375
vt 0.5542078125000001 0.75
vt 0.5703125 0.7734375
vt 0.5703125 0.8359375
vt 0.625 0.96875
vt 0.625 0.921875
vt 0.640625 0.921875
vt 0.640625 0.96875
vt 0.70703125 0.6640625
vt 0.74609375 0.6640625
vt 0.74609375 0.6953125
vt 0.70703125 0.6953125
vt 0.625 0.921875
vt 0.625 0.96875
vt 0.609375 0.96875
vt 0.609375 0.921875
vt 0.578125 0.921875
vt 0.578125 1
vt 0.5625 1
vt 0.5625 0.921875
vn 0.08715574274765849 0 -0.9961946980917457
vn -0.08715574274765849 0 0.9961946980917457
vn 0 1 0
vn 0 -1 0
vn 0.9961946980917457 0 0.08715574274765849
vn -0.9961946980917457 0 -0.08715574274765849
vn -0.9750762625908007 0 0.2218699667191486
vn -0.007812440277755748 0.9959744388432289 0.08929660098694724
vn 0.9217353477777852 0 0.38781947947075235
vn -0.007812440277755754 -0.9959744388432289 0.0892966009869473
vn 0.9416832503634346 0 -0.3365006032460521
vn 0.011114252187508068 0.9918357753074262 -0.12703648380929644
vn -0.8689442493021465 0 -0.49490998333507974
vn 0.011114252187508075 -0.9918357753074262 -0.12703648380929652
vn -0.9961946980917457 0 -0.08715574274765849
vn 0 1 0
vn 0.9961946980917457 0 0.08715574274765849
vn 0 -1 0
usemtl m_78ccab82-8b40-6d79-1111-aefe7a138bc1
f 99/265/67 97/266/67 98/267/67 100/268/67
f 95/269/68 93/270/68 94/271/68 96/272/68
f 81/273/69 82/274/69 86/275/69 85/276/69
f 84/277/70 83/278/70 87/279/70 88/280/70
f 83/281/71 81/282/71 85/283/71 87/284/71
f 88/285/72 86/286/72 82/287/72 84/288/72
f 89/289/73 91/290/73 84/291/73 82/292/73
f 90/293/74 89/294/74 82/295/74 81/296/74
f 92/297/75 90/298/75 81/299/75 83/300/75
f 91/301/76 92/302/76 83/303/76 84/304/76
f 93/305/77 95/306/77 87/307/77 85/308/77
f 94/309/78 93/310/78 85/311/78 86/312/78
f 96/313/79 94/314/79 86/315/79 88/316/79
f 95/317/80 96/318/80 88/319/80 87/320/80
f 97/321/81 99/322/81 91/323/81 89/324/81
f 98/325/82 97/326/82 89/327/82 90/328/82
f 100/329/83 98/330/83 90/331/83 92/332/83
f 99/333/84 100/334/84 92/335/84 91/336/84