# Made in Blockbench 4.12.5
mtllib arrow_slit_parent.mtl

o cuboid
v 1 0.9999999999999999 1
v 1 0.9999999999999999 0
v 1 -1.1102230246251565e-16 1
v 1 -1.1102230246251565e-16 0
v 0 0.9999999999999999 0
v 0 -1.1102230246251565e-16 0
v 0.875 0.9999999999999999 1
v 0.875 -1.1102230246251565e-16 1
v 0.625 0.9999999999999999 0
v 0.625 -1.1102230246251565e-16 0
v 0.125 0.9999999999999999 1
v 0.125 -1.1102230246251565e-16 1
v 0.375 0.9999999999999999 0
v 0.375 -1.1102230246251565e-16 0
v 0 0.9999999999999999 1
v 0 -1.1102230246251565e-16 1
v 0.625 0.9999999999999999 0.24999999999999994
v 0.625 -1.1102230246251565e-16 0.24999999999999994
v 0.375 -1.1102230246251565e-16 0.25
v 0.375 0.9999999999999999 0.25
v 0.125 0.9999999999999999 0.25
v 0.125 -1.1102230246251565e-16 0.25
v 0.8750000000000001 -1.1102230246251565e-16 0.24999999999999994
v 0.8750000000000001 0.9999999999999999 0
v 0.8750000000000001 0.9999999999999999 0.24999999999999994
v 0.375 0.9999999999999999 0.25
v 0.8750000000000001 -1.1102230246251565e-16 0
v 0.125 -1.1102230246251565e-16 0
v 0.125 0.9999999999999999 0
vt 1 1
vt 0.9166666666666666 1
vt 0.9166666666666666 0.6666666666666667
vt 1 0.6666666666666667
vt 0.7916666666666666 0.75
vt 0.7291666666666666 0.75
vt 0.7291666666666666 0.6666666666666667
vt 0.7916666666666666 0.6666666666666667
vt 0.9166666666666666 0.6666666666666667
vt 0.9166666666666666 1
vt 1 1
vt 1 0.6666666666666667
vt 0.9375 1
vt 0.9375 0.6666666666666667
vt 0.6875 0.6666666666666667
vt 0.6875 1
vt 1 1
vt 0.6666666666666666 1
vt 0.6666666666666666 0.6666666666666667
vt 1 0.6666666666666667
vt 0.875000000000001 0.6666666666666672
vt 0.9583333333333343 0.6666666666666672
vt 0.9583333333333343 0.7500000000000004
vt 0.875000000000001 0.7500000000000004
vt 0.9583333333333343 1
vt 0.875000000000001 0.75
vt 0.9583333333333343 0.75
vt 0.6666666666666666 0.6666666666666667
vt 1 0.6666666666666667
vt 1 1
vt 0.6666666666666666 1
vt 0.7291666666666666 0.75
vt 0.7916666666666666 0.75
vt 0.7916666666666666 1
vt 0.6875 0.6666666666666667
vt 0.9375 0.6666666666666667
vt 0.9375 1
vt 0.6875 1
vt 0.812500000000001 0.9166666666666662
vt 0.7291666666666675 0.9166666666666662
vt 0.7291666666666675 0.6666666666666663
vt 0.6666666666666666 0.6666666666666667
vt 0.7083333333333334 0.6666666666666667
vt 0.7083333333333334 1
vt 0.6666666666666666 1
vt 0.7083333333333334 1
vt 0.6666666666666666 1
vt 0.6666666666666666 0.6666666666666667
vt 0.7083333333333334 0.6666666666666667
vt 1 1
vt 0.9583333333333334 1
vt 0.9583333333333334 0.6666666666666667
vt 1 0.6666666666666667
vt 0.7083333333333334 1
vt 0.6666666666666666 1
vt 0.6666666666666666 0.6666666666666667
vt 0.7083333333333334 0.6666666666666667
vt 1 1
vt 0.9583333333333334 1
vt 0.9583333333333334 0.6666666666666667
vt 1 0.6666666666666667
vt 0.9583333333333334 0.6666666666666667
vt 1 0.6666666666666667
vt 1 1
vt 0.9583333333333334 1
vt 0.6666666666666666 0.6666666666666667
vt 0.7083333333333334 0.6666666666666667
vt 0.7083333333333334 1
vt 0.6666666666666666 1
vt 0.9583333333333343 0.6666666666666663
vt 0.9583333333333343 0.9166666666666662
vt 0.8750000000000013 0.9166666666666662
vt 0.9583333333333334 0.6666666666666667
vt 1 0.6666666666666667
vt 1 1
vt 0.9583333333333334 1
vt 0.875 0.9166666666666666
vt 0.958333333333333 0.9166666666666666
vt 0.958333333333333 1
vt 0.875 1
vt 0.8125 1
vt 0.7291666666666666 1
vt 0.7291666666666666 0.9166666666666666
vt 0.8125 0.9166666666666666
vt 0.8125 1
vt 0.7291666666666666 1
vt 0.7291666666666666 0.6666666666666667
vt 0.8125 0.6666666666666667
vt 0.875 0.6666666666666667
vt 0.9583333333333334 0.6666666666666667
vt 0.9583333333333334 1
vt 0.875 1
vn 1 0 0
vn 0 -1 0
vn -1 0 0
vn -0.948683298050514 0 0.316227766016838
vn 1 0 0
vn 0 -1 0
vn 0 -1 0
vn -1 0 0
vn 0 -1 0
vn 0.948683298050514 0 0.316227766016838
vn 0 1 0
vn 0 0 1
vn 0 1 0
vn 0 0 -1
vn 0 -1 0
vn 0 0 1
vn 0 -1 0
vn 0 0 -1
vn 0 1 0
vn 0 1 0
vn 0 1 0
vn 0 1 0
vn 0 0 -1
vn 0 0 -1
usemtl m_a1666a74-7a9b-e9c1-c835-47977ed7d9ee
f 13/1/1 20/2/1 19/3/1 14/4/1
f 19/5/2 22/6/2 28/7/2 14/8/2
f 18/9/3 17/10/3 9/11/3 10/12/3
f 17/13/4 18/14/4 8/15/4 7/16/4
f 2/17/5 1/18/5 3/19/5 4/20/5
f 10/21/6 27/22/6 23/23/6 18/24/6
f 8/25/7 18/26/7 23/27/7
f 6/28/8 16/29/8 15/30/8 5/31/8
f 22/32/9 19/33/9 12/34/9
f 12/35/10 19/36/10 20/37/10 11/38/10
f 20/39/11 21/40/11 11/41/11
f 16/42/12 12/43/12 11/44/12 15/45/12
f 29/46/13 5/47/13 15/48/13 11/49/13
f 5/50/14 29/51/14 28/52/14 6/53/14
f 12/54/15 16/55/15 6/56/15 28/57/15
f 1/58/16 7/59/16 8/60/16 3/61/16
f 27/62/17 4/63/17 3/64/17 8/65/17
f 4/66/18 27/67/18 24/68/18 2/69/18
f 7/70/19 25/71/19 17/72/19
f 7/73/20 1/74/20 2/75/20 24/76/20
f 17/77/21 25/78/21 24/79/21 9/80/21
f 13/81/22 29/82/22 21/83/22 20/84/22
f 9/85/23 24/86/23 27/87/23 10/88/23
f 14/89/24 28/90/24 29/91/24 13/92/24