# Made in Blockbench 4.8.3
mtllib blade1x2_decorational.mtl

o plane
v 0.5000000000000001 0 1
v 0.5000000000000001 0 0
v 0.4999999999999997 0.11250000000000004 1
v 0.49999999999999967 2.0625 0
v 0.4999999999999997 1 0.5
v 0.5000000000000001 0 0.5
v 0.4999999999999997 0.22499999999999998 0.75
v 0.5000000000000001 0 0.75
v 0.4999999999999997 1.1078124999999996 0.1875
v 0.5000000000000001 0 0.1875
v 0.49999999999999967 1.5 0.0625
v 0.5000000000000001 0 0.0625
v 0.4999999999999997 0.15000000000000002 0.875
v 0.5000000000000001 0 0.875
v 0.4999999999999997 0.48749999999999993 0.625
v 0.5000000000000001 0 0.625
v 0.4999999999999997 0.9953125 0.34375
v 0.5000000000000001 0 0.34375
vt 0.3125 0.6583333333333334
vt 0.3125 0.7083333333333333
vt 0.3541666666666667 0.7083333333333333
vt 0.3541666666666667 0.6708333333333334
vt 0.8333333333333334 0.6682291666666667
vt 0.8333333333333334 1
vt 0.8854166666666666 1
vt 0.8854166666666666 0.6666666666666667
vt 0.3125 0.5
vt 0.3125 1
vt 0.3541666666666667 1
vt 0.3541666666666667 0.6307291666666666
vt 0.16666666666666666 0.6291666666666667
vt 0.16666666666666666 0.7916666666666666
vt 0.20833333333333334 0.7916666666666666
vt 0.20833333333333334 0.7166666666666667
vt 0.33333262844140904 0.7291658229313167
vt 0.1708330742085803 0.7291658229313167
vt 0 0.7708293740276004
vt 0.3333333418514857 0.7708333333333334
vt 0.24166679079877876 0.5833321912661384
vt 0.1916665737853608 0.5833321912661384
vt 0.16666666666666666 0.625
vt 0.24166699218679358 0.625
vt 0.7916665487136422 0.9374987012368373
vt 0.2916666725634838 0.9374987012368375
vt 0.10416666666666667 0.9583333333333334
vt 0.7916654481838555 0.9583331005554976
vt 0.7234384569649612 0.8437477060574644
vt 0.3916682410183876 0.8437477060574646
vt 0.3541666666666667 0.8958321618633357
vt 0.7234376062569418 0.8958333333333334
vt 0.7916665487136422 0.9374987012368373
vt 0.2916666725634838 0.9374987012368375
vt 0.10416666666666667 0.9583333333333334
vt 0.7916654481838555 0.9583331005554976
vt 0.4375 0.5
vt 0.4375 1
vt 0.4791666666666667 1
vt 0.4791666666666667 0.6307291666666666
vt 0.2000001241321121 0.5624988579328052
vt 0.14999990711869418 0.5624988579328052
vt 0.125 0.6041666666666667
vt 0.20000032552012692 0.6041666666666667
vt 0.3125 0.6583333333333334
vt 0.3125 0.7083333333333333
vt 0.3541666666666667 0.7083333333333333
vt 0.3541666666666667 0.6708333333333334
vt 0.33333262844140904 0.7499991562646502
vt 0.1708330742085803 0.7499991562646502
vt 0 0.7916627073609338
vt 0.3333333418514857 0.7916666666666666
vt 0.14583333333333334 0.6083333333333334
vt 0.14583333333333334 0.7708333333333334
vt 0.1875 0.7708333333333334
vt 0.1875 0.6958333333333333
vt 0.49427179029829454 0.822914372724131
vt 0.16250157435172088 0.8229143727241314
vt 0.125 0.8749988285300024
vt 0.4942709395902751 0.875
vt 0.8125 0.6682291666666667
vt 0.8125 1
vt 0.8645833333333334 1
vt 0.8645833333333334 0.6666666666666667
vt 0.3541666666666667 0.7083333333333333
vt 0.3125 0.7083333333333333
vt 0.3125 0.6583333333333334
vt 0.3541666666666667 0.6708333333333334
vt 0.8854166666666666 1
vt 0.8333333333333334 1
vt 0.8333333333333334 0.6682291666666667
vt 0.8854166666666666 0.6666666666666667
vt 0.3541666666666667 1
vt 0.3125 1
vt 0.3125 0.5
vt 0.3541666666666667 0.6307291666666666
vt 0.20833333333333334 0.7916666666666666
vt 0.16666666666666666 0.7916666666666666
vt 0.16666666666666666 0.6291666666666667
vt 0.20833333333333334 0.7166666666666667
vt 0 0.7708293740276004
vt 0.1708330742085803 0.7291658229313167
vt 0.33333262844140904 0.7291658229313167
vt 0.3333333418514857 0.7708333333333334
vt 0.16666666666666666 0.625
vt 0.1916665737853608 0.5833321912661384
vt 0.24166679079877876 0.5833321912661384
vt 0.24166699218679358 0.625
vt 0.10416666666666667 0.9583333333333334
vt 0.2916666725634838 0.9374987012368375
vt 0.7916665487136422 0.9374987012368373
vt 0.7916654481838555 0.9583331005554976
vt 0.3541666666666667 0.8958321618633357
vt 0.3916682410183876 0.8437477060574646
vt 0.7234384569649612 0.8437477060574644
vt 0.7234376062569418 0.8958333333333334
vt 0.10416666666666667 0.9583333333333334
vt 0.2916666725634838 0.9374987012368375
vt 0.7916665487136422 0.9374987012368373
vt 0.7916654481838555 0.9583331005554976
vt 0.4791666666666667 1
vt 0.4375 1
vt 0.4375 0.5
vt 0.4791666666666667 0.6307291666666666
vt 0.125 0.6041666666666667
vt 0.14999990711869418 0.5624988579328052
vt 0.2000001241321121 0.5624988579328052
vt 0.20000032552012692 0.6041666666666667
vt 0.3541666666666667 0.7083333333333333
vt 0.3125 0.7083333333333333
vt 0.3125 0.6583333333333334
vt 0.3541666666666667 0.6708333333333334
vt 0 0.7916627073609338
vt 0.1708330742085803 0.7499991562646502
vt 0.33333262844140904 0.7499991562646502
vt 0.3333333418514857 0.7916666666666666
vt 0.1875 0.7708333333333334
vt 0.14583333333333334 0.7708333333333334
vt 0.14583333333333334 0.6083333333333334
vt 0.1875 0.6958333333333333
vt 0.125 0.8749988285300024
vt 0.16250157435172088 0.8229143727241314
vt 0.49427179029829454 0.822914372724131
vt 0.4942709395902751 0.875
vt 0.8645833333333334 1
vt 0.8125 1
vt 0.8125 0.6682291666666667
vt 0.8645833333333334 0.6666666666666667
vn -1 -2.5624756945970733e-15 0
vn -1 -3.9758663830252736e-16 0
vn -1 -2.821816854255606e-16 0
vn -1 -8.085145800725751e-16 0
vn -1 -8.085145800725751e-16 -3.303981020398904e-15
vn -1 -2.5624756945970733e-15 -1.4701781458903432e-15
vn -1 -2.821816854255606e-16 -2.095545958979983e-15
vn -1 -3.9758663830252736e-16 -2.1277949313544165e-16
vn -1 -2.821816854255606e-16 -2.095545958979983e-15
vn -1 -2.821816854255606e-16 0
vn -1 -2.5624756945970733e-15 -1.4701781458903432e-15
vn -1 -2.5624756945970733e-15 0
vn -1 -8.085145800725751e-16 -3.303981020398904e-15
vn -1 -8.085145800725751e-16 0
vn -1 -3.9758663830252736e-16 -2.1277949313544165e-16
vn -1 -3.9758663830252736e-16 0
vn 1 2.5624756945970733e-15 0
vn 1 3.9758663830252736e-16 0
vn 1 2.821816854255606e-16 0
vn 1 8.085145800725751e-16 0
vn 1 8.085145800725751e-16 3.303981020398904e-15
vn 1 2.5624756945970733e-15 1.470178145890343e-15
vn 1 2.821816854255606e-16 2.095545958979983e-15
vn 1 3.9758663830252736e-16 2.127794931354418e-16
vn 1 2.821816854255606e-16 2.095545958979983e-15
vn 1 2.821816854255606e-16 0
vn 1 2.5624756945970733e-15 1.470178145890343e-15
vn 1 2.5624756945970733e-15 0
vn 1 8.085145800725751e-16 3.303981020398904e-15
vn 1 8.085145800725751e-16 0
vn 1 3.9758663830252736e-16 2.127794931354418e-16
vn 1 3.9758663830252736e-16 0
usemtl m_951e95ec-f1fe-2fb6-096d-b475b7c8df9a
f 13/1/1 14/2/1 1/3/1 3/4/1
f 17/5/2 18/6/2 6/7/2 5/8/2
f 11/9/3 12/10/3 10/11/3 9/12/3
f 15/13/4 16/14/4 8/15/4 7/16/4
f 16/17/5 15/18/5 5/19/5 6/20/5
f 14/21/6 13/22/6 7/23/6 8/24/6
f 12/25/7 11/26/7 4/27/7 2/28/7
f 18/29/8 17/30/8 9/31/8 10/32/8
f 12/33/9 11/34/9 4/35/9 2/36/9
f 11/37/10 12/38/10 10/39/10 9/40/10
f 14/41/11 13/42/11 7/43/11 8/44/11
f 13/45/12 14/46/12 1/47/12 3/48/12
f 16/49/13 15/50/13 5/51/13 6/52/13
f 15/53/14 16/54/14 8/55/14 7/56/14
f 18/57/15 17/58/15 9/59/15 10/60/15
f 17/61/16 18/62/16 6/63/16 5/64/16
f 1/65/17 14/66/17 13/67/17 3/68/17
f 6/69/18 18/70/18 17/71/18 5/72/18
f 10/73/19 12/74/19 11/75/19 9/76/19
f 8/77/20 16/78/20 15/79/20 7/80/20
f 5/81/21 15/82/21 16/83/21 6/84/21
f 7/85/22 13/86/22 14/87/22 8/88/22
f 4/89/23 11/90/23 12/91/23 2/92/23
f 9/93/24 17/94/24 18/95/24 10/96/24
f 4/97/25 11/98/25 12/99/25 2/100/25
f 10/101/26 12/102/26 11/103/26 9/104/26
f 7/105/27 13/106/27 14/107/27 8/108/27
f 1/109/28 14/110/28 13/111/28 3/112/28
f 5/113/29 15/114/29 16/115/29 6/116/29
f 8/117/30 16/118/30 15/119/30 7/120/30
f 9/121/31 17/122/31 18/123/31 10/124/31
f 6/125/32 18/126/32 17/127/32 5/128/32