# Made in Blockbench 4.8.3
mtllib bones.mtl

o cube
v 0.4135610351228771 0.25 0.32226197550616376
v 0.38092948706786434 0.25 0.07440076016271113
v 0.4135610351228771 0 0.32226197550616376
v 0.38092948706786434 0 0.07440076016271113
v 0.1330682717244117 0.25 0.10703230821772403
v 0.1656998197794246 0.25 0.35489352356117665
v 0.1330682717244117 0 0.10703230821772403
v 0.1656998197794246 0 0.35489352356117665
vt 0.171875 0.23333333333333328
vt 0.265625 0.23333333333333328
vt 0.265625 0.033333333333333326
vt 0.171875 0.033333333333333326
vt 0.1875 0.4
vt 0.125 0.4
vt 0.125 0.2666666666666667
vt 0.1875 0.2666666666666667
vt 0.046875 0.4
vt 0.109375 0.4
vt 0.109375 0.2666666666666667
vt 0.046875 0.2666666666666667
vt 0.125 0.4
vt 0.1875 0.4
vt 0.1875 0.2666666666666667
vt 0.125 0.2666666666666667
vt 0.203125 0.4
vt 0.265625 0.4
vt 0.265625 0.2666666666666667
vt 0.203125 0.2666666666666667
vt 0.203125 0.4
vt 0.265625 0.4
vt 0.265625 0.2666666666666667
vt 0.203125 0.2666666666666667
vn -0.13052619222005157 0 -0.9914448613738104
vn 0.9914448613738104 0 -0.13052619222005157
vn 0.13052619222005157 0 0.9914448613738104
vn -0.9914448613738104 0 0.13052619222005157
vn 0 1 0
vn 0 -1 0
usemtl m_feedc447-d14b-1e24-f89b-214032a4494b
f 4/4/1 7/3/1 5/2/1 2/1/1
f 3/8/2 4/7/2 2/6/2 1/5/2
f 8/12/3 3/11/3 1/10/3 6/9/3
f 7/16/4 8/15/4 6/14/4 5/13/4
f 6/20/5 1/19/5 2/18/5 5/17/5
f 7/24/6 4/23/6 3/22/6 8/21/6
o cube
v 0.41574523679041775 0.08125 0.6208132938682638
v 0.9788861141556919 0.10625 0.3462019052838328
v 0.41574523679041775 0 0.6208132938682638
v 0.9788861141556919 0 0.3462019052838328
v 0.36887023679041775 0.08125 0.5396234122634727
v 0.9101361141556918 0.10625 0.22712341226347255
v 0.36887023679041775 0 0.5396234122634727
v 0.9101361141556918 0 0.22712341226347255
v 0.848757938682637 0.08125 0.37081329386826367
v 0.848757938682637 0 0.37081329386826367
v 0.801882938682637 0 0.28962341226347255
v 0.801882938682637 0.08125 0.28962341226347255
vt 0.453125 0.6
vt 0.578125 0.6
vt 0.578125 0.6666666666666667
vt 0.453125 0.6666666666666667
vt 0.625 0.8333333333333334
vt 0.5 0.8333333333333334
vt 0.5 0.7666666666666666
vt 0.625 0.7666666666666666
vt 0.46875 0.6333333333333333
vt 0.46875 0.9
vt 0.4375 0.9
vt 0.4375 0.6333333333333333
vt 0.46875 0.9
vt 0.46875 0.6333333333333333
vt 0.4921875 0.6333333333333333
vt 0.4921875 0.9
vt 0.6171875 0.6566666666666666
vt 0.6171875 0.7
vt 0.59375 0.7
vt 0.59375 0.6566666666666666
vt 0.534375 0.5433333333333333
vt 0.534375 0.6
vt 0.5 0.6
vt 0.5 0.5433333333333333
vt 0.5643578125 0.9333333333333333
vt 0.53125 0.92
vt 0.53125 0.8766666666666667
vt 0.5643578125 0.8766666666666667
vt 0.55 0.7
vt 0.5390625 0.7666666666666666
vt 0.515625 0.7666666666666666
vt 0.515625 0.7
vt 0.515625 0.7433333333333334
vt 0.546875 0.7433333333333334
vt 0.546875 0.7866666666666666
vt 0.515625 0.8
vt 0.546875 0.7666666666666666
vt 0.546875 0.69868
vt 0.5703125 0.69868
vt 0.58125 0.7666666666666666
vn 0.5000000000000001 0 0.8660254037844386
vn -0.5000000000000001 0 -0.8660254037844386
vn 0 1 0
vn 0 -1 0
vn -0.8660254037844386 0 0.5000000000000001
vn 0.8660254037844386 0 -0.5000000000000001
vn 0.18583731821748994 0 0.9825805265512498
vn 0 -1 0
vn -0.5000000000000001 0 -0.8660254037844386
vn -0.1698415551216893 0.9805806756909202 0.09805806756909202
usemtl m_feedc447-d14b-1e24-f89b-214032a4494b
f 11/25/7 18/26/7 17/27/7 9/28/7
f 13/29/8 20/30/8 19/31/8 15/32/8
f 9/33/9 17/34/9 20/35/9 13/36/9
f 15/37/10 19/38/10 18/39/10 11/40/10
f 11/41/11 9/42/11 13/43/11 15/44/11
f 16/45/12 14/46/12 10/47/12 12/48/12
f 10/49/13 17/50/13 18/51/13 12/52/13
f 12/53/14 18/54/14 19/55/14 16/56/14
f 16/57/15 19/58/15 20/59/15 14/60/15
f 14/61/16 20/62/16 17/63/16 10/64/16
o cube
v 0.3709936490538903 0.11250000000000004 0.6683012701892221
v 0.4792468245269452 0.11250000000000004 0.6058012701892219
v 0.3709936490538903 0 0.6683012701892221
v 0.4792468245269452 0 0.6058012701892219
v 0.4167468245269452 0.11250000000000004 0.49754809471616723
v 0.3084936490538903 0.11250000000000004 0.5600480947161672
v 0.4167468245269452 0 0.49754809471616723
v 0.3084936490538903 0 0.5600480947161672
vt 0.484375 0.8333333333333334
vt 0.515625 0.8333333333333334
vt 0.515625 0.7733333333333333
vt 0.484375 0.7733333333333333
vt 0.390625 0.7333333333333334
vt 0.421875 0.7333333333333334
vt 0.421875 0.6733333333333333
vt 0.390625 0.6733333333333333
vt 0.484375 0.9333333333333333
vt 0.515625 0.9333333333333333
vt 0.515625 0.8733333333333333
vt 0.484375 0.8733333333333333
vt 0.421875 0.9333333333333333
vt 0.453125 0.9333333333333333
vt 0.453125 0.8733333333333333
vt 0.421875 0.8733333333333333
vt 0.484375 0.7333333333333334
vt 0.515625 0.7333333333333334
vt 0.515625 0.6666666666666667
vt 0.484375 0.6666666666666667
vt 0.546875 0.9
vt 0.578125 0.9
vt 0.578125 0.8333333333333334
vt 0.546875 0.8333333333333334
vn 0.8660254037844386 0 -0.5000000000000001
vn 0.5000000000000001 0 0.8660254037844386
vn -0.8660254037844386 0 0.5000000000000001
vn -0.5000000000000001 0 -0.8660254037844386
vn 0 1 0
vn 0 -1 0
usemtl m_feedc447-d14b-1e24-f89b-214032a4494b
f 24/68/17 27/67/17 25/66/17 22/65/17
f 23/72/18 24/71/18 22/70/18 21/69/18
f 28/76/19 23/75/19 21/74/19 26/73/19
f 27/80/20 28/79/20 26/78/20 25/77/20
f 26/84/21 21/83/21 22/82/21 25/81/21
f 27/88/22 24/87/22 23/86/22 28/85/22
o cube
v 0.6553254563772689 0.1689915327763803 0.32668589132472947
v 0.3291228556475418 0.11215133016626122 0.8591566577940284
v 0.6614083796672229 0.08843663778975822 0.31799857655301655
v 0.3370774476420969 0.006810313645293879 0.8477963230925576
v 0.7384226755431141 0.17058875966908016 0.3700605790257
v 0.45099877709078146 0.1144939296088877 0.9227728664221184
v 0.744505598833068 0.09003386468245808 0.361373264253987
v 0.45895336908533657 0.00915291308792035 0.9114125317206476
v 0.4268836725790838 0.10428677150075012 0.766717305298058
v 0.43296659586903763 0.02373187651412803 0.758029990526345
v 0.5160638150348829 0.025329103406827896 0.8014046782273154
v 0.509980891744929 0.10588399839344999 0.8100919929990285
vt 0.453125 0.6
vt 0.578125 0.6
vt 0.578125 0.6666666666666667
vt 0.453125 0.6666666666666667
vt 0.625 0.8333333333333334
vt 0.5 0.8333333333333334
vt 0.5 0.7666666666666666
vt 0.625 0.7666666666666666
vt 0.46875 0.6333333333333333
vt 0.46875 0.9
vt 0.4375 0.9
vt 0.4375 0.6333333333333333
vt 0.46875 0.9
vt 0.46875 0.6333333333333333
vt 0.4921875 0.6333333333333333
vt 0.4921875 0.9
vt 0.6171875 0.6566666666666666
vt 0.6171875 0.7
vt 0.59375 0.7
vt 0.59375 0.6566666666666666
vt 0.534375 0.5433333333333333
vt 0.534375 0.6
vt 0.5 0.6
vt 0.5 0.5433333333333333
vt 0.5643578125 0.9333333333333333
vt 0.53125 0.92
vt 0.53125 0.8766666666666667
vt 0.5643578125 0.8766666666666667
vt 0.55 0.7
vt 0.5390625 0.7666666666666666
vt 0.515625 0.7666666666666666
vt 0.515625 0.7
vt 0.515625 0.7433333333333334
vt 0.546875 0.7433333333333334
vt 0.546875 0.7866666666666666
vt 0.515625 0.8
vt 0.546875 0.7666666666666666
vt 0.546875 0.69868
vt 0.5703125 0.69868
vt 0.58125 0.7666666666666666
vn -0.8863703377690157 -0.017037086855465275 -0.4626633354770187
vn 0.8863703377690157 0.017037086855465275 0.4626633354770187
vn -0.07486674818404822 0.9914448613738105 0.10692079719031355
vn 0.07486674818404822 -0.9914448613738105 -0.10692079719031355
vn 0.4568835675963705 0.12940952255126037 -0.8800628279466571
vn -0.4568835675963705 -0.12940952255126037 0.8800628279466571
vn -0.6856763695315016 0.02666989394200576 -0.7274177843737547
vn 0.07486674818404822 -0.9914448613738105 -0.10692079719031355
vn 0.8863703377690157 0.017037086855465275 0.4626633354770187
vn 0.016189352964049483 0.9975709674890527 -0.06775005294138954
usemtl m_feedc447-d14b-1e24-f89b-214032a4494b
f 31/89/23 38/90/23 37/91/23 29/92/23
f 33/93/24 40/94/24 39/95/24 35/96/24
f 29/97/25 37/98/25 40/99/25 33/100/25
f 35/101/26 39/102/26 38/103/26 31/104/26
f 31/105/27 29/106/27 33/107/27 35/108/27
f 36/109/28 34/110/28 30/111/28 32/112/28
f 30/113/29 37/114/29 38/115/29 32/116/29
f 32/117/30 38/118/30 39/119/30 36/120/30
f 36/121/31 39/122/31 40/123/31 34/124/31
f 34/125/32 40/126/32 37/127/32 30/128/32
o cube
v 0.6649216496381216 0.20774283447522568 0.26634830195006665
v 0.6078112036885752 0.1915666441563182 0.37635615544339873
v 0.6733441588088269 0.09620528757067204 0.25431971226615646
v 0.6162337128592807 0.08002909725176444 0.36432756575948855
v 0.7186074959097022 0.19369628001325134 0.43418907237802606
v 0.7757179418592486 0.20987247033215883 0.324181218884694
v 0.7270300050804077 0.08215873310869759 0.4221604826941159
v 0.7841404510299539 0.09833492342760519 0.3121526292007837
vt 0.484375 0.8333333333333334
vt 0.515625 0.8333333333333334
vt 0.515625 0.7733333333333333
vt 0.484375 0.7733333333333333
vt 0.390625 0.7333333333333334
vt 0.421875 0.7333333333333334
vt 0.421875 0.6733333333333333
vt 0.390625 0.6733333333333333
vt 0.484375 0.9333333333333333
vt 0.515625 0.9333333333333333
vt 0.515625 0.8733333333333333
vt 0.484375 0.8733333333333333
vt 0.421875 0.9333333333333333
vt 0.453125 0.9333333333333333
vt 0.453125 0.8733333333333333
vt 0.421875 0.8733333333333333
vt 0.484375 0.7333333333333334
vt 0.515625 0.7333333333333334
vt 0.515625 0.6666666666666667
vt 0.484375 0.6666666666666667
vt 0.546875 0.9
vt 0.578125 0.9
vt 0.578125 0.8333333333333334
vt 0.546875 0.8333333333333334
vn -0.4568835675963705 -0.12940952255126037 0.8800628279466571
vn -0.8863703377690157 -0.017037086855465275 -0.4626633354770187
vn 0.4568835675963705 0.12940952255126037 -0.8800628279466571
vn 0.8863703377690157 0.017037086855465275 0.4626633354770187
vn -0.07486674818404822 0.9914448613738105 0.10692079719031355
vn 0.07486674818404822 -0.9914448613738105 -0.10692079719031355
usemtl m_feedc447-d14b-1e24-f89b-214032a4494b
f 44/132/33 47/131/33 45/130/33 42/129/33
f 43/136/34 44/135/34 42/134/34 41/133/34
f 48/140/35 43/139/35 41/138/35 46/137/35
f 47/144/36 48/143/36 46/142/36 45/141/36
f 46/148/37 41/147/37 42/146/37 45/145/37
f 47/152/38 44/151/38 43/150/38 48/149/38