# Made in Blockbench 4.8.3
mtllib corbel_large_top.mtl

o cuboid_selection
v 0.8125 0 1
v 0.65625 0 -1
v 0.1875 0 1
v 0.34375 0 -1
v 0.22656261233907649 0 0.49999856205982063
v 0.2656251872316865 0 -0.0000023965655870927804
v 0.30468770595465056 0 -0.5000026362195268
v 0.7734373876609235 0 0.49999856205982063
v 0.7343748127683135 0 -0.0000023965655870927804
v 0.6953122940453494 0 -0.5000026362195268
v 0.3242188529773253 0 -0.7500013181097633
v 0.6757811470226747 0 -0.7500013181097633
v 0.20703130616953824 0 0.7499992810299103
v 0.7929686938304618 0 0.7499992810299103
v 0.8125 0.8125 1
v 0.5562498945511077 2.0708903818066426 -1.1940740330244484
v 0.1875 0.8125 1
v 0.44375010544889226 2.0708903818066426 -1.1940740330244484
v 0.22656261233907649 0.6875 0.49999856205982063
v 0.2656251872316865 0.6875 -0.0000023965655870927804
v 0.42968770595465056 2.1791096181933574 -0.8934286031950791
v 0.7734373876609235 0.6875 0.49999856205982063
v 0.7343748127683135 0.6875 -0.0000023965655870927804
v 0.5703122940453494 2.1791096181933574 -0.8934286031950791
v 0.43671890570177146 2.125 -1.0437513181097633
v 0.5632810942982286 2.125 -1.0437513181097633
v 0.20703130616953824 0.8125 0.7499992810299103
v 0.7929686938304618 0.8125 0.7499992810299103
v 0.34375 1 -1
v 0.3242188529773253 1 -0.7500013181097633
v 0.30468770595465056 1 -0.5000026362195268
v 0.2656251872316865 0.4375 -0.0000023965655870927804
v 0.22656261233907649 0.4375 0.49999856205982063
v 0.20703130616953824 0.4375 0.7499992810299103
v 0.1875 0.4375 1
v 0.8125 0.4375 1
v 0.7929686938304618 0.4375 0.7499992810299103
v 0.7734373876609235 0.4375 0.49999856205982063
v 0.7343748127683135 0.4375 -0.0000023965655870927804
v 0.6953122940453494 1 -0.5000026362195268
v 0.6757811470226747 1 -0.7500013181097633
v 0.65625 1 -1
v 0.6835935534068315 1.4333048090966787 -0.5717154998803331
v 0.3164064465931685 1.4333048090966787 -0.5717154998803331
v 0.2851564465931685 0.71875 -0.25000251639255694
v 0.2851564465931685 0 -0.25000251639255694
v 0.7148435534068315 0 -0.25000251639255694
v 0.7148435534068315 0.71875 -0.25000251639255694
vt 0.5611328125 0.913184375
vt 0.562890625 0.953125
vt 0.53125 0.953125
vt 0.5330078125 0.913184375
vt 0.6259765625 0.25824843750000004
vt 0.630859375 0.328125
vt 0.484375 0.328125
vt 0.4892578125 0.25824843750000004
vt 0.57421875 0.3125
vt 0.564453125 0.4375
vt 0.447265625 0.4375
vt 0.4375 0.3125
vt 0.5595703125 0.75
vt 0.53125 0.546940625
vt 0.623046875 0.546940625
vt 0.5947265625 0.75
vt 0.6875 0.953125
vt 0.6892578125 0.9131843749999999
vt 0.7208984375 0.9131843749999999
vt 0.72265625 0.953125
vt 0.578125 0.03125
vt 0.5732421875 0.09375
vt 0.4267578125 0.09375
vt 0.421875 0.03125
vt 0.609565625 0.453125
vt 0.609565625 0.703125
vt 0.546875 0.703125
vt 0.546875 0.453125
vt 0.5156250000000001 0.46875
vt 0.5156250000000001 0.71875
vt 0.5783156250000001 0.71875
vt 0.5783156250000001 0.46875
vt 0.359375 0.671875
vt 0.359375 0.921875
vt 0.28125 0.921875
vt 0.28125 0.671875
vt 0.937690625 0.46875
vt 0.937690625 0.578125
vt 0.875 0.578125
vt 0.875 0.46875
vt 0.8750000000000001 0.46875
vt 0.8750000000000001 0.578125
vt 0.9376906250000001 0.578125
vt 0.9376906250000001 0.46875
vt 0.75 0.46875
vt 0.75 0.578125
vt 0.87538125 0.578125
vt 0.87538125 0.46875
vt 0.87538125 0.46875
vt 0.87538125 0.578125
vt 0.75 0.578125
vt 0.75 0.46875
vt 0.6250000000000001 0.71875
vt 0.6876906250000001 0.6484375
vt 0.6876906250000001 0.46875
vt 0.6250000000000001 0.46875
vt 0.671875 0.453125
vt 0.734565625 0.453125
vt 0.734565625 0.6328125
vt 0.671875 0.703125
vt 0.640815625 0.46875
vt 0.640815625 0.71875
vt 0.578125 0.71875
vt 0.578125 0.46875
vt 0.672065625 0.453125
vt 0.672065625 0.703125
vt 0.609375 0.703125
vt 0.609375 0.453125
vt 0.9375 0.46875
vt 0.9375 0.578125
vt 1.000190625 0.578125
vt 1.000190625 0.46875
vt 1.000190625 0.46875
vt 1.000190625 0.578125
vt 0.9375 0.578125
vt 0.9375 0.46875
vt 0.328125 0.390625
vt 0.328125 0.5
vt 0.171875 0.5
vt 0.171875 0.390625
vt 0.1337890625 0.875
vt 0.138671875 0.9375
vt 0.03125 0.9375
vt 0.0361328125 0.875
vt 0.09765625 0.921875
vt 0 0.921875
vt 0.0048828125 0.859375
vt 0.0927734375 0.859375
vt 0.134765625 0.921875
vt 0.046875 0.921875
vt 0.0517578125 0.859375
vt 0.1298828125 0.859375
vt 0 1
vt 0.009765625 0.875
vt 0.126953125 0.875
vt 0.13671875 1
vt 0.0625 1
vt 0.0673828125 0.9375
vt 0.2041015625 0.9375
vt 0.208984375 1
vt 0 1
vt 0.0048828125 0.9375
vt 0.1513671875 0.9375
vt 0.15625 1
vt 0.53125 0.736421875
vt 0.5815671875 0.46786562499999995
vt 0.6442578125 0.46786562499999995
vt 0.568853125 0.75
vt 0.578125 0.752046875
vt 0.6535296875 0.46991249999999996
vt 0.7162203125 0.46991249999999996
vt 0.615728125 0.765625
vt 0.75 0.640625
vt 0.75 0.578125
vt 0.87538125 0.578125
vt 0.87538125 0.640625
vt 0.8748093749999999 0.640625
vt 0.8748093749999999 0.578125
vt 0.9374999999999999 0.578125
vt 0.9374999999999999 0.671875
vt 0.9373093749999999 0.671875
vt 0.9373093749999999 0.578125
vt 1 0.578125
vt 1 0.671875
vt 0.171875 0.625
vt 0.171875 0.53125
vt 0.328125 0.53125
vt 0.328125 0.625
vt 0.9373093749999999 0.671875
vt 0.9373093749999999 0.578125
vt 1 0.578125
vt 1 0.671875
vt 0.9376906250000001 0.671875
vt 0.9376906250000001 0.578125
vt 0.8750000000000001 0.578125
vt 0.8750000000000001 0.640625
vt 0.75 0.640625
vt 0.75 0.578125
vt 0.87538125 0.578125
vt 0.87538125 0.640625
vt 0.553228125 1
vt 0.6537203125 0.7042875
vt 0.5910296875 0.7042875
vt 0.515625 0.986421875
vt 0.517290625 0.9859375
vt 0.5926953125 0.703803125
vt 0.5300046875 0.703803125
vt 0.47968749999999993 0.972359375
vt 0.30625 1
vt 0.28125 0.7279171875
vt 0.359375 0.7279171875
vt 0.334375 1
vt 0.6328125 0.43694374999999996
vt 0.6201171875 0.671875
vt 0.5283203125 0.671875
vt 0.515625 0.43694374999999996
vt 0.797065625 0.5703125
vt 0.734375 0.640625
vt 0.734375 0.4609375
vt 0.797065625 0.4609375
vt 0.0625 1
vt 0.0673828125 0.9375
vt 0.1748046875 0.9375
vt 0.1796875 1
vt 0.7501906250000001 0.4609375
vt 0.6875000000000001 0.4609375
vt 0.6875000000000001 0.640625
vt 0.7501906250000001 0.5703125
vt 0.5522162290541422 1
vt 0.6537372857058932 0.7046392792383998
vt 0.6365546205071544 0.8131263576630908
vt 0.7840515625 0.5635109375
vt 0.65869375 0.7041578125
vt 0.640625 0.8125
vt 0.7840515625 0.6260015625
vt 0.6464477903584909 0.7985476997374998
vt 0.6592814020398362 0.6894606309361544
vt 0.5696445560450125 0.9886423752866416
vt 0.7841171875 0.5479234374999999
vt 0.7841171875 0.6104234374999999
vt 0.640625 0.796875
vt 0.6587421875 0.6885484374999999
vn 0 0.9409004953369028 -0.3386831231029545
vn 0 0.8944277054512587 -0.44721256659579284
vn 0 1 0
vn 0 0.3960842415683484 0.918214176312491
vn 0 0.9409004953369021 -0.3386831231029563
vn 0 1 0
vn -0.9969621413492435 0 -0.07788766729290958
vn 0.9969621413492435 0 -0.07788766729290958
vn 0 0 -1
vn -0.9969621413492435 0 -0.0778876672929096
vn 0.9969621413492435 0 -0.0778876672929096
vn 0.9969621413492435 0 -0.07788766729290969
vn -0.9969621413492435 0 -0.07788766729290969
vn 0.9969621413492437 0 -0.07788766729290961
vn -0.9969621413492437 0 -0.07788766729290961
vn 0.9969621413492435 0 -0.07788766729290973
vn -0.9969621413492435 0 -0.07788766729290973
vn 0.9969621413492435 0 -0.0778876672929096
vn -0.9969621413492435 0 -0.0778876672929096
vn 0 0 1
vn 0 -1 0
vn 0 -1 0
vn 0 -1 0
vn 0 -1 0
vn 0 -1 0
vn 0 -1 0
vn -0.9938670642737796 0.07873613080382165 -0.07764586439638897
vn -0.9938375387544637 0.07911020482717615 -0.07764355771519252
vn -0.9969621413492437 0 -0.0778876672929097
vn -0.9969621413492435 0 -0.0778876672929096
vn -0.9969621413492435 0 -0.0778876672929096
vn 0 0 1
vn 0.9969621413492435 0 -0.0778876672929096
vn 0.9969621413492435 0 -0.0778876672929096
vn 0.9969621413492437 0 -0.0778876672929097
vn 0.9938106033703773 0.07944991720799575 -0.07764145338831083
vn 0.9938375387544637 0.07911020482717618 -0.07764355771519238
vn 0 -0.17832212296216432 -0.9839721644753305
vn 0 0.608384236790733 0.7936426276508574
vn -0.9969621413492437 0 -0.07788766729290972
vn 0 -1 0
vn 0.9969621413492437 0 -0.07788766729290972
vn -0.9042154034614855 -0.04581959957721103 -0.424611667806676
vn 0.9981370958885142 0.017312242547525312 -0.05850319708545078
vn 0.9042154034614855 -0.04581959957721102 -0.424611667806676
vn -0.9960784287438825 0 -0.0884746505566334
usemtl m_a3f03834-6c71-fff1-7d53-231e0c0fd506
f 18/1/1 25/2/1 26/3/1 16/4/1
f 19/5/2 27/6/2 28/7/2 22/8/2
f 22/9/3 23/10/3 20/11/3 19/12/3
f 21/13/4 44/14/4 43/15/4 24/16/4
f 24/17/5 26/18/5 25/19/5 21/20/5
f 15/21/6 28/22/6 27/23/6 17/24/6
f 11/25/7 30/26/7 29/27/7 4/28/7
f 2/29/8 42/30/8 41/31/8 12/32/8
f 4/33/9 29/34/9 42/35/9 2/36/9
f 13/37/10 34/38/10 33/39/10 5/40/10
f 8/41/11 38/42/11 37/43/11 14/44/11
f 9/45/12 39/46/12 38/47/12 8/48/12
f 5/49/13 33/50/13 32/51/13 6/52/13
f 40/53/14 48/54/14 47/55/14 10/56/14
f 7/57/15 46/58/15 45/59/15 31/60/15
f 12/61/16 41/62/16 40/63/16 10/64/16
f 7/65/17 31/66/17 30/67/17 11/68/17
f 14/69/18 37/70/18 36/71/18 1/72/18
f 3/73/19 35/74/19 34/75/19 13/76/19
f 1/77/20 36/78/20 35/79/20 3/80/20
f 10/81/21 47/82/21 46/83/21 7/84/21
f 10/85/22 7/86/22 11/87/22 12/88/22
f 12/89/23 11/90/23 4/91/23 2/92/23
f 5/93/24 6/94/24 9/95/24 8/96/24
f 13/97/25 5/98/25 8/99/25 14/100/25
f 3/101/26 13/102/26 14/103/26 1/104/26
f 18/105/27 29/106/27 30/107/27 25/108/27
f 25/109/28 30/110/28 31/111/28 21/112/28
f 20/113/29 32/114/29 33/115/29 19/116/29
f 19/117/30 33/118/30 34/119/30 27/120/30
f 27/121/31 34/122/31 35/123/31 17/124/31
f 17/125/32 35/126/32 36/127/32 15/128/32
f 15/129/33 36/130/33 37/131/33 28/132/33
f 28/133/34 37/134/34 38/135/34 22/136/34
f 22/137/35 38/138/35 39/139/35 23/140/35
f 24/141/36 40/142/36 41/143/36 26/144/36
f 26/145/37 41/146/37 42/147/37 16/148/37
f 16/149/38 42/150/38 29/151/38 18/152/38
f 23/153/39 43/154/39 44/155/39 20/156/39
f 32/157/40 45/158/40 46/159/40 6/160/40
f 6/161/41 46/162/41 47/163/41 9/164/41
f 9/165/42 47/166/42 48/167/42 39/168/42
f 21/169/43 31/170/43 44/171/43
f 39/172/44 40/173/44 43/174/44 23/175/44
f 43/176/45 40/177/45 24/178/45
f 32/179/46 20/180/46 44/181/46 31/182/46