# Made in Blockbench 4.8.3
mtllib corbel_large_extension.mtl

o cuboid_selection
v 0.8125 0 1
v 0.65625 0 -1
v 0.1875 0 1
v 0.34375 0 -1
v 0.22656261233907649 0 0.49999856205982063
v 0.2656251872316865 0 -0.0000023965655870927804
v 0.30468770595465056 0 -0.5000026362195268
v 0.7734373876609235 0 0.49999856205982063
v 0.7343748127683135 0 -0.0000023965655870927804
v 0.6953122940453494 0 -0.5000026362195268
v 0.3242188529773253 0 -0.7500013181097633
v 0.6757811470226747 0 -0.7500013181097633
v 0.20703130616953824 0 0.7499992810299103
v 0.7929686938304618 0 0.7499992810299103
v 0.8125 1.0625 1
v 0.65625 1.0625 -1
v 0.1875 1.0625 1
v 0.34375 1.0625 -1
v 0.22656261233907649 1.0625 0.49999856205982063
v 0.2656251872316865 1.0625 -0.0000023965655870927804
v 0.30468770595465056 1.0625 -0.5000026362195268
v 0.7734373876609235 1.0625 0.49999856205982063
v 0.7343748127683135 1.0625 -0.0000023965655870927804
v 0.6953122940453494 1.0625 -0.5000026362195268
v 0.3242188529773253 1.0625 -0.7500013181097633
v 0.6757811470226747 1.0625 -0.7500013181097633
v 0.20703130616953824 1.0625 0.7499992810299103
v 0.7929686938304618 1.0625 0.7499992810299103
vt 0.4892578125 0.96875
vt 0.484375 0.90625
vt 0.572265625 0.90625
vt 0.5673828125 0.96875
vt 0.4423828125 0.328125
vt 0.4375 0.265625
vt 0.583984375 0.265625
vt 0.5791015625 0.328125
vt 0.57421875 0.3125
vt 0.564453125 0.4375
vt 0.447265625 0.4375
vt 0.4375 0.3125
vt 0.5859375 0.5625
vt 0.576171875 0.6875
vt 0.478515625 0.6875
vt 0.46875 0.5625
vt 0.75390625 0.859375
vt 0.7490234375 0.921875
vt 0.6611328125 0.921875
vt 0.65625 0.859375
vt 0.578125 0.03125
vt 0.5732421875 0.09375
vt 0.4267578125 0.09375
vt 0.421875 0.03125
vt 0.562690625 0.71875
vt 0.5 0.71875
vt 0.5 0.453125
vt 0.562690625 0.453125
vt 0.562690625 0.71875
vt 0.5 0.71875
vt 0.5 0.453125
vt 0.562690625 0.453125
vt 0.3125 1
vt 0.234375 1
vt 0.234375 0.734375
vt 0.3125 0.734375
vt 0.937690625 0.71875
vt 0.875 0.71875
vt 0.875 0.453125
vt 0.937690625 0.453125
vt 0.8750000000000001 0.71875
vt 0.9376906250000001 0.71875
vt 0.9376906250000001 0.453125
vt 0.8750000000000001 0.453125
vt 0.75 0.71875
vt 0.87538125 0.71875
vt 0.87538125 0.453125
vt 0.75 0.453125
vt 0.87538125 0.71875
vt 0.75 0.71875
vt 0.75 0.453125
vt 0.87538125 0.453125
vt 0.625 0.71875
vt 0.75038125 0.71875
vt 0.75038125 0.453125
vt 0.625 0.453125
vt 0.75038125 0.71875
vt 0.625 0.71875
vt 0.625 0.453125
vt 0.75038125 0.453125
vt 0.625190625 0.71875
vt 0.5625 0.71875
vt 0.5625 0.453125
vt 0.625190625 0.453125
vt 0.625190625 0.71875
vt 0.5625 0.71875
vt 0.5625 0.453125
vt 0.625190625 0.453125
vt 0.9373093749999999 0.71875
vt 0.9999999999999999 0.71875
vt 0.9999999999999999 0.453125
vt 0.9373093749999999 0.453125
vt 1 0.71875
vt 0.937309375 0.71875
vt 0.937309375 0.453125
vt 1 0.453125
vt 0.328125 0.640625
vt 0.171875 0.640625
vt 0.171875 0.375
vt 0.328125 0.375
vt 0.1328125 1
vt 0.015625 1
vt 0.025390625 0.875
vt 0.123046875 0.875
vt 0.09765625 1
vt 0 1
vt 0.0048828125 0.9375
vt 0.0927734375 0.9375
vt 0.103515625 1
vt 0.015625 1
vt 0.0205078125 0.9375
vt 0.0986328125 0.9375
vt 0 1
vt 0.009765625 0.875
vt 0.126953125 0.875
vt 0.13671875 1
vt 0.015625 1
vt 0.0205078125 0.9375
vt 0.1572265625 0.9375
vt 0.162109375 1
vt 0 1
vt 0.0048828125 0.9375
vt 0.1513671875 0.9375
vt 0.15625 1
vn 0 1 0
vn 0 1 0
vn 0 1 0
vn 0 1 0
vn 0 1 0
vn 0 1 0
vn -0.9969621413492435 0 -0.0778876672929096
vn 0.9969621413492435 0 -0.0778876672929096
vn 0 0 -1
vn -0.9969621413492437 0 -0.07788766729290961
vn 0.9969621413492437 0 -0.07788766729290961
vn 0.9969621413492437 0 -0.0778876672929097
vn -0.9969621413492437 0 -0.0778876672929097
vn 0.9969621413492435 0 -0.07788766729290966
vn -0.9969621413492435 0 -0.07788766729290966
vn 0.9969621413492435 0 -0.07788766729290973
vn -0.9969621413492435 0 -0.07788766729290973
vn 0.9969621413492437 0 -0.07788766729290961
vn -0.9969621413492437 0 -0.07788766729290961
vn 0 0 1
vn 0 -1 0
vn 0 -1 0
vn 0 -1 0
vn 0 -1 0
vn 0 -1 0
vn 0 -1 0
usemtl m_a3f03834-6c71-fff1-7d53-231e0c0fd506
f 18/1/1 25/2/1 26/3/1 16/4/1
f 19/5/2 27/6/2 28/7/2 22/8/2
f 22/9/3 23/10/3 20/11/3 19/12/3
f 23/13/4 24/14/4 21/15/4 20/16/4
f 24/17/5 26/18/5 25/19/5 21/20/5
f 15/21/6 28/22/6 27/23/6 17/24/6
f 25/25/7 18/26/7 4/27/7 11/28/7
f 16/29/8 26/30/8 12/31/8 2/32/8
f 18/33/9 16/34/9 2/35/9 4/36/9
f 27/37/10 19/38/10 5/39/10 13/40/10
f 22/41/11 28/42/11 14/43/11 8/44/11
f 23/45/12 22/46/12 8/47/12 9/48/12
f 19/49/13 20/50/13 6/51/13 5/52/13
f 24/53/14 23/54/14 9/55/14 10/56/14
f 20/57/15 21/58/15 7/59/15 6/60/15
f 26/61/16 24/62/16 10/63/16 12/64/16
f 21/65/17 25/66/17 11/67/17 7/68/17
f 28/69/18 15/70/18 1/71/18 14/72/18
f 17/73/19 27/74/19 13/75/19 3/76/19
f 15/77/20 17/78/20 3/79/20 1/80/20
f 9/81/21 6/82/21 7/83/21 10/84/21
f 10/85/22 7/86/22 11/87/22 12/88/22
f 12/89/23 11/90/23 4/91/23 2/92/23
f 5/93/24 6/94/24 9/95/24 8/96/24
f 13/97/25 5/98/25 8/99/25 14/100/25
f 3/101/26 13/102/26 14/103/26 1/104/26