# Made in Blockbench 4.8.3
mtllib decorational_spike_large.mtl

o cuboid
v 1.1111111111111112 1 1.025
v 1.1875 1 0.9375
v 1 0 1.025
v 1.0625 0 0.9375
v -0.11111111111111116 1 1.025
v -0.1875 1 0.9375
v 0 0 1.025
v -0.0625 0 0.9375
v 0.5 1.0625 0.625
v 0.5 1 1.025
v 0.5 0 1.025
v 0.5 0 0.6875
v 0.09375 -0.3125 0.9375
v 0.5 -0.3125 1.025
v 0.5 -0.3125 0.75
v 0.1388888888888889 -0.3125 1.025
v 0.8611111111111112 -0.3125 1.025
v 0.90625 -0.3125 0.9375
v 0.4375 -0.875 0.9375
v 0.5 -0.875 1.025
v 0.5 -0.875 0.9375
v 0.4444444444444444 -0.875 1.025
v 0.5555555555555556 -0.875 1.025
v 0.5625 -0.875 0.9375
v 0.16666666666666669 1.5 1
v 0.5 1.5625 0.6875
v 0.5 1.5 0.9624999999999999
v 0.125 1.5625 0.90234375
v 0.875 1.5625 0.90234375
v 0.8333333333333333 1.5 1
v 0.4736111111111111 3.1875 0.921875
v 0.5 3.1875 0.8500000000000003
v 0.5 3.1875 0.921875
v 0.4703125 3.1875 0.9061523437499999
v 0.5296875 3.1875 0.9061523437499999
v 0.5263888888888889 3.1875 0.921875
v 0.26171875 1.6875 0.89873046875
v 0.5 1.6875 0.7546875000000001
v 0.73828125 1.6875 0.89873046875
v 0.7118055555555556 1.65625 0.9578125
v 0.5 1.65625 0.9390624999999999
v 0.2881944444444444 1.65625 0.9578125
vt 0.5192730377848376 0.517912613324104
vt 0.5171641734186947 0.546875
vt 0.265625 0.546875
vt 0.2673497969010944 0.5201750705911956
vt 0.54730625 0.35850000000000004
vt 0.5290390625 0.609375
vt 0.5 0.609375
vt 0.5205515625 0.35828125
vt 0.313584375 0.4140625
vt 0.322265625 0.4140625
vt 0.322265625 0.4375
vt 0.3125 0.4191890625
vt 0.234375 0.571875
vt 0.25 0.571875
vt 0.25 0.59375
vt 0.2361109375 0.59375
vt 0.293403125 0.375
vt 0.418403125 0.375
vt 0.418403125 0.625
vt 0.265625 0.625
vt 0.7200419719199073 0.6093128696750737
vt 0.53125 0.625
vt 0.5375948431203023 0.3589908285805632
vt 0.6914823466185076 0.3589908285805632
vt 0.759765625 0.4191890625
vt 0.75 0.4375
vt 0.75 0.4140625
vt 0.75868125 0.4140625
vt 0.840278125 0.625
vt 0.6875 0.625
vt 0.6875 0.375
vt 0.8125 0.375
vt 0.7638890625 0.59375
vt 0.75 0.59375
vt 0.75 0.571875
vt 0.765625 0.571875
vt 0.7316812500000001 0.358990625
vt 0.8855703125000001 0.358990625
vt 0.891915625 0.625
vt 0.703125 0.6093125
vt 0.3659234375 0.4201796875
vt 0.47778125 0.4201796875
vt 0.5132484375 0.5
vt 0.359375 0.49955312500000004
vt 0.206596875 0.921875
vt 0.296875 0.921875
vt 0.296875 1
vt 0.171875 1
vt 0.1897828125 0.648959375
vt 0.21439843749999998 0.648959375
vt 0.1984796875 0.7329578125
vt 0.171875 0.734375
vt 0.328125 0.921875
vt 0.418403125 0.921875
vt 0.453125 1
vt 0.328125 1
vt 0.2542171875 0.42020781249999994
vt 0.366075 0.42020781249999994
vt 0.3726234375 0.49961093749999996
vt 0.21875 0.5
vt 0.46875 0.586384375
vt 0.49336562500000003 0.586384375
vt 0.5112734375 0.671875
vt 0.48466875 0.670309375
vt 0.6875 0.234375
vt 0.703125 0.234375
vt 0.7890625 0.375
vt 0.6875 0.375
vt 0.3420140625 0.859375
vt 0.355903125 0.859375
vt 0.355903125 1
vt 0.265625 1
vt 0.1724595258134071 0.6479089469677501
vt 0.19438762163987516 0.6470802265759812
vt 0.1943876216398751 0.8071131404269294
vt 0.171875 0.8125
vt 0.328125 0.859375
vt 0.3420140625 0.859375
vt 0.418403125 1
vt 0.328125 1
vt 0.7109375 0.2736421875
vt 0.7265625 0.2736421875
vt 0.7265625 0.421875
vt 0.625 0.40705156249999996
vt 0.46875 0.7338237631219335
vt 0.4696554131907431 0.7118987000429701
vt 0.6344613841282083 0.7118987000429702
vt 0.6285758605739908 0.734375
vt 0.23169218749999998 0.703125
vt 0.1478328125 0.703125
vt 0.078125 0.5781140625
vt 0.2299453125 0.5783265625
vt 0.25643906250000004 0.75
vt 0.1483921875 0.75
vt 0.140625 0.6242671875
vt 0.3285953125 0.6068296875
vt 0.1980649440827048 0.6739653128254064
vt 0.20798377665428114 0.703125
vt 0.046875 0.703125
vt 0.05494275376819216 0.6752438730455689
vt 0.461453125 0.78125
vt 0.35340625000000003 0.78125
vt 0.28125 0.637203125
vt 0.4692203125 0.65628125
vt 0.396359375 0.703125
vt 0.3125 0.703125
vt 0.314246875 0.577165625
vt 0.4660671875 0.5792703125
vt 0.3729972981009646 0.8125
vt 0.34375 0.8028422240493557
vt 0.34375 0.6597103613420245
vt 0.3715557531898732 0.6514005710944962
vt 0.3829292275722258 0.8304891199984019
vt 0 0.875
vt 0.00007180901726855371 0.8218422360021587
vt 0.38292840834262 0.8218422360021587
vt 0.133690625 0.9995937500000001
vt 0.125 0.62431875
vt 0.194609375 0.62431875
vt 0.1515203125 1
vt 0.38552581264074015 0.7855497634863021
vt 0.00740149771452886 0.796875
vt 0 0.7804970919793581
vt 0.3855047821025387 0.7804970919793577
vt 0.3399640625 1
vt 0.296875 0.6241687499999999
vt 0.366484375 0.6241687499999999
vt 0.35779375 0.99929375
vt 0.359375 0.9999991807703943
vt 0.359375 0.6171425814450429
vt 0.41253276399784133 0.6170707724277744
vt 0.36802188399624325 1
vt 0.359375 0.9999843003511384
vt 0.3593750000000001 0.6144754543289904
vt 0.37575290797401734 0.6218770426907839
vt 0.3644306133334419 1
vt 0.217390625 0.57384375
vt 0.18767343749999998 0.609375
vt 0.11806406250000001 0.609375
vt 0.109375 0.5750500000000001
vt 0.373640625 0.574978125
vt 0.3649515625 0.609375
vt 0.2953421875 0.609375
vt 0.265625 0.57391875
vt 0.3881645545125234 0.533270747313098
vt 0.3765978853832023 0.578125
vt 0.359375 0.5729870858843409
vt 0.359375 0.5224077820480633
vt 0.4437265625 0.5695359375
vt 0.4125328125 0.609375
vt 0.359375 0.609375
vt 0.359890625 0.5699265625000001
vt 0.17758593749999999 0.569878125
vt 0.1781015625 0.609375
vt 0.12494374999999999 0.609375
vt 0.09375 0.569584375
vt 0.109375 0.5266559564999733
vt 0.15669339065120794 0.5445733089815541
vt 0.15539802948344256 0.5625
vt 0.10937500000000003 0.5574287693109723
vn 0.7506918575180606 -0.08341020639089565 0.6553659073570368
vn -0.7506918575180606 -0.08341020639089565 0.6553659073570368
vn 0 1 0
vn 0 -1 0
vn 0 0 1
vn -0.4091674755679963 -0.053581455133904284 -0.9108847372763728
vn 0 1 0
vn 0 0 1
vn 0 -1 0
vn 0.40555297581354466 -0.05367612915179267 -0.9124941955804754
vn -0.41015155621479793 -0.20507577810739896 -0.8886617051320622
vn 0 0 1
vn -0.8265716699518462 -0.3673651866452649 0.4264060202132542
vn 0 0 1
vn 0.4123151438665942 -0.17866989567552416 -0.8933494783776208
vn 0.8121429898597885 -0.4060714949298942 0.4189626534990975
vn 0 0 -1
vn 0 0 1
vn -0.8765942935111966 -0.4761746779566993 0.06957097567549178
vn 0 0 1
vn 0 -0.316227766016838 -0.948683298050514
vn 0.8513319183208111 -0.5202583945293845 0.06756602526355643
vn 0.11178614925691657 -0.01242068325076864 0.9936546600614797
vn -0.49421359053780073 0.10782841975370197 -0.8626273580296158
vn -0.7015612886610894 0.42548392969723475 0.5716425315016286
vn 0.48530298043139697 0.2166706235865429 -0.8470742931166202
vn -0.11094214642833235 0.12326905158703583 0.9861524126962866
vn 0.7056682550680248 0.42054976817185313 0.5702369737923434
vn 0.08817263872993586 0.012699392524557282 0.996024252319645
vn -0.5165665695729068 0.05429785890906188 -0.8545236811917919
vn -0.880672456408345 0.1202012676949055 0.45822230387469093
vn 0.5158352864953866 0.07595547091984763 -0.8533139654567753
vn -0.08817423845483444 0.011180066894027573 0.9960423232860918
vn 0.8815771069493417 0.11747870704843102 0.4571876615713268
vn -0.4549933744243635 0.4758922226394487 -0.752667005827422
vn 0.4699917990157437 0.41789440298925334 -0.7774779590497729
vn 0.5463523433811723 0.6140381817904498 0.569610593463096
vn -0.08646130107461841 0.19645928966399395 0.97669247510217
vn 0.08721162135078932 0.1477752472888373 0.9851683152589155
vn -0.5675251303798491 0.5950538807586462 0.5690572074769024
usemtl m_0e83b2b5-e409-e06b-ca9a-3a090e5f4f7d
f 2/1/1 1/2/1 3/3/1 4/4/1
f 7/5/2 5/6/2 6/7/2 8/8/2
f 31/9/3 33/10/3 32/11/3 34/12/3
f 19/13/4 21/14/4 20/15/4 22/16/4
f 7/17/5 11/18/5 10/19/5 5/20/5
f 6/21/6 9/22/6 12/23/6 8/24/6
f 35/25/7 32/26/7 33/27/7 36/28/7
f 1/29/8 10/30/8 11/31/8 3/32/8
f 23/33/9 20/34/9 21/35/9 24/36/9
f 4/37/10 12/38/10 9/39/10 2/40/10
f 15/41/11 13/42/11 8/43/11 12/44/11
f 16/45/12 14/46/12 11/47/12 7/48/12
f 13/49/13 16/50/13 7/51/13 8/52/13
f 14/53/14 17/54/14 3/55/14 11/56/14
f 18/57/15 15/58/15 12/59/15 4/60/15
f 17/61/16 18/62/16 4/63/16 3/64/16
f 21/65/17 19/66/17 13/67/17 15/68/17
f 22/69/18 20/70/18 14/71/18 16/72/18
f 19/73/19 22/74/19 16/75/19 13/76/19
f 20/77/20 23/78/20 17/79/20 14/80/20
f 24/81/21 21/82/21 15/83/21 18/84/21
f 23/85/22 24/86/22 18/87/22 17/88/22
f 27/89/23 25/90/23 5/91/23 10/92/23
f 28/93/24 26/94/24 9/95/24 6/96/24
f 25/97/25 28/98/25 6/99/25 5/100/25
f 26/101/26 29/102/26 2/103/26 9/104/26
f 30/105/27 27/106/27 10/107/27 1/108/27
f 29/109/28 30/110/28 1/111/28 2/112/28
f 31/113/29 42/114/29 41/115/29 33/116/29
f 32/117/30 38/118/30 37/119/30 34/120/30
f 34/121/31 37/122/31 42/123/31 31/124/31
f 35/125/32 39/126/32 38/127/32 32/128/32
f 33/129/33 41/130/33 40/131/33 36/132/33
f 36/133/34 40/134/34 39/135/34 35/136/34
f 28/137/35 37/138/35 38/139/35 26/140/35
f 26/141/36 38/142/36 39/143/36 29/144/36
f 29/145/37 39/146/37 40/147/37 30/148/37
f 30/149/38 40/150/38 41/151/38 27/152/38
f 27/153/39 41/154/39 42/155/39 25/156/39
f 25/157/40 42/158/40 37/159/40 28/160/40