# Made in Blockbench 4.8.3
mtllib decorational_spike_small.mtl

o cuboid
v 1.1111111111111112 1 0.9937499999999999
v 1.1875 1 0.90625
v 1 0 0.9937499999999999
v 1.0625 0 0.90625
v -0.11111111111111116 1 0.9937499999999999
v -0.1875 1 0.90625
v 0 0 0.9937499999999999
v -0.0625 0 0.90625
v 0.5 1.0625 0.59375
v 0.5 1 0.9937499999999999
v 0.5 0 0.9937499999999999
v 0.5 0 0.65625
v 0.09375 -0.3125 0.90625
v 0.5 -0.3125 0.9937499999999999
v 0.5 -0.3125 0.71875
v 0.1388888888888889 -0.3125 0.9937499999999999
v 0.8611111111111112 -0.3125 0.9937499999999999
v 0.90625 -0.3125 0.90625
v 0.4375 -0.875 0.90625
v 0.5 -0.875 0.9937499999999999
v 0.5 -0.875 0.90625
v 0.4444444444444444 -0.875 0.9937499999999999
v 0.5555555555555556 -0.875 0.9937499999999999
v 0.5625 -0.875 0.90625
v 0.2222222222222222 1.1875 0.96875
v 0.5 1.25 0.65625
v 0.5 1.1875 0.9312499999999999
v 0.1875 1.25 0.87109375
v 0.8125 1.25 0.87109375
v 0.7777777777777778 1.1875 0.96875
v 0.4652777777777778 2.1875 0.8843749999999999
v 0.5 2.1875 0.7906250000000001
v 0.5 2.1875 0.8843749999999999
v 0.4609375 2.1875 0.8638671875
v 0.5390625 2.1875 0.8638671875
v 0.5347222222222222 2.1875 0.8843749999999999
vt 0.5505230377848376 0.517912613324104
vt 0.5484141734186947 0.546875
vt 0.296875 0.546875
vt 0.2985997969010944 0.5201750705911956
vt 0.54730625 0.35850000000000004
vt 0.5290390625 0.609375
vt 0.5 0.609375
vt 0.5205515625 0.35828125
vt 0.282334375 0.4453125
vt 0.291015625 0.4453125
vt 0.291015625 0.46875
vt 0.28125 0.4504390625
vt 0.234375 0.540625
vt 0.25 0.540625
vt 0.25 0.5625
vt 0.2361109375 0.5625
vt 0.262153125 0.375
vt 0.387153125 0.375
vt 0.387153125 0.625
vt 0.234375 0.625
vt 0.7200419719199073 0.6093128696750737
vt 0.53125 0.625
vt 0.5375948431203023 0.3589908285805632
vt 0.6914823466185076 0.3589908285805632
vt 0.759765625 0.4504390625
vt 0.75 0.46875
vt 0.75 0.4453125
vt 0.75868125 0.4453125
vt 0.840278125 0.625
vt 0.6875 0.625
vt 0.6875 0.375
vt 0.8125 0.375
vt 0.7638890625 0.5625
vt 0.75 0.5625
vt 0.75 0.540625
vt 0.765625 0.540625
vt 0.7004312500000001 0.358990625
vt 0.8543203125000001 0.358990625
vt 0.860665625 0.625
vt 0.671875 0.6093125
vt 0.3346734375 0.4201796875
vt 0.44653125 0.4201796875
vt 0.4819984375 0.5
vt 0.328125 0.49955312500000004
vt 0.206596875 0.921875
vt 0.296875 0.921875
vt 0.296875 1
vt 0.171875 1
vt 0.1585328125 0.648959375
vt 0.18314843749999998 0.648959375
vt 0.1672296875 0.7329578125
vt 0.140625 0.734375
vt 0.328125 0.921875
vt 0.418403125 0.921875
vt 0.453125 1
vt 0.328125 1
vt 0.2229671875 0.42020781249999994
vt 0.33482500000000004 0.42020781249999994
vt 0.34137343750000004 0.49961093749999996
vt 0.1875 0.5
vt 0.46875 0.617634375
vt 0.49336562500000003 0.617634375
vt 0.5112734375 0.703125
vt 0.48466875 0.701559375
vt 0.6875 0.234375
vt 0.703125 0.234375
vt 0.7890625 0.375
vt 0.6875 0.375
vt 0.3107640625 0.859375
vt 0.324653125 0.859375
vt 0.324653125 1
vt 0.234375 1
vt 0.1412095258134071 0.6479089469677501
vt 0.16313762163987516 0.6470802265759812
vt 0.1631376216398751 0.8071131404269294
vt 0.140625 0.8125
vt 0.328125 0.859375
vt 0.3420140625 0.859375
vt 0.418403125 1
vt 0.328125 1
vt 0.6697551921034384 0.2411746608623676
vt 0.6852281306775254 0.2390000811598666
vt 0.7058581508571824 0.38579030211837284
vt 0.6032210263618538 0.3852458933593931
vt 0.46875 0.7338237631219335
vt 0.4696554131907431 0.7118987000429701
vt 0.6344613841282083 0.7118987000429702
vt 0.6285758605739908 0.734375
vt 0.21599374999999998 0.6875
vt 0.14592031249999998 0.6875
vt 0.0625 0.6403640625
vt 0.2139046875 0.6425125
vt 0.213034375 0.734375
vt 0.1182265625 0.734375
vt 0.109375 0.6857640625
vt 0.2952671875 0.6619578125000001
vt 0.17482532838265155 0.688493583413945
vt 0.17482532838265155 0.71875
vt 0.0625 0.7062780130016697
vt 0.07929510948219061 0.6831491955249405
vt 0.458290625 0.765625
vt 0.3634828125 0.765625
vt 0.28125 0.6881
vt 0.4671421875 0.7202171875000001
vt 0.38251077695290225 0.684537272621826
vt 0.3125 0.6875
vt 0.3125 0.6380901921298056
vt 0.4640403560191745 0.638093958214941
vt 0.3683838534959172 0.78125
vt 0.34375 0.7636791956152587
vt 0.39495590328199065 0.6826932716186819
vt 0.423365672083917 0.6826932716186818
vt 0.16319375 0.84375
vt 0.1545125 0.84375
vt 0.09375 0.5928625000000001
vt 0.16319375 0.59365
vt 0.15976875000000001 0.859375
vt 0.1390171875 0.859375
vt 0.109375 0.6244671875000001
vt 0.19353281249999998 0.621528125
vt 0.127003125 0.8125
vt 0.1217625 0.8125
vt 0.109375 0.5686671875
vt 0.13505781249999999 0.5545968750000001
vt 0.3659300704181979 0.8411236467002969
vt 0.34534537672272253 0.84375
vt 0.28125 0.6081660654316225
vt 0.36609003365767345 0.6081660654316224
vt 0.36805625 0.84375
vt 0.359375 0.84375
vt 0.359375 0.593475
vt 0.42881875 0.5930359375
vt 0.3882953125 0.828125
vt 0.3830546875 0.828125
vt 0.375 0.5701093749999999
vt 0.4006828125 0.5843984375
vn 0.7506918575180606 -0.08341020639089565 0.6553659073570368
vn -0.7506918575180606 -0.08341020639089565 0.6553659073570368
vn 0 1 0
vn 0 -1 0
vn 0 0 1
vn -0.4091674755679963 -0.053581455133904284 -0.9108847372763728
vn 0 1 0
vn 0 0 1
vn 0 -1 0
vn 0.40555297581354466 -0.05367612915179267 -0.9124941955804754
vn -0.41015155621479793 -0.20507577810739896 -0.8886617051320622
vn 0 0 1
vn -0.8265716699518462 -0.3673651866452649 0.4264060202132542
vn 0 0 1
vn 0.4123151438665942 -0.17866989567552416 -0.8933494783776208
vn 0.8121429898597885 -0.4060714949298942 0.4189626534990975
vn 0 0 -1
vn 0 0 1
vn -0.8765942935111966 -0.4761746779566993 0.06957097567549178
vn 0 0 1
vn 0 -0.316227766016838 -0.948683298050514
vn 0.8513319183208111 -0.5202583945293845 0.06756602526355643
vn 0.13304510962517593 -0.10512206192606526 0.9855193305568579
vn -0.5462947264979836 0.2648701704232648 -0.7946105112697943
vn -0.40854908514114174 0.6958803098557909 0.5906252952467788
vn 0.4567255318017964 0.5916671661977817 -0.6643280462571584
vn -0.12703463992064715 0.3136657775818445 0.9409973327455335
vn 0.3616113676441448 0.7215827744372957 0.5903859063577873
vn 0 0.0840762554154538 0.996459323442415
vn -0.8803525725005489 0.06729806332004208 -0.4695213720002933
vn -0.9403816718227317 0.27581211997199345 0.1990225760471392
vn 0.8552531326909553 0.24593278971157692 -0.4561350041018434
vn 0 0.046823586298586156 0.9989031743698381
vn 0.9479345766726756 0.24732816831836676 0.20062107442807967
usemtl m_0e83b2b5-e409-e06b-ca9a-3a090e5f4f7d
f 2/1/1 1/2/1 3/3/1 4/4/1
f 7/5/2 5/6/2 6/7/2 8/8/2
f 31/9/3 33/10/3 32/11/3 34/12/3
f 19/13/4 21/14/4 20/15/4 22/16/4
f 7/17/5 11/18/5 10/19/5 5/20/5
f 6/21/6 9/22/6 12/23/6 8/24/6
f 35/25/7 32/26/7 33/27/7 36/28/7
f 1/29/8 10/30/8 11/31/8 3/32/8
f 23/33/9 20/34/9 21/35/9 24/36/9
f 4/37/10 12/38/10 9/39/10 2/40/10
f 15/41/11 13/42/11 8/43/11 12/44/11
f 16/45/12 14/46/12 11/47/12 7/48/12
f 13/49/13 16/50/13 7/51/13 8/52/13
f 14/53/14 17/54/14 3/55/14 11/56/14
f 18/57/15 15/58/15 12/59/15 4/60/15
f 17/61/16 18/62/16 4/63/16 3/64/16
f 21/65/17 19/66/17 13/67/17 15/68/17
f 22/69/18 20/70/18 14/71/18 16/72/18
f 19/73/19 22/74/19 16/75/19 13/76/19
f 20/77/20 23/78/20 17/79/20 14/80/20
f 24/81/21 21/82/21 15/83/21 18/84/21
f 23/85/22 24/86/22 18/87/22 17/88/22
f 27/89/23 25/90/23 5/91/23 10/92/23
f 28/93/24 26/94/24 9/95/24 6/96/24
f 25/97/25 28/98/25 6/99/25 5/100/25
f 26/101/26 29/102/26 2/103/26 9/104/26
f 30/105/27 27/106/27 10/107/27 1/108/27
f 29/109/28 30/110/28 1/111/28 2/112/28
f 33/113/29 31/114/29 25/115/29 27/116/29
f 34/117/30 32/118/30 26/119/30 28/120/30
f 31/121/31 34/122/31 28/123/31 25/124/31
f 32/125/32 35/126/32 29/127/32 26/128/32
f 36/129/33 33/130/33 27/131/33 30/132/33
f 35/133/34 36/134/34 30/135/34 29/136/34