# Made in Blockbench 4.12.5
mtllib diagonal_tent_pole_3tall_2wide_top.mtl

o cuboid
v 0.4977218835172303 0.7113407599089409 0.5894164641310835
v 0.5621013900201391 0.6256928861181463 0.525036957628175
v 0.035719131040406374 0.06634150453645085 1.2281959119045478
v 0.22885765054913304 -0.19060211683593295 1.0350573923958224
v 0.4093335358689118 0.7113407599089404 0.501028116482765
v 0.4737130423718207 0.6256928861181459 0.43664860997985655
v -0.229445911904549 0.06634150453644952 0.9630308689595924
v -0.03630739239582234 -0.19060211683593428 0.769892349450867
vt 0.4625 0.9750000000000004
vt 0.4375 0.9750000000000004
vt 0.4125 0.7734437500000004
vt 0.4875 0.7734437500000004
vt 0.5125 0.7734437500000004
vt 0.4875 0.9750000000000004
vt 0.4625 0.9750000000000004
vt 0.4375 0.7734437500000004
vt 0.4625 0.9125
vt 0.4875 0.9125
vt 0.4875 0.9375
vt 0.4625 0.9375
vt 0.4875 0.8375
vt 0.4875 0.9125
vt 0.4125 0.9125
vt 0.4125 0.8375
vt 0.5125 0.7734437500000004
vt 0.4875 0.9750000000000004
vt 0.4625 0.9750000000000004
vt 0.4375 0.7734437500000004
vt 0.45 0.9750000000000004
vt 0.425 0.9750000000000004
vt 0.4 0.7734437500000004
vt 0.475 0.7734437500000004
vn 0.7615901735916204 0.0900661666240524 0.6417698131872004
vn -0.641769813187201 0.09006616662404522 -0.7615901735916207
vn 0.4844975388134416 0.7283709698824026 -0.4844975388134454
vn -0.4844975388134416 -0.7283709698824026 0.4844975388134454
vn -0.45117315712991485 0.7699906262876542 0.4511731571299109
vn 0.5709935175343342 -0.5898582930395566 -0.5709935175343313
usemtl m_be52e399-d1ec-052c-2aa1-d119afb76b57
f 2/1/1 1/2/1 3/3/1 4/4/1
f 7/5/2 5/6/2 6/7/2 8/8/2
f 5/9/3 1/10/3 2/11/3 6/12/3
f 4/13/4 3/14/4 7/15/4 8/16/4
f 3/17/5 1/18/5 5/19/5 7/20/5
f 6/21/6 2/22/6 4/23/6 8/24/6
o cube
v -0.22887285782044353 0.06787049192124295 0.9628876492584828
v -2.229051364897358 -2.933826142372421 2.9640693640204514
v -1.9637219631601566 -2.933956705695573 3.229069914070819
v 0.03645654391675812 0.06773992859809086 1.2278881993088502
v -2.0362780368398434 -3.191043294304427 2.770930085929181
v -0.03609952976292874 -0.1893466600107634 0.769748371167212
v 0.22922987197427247 -0.18947722333391548 1.0347489212175798
v -1.7709486351026422 -3.1911738576275788 3.0359306359795486
vt 0.5500004871958732 0.17499956453034748
vt 0.5500004871958732 0.9999996590909481
vt 0.4750004784362319 1
vt 0.4750004784362319 0.17499990543939958
vt 0.550000008759642 0.17499990543939925
vt 0.550000008759642 1
vt 0.47500000000000053 0.9999996590909481
vt 0.4750000000000007 0.17499956453034748
vt 0.4000000000000009 1
vt 0.4000000000000007 0.17499977305874326
vt 0.47500017652044396 0.17499993844127348
vt 0.4750010861243606 0.9999993079907207
vt 0.47500000000000037 0.09999998998958404
vt 0.5500000100104164 0.09999998998958404
vt 0.5500000100104164 0.17500000000000004
vt 0.47500000000000037 0.17500000000000004
vt 0.39999940107151444 0.9999999999999997
vt 0.399999401071514 0.17499977305874315
vt 0.4750004871958736 0.17500046506802247
vt 0.47499957759195777 0.9999998346174694
vt 0.4000000000000001 0.17500000000000038
vt 0.4000000000000001 0.09999998998958437
vt 0.47500001001041614 0.09999998998958437
vt 0.47500001001041614 0.17500000000000038
vn -0.5140622081533724 0.6859124051520166 0.5150380749100544
vn 0.5140622081533731 -0.6859124051520165 -0.5150380749100539
vn -0.7075450712992044 0.0003481688617384725 -0.7066681334676466
vn 0.4848917592913738 0.7276840325560402 -0.4851349611544156
vn 0.7075450712992044 -0.0003481688617387596 0.7066681334676466
vn -0.48489175929137307 -0.72768403255604 0.4851349611544165
usemtl m_be52e399-d1ec-052c-2aa1-d119afb76b57
f 9/25/7 10/26/7 11/27/7 12/28/7
f 13/29/8 14/30/8 15/31/8 16/32/8
f 14/33/9 13/34/9 10/35/9 9/36/9
f 15/37/10 14/38/10 9/39/10 12/40/10
f 16/41/11 15/42/11 12/43/11 11/44/11
f 13/45/12 16/46/12 11/47/12 10/48/12