# Made in Blockbench 4.12.5
mtllib diagonal_tent_pole_3tall_2wide.mtl

o cube
v 1.7711271421795565 3.067870491921243 -1.0371123507415172
v -0.229051364897358 0.0661738576275791 0.9640693640204514
v 0.03627803683984345 0.06604329430442718 1.229069914070819
v 2.036456543916758 3.067739928598091 -0.7721118006911498
v -0.0362780368398434 -0.19104329430442715 0.7709300859291811
v 1.9639004702370713 2.8106533399892366 -1.230251628832788
v 2.2292298719742725 2.8105227766660845 -0.9652510787824202
v 0.22905136489735806 -0.19117385762757905 1.0359306359795486
vt 0.5500004871958732 0.17499956453034748
vt 0.5500004871958732 0.9999996590909481
vt 0.4750004784362319 1
vt 0.4750004784362319 0.17499990543939958
vt 0.550000008759642 0.17499990543939925
vt 0.550000008759642 1
vt 0.47500000000000053 0.9999996590909481
vt 0.4750000000000007 0.17499956453034748
vt 0.4000000000000009 1
vt 0.4000000000000007 0.17499977305874326
vt 0.47500017652044396 0.17499993844127348
vt 0.4750010861243606 0.9999993079907207
vt 0.47500000000000037 0.09999998998958404
vt 0.5500000100104164 0.09999998998958404
vt 0.5500000100104164 0.17500000000000004
vt 0.47500000000000037 0.17500000000000004
vt 0.39999940107151444 0.9999999999999997
vt 0.399999401071514 0.17499977305874315
vt 0.4750004871958736 0.17500046506802247
vt 0.47499957759195777 0.9999998346174694
vt 0.4000000000000001 0.17500000000000038
vt 0.4000000000000001 0.09999998998958437
vt 0.47500001001041614 0.09999998998958437
vt 0.47500001001041614 0.17500000000000038
vn -0.514062208153372 0.6859124051520167 0.5150380749100546
vn 0.5140622081533728 -0.6859124051520165 -0.5150380749100543
vn -0.7075450712992044 0.0003481688617384725 -0.7066681334676466
vn 0.4848917592913738 0.7276840325560402 -0.4851349611544156
vn 0.7075450712992044 -0.0003481688617384725 0.7066681334676466
vn -0.48489175929137335 -0.7276840325560399 0.4851349611544167
usemtl m_42472882-d432-3262-b6ec-73aa947ab346
f 1/1/1 2/2/1 3/3/1 4/4/1
f 5/5/2 6/6/2 7/7/2 8/8/2
f 6/9/3 5/10/3 2/11/3 1/12/3
f 7/13/4 6/14/4 1/15/4 4/16/4
f 8/17/5 7/18/5 4/19/5 3/20/5
f 5/21/6 8/22/6 3/23/6 2/24/6