# Made in Blockbench 4.12.5
mtllib diagonal_tent_pole_3tall_2wide.mtl

o cube
v 1.8032560301891423 3.087500966599242 -1.0693022304233957
v 1.9317715822274855 2.9160228653112377 -1.1980617491509096
v 2.0685854319263437 3.08737040327609 -0.8043016803730282
v 2.2292298719742725 2.8730227766660845 -0.9652510787824202
v 0.22905136489735806 -0.12867385762757905 1.0359306359795486
v -0.0362780368398434 -0.12854329430442715 0.7709300859291811
v 1.9639004702370713 2.8731533399892366 -1.230251628832788
v 0.03627803683984345 0.12854329430442718 1.229069914070819
v 2.036456543916758 3.130239928598091 -0.7721118006911498
v 1.7711271421795565 3.130370491921243 -1.0371123507415172
v -0.229051364897358 0.1286738576275791 0.9640693640204514
vt 0 0.9999997159091235
vt 6.661338147750939e-16 0.31249963710862294
vt 0.3750000437982074 0.3124999211994993
vt 0.37500004379820695 1
vt 0.25 0.9999904986784406
vt 0.25000454796788674 0.3125
vt 0.625 0.3125095013215592
vt 0.624995452032113 1
vt 0.875 0.31251029330311686
vt 0.8749954520462795 1
vt 0.5000000000000001 0.9999904212977487
vt 0.5 0.3125
vt 1 0.3125000176110816
vt 0.9999999999999993 0.9999994922360388
vt 0.625 1
vt 0.6250045479584476 0.31249981088270407
vt 0.37500005005208004 0.3125
vt 0 0.3125
vt 1.1102230246251565e-16 0.2499999916579867
vt 0.37500005005208004 0.2499999916579867
vt 0.2500000000000001 0.3125
vt 0.25 0.2499999916579867
vt 0.62500005005208 0.2499999916579867
vt 0.62500005005208 0.3125
vn 0.5140622081533719 -0.6859124051520165 -0.5150380749100552
vn -0.514062208153372 0.6859124051520167 0.5150380749100546
vn 0.7075450712992041 -0.0003481688617381853 0.7066681334676469
vn -0.707545071299205 0.0003481688617390464 -0.706668133467646
vn -0.48489175929137346 -0.7276840325560398 0.4851349611544168
vn 0.48489175929137435 0.7276840325560395 -0.48513496115441623
usemtl m_cbb1e0ed-4892-3444-d482-b6c47f38dabf
f 4/1/1 5/2/1 6/3/1 7/4/1
f 8/5/2 9/6/2 10/7/2 11/8/2
f 9/9/3 8/10/3 5/11/3 4/12/3
f 11/13/4 10/14/4 7/15/4 6/16/4
f 11/17/5 6/18/5 5/19/5 8/20/5
f 9/21/6 4/22/6 7/23/6 10/24/6