# Made in Blockbench 4.12.5
mtllib diagonal_tent_pole_3tall_2wide_top.mtl

o cuboid
v 0.5621013900201391 0.6881928861181463 0.525036957628175
v 0.4977218835172303 0.7738407599089409 0.5894164641310835
v 0.035719131040406374 0.12884150453645085 1.2281959119045478
v 0.22885765054913304 -0.12810211683593295 1.0350573923958224
v -0.229445911904549 0.12884150453644952 0.9630308689595924
v 0.4093335358689118 0.7738407599089404 0.501028116482765
v 0.4737130423718207 0.6881928861181459 0.43664860997985655
v -0.03630739239582234 -0.12810211683593428 0.769892349450867
vt 0.2500013782601259 0.9999999870335294
vt 0.12499781190477627 1
vt 0 0.8333333333333334
vt 0.375001863380787 0.8333333333333334
vt 0.5625018633804898 0.8333334111354678
vt 0.4374982435855854 1
vt 0.3125035129153988 1
vt 0.1874999999999996 0.8333333333333334
vt 0.5000000000000034 0.8333333333333334
vt 0.37500000000000344 0.8333333333333334
vt 0.37500000000000344 0.8125
vt 0.5000000000000034 0.8125
vt 0.375 0.7708333333333334
vt 0.375 0.8333333333333334
vt 0 0.8333333333333334
vt 0 0.7708333333333334
vt 1 0.8333333333333334
vt 0.875 1
vt 0.75 1
vt 0.625 0.8333333333333334
vt 0.6875000000000034 1
vt 0.5625000000000034 1
vt 0.43750000000000344 0.8333333333333334
vt 0.8125000000000034 0.8333333333333334
vn 0.7615901735916205 0.09006616662405229 0.6417698131872003
vn -0.641769813187201 0.09006616662404524 -0.7615901735916207
vn 0.4844975388134415 0.7283709698824028 -0.48449753881344515
vn -0.48449753881344176 -0.7283709698824026 0.4844975388134453
vn -0.45117315712991507 0.769990626287654 0.45117315712991085
vn 0.5709935175343345 -0.5898582930395565 -0.5709935175343311
usemtl m_73a64b58-e5b2-6cc1-c754-8c0cde8e602a
f 1/1/1 2/2/1 3/3/1 4/4/1
f 5/5/2 6/6/2 7/7/2 8/8/2
f 6/9/3 2/10/3 1/11/3 7/12/3
f 4/13/4 3/14/4 5/15/4 8/16/4
f 3/17/5 2/18/5 6/19/5 5/20/5
f 7/21/6 1/22/6 4/23/6 8/24/6