# Made in Blockbench 4.12.5
mtllib diagonal_tent_pole_3tall_top.mtl

o cuboid
v 0.3243564658200748 0.8165580556592436 0.7640318818282406
v 0.24441316999134366 0.8698791481469257 0.8439751776569717
v -0.04971401946754632 0.015918672850694565 1.314879062412501
v 0.19011586801864716 -0.14404460461235175 1.0750491749263076
v -0.31487906241250185 0.015918672850693927 1.049714019467546
v 0.15602482234302512 0.8698791481469255 0.7555868300086533
v 0.23596811817175628 0.8165580556592433 0.6756435341799222
v -0.0750491749263084 -0.1440446046123524 0.8098841319813526
vt 0.24999390361001228 1
vt 0.12499793586258323 0.999999984663498
vt 0 0.8333333333333334
vt 0.375001875880725 0.8333333333333334
vt 0.56249919274916 0.8333333333333334
vt 0.437527140464946 1
vt 0.31252284491375304 1
vt 0.18749999999999833 0.8333356829754746
vt 0.5000000000000024 0.8229166666666667
vt 0.37500000000000244 0.8229166666666667
vt 0.37500000000000244 0.8020833333333335
vt 0.5000000000000024 0.8020833333333335
vt 0.375 0.7604166666666666
vt 0.375 0.8229166666666666
vt 0 0.8229166666666666
vt 0 0.7604166666666666
vt 0.8125 0.8333333333333334
vt 0.6875 1
vt 0.5625 1
vt 0.4375 0.8333333333333334
vt 0.875 1
vt 0.75 1
vt 0.625 0.8333333333333334
vt 1 0.8333333333333334
vn 0.7389777816254464 0.11183972344151043 0.6643822051533746
vn -0.6643822051533759 0.11183972344150739 -0.7389777816254457
vn 0.3016296486265195 0.9044551454543687 -0.3016296486265223
vn -0.3016296486265194 -0.9044551454543688 0.30162964862652214
vn -0.5973402922474046 0.5351347031501236 0.5973402922474044
vn 0.6719358687194749 -0.3114552562671058 -0.6719358687194754
usemtl m_3907cf83-8140-b633-842b-59135734d690
f 1/1/1 2/2/1 3/3/1 4/4/1
f 5/5/2 6/6/2 7/7/2 8/8/2
f 6/9/3 2/10/3 1/11/3 7/12/3
f 4/13/4 3/14/4 5/15/4 8/16/4
f 3/17/5 2/18/5 6/19/5 5/20/5
f 7/21/6 1/22/6 4/23/6 8/24/6