# Made in Blockbench 4.8.3
mtllib eye_banner_1.mtl

o cube
v 1.043619387365336 -0.0634517784181422 0.5625
v 1.043619387365336 -0.0634517784181422 0.4375
v 1.0027262117103335 -1.0000594861511338 0.5625
v 1.0027262117103335 -1.0000594861511338 0.4375
v 0.9187383596676038 -0.057999354997475105 0.4375
v 0.9187383596676038 -0.057999354997475105 0.5625
v 0.8778451840126014 -0.9946070627304668 0.4375
v 0.8778451840126014 -0.9946070627304668 0.5625
vt 0.671875 0.89375
vt 0.6875 0.89375
vt 0.6875 0.7375
vt 0.671875 0.7375
vt 0.6328125 0.8391666666666666
vt 0.6484375 0.8391666666666666
vt 0.6484375 0.6829166666666666
vt 0.6328125 0.6829166666666666
vt 0.65625 0.8929166666666667
vt 0.671875 0.8929166666666667
vt 0.671875 0.7366666666666666
vt 0.65625 0.7366666666666666
vt 0.6484375 0.8241666666666667
vt 0.6640625 0.8241666666666667
vt 0.6640625 0.6679166666666667
vt 0.6484375 0.6679166666666667
vt 0.6640625 0.6837500000000001
vt 0.6796875 0.6837500000000001
vt 0.6796875 0.6629166666666666
vt 0.6640625 0.6629166666666666
vt 0.671875 0.7091666666666667
vt 0.6875 0.7091666666666667
vt 0.6875 0.6883333333333332
vt 0.671875 0.6883333333333332
vn 0 0 -1
vn 0.9990482215818578 -0.043619387365336 0
vn 0 0 1
vn -0.9990482215818578 0.043619387365336 0
vn 0.043619387365336 0.9990482215818578 0
vn -0.043619387365336 -0.9990482215818578 0
usemtl m_24ac5c0f-83e0-ddd6-a9d1-e561625c5e38
f 4/4/1 7/3/1 5/2/1 2/1/1
f 3/8/2 4/7/2 2/6/2 1/5/2
f 8/12/3 3/11/3 1/10/3 6/9/3
f 7/16/4 8/15/4 6/14/4 5/13/4
f 6/20/5 1/19/5 2/18/5 5/17/5
f 7/24/6 4/23/6 3/22/6 8/21/6
o cube
v 1.04375 2 0.5625
v 1.04375 2 0.4375
v 1.04375 -0.0625 0.5625
v 1.04375 -0.0625 0.4375
v 0.91875 2 0.4375
v 0.91875 2 0.5625
v 0.91875 -0.0625 0.4375
v 0.91875 -0.0625 0.5625
vt 0.6015625 0.9504166666666667
vt 0.6171875 0.9504166666666667
vt 0.6171875 0.6275
vt 0.6015625 0.6275
vt 0.6484375 0.9504166666666667
vt 0.6640625 0.9504166666666667
vt 0.6640625 0.6275
vt 0.6484375 0.6275
vt 0.6796875 0.9495833333333333
vt 0.6953125 0.9495833333333333
vt 0.6953125 0.6266666666666667
vt 0.6796875 0.6266666666666667
vt 0.625 0.9504166666666667
vt 0.640625 0.9504166666666667
vt 0.640625 0.6275
vt 0.625 0.6275
vt 0.6640625 0.6795833333333334
vt 0.6796875 0.6795833333333334
vt 0.6796875 0.65875
vt 0.6640625 0.65875
vt 0.6328125 0.8016666666666666
vt 0.6484375 0.8016666666666666
vt 0.6484375 0.7808333333333334
vt 0.6328125 0.7808333333333334
vn 0 0 -1
vn 1 0 0
vn 0 0 1
vn -1 0 0
vn 0 1 0
vn 0 -1 0
usemtl m_24ac5c0f-83e0-ddd6-a9d1-e561625c5e38
f 12/28/7 15/27/7 13/26/7 10/25/7
f 11/32/8 12/31/8 10/30/8 9/29/8
f 16/36/9 11/35/9 9/34/9 14/33/9
f 15/40/10 16/39/10 14/38/10 13/37/10
f 14/44/11 9/43/11 10/42/11 13/41/11
f 15/48/12 12/47/12 11/46/12 16/45/12
o cube
v 0.9375 1.9375 0.5625
v 0.9375 1.9375 0.4375
v 0.932047576579333 1.8126189723022677 0.5625
v 0.932047576579333 1.8126189723022677 0.4375
v 0.25065434766247274 1.9674883288136682 0.4375
v 0.25065434766247274 1.9674883288136682 0.5625
v 0.24520192424180576 1.8426073011159363 0.4375
v 0.24520192424180576 1.8426073011159363 0.5625
vt 0.6640625 0.6695833333333334
vt 0.6640625 0.7841666666666667
vt 0.6796875 0.7841666666666667
vt 0.6796875 0.6695833333333334
vt 0.671875 0.6883333333333332
vt 0.6875 0.6883333333333332
vt 0.6875 0.6675
vt 0.671875 0.6675
vt 0.6796875 0.72875
vt 0.6796875 0.8433333333333334
vt 0.6640625 0.8433333333333334
vt 0.6640625 0.72875
vt 0.671875 0.7041666666666666
vt 0.6875 0.7041666666666666
vt 0.6875 0.6833333333333333
vt 0.671875 0.6833333333333333
vt 0.65625 0.7566666666666667
vt 0.65625 0.87125
vt 0.671875 0.87125
vt 0.671875 0.7566666666666667
vt 0.6640625 0.7854166666666667
vt 0.6640625 0.9
vt 0.6796875 0.9
vt 0.6796875 0.7854166666666667
vn 0 0 -1
vn 0.9990482215818578 -0.043619387365336 0
vn 0 0 1
vn -0.9990482215818578 0.043619387365336 0
vn 0.043619387365336 0.9990482215818578 0
vn -0.043619387365336 -0.9990482215818578 0
usemtl m_24ac5c0f-83e0-ddd6-a9d1-e561625c5e38
f 20/52/13 23/51/13 21/50/13 18/49/13
f 19/56/14 20/55/14 18/54/14 17/53/14
f 24/60/15 19/59/15 17/58/15 22/57/15
f 23/64/16 24/63/16 22/62/16 21/61/16
f 22/68/17 17/67/17 18/66/17 21/65/17
f 23/72/18 20/71/18 19/70/18 24/69/18
o cube
v 0.25 1.96875 0.5625
v 0.25 1.96875 0.4375
v 0.25 1.84375 0.5625
v 0.25 1.84375 0.4375
v -0.625 1.96875 0.4375
v -0.625 1.96875 0.5625
v -0.625 1.84375 0.4375
v -0.625 1.84375 0.5625
vt 0.65625 0.7775
vt 0.65625 0.9233333333333333
vt 0.671875 0.9233333333333333
vt 0.671875 0.7775
vt 0.6796875 0.7241666666666666
vt 0.6953125 0.7241666666666666
vt 0.6953125 0.7033333333333334
vt 0.6796875 0.7033333333333334
vt 0.6640625 0.6841666666666666
vt 0.6640625 0.83
vt 0.6796875 0.83
vt 0.6796875 0.6841666666666666
vt 0.671875 0.8879166666666667
vt 0.6875 0.8879166666666667
vt 0.6875 0.8670833333333333
vt 0.671875 0.8670833333333333
vt 0.6640625 0.7041666666666666
vt 0.6640625 0.85
vt 0.6796875 0.85
vt 0.6796875 0.7041666666666666
vt 0.6640625 0.7583333333333333
vt 0.6640625 0.9041666666666667
vt 0.6796875 0.9041666666666667
vt 0.6796875 0.7583333333333333
vn 0 0 -1
vn 1 0 0
vn 0 0 1
vn -1 0 0
vn 0 1 0
vn 0 -1 0
usemtl m_24ac5c0f-83e0-ddd6-a9d1-e561625c5e38
f 28/76/19 31/75/19 29/74/19 26/73/19
f 27/80/20 28/79/20 26/78/20 25/77/20
f 32/84/21 27/83/21 25/82/21 30/81/21
f 31/88/22 32/87/22 30/86/22 29/85/22
f 30/92/23 25/91/23 26/90/23 29/89/23
f 31/96/24 28/95/24 27/94/24 32/93/24
o cube
v 0.875 1.875 0.46875
v 0.875 1.875 0.46875
v 0.875 -0.3125 0.46875
v 0.875 -0.3125 0.46875
v -0.4375 1.875 0.46875
v -0.4375 1.875 0.46875
v -0.4375 -0.3125 0.46875
v -0.4375 -0.3125 0.46875
vt 0.2109375 0.96
vt 0.375 0.96
vt 0.375 0.5954166666666667
vt 0.2109375 0.5954166666666667
vt 0 1
vt 0 1
vt 0 0.4
vt 0 0.4
vt 0.5390625 0.96
vt 0.375 0.96
vt 0.375 0.5954166666666667
vt 0.5390625 0.5954166666666667
vt 0 1
vt 0 1
vt 0 0.4
vt 0 0.4
vt 0 1
vt 0.3125 1
vt 0.3125 1
vt 0 1
vt 0 1
vt 0.3125 1
vt 0.3125 1
vt 0 1
vn 0 0 -1
vn 1 0 0
vn 0 0 1
vn -1 0 0
vn 0 1 0
vn 0 -1 0
usemtl m_24ac5c0f-83e0-ddd6-a9d1-e561625c5e38
f 36/100/25 39/99/25 37/98/25 34/97/25
f 35/104/26 36/103/26 34/102/26 33/101/26
f 40/108/27 35/107/27 33/106/27 38/105/27
f 39/112/28 40/111/28 38/110/28 37/109/28
f 38/116/29 33/115/29 34/114/29 37/113/29
f 39/120/30 36/119/30 35/118/30 40/117/30
o cube
v 0.9706708580912724 1.6684698831278215 0.55
v 0.9706708580912724 1.6684698831278215 0.5
v 0.9228354290456362 1.5529849415639108 0.55
v 0.9228354290456362 1.5529849415639108 0.5
v 0.2777612087078074 1.9554824574016392 0.5
v 0.2777612087078074 1.9554824574016392 0.55
v 0.2299257796621712 1.8399975158377284 0.5
v 0.2299257796621712 1.8399975158377284 0.55
vt 0.6015625 0.7920833333333334
vt 0.6953125 0.7920833333333334
vt 0.6953125 0.77125
vt 0.6015625 0.77125
vt 0.6484375 0.8616666666666667
vt 0.6546875 0.8616666666666667
vt 0.6546875 0.8408333333333333
vt 0.6484375 0.8408333333333333
vt 0.609375 0.9216666666666666
vt 0.703125 0.9216666666666666
vt 0.703125 0.9008333333333334
vt 0.609375 0.9008333333333334
vt 0.640625 0.7745833333333333
vt 0.646875 0.7745833333333333
vt 0.646875 0.75375
vt 0.640625 0.75375
vt 0.59375 0.6737500000000001
vt 0.6875 0.6737500000000001
vt 0.6875 0.6654166666666668
vt 0.59375 0.6654166666666668
vt 0.6015625 0.7075
vt 0.6953125 0.7075
vt 0.6953125 0.6991666666666667
vt 0.6015625 0.6991666666666667
vn 0 0 -1
vn 0.9238795325112867 -0.3826834323650897 0
vn 0 0 1
vn -0.9238795325112867 0.3826834323650897 0
vn 0.3826834323650897 0.9238795325112867 0
vn -0.3826834323650897 -0.9238795325112867 0
usemtl m_24ac5c0f-83e0-ddd6-a9d1-e561625c5e38
f 44/124/31 47/123/31 45/122/31 42/121/31
f 43/128/32 44/127/32 42/126/32 41/125/32
f 48/132/33 43/131/33 41/130/33 46/129/33
f 47/136/34 48/135/34 46/134/34 45/133/34
f 46/140/35 41/139/35 42/138/35 45/137/35
f 47/144/36 44/143/36 43/142/36 48/141/36
o cube
v 0.8374999999999999 1.9625 0.575
v 0.8374999999999999 1.9625 0.42500000000000004
v 0.8374999999999999 1.8125 0.575
v 0.8374999999999999 1.8125 0.42500000000000004
v 0.75 1.9625 0.42500000000000004
v 0.75 1.9625 0.575
v 0.75 1.8125 0.42500000000000004
v 0.75 1.8125 0.575
vt 0.5546875 0.8416666666666667
vt 0.5578125 0.8416666666666667
vt 0.5578125 0.8166666666666667
vt 0.5546875 0.8166666666666667
vt 0.5546875 0.8816666666666667
vt 0.5578125 0.8816666666666667
vt 0.5578125 0.8566666666666667
vt 0.5546875 0.8566666666666667
vt 0.5546875 0.89625
vt 0.5578125 0.89625
vt 0.5578125 0.87125
vt 0.5546875 0.87125
vt 0.5546875 0.93125
vt 0.565625 0.93125
vt 0.565625 0.90625
vt 0.5546875 0.90625
vt 0.5546875 0.8675
vt 0.5578125 0.8675
vt 0.5578125 0.8425
vt 0.5546875 0.8425
vt 0.5546875 0.8433333333333334
vt 0.5578125 0.8433333333333334
vt 0.5578125 0.8183333333333334
vt 0.5546875 0.8183333333333334
vn 0 0 -1
vn 1 0 0
vn 0 0 1
vn -1 0 0
vn 0 1 0
vn 0 -1 0
usemtl m_24ac5c0f-83e0-ddd6-a9d1-e561625c5e38
f 52/148/37 55/147/37 53/146/37 50/145/37
f 51/152/38 52/151/38 50/150/38 49/149/38
f 56/156/39 51/155/39 49/154/39 54/153/39
f 55/160/40 56/159/40 54/158/40 53/157/40
f 54/164/41 49/163/41 50/162/41 53/161/41
f 55/168/42 52/167/42 51/166/42 56/165/42
o cube
v 0.5249999999999999 1.9625 0.575
v 0.5249999999999999 1.9625 0.42500000000000004
v 0.5249999999999999 1.8125 0.575
v 0.5249999999999999 1.8125 0.42500000000000004
v 0.4375 1.9625 0.42500000000000004
v 0.4375 1.9625 0.575
v 0.4375 1.8125 0.42500000000000004
v 0.4375 1.8125 0.575
vt 0.5546875 0.8416666666666667
vt 0.5578125 0.8416666666666667
vt 0.5578125 0.8166666666666667
vt 0.5546875 0.8166666666666667
vt 0.5546875 0.9025
vt 0.5578125 0.9025
vt 0.5578125 0.8775000000000001
vt 0.5546875 0.8775000000000001
vt 0.5546875 0.83375
vt 0.5578125 0.83375
vt 0.5578125 0.80875
vt 0.5546875 0.80875
vt 0.5546875 0.9
vt 0.5578125 0.9
vt 0.5578125 0.875
vt 0.5546875 0.875
vt 0.5546875 0.93
vt 0.5578125 0.93
vt 0.5578125 0.905
vt 0.5546875 0.905
vt 0.5546875 0.8745833333333334
vt 0.5578125 0.8745833333333334
vt 0.5578125 0.8495833333333334
vt 0.5546875 0.8495833333333334
vn 0 0 -1
vn 1 0 0
vn 0 0 1
vn -1 0 0
vn 0 1 0
vn 0 -1 0
usemtl m_24ac5c0f-83e0-ddd6-a9d1-e561625c5e38
f 60/172/43 63/171/43 61/170/43 58/169/43
f 59/176/44 60/175/44 58/174/44 57/173/44
f 64/180/45 59/179/45 57/178/45 62/177/45
f 63/184/46 64/183/46 62/182/46 61/181/46
f 62/188/47 57/187/47 58/186/47 61/185/47
f 63/192/48 60/191/48 59/190/48 64/189/48
o cube
v -0.22499999999999998 1.9812500000000002 0.575
v -0.22499999999999998 1.9812500000000002 0.42500000000000004
v -0.22499999999999998 1.8312499999999998 0.575
v -0.22499999999999998 1.8312499999999998 0.42500000000000004
v -0.3125 1.9812500000000002 0.42500000000000004
v -0.3125 1.9812500000000002 0.575
v -0.3125 1.8312499999999998 0.42500000000000004
v -0.3125 1.8312499999999998 0.575
vt 0.5546875 0.8416666666666667
vt 0.5578125 0.8416666666666667
vt 0.5578125 0.8166666666666667
vt 0.5546875 0.8166666666666667
vt 0.5546875 0.87125
vt 0.5578125 0.87125
vt 0.5578125 0.8462500000000001
vt 0.5546875 0.8462500000000001
vt 0.5546875 0.8233333333333334
vt 0.5578125 0.8233333333333334
vt 0.5578125 0.7983333333333333
vt 0.5546875 0.7983333333333333
vt 0.5546875 0.9
vt 0.5578125 0.9
vt 0.5578125 0.875
vt 0.5546875 0.875
vt 0.5546875 0.8570833333333333
vt 0.5578125 0.8570833333333333
vt 0.5578125 0.8320833333333334
vt 0.5546875 0.8320833333333334
vt 0.5546875 0.8016666666666666
vt 0.5578125 0.8016666666666666
vt 0.5578125 0.7766666666666667
vt 0.5546875 0.7766666666666667
vn 0 0 -1
vn 1 0 0
vn 0 0 1
vn -1 0 0
vn 0 1 0
vn 0 -1 0
usemtl m_24ac5c0f-83e0-ddd6-a9d1-e561625c5e38
f 68/196/49 71/195/49 69/194/49 66/193/49
f 67/200/50 68/199/50 66/198/50 65/197/50
f 72/204/51 67/203/51 65/202/51 70/201/51
f 71/208/52 72/207/52 70/206/52 69/205/52
f 70/212/53 65/211/53 66/210/53 69/209/53
f 71/216/54 68/215/54 67/214/54 72/213/54
o cube
v 0.08750000000000002 1.9812500000000002 0.575
v 0.08750000000000002 1.9812500000000002 0.42500000000000004
v 0.08750000000000002 1.8312499999999998 0.575
v 0.08750000000000002 1.8312499999999998 0.42500000000000004
v 0 1.9812500000000002 0.42500000000000004
v 0 1.9812500000000002 0.575
v 0 1.8312499999999998 0.42500000000000004
v 0 1.8312499999999998 0.575
vt 0.5546875 0.8520833333333333
vt 0.5578125 0.8520833333333333
vt 0.5578125 0.8270833333333334
vt 0.5546875 0.8270833333333334
vt 0.5546875 0.8816666666666667
vt 0.5578125 0.8816666666666667
vt 0.5578125 0.8566666666666667
vt 0.5546875 0.8566666666666667
vt 0.5546875 0.8129166666666666
vt 0.5578125 0.8129166666666666
vt 0.5578125 0.7879166666666667
vt 0.5546875 0.7879166666666667
vt 0.5546875 0.9208333333333334
vt 0.565625 0.9208333333333334
vt 0.565625 0.8958333333333333
vt 0.5546875 0.8958333333333333
vt 0.5546875 0.8466666666666667
vt 0.5578125 0.8466666666666667
vt 0.5578125 0.8216666666666667
vt 0.5546875 0.8216666666666667
vt 0.5546875 0.8641666666666666
vt 0.5578125 0.8641666666666666
vt 0.5578125 0.8391666666666666
vt 0.5546875 0.8391666666666666
vn 0 0 -1
vn 1 0 0
vn 0 0 1
vn -1 0 0
vn 0 1 0
vn 0 -1 0
usemtl m_24ac5c0f-83e0-ddd6-a9d1-e561625c5e38
f 76/220/55 79/219/55 77/218/55 74/217/55
f 75/224/56 76/223/56 74/222/56 73/221/56
f 80/228/57 75/227/57 73/226/57 78/225/57
f 79/232/58 80/231/58 78/230/58 77/229/58
f 78/236/59 73/235/59 74/234/59 77/233/59
f 79/240/60 76/239/60 75/238/60 80/237/60