# Made in Blockbench 4.12.3
mtllib eye_banner_2.mtl

o cube
v 0.5625 -1 0.4375
v 0.4375 -1 0.4375
v 0.4375 0.125 0.4375
v 0.5625 0.125 0.4375
v 0.5625 -1 0.5625
v 0.5625 0.125 0.5625
v 0.4375 -1 0.5625
v 0.4375 0.125 0.5625
vt 0.9453125 0.6979166666666667
vt 0.9609375 0.6979166666666667
vt 0.9609375 0.8854166666666666
vt 0.9453125 0.8854166666666666
vt 0.953125 0.5833333333333333
vt 0.96875 0.5833333333333333
vt 0.96875 0.7708333333333334
vt 0.953125 0.7708333333333334
vt 0.9140625 0.6458333333333333
vt 0.9296875 0.6458333333333333
vt 0.9296875 0.8333333333333334
vt 0.9140625 0.8333333333333334
vt 0.9140625 0.6041666666666667
vt 0.9296875 0.6041666666666667
vt 0.9296875 0.7916666666666666
vt 0.9140625 0.7916666666666666
vt 0.921875 0.7777777777777778
vt 0.9375 0.7777777777777778
vt 0.9375 0.8055555555555555
vt 0.921875 0.8055555555555555
vt 0.9453125 0.6666666666666667
vt 0.9609375 0.6666666666666667
vt 0.9609375 0.6944444444444444
vt 0.9453125 0.6944444444444444
vn 0 0 -1
vn 1 0 0
vn 0 0 1
vn -1 0 0
vn 0 1 0
vn 0 -1 0
usemtl m_9909aa56-5a2b-c3be-e4b5-9fdc8bb713e8
f 1/1/1 2/2/1 3/3/1 4/4/1
f 5/5/2 1/6/2 4/7/2 6/8/2
f 7/9/3 5/10/3 6/11/3 8/12/3
f 2/13/4 7/14/4 8/15/4 3/16/4
f 8/17/5 6/18/5 4/19/5 3/20/5
f 2/21/6 1/22/6 5/23/6 7/24/6
o cube
v 0.5625 0.125 0.4375
v 0.4375 0.125 0.4375
v 0.4375 2 0.4375
v 0.5625 2 0.4375
v 0.5625 0.125 0.5625
v 0.5625 2 0.5625
v 0.4375 0.125 0.5625
v 0.4375 2 0.5625
vt 0.921875 0.5833333333333333
vt 0.9375 0.5833333333333333
vt 0.9375 0.8958333333333334
vt 0.921875 0.8958333333333334
vt 0.90625 0.5833333333333333
vt 0.921875 0.5833333333333333
vt 0.921875 0.8958333333333334
vt 0.90625 0.8958333333333334
vt 0.921875 0.5833333333333333
vt 0.9375 0.5833333333333333
vt 0.9375 0.8958333333333334
vt 0.921875 0.8958333333333334
vt 0.8984375 0.5833333333333333
vt 0.9140625 0.5833333333333333
vt 0.9140625 0.8958333333333334
vt 0.8984375 0.8958333333333334
vt 0.8984375 0.7916666666666666
vt 0.9140625 0.7916666666666666
vt 0.9140625 0.8194444444444445
vt 0.8984375 0.8194444444444445
vt 0.8828125 0.5972222222222223
vt 0.8984375 0.5972222222222223
vt 0.8984375 0.625
vt 0.8828125 0.625
vn 0 0 -1
vn 1 0 0
vn 0 0 1
vn -1 0 0
vn 0 1 0
vn 0 -1 0
usemtl m_9909aa56-5a2b-c3be-e4b5-9fdc8bb713e8
f 9/25/7 10/26/7 11/27/7 12/28/7
f 13/29/8 9/30/8 12/31/8 14/32/8
f 15/33/9 13/34/9 14/35/9 16/36/9
f 10/37/10 15/38/10 16/39/10 11/40/10
f 16/41/11 14/42/11 12/43/11 11/44/11
f 10/45/12 9/46/12 13/47/12 15/48/12
o cube
v 1.125 1.75 0.375
v 1.125 1.75 0.375
v 1.125 -0.125 0.375
v 1.125 -0.125 0.375
v -0.125 1.75 0.375
v -0.125 1.75 0.375
v -0.125 -0.125 0.375
v -0.125 -0.125 0.375
vt 0.25 0.9583333333333334
vt 0.40625 0.9583333333333334
vt 0.40625 0.65625
vt 0.25 0.65625
vt 0.25 0.9583333333333334
vt 0.25 0.9583333333333334
vt 0.25 0.7083333333333333
vt 0.25 0.7083333333333333
vt 0.484375 0.9583333333333334
vt 0.640625 0.9583333333333334
vt 0.640625 0.65625
vt 0.484375 0.65625
vt 0.25 0.9583333333333334
vt 0.25 0.9583333333333334
vt 0.25 0.7083333333333333
vt 0.25 0.7083333333333333
vt 0 1
vt 0.15625 1
vt 0.15625 1
vt 0 1
vt 0 1
vt 0.15625 1
vt 0.15625 1
vt 0 1
vn 0 0 -1
vn 1 0 0
vn 0 0 1
vn -1 0 0
vn 0 1 0
vn 0 -1 0
usemtl m_9909aa56-5a2b-c3be-e4b5-9fdc8bb713e8
f 20/52/13 23/51/13 21/50/13 18/49/13
f 19/56/14 20/55/14 18/54/14 17/53/14
f 24/60/15 19/59/15 17/58/15 22/57/15
f 23/64/16 24/63/16 22/62/16 21/61/16
f 22/68/17 17/67/17 18/66/17 21/65/17
f 23/72/18 20/71/18 19/70/18 24/69/18
o cube
v 1.125 1.875 0.5
v 1.125 1.875 0.375
v 1.125 1.75 0.5
v 1.125 1.75 0.375
v -0.125 1.875 0.375
v -0.125 1.875 0.5
v -0.125 1.75 0.375
v -0.125 1.75 0.5
vt 0.9296875 0.6458333333333333
vt 0.9296875 0.8541666666666666
vt 0.9453125 0.8541666666666666
vt 0.9453125 0.6458333333333333
vt 0.9296875 0.8333333333333334
vt 0.9296875 0.8541666666666666
vt 0.9453125 0.8541666666666666
vt 0.9453125 0.8333333333333334
vt 0.9296875 0.6458333333333333
vt 0.9296875 0.8541666666666666
vt 0.9453125 0.8541666666666666
vt 0.9453125 0.6458333333333333
vt 0.9296875 0.8333333333333334
vt 0.9296875 0.8541666666666666
vt 0.9453125 0.8541666666666666
vt 0.9453125 0.8333333333333334
vt 0.9296875 0.6458333333333333
vt 0.9296875 0.8541666666666666
vt 0.9453125 0.8541666666666666
vt 0.9453125 0.6458333333333333
vt 0.9296875 0.6458333333333333
vt 0.9296875 0.8541666666666666
vt 0.9453125 0.8541666666666666
vt 0.9453125 0.6458333333333333
vn 0 0 -1
vn 1 0 0
vn 0 0 1
vn -1 0 0
vn 0 1 0
vn 0 -1 0
usemtl m_9909aa56-5a2b-c3be-e4b5-9fdc8bb713e8
f 28/76/19 31/75/19 29/74/19 26/73/19
f 27/80/20 28/79/20 26/78/20 25/77/20
f 32/84/21 27/83/21 25/82/21 30/81/21
f 31/88/22 32/87/22 30/86/22 29/85/22
f 30/92/23 25/91/23 26/90/23 29/89/23
f 31/96/24 28/95/24 27/94/24 32/93/24
o cube
v 0.703125 1.890625 0.515625
v 0.703125 1.890625 0.359375
v 0.703125 1.734375 0.515625
v 0.703125 1.734375 0.359375
v 0.3125 1.890625 0.359375
v 0.3125 1.890625 0.515625
v 0.3125 1.734375 0.359375
v 0.3125 1.734375 0.515625
vt 0.6875 0.8229166666666666
vt 0.6875 0.8854166666666666
vt 0.703125 0.8854166666666666
vt 0.703125 0.8229166666666666
vt 0.6875 0.8619791666666666
vt 0.6875 0.8854166666666666
vt 0.703125 0.8854166666666666
vt 0.703125 0.8619791666666666
vt 0.6875 0.8229166666666666
vt 0.6875 0.8854166666666666
vt 0.703125 0.8854166666666666
vt 0.703125 0.8229166666666666
vt 0.6875 0.8619791666666666
vt 0.6875 0.8854166666666666
vt 0.703125 0.8854166666666666
vt 0.703125 0.8619791666666666
vt 0.6875 0.8229166666666666
vt 0.6875 0.8854166666666666
vt 0.703125 0.8854166666666666
vt 0.703125 0.8229166666666666
vt 0.6875 0.8229166666666666
vt 0.6875 0.8854166666666666
vt 0.703125 0.8854166666666666
vt 0.703125 0.8229166666666666
vn 0 0 -1
vn 1 0 0
vn 0 0 1
vn -1 0 0
vn 0 1 0
vn 0 -1 0
usemtl m_9909aa56-5a2b-c3be-e4b5-9fdc8bb713e8
f 36/100/25 39/99/25 37/98/25 34/97/25
f 35/104/26 36/103/26 34/102/26 33/101/26
f 40/108/27 35/107/27 33/106/27 38/105/27
f 39/112/28 40/111/28 38/110/28 37/109/28
f 38/116/29 33/115/29 34/114/29 37/113/29
f 39/120/30 36/119/30 35/118/30 40/117/30
o cube
v 0.953125 1.890625 0.515625
v 0.953125 1.890625 0.359375
v 0.953125 1.734375 0.515625
v 0.953125 1.734375 0.359375
v 0.8125 1.890625 0.359375
v 0.8125 1.890625 0.515625
v 0.8125 1.734375 0.359375
v 0.8125 1.734375 0.515625
vt 0.6875 0.8645833333333334
vt 0.6875 0.8854166666666666
vt 0.703125 0.8854166666666666
vt 0.703125 0.8645833333333334
vt 0.6875 0.8619791666666666
vt 0.6875 0.8854166666666666
vt 0.703125 0.8854166666666666
vt 0.703125 0.8619791666666666
vt 0.6875 0.8645833333333334
vt 0.6875 0.8854166666666666
vt 0.703125 0.8854166666666666
vt 0.703125 0.8645833333333334
vt 0.6875 0.8619791666666666
vt 0.6875 0.8854166666666666
vt 0.703125 0.8854166666666666
vt 0.703125 0.8619791666666666
vt 0.6875 0.8645833333333334
vt 0.6875 0.8854166666666666
vt 0.703125 0.8854166666666666
vt 0.703125 0.8645833333333334
vt 0.6875 0.8645833333333334
vt 0.6875 0.8854166666666666
vt 0.703125 0.8854166666666666
vt 0.703125 0.8645833333333334
vn 0 0 -1
vn 1 0 0
vn 0 0 1
vn -1 0 0
vn 0 1 0
vn 0 -1 0
usemtl m_9909aa56-5a2b-c3be-e4b5-9fdc8bb713e8
f 44/124/31 47/123/31 45/122/31 42/121/31
f 43/128/32 44/127/32 42/126/32 41/125/32
f 48/132/33 43/131/33 41/130/33 46/129/33
f 47/136/34 48/135/34 46/134/34 45/133/34
f 46/140/35 41/139/35 42/138/35 45/137/35
f 47/144/36 44/143/36 43/142/36 48/141/36
o cube
v 0.203125 1.890625 0.515625
v 0.203125 1.890625 0.359375
v 0.203125 1.734375 0.515625
v 0.203125 1.734375 0.359375
v 0.0625 1.890625 0.359375
v 0.0625 1.890625 0.515625
v 0.0625 1.734375 0.359375
v 0.0625 1.734375 0.515625
vt 0.6875 0.8645833333333334
vt 0.6875 0.8854166666666666
vt 0.703125 0.8854166666666666
vt 0.703125 0.8645833333333334
vt 0.6875 0.8619791666666666
vt 0.6875 0.8854166666666666
vt 0.703125 0.8854166666666666
vt 0.703125 0.8619791666666666
vt 0.6875 0.8645833333333334
vt 0.6875 0.8854166666666666
vt 0.703125 0.8854166666666666
vt 0.703125 0.8645833333333334
vt 0.6875 0.8619791666666666
vt 0.6875 0.8854166666666666
vt 0.703125 0.8854166666666666
vt 0.703125 0.8619791666666666
vt 0.6875 0.8645833333333334
vt 0.6875 0.8854166666666666
vt 0.703125 0.8854166666666666
vt 0.703125 0.8645833333333334
vt 0.6875 0.8645833333333334
vt 0.6875 0.8854166666666666
vt 0.703125 0.8854166666666666
vt 0.703125 0.8645833333333334
vn 0 0 -1
vn 1 0 0
vn 0 0 1
vn -1 0 0
vn 0 1 0
vn 0 -1 0
usemtl m_9909aa56-5a2b-c3be-e4b5-9fdc8bb713e8
f 52/148/37 55/147/37 53/146/37 50/145/37
f 51/152/38 52/151/38 50/150/38 49/149/38
f 56/156/39 51/155/39 49/154/39 54/153/39
f 55/160/40 56/159/40 54/158/40 53/157/40
f 54/164/41 49/163/41 50/162/41 53/161/41
f 55/168/42 52/167/42 51/166/42 56/165/42