# Made in Blockbench 5.0.4
mtllib horizontal_spike_thin_diagonal.mtl

o cuboid
v 1.351382344483334 1.1625 0.9969174955567268
v 1.2585745794526 0.58125 0.9924980781743111
v 0.7989551716813438 0.64375 0.5770728442272143
v 0.6442755632967865 1.2875 0.37819906201849773
v 0.3791105203518312 1.2875 0.6433641049634531
v 0.5779843025605477 0.64375 0.7980437133480104
v 0.9934095365076446 0.58125 1.2576631211192664
v 0.9978289538900603 1.1625 1.3504708861500005
v 1.351382344483334 1.25 0.9969174955567268
v 0.6442755632967865 1.375 0.37819906201849773
v 0.3791105203518312 1.375 0.6433641049634531
v 0.9978289538900603 1.25 1.3504708861500005
v 0.9978289538900607 0 1.173694190853364
v 0.7768580847692642 0 0.9527233217325677
v 0.9536347800659011 0 0.7759466264359307
v 1.1779202122235095 0 1.0002320585935391
v 0.09847751656841991 1.5433613885844308 -0.07921063706154996
v 0.4597648875809217 0.7716806942922154 0.2820767339509516
v 0.282988192284285 0.7716806942922154 0.4588534292475883
v -0.07829917872821668 1.5433613885844308 0.09756605823508668
v 0.12941343824533136 1.6191386114155693 -0.04827471538463857
v -0.047363257051305174 1.6191386114155693 0.12850197991199808
v 0.8210522585934233 0 0.6433641049634531
v 0.6442755632967865 0 0.82014080026009
v 0.9978289538900602 1.25 0.9969174955567268
v 0.5116930418243089 1.375 0.5107815834909755
v 0.04102509059701309 1.6191386114155693 0.040113632263679755
v 0.010089168920101643 1.5433613885844308 0.009177710586768362
v 0.37137653993260333 0.7716806942922154 0.37046508159926994
v 0.732663910945105 0 0.7317524526117716
v 0.8652464324175826 0 0.8643349740842492
v 0.9978289538900602 0 0.9969174955567268
v 0.9978289538900602 0.58125 0.9969174955567268
v 0.9978289538900602 1.1625 0.9969174955567268
vt 0.15625000000000006 0.44119645362590143
vt 0.15625 0.14889763196803352
vt 0.5005166666773089 0.17829825971916113
vt 0.6263639320688501 0.5000000000000011
vt 0.1249999999999988 0.8750000000000008
vt 0.12499999999999883 0.5293529504942496
vt 0.4349408738977285 0.3766422118499837
vt 0.5412531588984639 0.6486932269477681
vt 0.1875 0.9375000000000004
vt 0.09375 0.9375000000000004
vt 0.09375 0.5881125000000005
vt 0.21875 0.46513125000000044
vt 0.1875 1
vt 0.125 0.875
vt 0.125 0.78125
vt 0.1875 0.78125
vt 0.9267750000000013 0.4687500000000011
vt 0.7500000000000013 0.4687500000000011
vt 0.7500000000000013 0.1781250000000011
vt 0.9046781250000013 0.1781250000000011
vt 0.1875 0.381
vt 0.25 0.381
vt 0.25 0.84375
vt 0.1875 0.84375
vt 0.5947906249999987 0.7812499999999982
vt 0.12499999999999868 0.8437499999999982
vt 0.12499999999999868 0.7999999999999983
vt 0.5947906249999987 0.7374999999999983
vt 0.23927500000000135 0.9062499999999982
vt 0.06250000000000133 0.9062499999999982
vt 0.06250000000000133 0.8624999999999983
vt 0.23927500000000135 0.8624999999999983
vt 0 0.7999999999999983
vt 0.469790625 0.8624999999999983
vt 0.469790625 0.9062499999999982
vt 0 0.8437499999999982
vt 0.09375 0.8625000000000003
vt 0.15625 0.8625000000000003
vt 0.15625 0.9062500000000002
vt 0.09375 0.9062500000000002
vt 0.15625 1
vt 0.09375 1
vt 0.09375 0.64550625
vt 0.1875 0.64550625
vt 0.527125813301448 0.9374999999999998
vt 0.1712569546188174 0.9374999999999996
vt 0.15625000000000167 0.8964043334027925
vt 0.5345866263526919 0.8944409051026379
vt 0.238244122041936 0.9438193233320062
vt 0.031249999999999167 0.6670066106489028
vt 0.26493680573328854 0.6670066106489028
vt 0.6156683356596351 0.9687499999999982
vt 0.1875 0.9062500000000009
vt 0.125 0.9062500000000009
vt 0.125 0.8125000000000009
vt 0.1875 0.8125000000000009
vt 0.1562499999999983 0.6875
vt 0.25626476921867375 0.2356853620444026
vt 0.44338493434318016 0.09570471039218109
vt 0.4433849343431801 0.44125803033546873
vt 0.12500000000000128 1
vt 0.12500000000000142 0.6216523970833006
vt 0.1661730753807109 0.6364456510760641
vt 0.1680239804290915 0.9923038254841842
vt 0.09375 0.4122499999999991
vt 0.15625 0.4122499999999991
vt 0.15625 0.8749999999999992
vt 0.09375 0.8749999999999992
vt 0.15590422411235544 0.17727996118667366
vt 0.4123072807411936 0.5625000000000017
vt 0.18726787838825695 0.49952535095900885
vt 0.062499999999999334 0.17727996118667377
vt 0.2184603071489083 0.4905583713336268
vt 0.34426456714516757 0.8124999999999987
vt 1.1102230246251565e-16 0.7830751326576282
vt 0 0.49099255656010454
vt 0.9062499999999993 0.43749999999999967
vt 0.7499999999999993 0.43749999999999967
vt 0.7499999999999993 0.14687499999999964
vt 0.8874999999999994 0.14687499999999964
vt 0.031251487251591215 0.030733020877116823
vt 0.3235534522805072 0.030733020877117267
vt 0.35295042122068926 0.3750000000000002
vt 0.03125 0.24915244056817532
vt 0.21839941934424695 0.4519050319722451
vt 0.21839941934424692 0.7975549464506175
vt 0.031250000000001166 0.9375000000000009
vt 0.13143412172248892 0.4858089320605782
vt 0 0.8124999999999998
vt 0.1229826813071992 0.6855170849149701
vt 0.4723690975450983 0.6855170849149702
vt 0.4723696698094937 0.7778019061063708
vt 0.3125 0.33300624999999995
vt 0.40625 0.33300624999999995
vt 0.40625 0.6875
vt 0.34375 0.6875
vt 0.1875 0.9062500000000002
vt 0.125 0.9062500000000002
vt 0.125 0.8625000000000003
vt 0.1875 0.8625000000000003
vt 0.65625 0.5
vt 0.59375 0.5
vt 0.59375 0.037250000000000005
vt 0.65625 0.037250000000000005
vt 0.125 0.4687499999999992
vt 0.0625 0.4687499999999992
vt 0.0625 0.005999999999999117
vt 0.125 0.005999999999999117
vt 0.09375 0.8125000000000009
vt 0.15625 0.8125000000000009
vt 0.15625 0.9062500000000009
vt 0.09375 0.9062500000000009
vt 0.09375 0.78125
vt 0.15625 0.78125
vt 0.15625 0.875
vt 0.09375 1
vt 0.04522499999999896 0.45937499999999964
vt 0.18498124999999893 0.45937499999999964
vt 0.18498124999999893 0.7499999999999997
vt 0.031249999999998945 0.7499999999999997
vt 0.17500000000000132 0.3031250000000011
vt 0.3312500000000013 0.3031250000000011
vt 0.3312500000000013 0.5937500000000011
vt 0.15625000000000128 0.5937500000000011
vt 1.4432899320127035e-15 0.8624999999999983
vt 0.17677500000000146 0.8624999999999983
vt 0.17677500000000146 0.9062499999999982
vt 1.4432899320127035e-15 0.9062499999999982
vn 0.6597070505846527 -0.09967136944144442 -0.7448840349494447
vn -0.7447800249857558 -0.07064545633680783 0.6635600454225534
vn 0.1264911064067352 0.9838699100999075 0.12649110640673517
vn 0 -1 0
vn 1.1102230246251565e-16 0 1
vn -0.5895854106304302 -0.5520671038410949 -0.5895854106304301
vn -0.7525766947068778 0 0.6585046078685182
vn 1.1102230246251565e-16 0 1
vn 0.658504607868518 0 -0.7525766947068779
vn -0.6123724356957948 0.4999999999999995 -0.6123724356957948
vn 0.24349170921981717 0.9388416134164612 0.24349170921981714
vn 0.6379058711570545 0 -0.7701143418631804
vn 0.6355973293018536 -0.08435190577280166 -0.7673987170805328
vn 0 -1 0
vn -0.7638134954699632 -0.056585316161047644 0.6429518225597554
vn -0.7664379060795968 0 0.6423184071193379
vn -0.5895854106304302 -0.5520671038410949 -0.5895854106304302
vn 0.6429518225597552 -0.0565853161610476 -0.763813495469963
vn 0.6635600454225533 -0.07064545633680781 -0.7447800249857559
vn 0.016946718543287057 0 0.9998563940539735
vn -0.7448739957744297 -0.10094030695534985 0.6595254239608924
vn -0.7673987170805326 -0.08435190577280167 0.6355973293018538
vn 0.24902912254587614 0.9684959969581862 -2.7755575615628914e-17
vn 0.2434917092198172 0.9388416134164614 0.24349170921981714
vn -0.6123724356957948 0.4999999999999995 -0.6123724356957948
vn -0.5895854106304301 -0.5520671038410949 -0.5895854106304301
vn -0.5895854106304302 -0.5520671038410949 -0.5895854106304302
vn 0 -1 0
vn 0 -1 0
vn 1 0 -1.887379141862766e-15
vn 0.9998563940539735 0 0.016946718543286835
vn 1 0 -1.1102230246251565e-16
usemtl m_d1357a31-3182-43d4-d169-da916b0e9bfe
f 1/1/1 2/2/1 3/3/1 4/4/1
f 5/5/2 6/6/2 7/7/2 8/8/2
f 10/9/3 26/10/3 25/11/3 9/12/3
f 16/13/4 32/14/4 31/15/4 15/16/4
f 1/17/5 34/18/5 33/19/5 2/20/5
f 18/21/6 29/22/6 28/23/6 17/24/6
f 12/25/7 11/26/7 5/27/7 8/28/7
f 9/29/8 25/30/8 34/31/8 1/32/8
f 1/33/9 4/34/9 10/35/9 9/36/9
f 17/37/10 28/38/10 27/39/10 21/40/10
f 21/41/11 27/42/11 26/43/11 10/44/11
f 21/45/12 10/46/12 4/47/12 17/48/12
f 4/49/13 3/50/13 18/51/13 17/52/13
f 15/53/14 31/54/14 30/55/14 23/56/14
f 20/57/15 19/58/15 6/59/15 5/60/15
f 20/61/16 5/62/16 11/63/16 22/64/16
f 23/65/17 30/66/17 29/67/17 18/68/17
f 23/69/18 18/70/18 3/71/18 15/72/18
f 15/73/19 3/74/19 2/75/19 16/76/19
f 2/77/20 33/78/20 32/79/20 16/80/20
f 13/81/21 7/82/21 6/83/21 14/84/21
f 14/85/22 6/86/22 19/87/22 24/88/22
f 12/89/23 25/90/23 26/91/23 11/92/23
f 11/93/24 26/94/24 27/95/24 22/96/24
f 22/97/25 27/98/25 28/99/25 20/100/25
f 20/101/26 28/102/26 29/103/26 19/104/26
f 19/105/27 29/106/27 30/107/27 24/108/27
f 24/109/28 30/110/28 31/111/28 14/112/28
f 14/113/29 31/114/29 32/115/29 13/116/29
f 13/117/30 32/118/30 33/119/30 7/120/30
f 7/121/31 33/122/31 34/123/31 8/124/31
f 8/125/32 34/126/32 25/127/32 12/128/32