# Made in Blockbench 5.1.1
mtllib horizontal_spike_thin.mtl

o cuboid
v 0.75 1.1625 1
v 0.6875 0.58125 1
v 0.65625 0.64375 0.5625
v 0.6875 1.2875 0.3125
v 0.3125 1.2875 0.3125
v 0.34375 0.64375 0.5625
v 0.3125 0.58125 1
v 0.25 1.1625 1
v 0.75 1.25 1
v 0.6875 1.375 0.3125
v 0.3125 1.375 0.3125
v 0.25 1.25 1
v 0.375 0 1
v 0.375 0 0.8125
v 0.625 0 0.8125
v 0.625 0 1
v 0.6249999999999998 1.5433613885844308 -0.396875
v 0.6249999999999999 0.7716806942922154 0.11406250000000007
v 0.3750000000000001 0.7716806942922154 0.11406250000000007
v 0.3750000000000002 1.5433613885844308 -0.396875
v 0.6249999999999998 1.6191386114155693 -0.353125
v 0.3750000000000002 1.6191386114155693 -0.353125
v 0.625 0 0.625
v 0.375 0 0.625
vt 0.34374999999999933 0.4490134154320504
vt 0.34374999999999933 0.15671341621717594
vt 0.5633125134524446 0.18611233335748767
vt 0.6894741694974099 0.5078124999999996
vt 0.4034978926639994 0.625540893196798
vt 0.5296272468472554 0.303728241198821
vt 0.7491897244184892 0.27431590230662295
vt 0.7491897244184892 0.5665148313778818
vt 0.40625 0.30686562499999837
vt 0.375 0.6562499999999984
vt 0.1875 0.6562499999999984
vt 0.15625 0.30686562499999837
vt 0.4375 0.625
vt 0.4375 0.53125
vt 0.5625 0.53125
vt 0.5625 0.625
vt 0.375 0.43749999999999933
vt 0.40625 0.1468749999999993
vt 0.59375 0.1468749999999993
vt 0.625 0.43749999999999933
vt 0.5 0.7187500000000016
vt 0.5 0.25600000000000156
vt 0.625 0.25600000000000156
vt 0.625 0.7187500000000016
vt 0.8451656250000006 0.1875
vt 0.5000000000000007 0.25
vt 0.5000000000000007 0.20625000000000004
vt 0.8451656250000006 0.14375000000000004
vt 0.375 0.53125
vt 0.375 0.48750000000000004
vt 0.625 0.48750000000000004
vt 0.625 0.53125
vt 0.500000000000001 0.39375000000000004
vt 0.845165625000001 0.45625000000000004
vt 0.845165625000001 0.5
vt 0.500000000000001 0.4375
vt 0.4375 0.6249999999999991
vt 0.4375 0.5812499999999992
vt 0.5625 0.5812499999999992
vt 0.5625 0.6249999999999991
vt 0.4375 0.8125000000000009
vt 0.40625 0.45800937500000083
vt 0.59375 0.45800937500000083
vt 0.5625 0.8125000000000009
vt 0.8083730016849846 0.6874999999999982
vt 0.45250707840549653 0.6874999999999983
vt 0.4374999999999991 0.6464043786063358
vt 0.8158336850352834 0.6444408826296643
vt 0.2389822603107125 0.4279711210844417
vt 0.10510380450755175 0.10930451860678658
vt 0.33184911339765144 0.16583847362641524
vt 0.5991640852189417 0.5434684313121705
vt 0.5625 0.34375
vt 0.5625 0.4375
vt 0.4375 0.4375
vt 0.4375 0.34375
vt 0.4771670872661057 0.7473064253985634
vt 0.7523057245276521 0.37523689421143136
vt 0.9801872187435503 0.32346461758452705
vt 0.8396368338662028 0.6391459506054403
vt 0.5937500000000002 0.8125000000000004
vt 0.5937500000000004 0.434152397083301
vt 0.6349230753807099 0.44894565107606454
vt 0.6367739804290904 0.8048038254841847
vt 0.625 0.22475000000000134
vt 0.625 0.6875000000000013
vt 0.5 0.6875000000000013
vt 0.5 0.22475000000000134
vt 0.49965734907558434 0.14602991957227185
vt 0.7560603431829243 0.5312499999999989
vt 0.5310178260875925 0.4682753295945209
vt 0.4062499999999998 0.14602991957227185
vt 0.40592997087091565 0.1156873756413167
vt 0.5320624499319402 0.43750000000000044
vt 0.31249999999999944 0.40809078598557114
vt 0.31249999999999956 0.11589185691431214
vt 0.5625 0.11562500000000142
vt 0.59375 0.40625000000000144
vt 0.40625 0.40625000000000144
vt 0.4375 0.11562500000000142
vt 0.4062500000000009 0.0929343645877847
vt 0.6985531240812468 0.09293436458778459
vt 0.7279520340301796 0.3125000000000019
vt 0.40625185491437216 0.18633837576075274
vt 0.7297805754569537 0.3040689854512244
vt 0.6042307026152249 0.6261110522815253
vt 0.3790315452332951 0.6885198872994691
vt 0.6364401371055048 0.3040689854512244
vn 0.9905873559950376 -0.10651476946183198 -0.08597263535133581
vn -0.9933635771089249 -0.08022760167546382 -0.08241562717570375
vn 0 0.9838699100999075 0.17888543819998318
vn 0 -1 0
vn 0 0 1
vn 0 -0.5520671038410949 -0.8337996838908648
vn -0.995893206467704 0 -0.09053574604251854
vn 0 0 1
vn 0.995893206467704 0 -0.09053574604251854
vn 0 0.4999999999999995 -0.866025403784439
vn 0 0.9388416134164614 0.3443492775040714
vn 0.9956206406743353 0 -0.09348550616660455
vn 0.9920680183749013 -0.08435190577280166 -0.09319765506810163
vn 0 -1 0
vn -0.994733295916864 -0.05658531616104763 -0.08546210850035837
vn -0.9961411421023265 0 -0.08776573939227575
vn 0 -0.5520671038410948 -0.8337996838908647
vn 0.994733295916864 -0.0565853161610476 -0.08546210850035836
vn 0.9933635771089249 -0.08022760167546382 -0.08241562717570375
vn 0 0 1
vn -0.9905873559950376 -0.10651476946183198 -0.08597263535133581
vn -0.9920680183749013 -0.08435190577280167 -0.09319765506810165
usemtl m_379daa2f-2258-e151-34c1-aa09b2bc9f77
f 1/1/1 2/2/1 3/3/1 4/4/1
f 5/5/2 6/6/2 7/7/2 8/8/2
f 9/9/3 10/10/3 11/11/3 12/12/3
f 13/13/4 14/14/4 15/15/4 16/16/4
f 8/17/5 7/18/5 2/19/5 1/20/5
f 17/21/6 18/22/6 19/23/6 20/24/6
f 12/25/7 11/26/7 5/27/7 8/28/7
f 12/29/8 8/30/8 1/31/8 9/32/8
f 1/33/9 4/34/9 10/35/9 9/36/9
f 21/37/10 17/38/10 20/39/10 22/40/10
f 22/41/11 11/42/11 10/43/11 21/44/11
f 21/45/12 10/46/12 4/47/12 17/48/12
f 4/49/13 3/50/13 18/51/13 17/52/13
f 23/53/14 15/54/14 14/55/14 24/56/14
f 20/57/15 19/58/15 6/59/15 5/60/15
f 20/61/16 5/62/16 11/63/16 22/64/16
f 24/65/17 19/66/17 18/67/17 23/68/17
f 23/69/18 18/70/18 3/71/18 15/72/18
f 15/73/19 3/74/19 2/75/19 16/76/19
f 16/77/20 2/78/20 7/79/20 13/80/20
f 13/81/21 7/82/21 6/83/21 14/84/21
f 14/85/22 6/86/22 19/87/22 24/88/22