# Made in Blockbench 4.8.3
mtllib metal_arch_2.mtl

o cuboid
v 1.001220703125 1 1
v 1.001220703125 1 0
v 1.001220703125 -0.5 1
v 1.001220703125 -0.5 0
v -0.001220703125 1 1
v -0.001220703125 1 0
v -0.001220703125 -0.5 1
v -0.001220703125 -0.5 0
v -0.001220703125 0.75 0.45833333333333326
v -0.001220703125 1 0.45833333333333326
v -0.001220703125 0.75 0.5416666666666666
v -0.001220703125 1 0.5416666666666666
v 1.001220703125 1 0.45833333333333326
v 1.001220703125 1 0.5416666666666666
v 1.001220703125 0.75 0.45833333333333326
v 1.001220703125 0.75 0.5416666666666666
v 1.001220703125 1 0.29166666666666663
v -0.001220703125 1 0.29166666666666663
v -0.001220703125 -0.1875 0.29166666666666663
v 1.001220703125 -0.1875 0.29166666666666663
v -0.001220703125 -0.1875 0.7083333333333333
v -0.001220703125 1 0.7083333333333333
v 1.001220703125 1 0.7083333333333333
v 1.001220703125 -0.1875 0.7083333333333333
vt 0.0625 0.16666666666666663
vt 0.1597229166666667 0.27083333333333337
vt 0.1597229166666667 0.6666666666666667
vt 0.0625 0.6666666666666667
vt 0.8888895833333333 0.6666666666666667
vt 0.7916666666666666 0.6666666666666667
vt 0.7916666666666666 0.27083333333333337
vt 0.8888895833333333 0.16666666666666663
vt 0.6666666666666666 0.11111041666666666
vt 0.6666666666666666 0.20833333333333337
vt 0.3333333333333333 0.20833333333333337
vt 0.3333333333333333 0.11111041666666666
vt 0.6666666666666666 0.5241791666666666
vt 0.6666666666666666 0.6666666666666667
vt 0.3333333333333333 0.6666666666666667
vt 0.3333333333333333 0.5241791666666666
vt 0.6666666666666666 0.25
vt 0.6666666666666666 0.75
vt 0.3333333333333333 0.75
vt 0.3333333333333333 0.25
vt 0.6666666666666666 0.75
vt 0.3333333333333333 0.75
vt 0.3333333333333333 0.25
vt 0.6666666666666666 0.25
vt 0.0625 0.16666666666666663
vt 0.15972291666666666 0.27083333333333337
vt 0.15972291666666666 0.6666666666666667
vt 0.0625 0.6666666666666667
vt 0.8958333333333334 0.16666666666666663
vt 0.9236125 0.16666666666666663
vt 0.9236125 0.25
vt 0.8958333333333334 0.25
vt 0.3333333333333333 0.9375
vt 0.3333333333333333 0.8402770833333333
vt 0.6666666666666666 0.8402770833333333
vt 0.6666666666666666 0.9375
vt 0.3541666666666667 0.29166666666666663
vt 0.3541666666666667 0.26388750000000005
vt 0.6875 0.26388750000000005
vt 0.6875 0.29166666666666663
vt 0.9097229166666666 0.6666666666666667
vt 0.8125 0.6666666666666667
vt 0.8125 0.27083333333333337
vt 0.9097229166666666 0.16666666666666663
vt 0.8402791666666666 0.4375
vt 0.8125 0.4375
vt 0.8125 0.35416666666666663
vt 0.8402791666666666 0.35416666666666663
vt 0.6666666666666666 0.14917916666666675
vt 0.6666666666666666 0.29166666666666663
vt 0.3333333333333333 0.29166666666666663
vt 0.3333333333333333 0.14917916666666675
vt 0.6666666666666666 0.4305541666666667
vt 0.6666666666666666 0.45833333333333337
vt 0.3333333333333333 0.45833333333333337
vt 0.3333333333333333 0.4305541666666667
vt 0.6666666666666666 0.7986125
vt 0.6666666666666666 0.8541666666666666
vt 0.3333333333333333 0.8541666666666666
vt 0.3333333333333333 0.7986125
vt 0.20138750000000002 0.6666666666666667
vt 0.14583333333333334 0.6666666666666667
vt 0.14583333333333334 0.27083333333333337
vt 0.20138750000000002 0.5833333333333333
vt 0.3333333333333333 0.625
vt 0.3333333333333333 0.3076
vt 0.6666666666666666 0.3076
vt 0.6666666666666666 0.625
vt 0.75 0.5833333333333333
vt 0.8055541666666667 0.27083333333333337
vt 0.8055541666666667 0.6666666666666667
vt 0.75 0.6666666666666667
vt 0.7291666666666666 0.5833333333333333
vt 0.7847208333333334 0.27083333333333337
vt 0.7847208333333334 0.6666666666666667
vt 0.7291666666666666 0.6666666666666667
vt 0.3333333333333333 0.27083333333333337
vt 0.3333333333333333 0.21527916666666658
vt 0.6666666666666666 0.21527916666666658
vt 0.6666666666666666 0.27083333333333337
vt 0.2222208333333333 0.6666666666666667
vt 0.16666666666666666 0.6666666666666667
vt 0.16666666666666666 0.27083333333333337
vt 0.2222208333333333 0.5833333333333333
vt 0.3333333333333333 0.9583333333333334
vt 0.3333333333333333 0.6409333333333334
vt 0.6666666666666666 0.6409333333333334
vt 0.6666666666666666 0.9583333333333334
vn 1 0 0
vn -1 0 0
vn 0 1 0
vn 0 -0.6823182503600113 -0.731055268242869
vn 0 0 1
vn 0 0 -1
vn -1 0 0
vn -1 0 0
vn 0 1 0
vn 0 1 0
vn 1 0 0
vn 1 0 0
vn 0 -0.6823182503600111 0.7310552682428691
vn 0 -1 0
vn 0 1 0
vn -1 0 0
vn 0 -0.17503333471749447 0.9845625077859067
vn 1 0 0
vn -1 0 0
vn 0 1 0
vn 1 0 0
vn 0 -0.17503333471749447 -0.9845625077859067
usemtl m_db46377c-8a2d-2ae8-c7e2-7d79e5f99768
f 3/1/1 24/2/1 23/3/1 1/4/1
f 5/5/2 22/6/2 21/7/2 7/8/2
f 1/9/3 23/10/3 22/11/3 5/12/3
f 7/13/4 21/14/4 24/15/4 3/16/4
f 3/17/5 1/18/5 5/19/5 7/20/5
f 6/21/6 2/22/6 4/23/6 8/24/6
f 8/25/7 19/26/7 18/27/7 6/28/7
f 9/29/8 11/30/8 12/31/8 10/32/8
f 6/33/9 18/34/9 17/35/9 2/36/9
f 10/37/10 12/38/10 14/39/10 13/40/10
f 2/41/11 17/42/11 20/43/11 4/44/11
f 13/45/12 14/46/12 16/47/12 15/48/12
f 4/49/13 20/50/13 19/51/13 8/52/13
f 15/53/14 16/54/14 11/55/14 9/56/14
f 13/57/15 17/58/15 18/59/15 10/60/15
f 10/61/16 18/62/16 19/63/16 9/64/16
f 9/65/17 19/66/17 20/67/17 15/68/17
f 15/69/18 20/70/18 17/71/18 13/72/18
f 11/73/19 21/74/19 22/75/19 12/76/19
f 12/77/20 22/78/20 23/79/20 14/80/20
f 14/81/21 23/82/21 24/83/21 16/84/21
f 16/85/22 24/86/22 21/87/22 11/88/22