# Made in Blockbench 4.8.3
mtllib metal_diagonal_block.mtl

o cuboid
v 1 1 1
v 1 1 0
v 1 0 1
v 1 0 0
v 0 1 0
v 0 0 0
vt 0.5 1
vt 0 1
vt 0 0.5
vt 0.5 0.5
vt 0.5 0.5
vt 0.5 1
vt 0 1
vt 0.5 0.5
vt 0.5 1
vt 0 0.5
vt 0.5 1
vt 0 1
vt 0 0.5
vt 0.5 0.5
vt 0.70710625 0
vt 0.70710625 0.5
vt 0 0.5
vt 0 0
vn 1 0 0
vn 0 1 0
vn 0 -1 0
vn 0 0 -1
vn -0.7071067811865476 0 0.7071067811865476
usemtl m_7ae476bd-ba55-867a-5798-20713ff9b5cf
f 2/1/1 1/2/1 3/3/1 4/4/1
f 1/5/2 2/6/2 5/7/2
f 4/8/3 3/9/3 6/10/3
f 5/11/4 2/12/4 4/13/4 6/14/4
f 3/15/5 1/16/5 5/17/5 6/18/5