# Made in Blockbench 4.8.3
mtllib metal_panel.mtl

o plane
v 0.99929264 -0.5478745289541185 0.8432443241948032
v 0.99929264 0.9636160981189991 1.0521364112145066
v 0.0007073599999999902 -0.5478745289541185 0.8432443241948032
v 0.0007073599999999902 0.9636160981189991 1.0521364112145066
v 0.5 -0.017415734289438198 0.6498146373973628
v 0.5 1.4940748927836793 0.8587067244170663
vt 0.7104318880412471 0.9797973713408655
vt 0.456654862340526 0.9790662205149497
vt 0.675708497889469 0.5528570193592746
vt 0.92948552359019 0.5535881701851904
vt 0.9296486639581653 0.554191108498213
vt 0.6758716382574441 0.5549222593241288
vt 0.4568180027085013 0.12871305816845358
vt 0.7105950284092225 0.12798190734253778
vt 0.4528144764098103 0.12675461281838363
vt 0.6718681119587532 0.5529638139740587
vt 0.9256451376594743 0.5522326631481429
vt 0.7065915021105313 0.12602346199246783
vt 0.6737883049241113 0.5508985740092045
vt 0.4547346693751683 0.9771077751648798
vt 0.7085116950758895 0.9778389259907957
vt 0.9275653306248324 0.5516297248351205
vn -0.46774623289474887 -0.12100212343967509 0.8755409457791573
vn 0.467746232894749 -0.12100212343967509 0.8755409457791573
vn -0.467746232894749 0.12100212343967506 -0.8755409457791572
vn 0.46774623289474887 0.12100212343967509 -0.8755409457791573
usemtl m_857b1008-0a94-21f5-2dc8-76ac7793c4de
f 2/1/1 6/2/1 5/3/1 1/4/1
f 3/5/2 5/6/2 6/7/2 4/8/2
f 6/9/3 5/10/3 3/11/3 4/12/3
f 5/13/4 6/14/4 2/15/4 1/16/4