# Made in Blockbench 4.10.4
mtllib mist_3.mtl

o cube
v 0.31595573617488326 0.6018717090423129 1.5086108926427935
v -0.34820320059409093 0.17839195646973238 0.38158702161300373
v 0.7720444672768654 0.4325901371146861 -0.3740937625720111
v 1.4362034040458396 0.8560698896872665 0.7529301084577784
v -0.34820320059409093 0.17839195646973238 0.38158702161300373
v 0.31595573617488326 0.6018717090423129 1.5086108926427935
v 1.4362034040458396 0.8560698896872665 0.7529301084577784
v 0.7720444672768654 0.4325901371146861 -0.3740937625720111
vt 0 0
vt 1 0
vt 1 1
vt 0 1
vt 1 0
vt 0 0
vt 0 1
vt 1 1
vn 0.3207949376897741 -0.9332564677379614 0.1616260293946408
vn -0.3207949376897741 0.9332564677379614 -0.16162602939464082
usemtl m_cf961b0f-3fb8-aa18-b915-d4c0fa9b6059
f 1/1/1 2/2/1 3/3/1 4/4/1
f 5/5/2 6/6/2 7/7/2 8/8/2
o cube
v 0.80335851185723 1.3551713184419145 0.8471332061039836
v -0.39088004720736724 0.7680737933899873 0.5011046521937379
v 0.25107663907784084 -0.43540441012050946 0.3274474421249849
v 1.445315198142438 0.15169311493141802 0.6734759960352306
v -0.39088004720736724 0.7680737933899873 0.5011046521937379
v 0.80335851185723 1.3551713184419145 0.8471332061039836
v 1.445315198142438 0.15169311493141802 0.6734759960352306
v 0.25107663907784084 -0.43540441012050946 0.3274474421249849
vt 0 0
vt 1 0
vt 1 1
vt 0 1
vt 1 0
vt 0 0
vt 0 1
vt 1 1
vn -0.166338699733924 -0.22718597297294255 0.9595404997472305
vn 0.16633869973392398 0.22718597297294255 -0.9595404997472305
usemtl m_cf961b0f-3fb8-aa18-b915-d4c0fa9b6059
f 9/9/3 10/10/3 11/11/3 12/12/3
f 13/13/4 14/14/4 15/15/4 16/16/4
o cube
v -0.030265581890173365 1.2254743698378925 0.724686681394783
v 0.40069552677171005 0.13621060789840977 1.4446880562173365
v 1.1326247500883397 -0.2901401625426715 0.3615769665319748
v 0.7016636414264563 0.7991235993968111 -0.35842440829057876
v 0.40069552677171005 0.13621060789840977 1.4446880562173365
v -0.030265581890173365 1.2254743698378925 0.724686681394783
v 0.7016636414264563 0.7991235993968111 -0.35842440829057876
v 1.1326247500883397 -0.2901401625426715 0.3615769665319748
vt 1 0
vt 0 0
vt 0 1
vt 1 1
vt 0 0
vt 1 0
vt 1 1
vt 0 1
vn 0.7863890517809098 0.5256297801391397 0.324508233285384
vn -0.7863890517809098 -0.5256297801391397 -0.324508233285384
usemtl m_cf961b0f-3fb8-aa18-b915-d4c0fa9b6059
f 17/17/5 18/18/5 19/19/5 20/20/5
f 21/21/6 22/22/6 23/23/6 24/24/6