# Made in Blockbench 4.10.4
mtllib mist.mtl

o cube
v 0.8673421767914521 -0.12400513991144174 -0.35351588634212755
v -0.39663115435486096 -0.12400513991144174 0.7070836696406628
v 0.3198995198686293 1.0925024658252631 1.5610116748504579
v 1.5838728510149425 1.0925024658252631 0.5004121188676676
v -0.39663115435486096 -0.12400513991144174 0.7070836696406628
v 0.8673421767914521 -0.12400513991144174 -0.35351588634212755
v 1.5838728510149425 1.0925024658252631 0.5004121188676676
v 0.3198995198686293 1.0925024658252631 1.5610116748504579
vt 0 0
vt 1 0
vt 1 1
vt 0 1
vt 1 0
vt 0 0
vt 0 1
vt 1 1
vn -0.47391273700423764 0.6755902076156602 -0.5647872069009545
vn 0.47391273700423764 -0.6755902076156601 0.5647872069009545
usemtl m_e48eabca-f5b8-b94a-beec-6312ccece891
f 1/1/1 2/2/1 3/3/1 4/4/1
f 5/5/2 6/6/2 7/7/2 8/8/2
o cube
v 1.0907486473395283 -0.36736639801378895 1.1380135428093348
v -0.454233243869926 0.1818256742561032 0.953842362678568
v 0.07991261121725182 1.3296167683210907 -0.1043465665199409
v 1.6248945024267063 0.7804246960511985 0.07982461361082585
v -0.454233243869926 0.1818256742561032 0.953842362678568
v 1.0907486473395283 -0.36736639801378895 1.1380135428093348
v 1.6248945024267063 0.7804246960511985 0.07982461361082585
v 0.07991261121725182 1.3296167683210907 -0.1043465665199409
vt 0 0
vt 1 0
vt 1 1
vt 0 1
vt 1 0
vt 0 0
vt 0 1
vt 1 1
vn -0.1358159524488723 -0.636641691674337 -0.7591056471153697
vn 0.13581595244887226 0.636641691674337 0.7591056471153697
usemtl m_e48eabca-f5b8-b94a-beec-6312ccece891
f 9/9/3 10/10/3 11/11/3 12/12/3
f 13/13/4 14/14/4 15/15/4 16/16/4
o cube
v 0.39164903023448006 0.10538100696601788 1.5923415483651002
v 1.0341503711983253 1.4571277707178099 0.8977389903895224
v 0.7000838285259798 0.8470644131971325 -0.5984970354023784
v 0.057582487562134604 -0.5046823505546597 0.09610552257319929
v 1.0341503711983253 1.4571277707178099 0.8977389903895224
v 0.39164903023448006 0.10538100696601788 1.5923415483651002
v 0.057582487562134604 -0.5046823505546597 0.09610552257319929
v 0.7000838285259798 0.8470644131971325 -0.5984970354023784
vt 1 0
vt 0 0
vt 0 1
vt 1 1
vt 0 0
vt 1 0
vt 1 1
vt 0 1
vn -0.8985431677994778 0.4383387063522427 0.021894157081782235
vn 0.8985431677994781 -0.4383387063522427 -0.021894157081782176
usemtl m_e48eabca-f5b8-b94a-beec-6312ccece891
f 17/17/5 18/18/5 19/19/5 20/20/5
f 21/21/6 22/22/6 23/23/6 24/24/6