# Made in Blockbench 4.8.3
mtllib pointy_spike_small.mtl

o cuboid
v 0.9374999999999999 -0.7358345346044537 1.4785613114181724
v 0.5312499999999999 1.9930530514848663 0.2972988375776101
v 0.9374999999999998 -1.0018756422117725 1.4775720216666364
v 0.5312499999999999 1.9673788253950129 0.24901264109313803
v 0.06250000000000011 -0.7358345346044537 1.4785613114181724
v 0.4687500000000001 1.9930530514848663 0.2972988375776101
v 0.06250000000000022 -1.0018756422117725 1.4775720216666364
v 0.4687500000000001 1.9673788253950129 0.24901264109313803
v 0.234375 0.2324344615559495 0.8375790234832786
v 0.421875 -0.372553838435829 0.2536094978459736
v 0.578125 -0.372553838435829 0.2536094978459736
v 0.765625 0.2324344615559495 0.8375790234832786
v 0.11718749999999994 -0.5591648231837738 1.1688666669151915
v 0.1171875 -1 1.125
v 0.8828125 -1 1.125
v 0.8828125 -0.5591648231837738 1.1688666669151915
vt 0.8886704615740532 0.6875
vt 0.3333333333333334 0.414450140047793
vt 0.3333333333333333 0.12728203149559947
vt 0.8931663145320536 0.6705806687823173
vt 0.2916666666666667 0.803977140578187
vt 0.2916666666666667 0.023839679586513562
vt 0.4977494397754221 0.223828575921583
vt 0.30697149635276433 0.8125
vt 0.5364583333333334 0.75
vt 0.4583333333333333 0.13611666666666666
vt 0.6354166666666666 0.13611666666666666
vt 0.5572916666666666 0.75
vt 0.5364583333333334 0.9166666666666666
vt 0.5208333333333334 0.13668749999999996
vt 0.5729166666666666 0.13668749999999996
vt 0.5572916666666666 0.9166666666666666
vt 0.6458333333333334 0.5779875000000001
vt 0.6458333333333334 0.6666666666666667
vt 0.3541666666666667 0.6666666666666667
vt 0.3541666666666667 0.5779875000000001
vt 0.5833333333333334 0.45833333333333337
vt 0.5625 0.45833333333333337
vt 0.5625 0.44010416666666663
vt 0.5833333333333334 0.44010416666666663
vt 0.5208333333333334 0.44034380533268946
vt 0.7171318339648854 0.12428415508822743
vt 0.7894798536121214 0.253017677089312
vt 0.7894798536121211 0.5416666666666667
vt 0.4765625 0.6666666666666667
vt 0.375 0.3087375
vt 0.6302083333333334 0.3087375
vt 0.5286458333333334 0.6666666666666667
vt 0.4331812726899959 0.5416666666666667
vt 0.2916666666666667 0.29003310333964905
vt 0.2916666666666667 0.142362201274143
vt 0.6174136185698961 0.3217195498933356
vt 0.4140625 0.5833333333333333
vt 0.375 0.2972916666666666
vt 0.6302083333333334 0.2972916666666666
vt 0.5911458333333334 0.5833333333333333
vt 0.7761692590341407 0.5270328034125686
vt 0.8345357193272122 0.6321546447469504
vt 0.6875 0.6458333333333333
vt 0.6875 0.5269088925616938
vt 0.6458333333333334 0.757475
vt 0.6276041666666666 0.875
vt 0.3723958333333333 0.875
vt 0.3541666666666667 0.757475
vt 0.14583333333333334 0.5612987693840019
vt 0.2647641532141983 0.5612987693840019
vt 0.25108922831238467 0.7083333333333333
vt 0.14597587016765798 0.6499700837549902
vt 0.6458333333333334 0.19365208333333328
vt 0.6276041666666666 0.3125
vt 0.3723958333333333 0.3125
vt 0.3541666666666667 0.19365208333333328
vn 0.9440765606643395 0.024779424411874657 -0.32879389855958063
vn -0.9462851897841112 0.01832240345811772 -0.32281361360197736
vn 0 0.2933672119352674 0.9559998320927302
vn 0 -0.0019645214383538514 -0.9999980703258974
vn 0 -0.0037185340292334133 0.9999930862284366
vn 0 0.8829475928589243 -0.46947156278589564
vn -0.9502236192898216 0.03085124342618314 -0.3100375366351802
vn 0 -0.8115144689450846 -0.5843323255586476
vn 0.9611473607967754 0.027332803886680777 -0.27467921047120697
vn 0 0.3860592574146496 0.9224739832452998
vn -0.9861919575705282 0.016398173411022204 -0.1647923624807639
vn 0 -0.9999858497181459 -0.005319808594114641
vn 0.9880806997521433 0.015242675123188588 -0.15318025862494128
vn 0 0.8686037446143823 0.49550735094635395
usemtl m_eca5b7f1-3618-8378-5c6d-d0654148848a
f 2/1/1 12/2/1 11/3/1 4/4/1
f 8/5/2 10/6/2 9/7/2 6/8/2
f 6/9/3 9/10/3 12/11/3 2/12/3
f 4/13/4 11/14/4 10/15/4 8/16/4
f 3/17/5 1/18/5 5/19/5 7/20/5
f 6/21/6 2/22/6 4/23/6 8/24/6
f 10/25/7 14/26/7 13/27/7 9/28/7
f 11/29/8 15/30/8 14/31/8 10/32/8
f 12/33/9 16/34/9 15/35/9 11/36/9
f 9/37/10 13/38/10 16/39/10 12/40/10
f 5/41/11 13/42/11 14/43/11 7/44/11
f 7/45/12 14/46/12 15/47/12 3/48/12
f 3/49/13 15/50/13 16/51/13 1/52/13
f 1/53/14 16/54/14 13/55/14 5/56/14