# Made in Blockbench 5.0.4
mtllib pointy_spike_large_diagonal.mtl

o cuboid
v 0.2016693665742923 3.3680530514848663 0.15903769275013335
v 0.7494333016095163 0.6699344615559495 0.3753453241041629
v 0.2039219685526088 0.189946161564171 0.09499903399221082
v 0.16752586960241606 3.342378825395013 0.12489419577825711
v 0.12333169577825703 3.342378825395013 0.16908836960241613
v 0.09343653399221075 0.189946161564171 0.20548446855260888
v 0.37378282410416286 0.6699344615559495 0.7509958016095163
v 0.15747519275013327 3.3680530514848663 0.20323186657429237
v 0.5616080628568396 0.6699344615559495 0.5631705628568396
v 0.17957227966221279 3.3680530514848663 0.18113477966221286
v 0.14542878269033654 3.342378825395013 0.14699128269033662
v 0.14867925127240977 0.189946161564171 0.15024175127240985
v 1.014151451784202 -1.8612506422117723 1.6344323853224307
v 1.0141514517842016 -1.8612506422117723 1.0157139517842015
v 1.014850985276071 -0.7358345346044538 1.0164134852760711
v 1.0148509852760712 -0.7358345346044538 1.6351319188143
v 0.49415606973409754 -1 1.037097199080048
v 0.525174487377881 0.003335176816226193 1.0681156167238315
v 0.7648453844070727 -1 0.7664078844070727
v 1.0665531167238314 0.003335176816226193 0.5267369873778809
v 1.0355346990800478 -1 0.49571856973409745
v 0.7958638020508562 0.003335176816226193 0.7974263020508562
v 1.6328698853224308 -1.8612506422117723 1.0157139517842018
v 1.6335694188143 -0.7358345346044538 1.016413485276071
vt 0.2951299081581303 0.9929591968066164
vt 0.09254157001458722 0.09497955281156045
vt 0.2957162993764177 0
vt 0.31031647772761645 0.98419106100671
vt 0 0.9914659219534947
vt 4.625929269271486e-17 -0.05946183571808672
vt 0.2054003260780751 0.09930269264207059
vt 0.01532300327712797 1
vt 0 0.08277291666666653
vt 0.08854166666666667 0.08277291666666653
vt 0.08854166666666667 1
vt 0.07812499999999999 1
vt 0.1562500000000002 1.0508125
vt 0.1458333333333335 1.0508125
vt 0.1458333333333335 0
vt 0.1718750000000002 0
vt 0.00023333333333330764 0.6248625000000001
vt 0.20647291666666664 0.6248625000000001
vt 0.20623958333333334 1
vt 0 1
vt 0.05208333333333353 0.9583333333333327
vt 0.04166666666666686 0.9583333333333327
vt 0.04166666666666686 0.940104166666666
vt 0.05208333333333353 0.940104166666666
vt 1.850371707708594e-17 0.99885661072645
vt 0 0.49684639989452484
vt 0.2159574801893568 0.7526367382016441
vt 0.2596049256426264 1
vt 0.026041666666666862 1
vt 1.9327710728174927e-16 1
vt 1.9327710728174927e-16 0.5083708333333332
vt 0.12760416666666685 0.5083708333333332
vt 0.5031551207554394 0.6875
vt 0.25579172075972917 0.643855054199242
vt 0 0.4278978709317266
vt 0.5020084298380579 0.42789787093172704
vt 0 0.7518729166666667
vt 0.12760416666666666 0.7518729166666667
vt 0.12760416666666666 1
vt 0.0390625 1
vt 0.5458304272070217 0.4412627179510239
vt 0.5287839375011982 0.7916666666666666
vt 0.2916666666666668 0.5553542818579196
vt 0.2916666666666667 0.16534781491434136
vt 0.12760416666666666 1
vt 0 1
vt 0 0.6897916666666668
vt 0.14583333333333334 0.6345416666666668
vt 0 0.3786878230644001
vt 0.2642372197786911 0.665541493703238
vt 0.24994110346666876 1
vt 1.4802973661668753e-16 0.7538254674790128
vt 0 1
vt 0.05635453246720804 0.8016091423378856
vt 0.3234959600089276 0.8016091423378858
vt 0.3234968481412799 0.8954082014650158
vt 0.20647291666666664 1
vt 0.00023333333333330764 1
vt 0 0.6248604166666667
vt 0.20623958333333334 0.6248604166666667
vt 0.125 0.6666666666666667
vt 0.18024997777791688 0.46796536901351427
vt 0.4904571440086518 0.4679653690135144
vt 0.4904574262461138 0.5616198706048587
vt 0.125 0.19587083333333322
vt 0.2526041666666667 0.19587083333333322
vt 0.2526041666666667 0.6875
vt 0.2265625 0.6875
vt 0.0625000000000002 -0.05081249999999993
vt 0.08854166666666685 -0.05081249999999993
vt 0.08854166666666685 1
vt 0.0781250000000002 1
vt 0.0625000000000002 0.940104166666666
vt 0.07291666666666687 0.940104166666666
vt 0.07291666666666687 0.9583333333333327
vt 0.0625000000000002 0.9583333333333327
vt 0.031249999999999806 1
vt 0.020833333333333138 1
vt 0.020833333333333138 0.08277291666666653
vt 0.10937499999999982 0.08277291666666653
vt 0.08854166666666667 0.9791666666666675
vt 0 0.9791666666666675
vt 0 0.7310395833333342
vt 0.12760416666666666 0.7310395833333342
vt 0.12760416666666666 1
vt 0 1
vt 0 0.7328583333333334
vt 0.14583333333333334 0.6765041666666667
vn 0.44418031915566764 0.01836412049814074 -0.895749185404653
vn -0.8941699095457069 0.013646390805183128 0.44751977484912897
vn 0.6933427850920788 0.1963455238132988 0.693342785092079
vn -0.7071060294171941 -0.0014581919285293068 -0.7071060294171941
vn 0.9999998068206728 -0.0006215775231982241 -7.177564138854263e-16
vn -0.3319665256201528 0.8829475928589245 -0.3319665256201528
vn -0.8929789156021198 0.013698230923591782 0.4498900029558628
vn -0.5704970539046803 -0.5908182656047125 -0.5704970539046803
vn 0.4537789562566809 0.013517187296339475 -0.8910117532929591
vn 0.6332181816711684 0.44504996214146436 0.6332181816711681
vn -0.7548557142659638 0.0030597490353510425 0.6558837462354609
vn -0.6543960150346375 -0.37885579184377405 -0.6543960150346375
vn 0.6589491832472543 0.0028823194445265947 -0.7521819368559686
vn 0.9588073213400435 0.2840572487100628 -3.440951187581243e-16
vn 3.588782069427133e-16 -0.0006215775231984221 0.9999998068206728
vn 3.447260033572777e-16 -0.278054650669729 -0.9605652561075354
vn -0.5704970539046806 -0.5908182656047125 -0.5704970539046801
vn -0.7071060294171941 -0.001458191928529307 -0.7071060294171941
vn -0.3319665256201528 0.8829475928589245 -0.3319665256201528
vn 0.6933427850920789 0.1963455238132988 0.6933427850920789
vn 0.6332181816711684 0.44504996214146453 0.6332181816711681
vn 0.6521778949175856 0.3864297953855702 0.6521778949175853
usemtl m_74b1c0db-fd7e-5f09-e737-6ed62d0c9e83
f 1/1/1 2/2/1 3/3/1 4/4/1
f 5/5/2 6/6/2 7/7/2 8/8/2
f 7/9/3 9/10/3 10/11/3 8/12/3
f 5/13/4 11/14/4 12/15/4 6/16/4
f 13/17/5 14/18/5 15/19/5 16/20/5
f 8/21/6 10/22/6 11/23/6 5/24/6
f 6/25/7 17/26/7 18/27/7 7/28/7
f 6/29/8 12/30/8 19/31/8 17/32/8
f 2/33/9 20/34/9 21/35/9 3/36/9
f 18/37/10 22/38/10 9/39/10 7/40/10
f 16/41/11 18/42/11 17/43/11 13/44/11
f 17/45/12 19/46/12 14/47/12 13/48/12
f 23/49/13 21/50/13 20/51/13 24/52/13
f 16/53/14 15/54/14 22/55/14 18/56/14
f 24/57/15 15/58/15 14/59/15 23/60/15
f 23/61/16 14/62/16 19/63/16 21/64/16
f 21/65/17 19/66/17 12/67/17 3/68/17
f 3/69/18 12/70/18 11/71/18 4/72/18
f 4/73/19 11/74/19 10/75/19 1/76/19
f 1/77/20 10/78/20 9/79/20 2/80/20
f 2/81/21 9/82/21 22/83/21 20/84/21
f 20/85/22 22/86/22 15/87/22 24/88/22