# Made in Blockbench 5.0.4
mtllib pointy_spike_small_diagonal.mtl

o cuboid
v 0.2485443665742923 1.9930530514848663 0.19028769275013335
v 0.7963083016095163 0.2324344615559495 0.4065953241041629
v 0.2507969685526088 -0.372553838435829 0.12624903399221082
v 0.21440086960241606 1.9673788253950129 0.1561441957782571
v 0.17020669577825703 1.9673788253950129 0.20033836960241613
v 0.14031153399221075 -0.372553838435829 0.23673446855260888
v 0.42065782410416286 0.2324344615559495 0.7822458016095163
v 0.20435019275013327 1.9930530514848663 0.23448186657429237
v 0.6084830628568396 0.2324344615559495 0.5944205628568396
v 0.22644727966221279 1.9930530514848663 0.21238477966221286
v 0.19230378269033654 1.9673788253950129 0.17824128269033662
v 0.19555425127240977 -0.372553838435829 0.18149175127240985
v 1.0012072779600427 -2.1268756422117727 1.6214882114982712
v 1.0012072779600425 -2.1268756422117727 0.9996447779600424
v 1.0019068114519118 -0.7358345346044537 1.000344311451912
v 1.001906811451912 -0.7358345346044537 1.622187744990141
v 0.5410310697340975 -1.625 1.068347199080048
v 0.572049487377881 -0.5591648231837738 1.0993656167238315
v 0.8117203844070727 -1.625 0.7976578844070727
v 1.1134281167238314 -0.5591648231837738 0.5579869873778809
v 1.0824096990800478 -1.625 0.5269685697340974
v 0.8427388020508562 -0.5591648231837738 0.8286763020508562
v 1.6355507114982712 -2.1268756422117727 0.9996447779600425
v 1.6362502449901408 -0.7358345346044537 1.000344311451912
vt 0.5553400208512391 0.7916666666666657
vt 0 0.518618210677253
vt 1.4802973661668753e-16 0.23145156558602487
vt 0.559834303690355 0.7747458487782768
vt 0.08333333333333394 0.9081416834542656
vt 0.08333333333333405 0.12800632306789428
vt 0.28941764276084575 0.3279936645374567
vt 0.09863815779098994 0.916666666666667
vt 0.08333333333333402 0.3027833333333345
vt 0.1718750000000007 0.3027833333333345
vt 0.1718750000000007 0.9166666666666677
vt 0.16145833333333404 0.9166666666666677
vt 0.11458333333333263 0.9166666666666674
vt 0.10416666666666598 0.9166666666666674
vt 0.10416666666666598 0.13668750000000074
vt 0.13020833333333262 0.13668750000000074
vt 0.1252333333333342 0.3696520833333339
vt 0.3325145833333341 0.3696520833333339
vt 0.3322812500000008 0.8333333333333338
vt 0.1250000000000009 0.8333333333333338
vt 0.11458333333333263 0.8541666666666666
vt 0.10416666666666598 0.8541666666666666
vt 0.10416666666666598 0.8359374999999999
vt 0.11458333333333263 0.8359374999999999
vt 0.0625000000000004 0.877764466017009
vt 0.1743471809641197 0.3713404272527231
vt 0.3311681407167944 0.6904704996595208
vt 0.3311681407167943 0.9791666666666671
vt 0.08854166666666596 0.9999999999999998
vt 0.062499999999999306 0.9999999999999998
vt 0.062499999999999306 0.4914124999999998
vt 0.190104166666666 0.4914124999999998
vt 0.16899402220535695 0.9583333333333339
vt 0.041666666666666664 0.6992313459923952
vt 0.041666666666666664 0.3436525742826305
vt 0.36538779136245864 0.7488372315883696
vt 0.145833333333334 0.33895833333333314
vt 0.2734375000000007 0.33895833333333314
vt 0.2734375000000007 0.6249999999999998
vt 0.184895833333334 0.6249999999999998
vt 0.5471620664377984 0.44792811275702016
vt 0.4663946951089987 0.6666666666666659
vt 0.1666666666666677 0.4753561877717638
vt 0.16666666666666777 0.18293793304271178
vt 0.21093749999999933 0.2916666666666675
vt 0.08333333333333263 0.2916666666666675
vt 0.08627916666666598 0.10061666666666769
vt 0.2328499999999993 0.029827083333334392
vt 0.041666666666666 0.4567557037484331
vt 0.2843145328431365 0.6238751564167104
vt 0.26998758457904376 0.9791666666666669
vt 0.041666666666666 0.9204349872530867
vt 0.04166666666666755 0.7770062499999989
vt 0.2489479166666675 0.7770062499999989
vt 0.30617083333333417 0.8562708333333323
vt 0.2159416666666675 0.9166666666666656
vt 0.25334791666666573 0.9791666666666672
vt 0.041899999999999084 0.9791666666666672
vt 0.041666666666665776 0.5154854166666671
vt 0.2531145833333324 0.5154854166666671
vt 0.041666666666666075 0.8958333333333333
vt 0.11156447828632728 0.6962725220665518
vt 0.30263739926889993 0.6962725220665515
vt 0.3046055135596135 0.7925678647777896
vt 0.541666666666666 0.34557916666666644
vt 0.6692708333333326 0.34557916666666644
vt 0.6692708333333326 0.8541666666666664
vt 0.643229166666666 0.8541666666666664
vt 0.22916666666666596 0.13668750000000074
vt 0.25520833333333265 0.13668750000000074
vt 0.25520833333333265 0.9166666666666674
vt 0.24479166666666596 0.9166666666666674
vt 0.08333333333333263 0.8359374999999999
vt 0.09374999999999929 0.8359374999999999
vt 0.09374999999999929 0.8541666666666666
vt 0.08333333333333263 0.8541666666666666
vt 0.05208333333333403 0.7916666666666677
vt 0.04166666666666736 0.7916666666666677
vt 0.04166666666666736 0.17778333333333451
vt 0.130208333333334 0.17778333333333451
vt 0.15104166666666735 0.9166666666666665
vt 0.0625000000000007 0.9166666666666665
vt 0.0625000000000007 0.6306249999999998
vt 0.19010416666666732 0.6306249999999998
vt 0.23471666666666682 0.5833333333333333
vt 0.10711250000000018 0.5833333333333333
vt 0.10416666666666685 0.4856166666666666
vt 0.25368333333333354 0.36630208333333325
vn 0.4350705427207861 0.02477942441187467 -0.9000553332892689
vn -0.8973883698700363 0.018322403458117725 0.44086097939545216
vn 0.67599396408597 0.2933672119352673 0.6759939640859703
vn -0.7071054167009041 -0.001964521438353873 -0.7071054167009041
vn 0.9999998735534403 -0.0005028847814706153 -3.5707473115032e-16
vn -0.3319665256201528 0.8829475928589245 -0.3319665256201528
vn -0.8930577650706377 0.012901138509459759 0.4497570331547883
vn -0.5804407788910014 -0.5711190807535811 -0.5804407788910014
vn 0.45625859645449673 0.012615889828874106 -0.8897577942817914
vn 0.6522876090209172 0.38605925741464936 0.652287609020917
vn -0.7717769433356091 0.003954903814785608 0.6358810489952974
vn -0.619170295603259 -0.4829661376174792 -0.619170295603259
vn 0.6512826129310102 0.003129858080141089 -0.7588288094703273
vn 0.742948464165704 0.6693486233599212 -2.6528815664528657e-16
vn 0 -0.0005028847814707752 0.9999998735534404
vn 1.6236295995327937e-16 -0.3733603977679172 -0.9276863766265961
vn -0.5804407788910015 -0.571119080753581 -0.5804407788910011
vn -0.7071054167009041 -0.0019645214383538726 -0.7071054167009041
vn -0.3319665256201528 0.8829475928589245 -0.3319665256201528
vn 0.6759939640859702 0.2933672119352674 0.6759939640859702
vn 0.6522876090209172 0.38605925741464936 0.6522876090209169
vn 0.42614109043100185 0.7980022193531504 0.4261410904310017
usemtl m_9cd31f67-1a7c-6d9d-3254-1948b4f8a1d2
f 1/1/1 2/2/1 3/3/1 4/4/1
f 5/5/2 6/6/2 7/7/2 8/8/2
f 7/9/3 9/10/3 10/11/3 8/12/3
f 5/13/4 11/14/4 12/15/4 6/16/4
f 13/17/5 14/18/5 15/19/5 16/20/5
f 8/21/6 10/22/6 11/23/6 5/24/6
f 6/25/7 17/26/7 18/27/7 7/28/7
f 6/29/8 12/30/8 19/31/8 17/32/8
f 2/33/9 20/34/9 21/35/9 3/36/9
f 18/37/10 22/38/10 9/39/10 7/40/10
f 16/41/11 18/42/11 17/43/11 13/44/11
f 17/45/12 19/46/12 14/47/12 13/48/12
f 23/49/13 21/50/13 20/51/13 24/52/13
f 16/53/14 15/54/14 22/55/14 18/56/14
f 24/57/15 15/58/15 14/59/15 23/60/15
f 23/61/16 14/62/16 19/63/16 21/64/16
f 21/65/17 19/66/17 12/67/17 3/68/17
f 3/69/18 12/70/18 11/71/18 4/72/18
f 4/73/19 11/74/19 10/75/19 1/76/19
f 1/77/20 10/78/20 9/79/20 2/80/20
f 2/81/21 9/82/21 22/83/21 20/84/21
f 20/85/22 22/86/22 15/87/22 24/88/22