# Made in Blockbench 4.8.3
mtllib pointy_spike_large.mtl

o cuboid
v 0.9374999999999999 -0.7358345346044537 1.4785613114181724
v 0.5312499999999999 3.3680530514848663 0.2972988375776101
v 0.9374999999999998 -1.0018756422117725 1.4775720216666364
v 0.5312499999999999 3.342378825395013 0.24901264109313803
v 0.06250000000000011 -0.7358345346044537 1.4785613114181724
v 0.4687500000000001 3.3680530514848663 0.2972988375776101
v 0.06250000000000022 -1.0018756422117725 1.4775720216666364
v 0.4687500000000001 3.342378825395013 0.24901264109313803
v 0.234375 0.6699344615559495 0.8375790234832786
v 0.421875 0.189946161564171 0.2536094978459736
v 0.578125 0.189946161564171 0.2536094978459736
v 0.765625 0.6699344615559495 0.8375790234832786
v 0.11718749999999994 0.003335176816226193 1.1688666669151915
v 0.1171875 -1 1.125
v 0.8828125 -1 1.125
v 0.8828125 0.003335176816226193 1.1688666669151915
vt 0.5405695247197575 0.8052109648751389
vt 0.5500318544444924 0.11486598866117648
vt 0.7264950899000777 0.03257983058542857
vt 0.5531782985423659 0.8014748399014244
vt 0.421875 0.852974441465121
vt 0.421875 0.0647786232114349
vt 0.5759268070296766 0.18385200998163842
vt 0.43336725245784596 0.859375
vt 0.54296875 0.78125
vt 0.484375 0.09332968750000004
vt 0.6171875 0.09332968750000004
vt 0.55859375 0.78125
vt 0.49609375 0.890625
vt 0.484375 0.102515625
vt 0.5234375 0.102515625
vt 0.51171875 0.890625
vt 0.609375 0.636615625
vt 0.609375 0.703125
vt 0.390625 0.703125
vt 0.390625 0.636615625
vt 0.625 0.453125
vt 0.609375 0.453125
vt 0.609375 0.439453125
vt 0.625 0.439453125
vt 0.6562500000000002 0.4522675590406027
vt 0.65625 0.07575962382116652
vt 0.8182179506913496 0.26760455531241967
vt 0.850952731653817 0.453125
vt 0.482421875 0.625
vt 0.40625 0.256278125
vt 0.59765625 0.256278125
vt 0.521484375 0.625
vt 0.5648663405665796 0.390625
vt 0.3793450253105374 0.35789224815742293
vt 0.1875 0.19592340319879487
vt 0.5640063223785433 0.1959234031987952
vt 0.435546875 0.5
vt 0.40625 0.3139046875
vt 0.59765625 0.3139046875
vt 0.568359375 0.5
vt 0.7852597412096216 0.5984069186795599
vt 0.9696437323272844 0.6779814643830457
vt 0.71875 0.6875
vt 0.71875 0.5983034721605528
vt 0.609375 0.77123125
vt 0.595703125 0.859375
vt 0.404296875 0.859375
vt 0.390625 0.77123125
vt 0.203125 0.5459824484362131
vt 0.2923231066857819 0.5459824484362131
vt 0.28280395483588083 0.796875
vt 0.2032307623214062 0.6124906235121317
vt 0.609375 0.15901875
vt 0.595703125 0.359375
vt 0.404296875 0.359375
vt 0.390625 0.15901875
vn 0.9474732389865336 0.01836412049814073 -0.31930740749737857
vn -0.948717874083627 0.013646390805183123 -0.31582933906183497
vn 0 0.19634552381329884 0.9805347700507523
vn 0 -0.0014581919285292912 -0.9999989368375848
vn 0 -0.0037185340292334133 0.9999930862284366
vn 0 0.8829475928589243 -0.46947156278589564
vn -0.949551718556995 0.013698230923591776 -0.3133111748007422
vn 0 -0.5908182656047125 -0.8068046709258936
vn 0.9509106299992194 0.013517187296339491 -0.30917027574151373
vn 0 0.4450499621414645 0.8955057404605964
vn -0.9874325866041855 0.00690308257435565 -0.15788994383157953
vn 0 -0.9999858497181459 -0.005319808594114641
vn 0.9881664437661355 0.006699739610360443 -0.15323900581686986
vn 0 0.3864297953855705 0.9223188240723845
usemtl m_eca5b7f1-3618-8378-5c6d-d0654148848a
f 2/1/1 12/2/1 11/3/1 4/4/1
f 8/5/2 10/6/2 9/7/2 6/8/2
f 6/9/3 9/10/3 12/11/3 2/12/3
f 4/13/4 11/14/4 10/15/4 8/16/4
f 3/17/5 1/18/5 5/19/5 7/20/5
f 6/21/6 2/22/6 4/23/6 8/24/6
f 10/25/7 14/26/7 13/27/7 9/28/7
f 11/29/8 15/30/8 14/31/8 10/32/8
f 12/33/9 16/34/9 15/35/9 11/36/9
f 9/37/10 13/38/10 16/39/10 12/40/10
f 5/41/11 13/42/11 14/43/11 7/44/11
f 7/45/12 14/46/12 15/47/12 3/48/12
f 3/49/13 15/50/13 16/51/13 1/52/13
f 1/53/14 16/54/14 13/55/14 5/56/14