# Made in Blockbench 4.8.3
mtllib red_cloth_45.mtl

o plane
v -0.9187296039123928 1.7175780786545813 0
v -0.9187296039123928 1.7175780786545813 1
v -2.041871514557215 2.9529114510721253 1
v -2.041871514557215 2.9529114510721253 0
v 0.2617489101787618 0.49290880680568216 0
v 0.2617489101787618 0.49290880680568216 1
v 0.9440855136250941 -0.03392709262567296 0
v 0.9440855136250941 -0.03392709262567296 1
v -2 3 1
v -0.8749999999999998 1.7624999999999995 1
v -0.8749999999999998 1.7624999999999995 1.1102230246251565e-16
v -2 3 0
v 1 0 0
v 0.3124999999999998 0.5312500000000003 1.1102230246251565e-16
v 0.3124999999999998 0.5312500000000003 1
v 1 0 1
vt 0.7291666666666666 -0.00010312499999987068
vt 0.8958333333333334 -0.00010312499999987068
vt 0.8958333333333334 0.90625
vt 0.7291666666666666 0.90625
vt 0.7291666666666666 0.005840625000000044
vt 0.8958333333333334 0.005840625000000044
vt 0.8958333333333334 0.8125
vt 0.7291666666666666 0.8125
vt 0.8958333333333334 0.40625
vt 0.7291666666666666 0.40625
vt 0.7291666666666666 -0.006421875000000021
vt 0.8958333333333334 -0.006421875000000021
vt 0.7291666666666666 0.90625
vt 0.7291666666666666 -0.0015281250000001023
vt 0.8958333333333334 -0.0015281250000001023
vt 0.8958333333333334 0.90625
vt 0.8958333333333334 -0.009796874999999927
vt 0.8958333333333334 0.40625
vt 0.7291666666666666 0.40625
vt 0.7291666666666666 -0.009796874999999927
vt 0.4166666666666667 0.8125
vt 0.4166666666666667 0.0010281249999999353
vt 0.5833333333333334 0.0010281249999999353
vt 0.5833333333333334 0.8125
vt 0.8746252800124554 0.4273075921363674
vt 0.8645833333333334 0.4375
vt 0.8645833333333334 0.02482943719208297
vt 0.8745004894398424 0.01126004320617957
vt 0.7526041666666664 0.03298611111111116
vt 0.7526041666666664 0.02208506944444455
vt 0.8776041666666664 0.02208506944444455
vt 0.8776041666666664 0.03298611111111116
vt 0.7604466663154198 0.8118115750301772
vt 0.75 0.8125
vt 0.75 0.0058390828036656295
vt 0.7604414243165393 0.0003398701151549055
vt 0.45825647001946884 0.90625
vt 0.4479166666666667 0.9007406969286886
vt 0.4479166666666667 -0.005612489653741282
vt 0.4582768125308352 -0.001528880716906933
vt 0.6520625689008749 0.03298611111111116
vt 0.6510416666666663 0.022625965246942714
vt 0.8776299633122737 0.02262596524694238
vt 0.8790072890801014 0.03296576859974454
vt 0.7526041666666664 0.0434027777777779
vt 0.7526041666666664 0.032900694444444545
vt 0.8776041666666664 0.032900694444444545
vt 0.8776041666666664 0.0434027777777779
vt 0.7604166666666666 0.49962562828216095
vt 0.764939797995301 0.4698741599626336
vt 0.9024966522646068 0.4698741599626337
vt 0.8990991829767293 0.5
vt 0.6744791666666664 0.03298086911223064
vt 0.6758539698387939 0.022539444795691366
vt 0.8775191991378776 0.022539444795691366
vt 0.8773470928954219 0.03298611111111116
vt 0.2916666666666667 0.84375
vt 0.2916666666666667 0.81240625
vt 0.4583333333333333 0.81240625
vt 0.4583333333333333 0.84375
vn -0.7399068104571926 -0.6727093814115157 0
vn -0.7199772260114201 -0.6939976902158251 0
vn -0.6111393454820913 -0.7915230258202988 0
vn 0.7399400733959438 0.6726727939963124 0
vn 0.6114475010757656 0.7912850013921672 0
vn 0.7197790907075791 0.6942031839311678 0
vn 0 0 1
vn 0.5187436370103747 -0.8549298445259988 0
vn 0 0 1
vn 0 0 1
vn 1.3127583891151686e-15 1.1935352822861131e-15 -1
vn -0.7472908935842293 0.6644970431582704 0
vn 0 0 -1
vn 1.2658059429046528e-15 1.2201308165035758e-15 -1
vn 0.7165521986661985 -0.697533473452448 0
usemtl m_bc9f86dc-feeb-c9a3-daa2-6198d5c65650
f 1/1/1 2/2/1 3/3/1 4/4/1
f 5/5/2 6/6/2 2/7/2 1/8/2
f 6/9/3 5/10/3 7/11/3 8/12/3
f 9/13/4 10/14/4 11/15/4 12/16/4
f 13/17/5 14/18/5 15/19/5 16/20/5
f 10/21/6 15/22/6 14/23/6 11/24/6
f 15/25/7 6/26/7 8/27/7 16/28/7
f 16/29/8 8/30/8 7/31/8 13/32/8
f 10/33/9 2/34/9 6/35/9 15/36/9
f 9/37/10 3/38/10 2/39/10 10/40/10
f 11/41/11 1/42/11 4/43/11 12/44/11
f 12/45/12 4/46/12 3/47/12 9/48/12
f 13/49/13 7/50/13 5/51/13 14/52/13
f 14/53/14 5/54/14 1/55/14 11/56/14
f 10/57/15 2/58/15 1/59/15 11/60/15
o cube
v 0.9533484217303014 -0.18111975782205944 -0.00625002384185791
v 0.7722373293011011 -0.13259118686533686 -0.00625002384185791
v 0.8207659002578238 0.04851990556386346 -0.00625002384185791
v 1.0018769926870241 -0.000008665392859125154 -0.00625002384185791
v 0.9533484217303014 -0.18111975782205944 0.9937499761581421
v 1.0018769926870241 -0.000008665392859125154 0.9937499761581421
v 0.7722373293011011 -0.13259118686533686 0.9937499761581421
v 0.8207659002578238 0.04851990556386346 0.9937499761581421
vt 0.8645833333333334 0.8124989735437975
vt 0.8958334059026934 0.8124989735437975
vt 0.8958323997244745 0.90625
vt 0.8645833333333334 0.9062491912518782
vt 0.75 0.8125
vt 0.9166666666666666 0.8125
vt 0.9166666666666666 0.90625
vt 0.75 0.90625
vt 0.84375 1
vt 0.84375 0.9062497822919194
vt 0.8750000725693602 0.9062497822919193
vt 0.8750003421520676 0.999996981465343
vt 0.7291666666666666 0.8125
vt 0.8958333333333334 0.8125
vt 0.8958333333333334 0.90625
vt 0.7291666666666666 0.90625
vt 0.75 0.1875
vt 0.75 0.09375
vt 0.9166666666666666 0.09375
vt 0.9166666666666666 0.1875
vt 0.7291666666666666 0.1875
vt 0.7291666666666666 0.09375
vt 0.8958333333333334 0.09375
vt 0.8958333333333334 0.1875
vn 0 0 -1
vn 0.9659258262890682 -0.258819045102521 0
vn 0 0 1
vn -0.9659258262890682 0.258819045102521 0
vn 0.2588190451025205 0.9659258262890685 0
vn -0.2588190451025205 -0.9659258262890685 0
usemtl m_bc9f86dc-feeb-c9a3-daa2-6198d5c65650
f 17/61/16 18/62/16 19/63/16 20/64/16
f 21/65/17 17/66/17 20/67/17 22/68/17
f 23/69/18 21/70/18 22/71/18 24/72/18
f 18/73/19 23/74/19 24/75/19 19/76/19
f 24/77/20 22/78/20 20/79/20 19/80/20
f 18/81/21 17/82/21 21/83/21 23/84/21