# Made in Blockbench 4.8.3
mtllib red_cloth_45.mtl

o plane
v 1 0 1
v 1 0 0
v -1 2 1
v -1 2 0
v -0.375 1.2 0
v -0.375 1.2 1
v 0.3125 0.46875 0
v 0.3125 0.46875 1
v 0.9440855136250941 -0.03392709262567296 0
v 0.2617489101787618 0.43040880680568216 1
v 0.2617489101787618 0.43040880680568216 0
v 0.9440855136250941 -0.03392709262567296 1
v -0.4187296039123928 1.1550780786545813 1
v -0.4187296039123928 1.1550780786545813 0
v -1.041871514557215 1.9529114510721253 1
v -1.041871514557215 1.9529114510721253 0
vt 0.25 0.5209937499999999
vt 0 0.5209937499999999
vt 0 0.9375
vt 0.25 0.9375
vt 0.28125 0.496378125
vt 0.03125 0.496378125
vt 0.03125 0.96875
vt 0.28125 0.96875
vt 0.09375 0.96875
vt 0.34375 0.96875
vt 0.34375 0.509203125
vt 0.09375 0.509203125
vt 0 0.9375
vt 0 0.5209937499999999
vt 0.25 0.5209937499999999
vt 0.25 0.9375
vt 0.34375 0.509203125
vt 0.34375 0.96875
vt 0.09375 0.96875
vt 0.09375 0.509203125
vt 0.03125 0.96875
vt 0.03125 0.496378125
vt 0.28125 0.496378125
vt 0.28125 0.96875
vt 0.07813866011060919 0.8437513661909255
vt 0.078125 0.875
vt 0.28445986869540685 0.8749999999999999
vt 0.2861624365335492 0.8441213607241819
vt 0.031434997266628295 1
vt 0.046874316904537305 0.9965948643237152
vt 0.046874316904537305 0.5839251269329016
vt 0.03125 0.58395244715412
vt 0 0.75
vt 0 0.78125
vt 0.25 0.78125
vt 0.25 0.75
vt 0 1
vt 0.015592794029538448 0.9985930224981144
vt 0.015592794029538504 0.5015518952188607
vt 0.00015286752170479145 0.49815778410830835
vt 0.015625 0.8128701469843324
vt 0.017322055555276175 0.8437499999999998
vt 0.26584261919490304 0.84375
vt 0.26654610794584577 0.8125644119409231
vt 0 0.9999966771926501
vt 0.01562427614490472 1
vt 0.01562427614490472 0.49382739193022673
vt 0.000031987914778208726 0.4923981686181139
vt 0 0.8438154235397469
vt 0.0007146116560564075 0.875
vt 0.2538009156909431 0.8749999999999998
vt 0.253799254287268 0.8437514477101904
vt 0 0.9375
vt 0 0.96875
vt 0.25 0.96875
vt 0.25 0.9375
vn -0.788103636727669 -0.6155425718637357 0
vn -0.7289843033200023 -0.6845304124091572 0
vn -0.5625974889768834 -0.826730951033591 0
vn 0.7880243737245634 0.6156440419723151 0
vn 0.5633368246415098 0.8262273428075478 0
vn 0.7285655143588785 0.6849761246109115 0
vn 0 0 -1
vn 0 0 1
vn 0.5187436370103747 -0.8549298445259988 0
vn 0 0 1
vn 0 0 -1
vn 0 0 1
vn 0 0 -1
vn -0.7472908935842293 0.6644970431582704 0
usemtl m_670e0171-0ace-faba-0f87-bf5c8d9f5ba6
f 14/1/1 13/2/1 15/3/1 16/4/1
f 11/5/2 10/6/2 13/7/2 14/8/2
f 10/9/3 11/10/3 9/11/3 12/12/3
f 3/13/4 6/14/4 5/15/4 4/16/4
f 2/17/5 7/18/5 8/19/5 1/20/5
f 6/21/6 8/22/6 7/23/6 5/24/6
f 2/25/7 9/26/7 11/27/7 7/28/7
f 8/29/8 10/30/8 12/31/8 1/32/8
f 1/33/9 12/34/9 9/35/9 2/36/9
f 6/37/10 13/38/10 10/39/10 8/40/10
f 7/41/11 11/42/11 14/43/11 5/44/11
f 3/45/12 15/46/12 13/47/12 6/48/12
f 5/49/13 14/50/13 16/51/13 4/52/13
f 4/53/14 16/54/14 15/55/14 3/56/14
o cube
v 0.9533484217303014 -0.18111975782205944 -0.00625002384185791
v 0.7722373293011011 -0.13259118686533686 -0.00625002384185791
v 0.8207659002578238 0.04851990556386346 -0.00625002384185791
v 1.0018769926870241 -0.000008665392859125154 -0.00625002384185791
v 0.9533484217303014 -0.18111975782205944 0.9937499761581421
v 1.0018769926870241 -0.000008665392859125154 0.9937499761581421
v 0.7722373293011011 -0.13259118686533686 0.9937499761581421
v 0.8207659002578238 0.04851990556386346 0.9937499761581421
vt 0 0.90625
vt 0.046875 0.90625
vt 0.046875 1
vt 0 1
vt 0 0.90625
vt 0.25 0.90625
vt 0.25 1
vt 0 1
vt 0 0.90625
vt 0.046875 0.90625
vt 0.046875 1
vt 0 1
vt 0 0.90625
vt 0.25 0.90625
vt 0.25 1
vt 0 1
vt 0 0.5
vt 0.046875 0.5
vt 0.046875 1
vt 0 1
vt 0 0.5
vt 0.046875 0.5
vt 0.046875 1
vt 0 1
vn 0 0 -1
vn 0.9659258262890682 -0.258819045102521 0
vn 0 0 1
vn -0.9659258262890682 0.258819045102521 0
vn 0.2588190451025205 0.9659258262890685 0
vn -0.2588190451025205 -0.9659258262890685 0
usemtl m_670e0171-0ace-faba-0f87-bf5c8d9f5ba6
f 17/57/15 18/58/15 19/59/15 20/60/15
f 21/61/16 17/62/16 20/63/16 22/64/16
f 23/65/17 21/66/17 22/67/17 24/68/17
f 18/69/18 23/70/18 24/71/18 19/72/18
f 24/73/19 22/74/19 20/75/19 19/76/19
f 18/77/20 17/78/20 21/79/20 23/80/20