# Made in Blockbench 4.8.3
mtllib red_cloth_45_diagonal.mtl

o plane
v 1.001140080527387 0.00111567517296976 1.0014074591475048
v -1.0034313897039038 0.0026097226788382704 -0.999693610296096
v -1 1.2 0.375
v -0.375 1.2 1
v -1.0001446866008712 0.4696024879302753 -0.3121481141396818
v 0.31062113655810636 0.46960248793027326 0.9986177090192827
v -0.38041050179644637 1.1362716249139555 1
v -1.0096500324860362 0.4077853247915706 -0.31062113655810053
v 0.3011157906729405 0.4077853247915688 1.0001446866008652
v -1.0054105017964463 1.1362716249139555 0.375
v -1.0053159821018955 -0.05821242545400108 -0.9871936102960959
v 0.9867554881293946 -0.0597064729598696 1.0014074591475048
v -1.0031409490573926 1.9353554279724792 1
v -1 2 1
vt 0.4858859375 0.65625
vt 0.375 0.20005937499999993
vt 0.5959703125 0.20005937499999993
vt 0.09375 0.34455
vt 0.557175 0.34455
vt 0.43667187500000004 0.78125
vt 0.21570156250000003 0.78125
vt 0.6916359375000001 0.71875
vt 0.2282109375 0.71875
vt 0.109375 0.383725
vt 0.8130640625000001 0.38232187500000003
vt 0.5167359375 0.6875
vt 0.40625 0.2305218750000001
vt 0.6272203125 0.2305218750000001
vt 0.833109375 0.351275
vt 0.7109875 0.6875
vt 0.24756093750000002 0.6875
vt 0.125 0.34987187500000005
vt 0.2147078125 0.75
vt 0.09375 0.311403125
vt 0.5571765625 0.311403125
vt 0.435678125 0.75
vt 0.12124805064998394 0.9375
vt 0.109375 0.916078876809215
vt 0.10937500000000012 0.41728774735690355
vt 0.12166877513802489 0.43661218865746865
vt 0.04225219735380048 0.6875
vt 0.03125 0.6652660296883861
vt 0.2813486253117208 0.6652660296883859
vt 0.2929564375387611 0.6871660302671009
vt 0.39667378561472405 0.6875
vt 0.390625 0.6588909863001242
vt 0.5960087985088927 0.658890986300124
vt 0.6044484925166903 0.6849335301898869
vt 0.35786318545557355 0.90625
vt 0.34375000000000006 0.8927621353432481
vt 0.34375 0.4778395591458553
vt 0.35833389700240276 0.4890265977153667
vt 0.8755065120551581 0.3073075136929536
vt 0.1718157854632794 0.30730751369295317
vt 0.1692787568464768 0.2764735327199549
vt 0.8773882336400225 0.27647515651069343
vt 0.15117888817923958 0.96875
vt 0.140625 0.944221727094398
vt 0.140625 0.4376807508686804
vt 0.15148604188407755 0.46115185911844947
vt 0.21875 0.5076738695649778
vt 0.21875 0.4756945077815068
vt 0.3758462479814117 0.8739122940063407
vt 0.3759056385494223 0.90625
vn -0.619302836883611 -0.4826261414965245 0.619302836883611
vn -0.5897822936345491 -0.5516463470651609 0.5897822936345534
vn -0.49176747083034267 -0.7185607206536224 0.4917674708303459
vn 0.6189427767313701 0.4835490443213829 -0.6189427767313701
vn 0.49106160471463645 0.7195255386365162 -0.49106160471464017
vn 0.5887747551346405 0.5537947051320397 -0.5887747551346454
vn -0.00019463490691056908 0.00001652438983528096 0.9999999809220986
vn -0.9777842644243517 0.14664986537823552 -0.1497723246420213
vn -0.9993674561644793 0.02597340756395242 -0.024291349465489723
vn 0.013572388392156576 0.02260596191760802 0.9996523199388436
vn -0.6967697457139448 0.16478781323963293 0.698109517243122
vn 0 0 1
vn -0.991014975482505 0.08413659218383963 -0.10397284369055532
usemtl m_4909c81f-4dee-82bd-3ee1-a0045c979fd8
f 13/1/1 10/2/1 7/3/1
f 8/4/2 9/5/2 7/6/2 10/7/2
f 9/8/3 8/9/3 11/10/3 12/11/3
f 14/12/4 4/13/4 3/14/4
f 2/15/5 5/16/5 6/17/5 1/18/5
f 4/19/6 6/20/6 5/21/6 3/22/6
f 4/23/7 7/24/7 9/25/7 6/26/7
f 5/27/8 8/28/8 10/29/8 3/30/8
f 2/31/9 11/32/9 8/33/9 5/34/9
f 6/35/10 9/36/10 12/37/10 1/38/10
f 11/39/11 12/40/11 1/41/11 2/42/11
f 14/43/12 13/44/12 7/45/12 4/46/12
f 3/47/13 10/48/13 13/49/13 14/50/13