# Made in Blockbench 4.8.3
mtllib red_cloth_22_small.mtl

o plane
v 1.0031409490573926 0.9353554279724792 1
v 0.24799942449109202 0.4656004703819837 1
v 0.24799942449109202 0.4656004703819837 3.885780586188048e-16
v 1.0031409490573926 0.9353554279724792 0
v -0.7913263144591021 0.04052235014242389 1
v -0.7913263144591021 0.04052235014242389 3.885780586188048e-16
v 0.23981427961444501 0.5290321874022981 3.885780586188048e-16
v 0.23981427961444501 0.5290321874022981 1
v 1 1 1
v 1 1 0
v -0.8050445643832436 0.10179945384854583 3.885780586188048e-16
v -0.8050445643832436 0.10179945384854583 1
v -0.9857150553104491 -0.06199888060896064 5.051514762044462e-15
v -0.9857150553104491 -0.06199888060896064 1
v -0.9994333052345903 -0.0007217769028393661 1
v -0.9994333052345903 -0.0007217769028393661 5.051514762044462e-15
vt 0.578125 0.53125
vt 0.578125 0.08658437499999994
vt 0.828125 0.08658437499999994
vt 0.828125 0.53125
vt 0.21875 0.75
vt 0.21875 0.188553125
vt 0.46875 0.188553125
vt 0.46875 0.75
vt 0.453125 0.209121875
vt 0.703125 0.209121875
vt 0.703125 0.65625
vt 0.453125 0.65625
vt 0.109375 0.12308437499999991
vt 0.359375 0.12308437499999991
vt 0.359375 0.6875
vt 0.109375 0.6875
vt 0.078125 0.31279592293628355
vt 0.3588478628080103 0.31279592293628344
vt 0.36295635547130445 0.34370095182068605
vt 0.08074952589881146 0.34375
vt 0.234375 0.6480330146734118
vt 0.2343750000000001 0.08658728905739121
vt 0.24985203853185833 0.09183634085501413
vt 0.2498275144422013 0.65625
vt 0.125 0.4084074965382726
vt 0.3473332264836563 0.4084074965382727
vt 0.3552022770481512 0.4366826900369022
vt 0.13163825844127244 0.4375
vt 0.35937500000000006 0.6405118988710101
vt 0.359375 0.19584544590369757
vt 0.3739212517308637 0.2091219627862424
vt 0.3735125967493148 0.65625
vt 0.203125 0.5926374999999999
vt 0.453125 0.5926374999999999
vt 0.453125 0.625
vt 0.203125 0.625
vt 0.078125 0.906103125
vt 0.328125 0.906103125
vt 0.328125 0.9375
vt 0.078125 0.9375
vt 0.13114709638721259 0.90625
vt 0.078125 0.8774614998085403
vt 0.078125 0.846062472343008
vt 0.13114743772814902 0.8748540220541775
vt 0.078125 0.96875
vt 0.078125 0.85886875
vt 0.328125 0.85886875
vt 0.328125 0.96875
vt 0.203125 0.9605243494753594
vt 0.203125 0.8506404610052452
vt 0.21827601987830023 0.8588675693897662
vt 0.21827463782642265 0.96875
vt 0.078125 0.96875
vt 0.078125 0.858865625
vt 0.328125 0.858865625
vt 0.328125 0.96875
vn 0.5282120038297158 -0.849112524351276 0
vn 0.37855610505664306 -0.9255783463998841 0
vn -0.5266590812131831 0.8500765919466821 0
vn -0.37847384075613033 0.92561198774827 0
vn 0 0 1
vn 0 0 -1
vn 0 0 1
vn -4.763398202155522e-16 -6.146626044714588e-17 -1
vn 0.9988216900846638 0.048530726518524976 0
vn -0.9758448536215505 -0.21846469202215416 0
vn 0 0 1
vn 0.46649941340063206 -0.8845215075377569 0
vn -2.1454531552849456e-14 -4.8030766476640856e-15 -1
vn -0.46649941340063517 0.8845215075377554 0
usemtl m_01664e51-a490-e97f-534b-02aa0dc017e9
f 1/1/1 2/2/1 3/3/1 4/4/1
f 2/5/2 5/6/2 6/7/2 3/8/2
f 7/9/3 8/10/3 9/11/3 10/12/3
f 11/13/4 12/14/4 8/15/4 7/16/4
f 5/17/5 2/18/5 8/19/5 12/20/5
f 3/21/6 6/22/6 11/23/6 7/24/6
f 2/25/7 1/26/7 9/27/7 8/28/7
f 4/29/8 3/30/8 7/31/8 10/32/8
f 1/33/9 4/34/9 10/35/9 9/36/9
f 13/37/10 14/38/10 15/39/10 16/40/10
f 12/41/11 15/42/11 14/43/11 5/44/11
f 5/45/12 14/46/12 13/47/12 6/48/12
f 6/49/13 13/50/13 16/51/13 11/52/13
f 11/53/14 16/54/14 15/55/14 12/56/14
o cube
v -0.806347967883266 -0.0031626022799072125 -2.3841857909809305e-8
v -0.7657655402698716 -0.1862181036148945 -2.3841857909809305e-8
v -0.9488210416048592 -0.22680053122828886 -2.3841857909809305e-8
v -0.9894034692182534 -0.043745029893301354 -2.3841857909809305e-8
v -0.9488210416048592 -0.22680053122828886 0.9999999761581421
v -0.9894034692182534 -0.043745029893301354 0.9999999761581421
v -0.7657655402698716 -0.1862181036148945 0.9999999761581421
v -0.806347967883266 -0.0031626022799072125 0.9999999761581421
vt 0.1562501190102656 0.9375
vt 0.109375 0.9375
vt 0.10937500000000003 0.8437497619794687
vt 0.15625011901026561 0.8437497619794687
vt 0.109375 0.875
vt 0.109375 0.78125
vt 0.359375 0.78125
vt 0.359375 0.875
vt 0.09375 0.90625
vt 0.09375 0.8124997619794688
vt 0.14062511901026556 0.8124997619794687
vt 0.1406251190102656 0.90625
vt 0.09375 0.875
vt 0.09375 0.78125
vt 0.34375 0.78125
vt 0.34375 0.875
vt 0.09375 0.5
vt 0.34375 0.5
vt 0.34375 0.59375
vt 0.09375 0.59375
vt 0.09375 0.5
vt 0.34375 0.5
vt 0.34375 0.59375
vt 0.09375 0.59375
vn 0 0 -1
vn -0.9762960071199336 -0.21643961393810218 0
vn 0 0 1
vn 0.9762960071199334 0.21643961393810357 0
vn -0.2164396139381023 0.9762960071199336 0
vn 0.2164396139381032 -0.9762960071199335 0
usemtl m_01664e51-a490-e97f-534b-02aa0dc017e9
f 17/57/15 18/58/15 19/59/15 20/60/15
f 20/61/16 19/62/16 21/63/16 22/64/16
f 22/65/17 21/66/17 23/67/17 24/68/17
f 24/69/18 23/70/18 18/71/18 17/72/18
f 20/73/19 22/74/19 24/75/19 17/76/19
f 21/77/20 19/78/20 18/79/20 23/80/20