# Made in Blockbench 4.8.3
mtllib red_cloth_22.mtl

o cube
v 0.5969752863473965 0.4015696901662803 1.00625
v 0.5969752863473965 0.4015696901662803 -0.006249999999999978
v 1.4512342925773383 0.21218502797044014 1.00625
v 1.4512342925773383 0.21218502797044014 -0.006249999999999978
v 0.5969752863473965 0.4015696901662803 -0.006249999999999978
v 0.5969752863473965 0.4015696901662803 1.00625
v 1.4512342925773383 0.21218502797044014 -0.006249999999999978
v 1.4512342925773383 0.21218502797044014 1.00625
vt 0 1
vt 0 1
vt 0 0
vt 0 0
vt 0.09375 0.4078125
vt 0.09375 0.9140625
vt 0.31250000000000006 0.9140625
vt 0.31250000000000006 0.4078125
vt 0 1
vt 0 1
vt 0 0
vt 0 0
vt 0.09375 0.2515625
vt 0.09375 0.7578125
vt 0.31250000000000006 0.7578125
vt 0.31250000000000006 0.2515625
vt 0 1
vt 0 1
vt 0 0.5
vt 0 0.5
vt 0 1
vt 0 1
vt 0 0.5
vt 0 0.5
vn 0 0 -1
vn 0.21643961393810304 0.9762960071199333 0
vn 0 0 1
vn -0.21643961393810304 -0.9762960071199333 0
vn -0.9762960071199333 0.21643961393810304 0
vn 0.9762960071199333 -0.21643961393810304 0
usemtl m_e03dd749-67fa-9ff2-dfbe-463e9ab7bdbf
f 4/4/1 7/3/1 5/2/1 2/1/1
f 3/8/2 4/7/2 2/6/2 1/5/2
f 8/12/3 3/11/3 1/10/3 6/9/3
f 7/16/4 8/15/4 6/14/4 5/13/4
f 6/20/5 1/19/5 2/18/5 5/17/5
f 7/24/6 4/23/6 3/22/6 8/21/6
o cube
v -1.0458183368255962 1.1524725933790099 1.00625
v -1.0458183368255962 1.1524725933790099 -0.006249999999999978
v -0.3421726962507394 0.7462225933790096 1.00625
v -0.3421726962507394 0.7462225933790096 -0.006249999999999978
v -1.0458183368255962 1.1524725933790099 -0.006249999999999978
v -1.0458183368255962 1.1524725933790099 1.00625
v -0.3421726962507394 0.7462225933790096 -0.006249999999999978
v -0.3421726962507394 0.7462225933790096 1.00625
vt 0 1
vt 0 1
vt 0 0.5937499999999998
vt 0 0.5937499999999998
vt 0.09375 0.4078125
vt 0.09375 0.9140625
vt 0.2968750000000001 0.9140625
vt 0.2968750000000001 0.4078125
vt 0 1
vt 0 1
vt 0 0.5937499999999998
vt 0 0.5937499999999998
vt 0.09375 0.2515625
vt 0.09375 0.7578125
vt 0.2968750000000001 0.7578125
vt 0.2968750000000001 0.2515625
vt 0 1
vt 0 1
vt 0 0.49375
vt 0 0.49375
vt 0 1
vt 0 1
vt 0 0.49375
vt 0 0.49375
vn 0 0 -1
vn 0.5 0.8660254037844387 0
vn 0 0 1
vn -0.5 -0.8660254037844387 0
vn -0.8660254037844387 0.5 0
vn 0.8660254037844387 -0.5 0
usemtl m_e03dd749-67fa-9ff2-dfbe-463e9ab7bdbf
f 12/28/7 15/27/7 13/26/7 10/25/7
f 11/32/8 12/31/8 10/30/8 9/29/8
f 16/36/9 11/35/9 9/34/9 14/33/9
f 15/40/10 16/39/10 14/38/10 13/37/10
f 14/44/11 9/43/11 10/42/11 13/41/11
f 15/48/12 12/47/12 11/46/12 16/45/12
o cube
v 1.4581269926870242 0.2062413346071409 0.9937499761581421
v 1.4581269926870242 0.2062413346071409 -0.00625002384185791
v 1.4095984217303015 0.025130242177940576 0.9937499761581421
v 1.4095984217303015 0.025130242177940576 -0.00625002384185791
v 1.2770159002578239 0.2547699055638635 -0.00625002384185791
v 1.2770159002578239 0.2547699055638635 0.9937499761581421
v 1.2284873293011012 0.07365881313466316 -0.00625002384185791
v 1.2284873293011012 0.07365881313466316 0.9937499761581421
vt 0 1
vt 0.046875 1
vt 0.046875 0.90625
vt 0 0.90625
vt 0 1
vt 0.25 1
vt 0.25 0.90625
vt 0 0.90625
vt 0 1
vt 0.046875 1
vt 0.046875 0.90625
vt 0 0.90625
vt 0 1
vt 0.25 1
vt 0.25 0.90625
vt 0 0.90625
vt 0 1
vt 0.046875 1
vt 0.046875 0.5
vt 0 0.5
vt 0 1
vt 0.046875 1
vt 0.046875 0.5
vt 0 0.5
vn 0 0 -1
vn 0.9659258262890683 -0.25881904510252074 0
vn 0 0 1
vn -0.9659258262890683 0.25881904510252074 0
vn 0.25881904510252074 0.9659258262890683 0
vn -0.25881904510252074 -0.9659258262890683 0
usemtl m_e03dd749-67fa-9ff2-dfbe-463e9ab7bdbf
f 20/52/13 23/51/13 21/50/13 18/49/13
f 19/56/14 20/55/14 18/54/14 17/53/14
f 24/60/15 19/59/15 17/58/15 22/57/15
f 23/64/16 24/63/16 22/62/16 21/61/16
f 22/68/17 17/67/17 18/66/17 21/65/17
f 23/72/18 20/71/18 19/70/18 24/69/18
o cube
v -0.34446159809388033 0.744032542914367 1.00625
v -0.34446159809388033 0.744032542914367 -0.006249999999999978
v 0.60110410157194 0.3998747736929128 1.00625
v 0.60110410157194 0.3998747736929128 -0.006249999999999978
v -0.34446159809388033 0.744032542914367 -0.006249999999999978
v -0.34446159809388033 0.744032542914367 1.00625
v 0.60110410157194 0.3998747736929128 -0.006249999999999978
v 0.60110410157194 0.3998747736929128 1.00625
vt 0 1
vt 0 1
vt 0 0.49999999999999967
vt 0 0.49999999999999967
vt 0.09375 0.4078125
vt 0.09375 0.9140625
vt 0.34375000000000017 0.9140625
vt 0.34375000000000017 0.4078125
vt 0 1
vt 0 1
vt 0 0.49999999999999967
vt 0 0.49999999999999967
vt 0.09375 0.2515625
vt 0.09375 0.7578125
vt 0.34375000000000017 0.7578125
vt 0.34375000000000017 0.2515625
vt 0 1
vt 0 1
vt 0 0.49375
vt 0 0.49375
vt 0 1
vt 0 1
vt 0 0.49375
vt 0 0.49375
vn 0 0 -1
vn 0.3420201433256689 0.9396926207859084 0
vn 0 0 1
vn -0.3420201433256689 -0.9396926207859084 0
vn -0.9396926207859084 0.3420201433256689 0
vn 0.9396926207859084 -0.3420201433256689 0
usemtl m_e03dd749-67fa-9ff2-dfbe-463e9ab7bdbf
f 28/76/19 31/75/19 29/74/19 26/73/19
f 27/80/20 28/79/20 26/78/20 25/77/20
f 32/84/21 27/83/21 25/82/21 30/81/21
f 31/88/22 32/87/22 30/86/22 29/85/22
f 30/92/23 25/91/23 26/90/23 29/89/23
f 31/96/24 28/95/24 27/94/24 32/93/24