# Made in Blockbench 4.8.3
mtllib red_cloth_up.mtl

o plane
v 0.9997446773904941 -1.0002352943440038 1.000000032365552
v 0.9997446854549451 -1.0002353138133107 3.236554957375404e-8
v -0.001511714738506087 2.0002478731870394 0.9999999658736441
v -0.001511706674054425 2.000247853717734 -3.412635796173902e-8
v 0.23642117689044434 0.8125062699522123 -9.083055974024035e-9
v 0.2364211688259933 0.8125062894215187 0.9999999909169466
v 0.5192059780476946 -0.09386452193054878 1.0843859032938497e-8
v 0.5192059699832434 -0.09386450246124295 1.000000010843861
vt 1 0.5
vt 1 0
vt 0.697165625 0
vt 0.697165625 0.5
vt 0.457946875 0
vt 0.457946875 0.484375
vt 0.6953125 0.484375
vt 0.6953125 0
vt 0.199890625 0
vt 0.199890625 0.49353125
vt 0.456359375 0.49353125
vt 0.456359375 0
vt 0.697165625 0
vt 1 0
vt 1 0.5
vt 0.697165625 0.5
vt 0.456359375 0.49353125
vt 0.199890625 0.49353125
vt 0.199890625 0
vt 0.456359375 0
vt 0.698303125 0.484375
vt 0.4609375 0.484375
vt 0.4609375 0
vt 0.698303125 0
vn -0.9805195757724272 -0.19642138765180261 -4.083163938315228e-9
vn -0.9546166315503021 -0.29783734951740826 -1.8997727426139426e-9
vn -0.8835074755105432 -0.4684170585247588 1.994752090144503e-9
vn 0.9805195757724272 0.19642138765180261 4.083163952193016e-9
vn 0.8835074755105432 0.4684170585247588 -1.994752034633352e-9
vn 0.9546166315503021 0.2978373495174082 1.899772770369518e-9
usemtl m_68657b5b-1ce1-0bf0-4ba6-5d186e2fa21e
f 5/1/1 6/2/1 3/3/1 4/4/1
f 7/5/2 8/6/2 6/7/2 5/8/2
f 8/9/3 7/10/3 2/11/3 1/12/3
f 3/13/4 6/14/4 5/15/4 4/16/4
f 2/17/5 7/18/5 8/19/5 1/20/5
f 6/21/6 8/22/6 7/23/6 5/24/6