# Made in Blockbench 4.8.3
mtllib red_cloth_45.mtl

o plane
v -0.9187296039123928 1.5300780786545813 0
v -0.9187296039123928 1.5300780786545813 1
v -2.041871514557215 2.9529114510721253 1
v -2.041871514557215 2.9529114510721253 0
v 0.2617489101787618 0.43040880680568216 0
v 0.2617489101787618 0.43040880680568216 1
v 0.9440855136250941 -0.03392709262567296 0
v 0.9440855136250941 -0.03392709262567296 1
v -2 3 1
v -0.8749999999999998 1.5749999999999995 1
v -0.8749999999999998 1.5749999999999995 1.1102230246251565e-16
v -2 3 0
v 1 0 0
v 0.3124999999999998 0.46875000000000033 1.1102230246251565e-16
v 0.3124999999999998 0.46875000000000033 1
v 1 0 1
vt 0.21875 0.03114687500000002
vt 0.3854166666666667 0.03114687500000002
vt 0.3854166666666667 0.9375
vt 0.21875 0.9375
vt 0.25 0.06834062500000004
vt 0.4166666666666667 0.06834062500000004
vt 0.4166666666666667 0.875
vt 0.25 0.875
vt 0.4791666666666667 0.6875
vt 0.3125 0.6875
vt 0.3125 0.274828125
vt 0.4791666666666667 0.274828125
vt 0.21875 0.90625
vt 0.21875 -0.0015281250000001023
vt 0.3854166666666667 -0.0015281250000001023
vt 0.3854166666666667 0.90625
vt 0.4791666666666667 0.3027031250000001
vt 0.4791666666666667 0.71875
vt 0.3125 0.71875
vt 0.3125 0.3027031250000001
vt 0.7395833333333334 0.9375
vt 0.7395833333333334 0.12602812500000005
vt 0.90625 0.12602812500000005
vt 0.90625 0.9375
vt 0.21837528001245543 0.8023075921363674
vt 0.20833333333333334 0.8125
vt 0.20833333333333334 0.39982943719208286
vt 0.21825048943984246 0.3862600432061797
vt 0.21875 0.125
vt 0.21875 0.09229687499999994
vt 0.3854166666666667 0.09229687499999994
vt 0.3854166666666667 0.125
vt 0.15627999964875317 0.9055615750301772
vt 0.14583333333333334 0.90625
vt 0.1458333333333334 0.09958908280366563
vt 0.15627475764987261 0.0940898701151548
vt 0.10408980335280216 0.9375
vt 0.09375000000000004 0.9319906969286886
vt 0.09375 0.02563751034625872
vt 0.1041101458641685 0.029721119283093067
vt 0.25136120297894476 0.34375
vt 0.25 0.31266956240749444
vt 0.55211772886081 0.3126695624074938
vt 0.5539541632179137 0.34368897246590024
vt 0.21875 0.53125
vt 0.21875 0.49974374999999993
vt 0.3854166666666667 0.49974374999999993
vt 0.3854166666666667 0.53125
vt 0.2916666666666667 0.749625628282161
vt 0.29618979799530104 0.7198741599626336
vt 0.4337466522646068 0.7198741599626337
vt 0.4303491829767292 0.75
vt 0.23958333333333334 0.2812342740033582
vt 0.2414164042295036 0.2499100010537405
vt 0.5103033766282817 0.2499100010537405
vt 0.5100739016383408 0.28125
vt 0 1
vt 0 0.96865625
vt 0.16666666666666666 0.96865625
vt 0.16666666666666666 1
vn -0.7849223633026889 -0.619594128109137 0
vn -0.6816187387268421 -0.7317075201311172 0
vn -0.5625974889768834 -0.826730951033591 0
vn 0.7848827655334264 0.6196442885790207 0
vn 0.56333682464151 0.8262273428075477 0
vn 0.6816318998504762 0.7316952597265001 0
vn 0 0 1
vn 0.5187436370103747 -0.8549298445259988 0
vn 0 0 1
vn 0 0 1
vn 1.401980513906885e-15 1.1066812907267825e-15 -1
vn -0.7472908935842293 0.6644970431582704 0
vn 0 0 -1
vn 1.2079486402006607e-15 1.2967147963360032e-15 -1
vn 0.7165521986661985 -0.697533473452448 0
usemtl m_39d4bf5a-1de7-a9be-0292-0e3035201ba6
f 1/1/1 2/2/1 3/3/1 4/4/1
f 5/5/2 6/6/2 2/7/2 1/8/2
f 6/9/3 5/10/3 7/11/3 8/12/3
f 9/13/4 10/14/4 11/15/4 12/16/4
f 13/17/5 14/18/5 15/19/5 16/20/5
f 10/21/6 15/22/6 14/23/6 11/24/6
f 15/25/7 6/26/7 8/27/7 16/28/7
f 16/29/8 8/30/8 7/31/8 13/32/8
f 10/33/9 2/34/9 6/35/9 15/36/9
f 9/37/10 3/38/10 2/39/10 10/40/10
f 11/41/11 1/42/11 4/43/11 12/44/11
f 12/45/12 4/46/12 3/47/12 9/48/12
f 13/49/13 7/50/13 5/51/13 14/52/13
f 14/53/14 5/54/14 1/55/14 11/56/14
f 10/57/15 2/58/15 1/59/15 11/60/15
o cube
v 0.9533484217303014 -0.18111975782205944 -0.00625002384185791
v 0.7722373293011011 -0.13259118686533686 -0.00625002384185791
v 0.8207659002578238 0.04851990556386346 -0.00625002384185791
v 1.0018769926870241 -0.000008665392859125154 -0.00625002384185791
v 0.9533484217303014 -0.18111975782205944 0.9937499761581421
v 1.0018769926870241 -0.000008665392859125154 0.9937499761581421
v 0.7722373293011011 -0.13259118686533686 0.9937499761581421
v 0.8207659002578238 0.04851990556386346 0.9937499761581421
vt 0.1875 0.8749989735437975
vt 0.2187500725693602 0.8749989735437975
vt 0.2187490663911412 0.96875
vt 0.1875 0.9687491912518782
vt 0.3645833333333333 0.875
vt 0.53125 0.875
vt 0.53125 0.96875
vt 0.3645833333333333 0.96875
vt 0.1875 1
vt 0.1875 0.9062497822919194
vt 0.2187500725693602 0.9062497822919193
vt 0.21875034215206748 0.999996981465343
vt 0.21875 0.875
vt 0.3854166666666667 0.875
vt 0.3854166666666667 0.96875
vt 0.21875 0.96875
vt 0.3645833333333333 0.59375
vt 0.3645833333333333 0.5
vt 0.53125 0.5
vt 0.53125 0.59375
vt 0.21875 0.59375
vt 0.21875 0.5
vt 0.3854166666666667 0.5
vt 0.3854166666666667 0.59375
vn 0 0 -1
vn 0.9659258262890682 -0.258819045102521 0
vn 0 0 1
vn -0.9659258262890682 0.258819045102521 0
vn 0.2588190451025205 0.9659258262890685 0
vn -0.2588190451025205 -0.9659258262890685 0
usemtl m_39d4bf5a-1de7-a9be-0292-0e3035201ba6
f 17/61/16 18/62/16 19/63/16 20/64/16
f 21/65/17 17/66/17 20/67/17 22/68/17
f 23/69/18 21/70/18 22/71/18 24/72/18
f 18/73/19 23/74/19 24/75/19 19/76/19
f 24/77/20 22/78/20 20/79/20 19/80/20
f 18/81/21 17/82/21 21/83/21 23/84/21