# Made in Blockbench 4.8.3
mtllib red_cloth_22_diagonal.mtl

o plane
v 2 0 1
v -1 0 -2
v -1 0.6937499999999999 0.25
v -0.25 0.6937499999999999 1
v -1 0.3125 -0.8125
v 0.8125 0.3125 1
v -0.25541050179644637 0.6300216249139553 1
v -1.011032323466746 0.2506828368612962 -0.8125
v 0.8014676765332541 0.2506828368612962 1
v -1.0054105017964463 0.6300216249139553 0.25
v -1.0018845923979918 -0.06082214813283932 -1.9874999999999998
v 1.985615407602008 -0.06082214813283932 1
v -1.0031409490573926 0.9353554279724792 1
v -1 1 1
vt 0.48448854166666666 0.5625
vt 0.3958333333333333 0.25722187500000004
vt 0.572609375 0.25722187500000004
vt 0.11458333333333333 0.36220624999999995
vt 0.54179375 0.36220624999999995
vt 0.41723958333333333 0.78125
vt 0.24046354166666664 0.78125
vt 0.6791906249999999 0.8125
vt 0.2519802083333333 0.8125
vt 0.11458333333333333 0.3658062499999999
vt 0.81874375 0.3658062499999999
vt 0.515471875 0.5625
vt 0.4270833333333333 0.2563
vt 0.603859375 0.2563
vt 0.884190625 0.520775
vt 0.7442427083333333 0.96875
vt 0.3170322916666667 0.96875
vt 0.17708333333333334 0.520775
vt 0.2398 0.71875
vt 0.11458333333333333 0.2975
vt 0.54179375 0.2975
vt 0.4165760416666666 0.71875
vt 0.13530216236350975 0.9375
vt 0.125 0.9292822812517053
vt 0.12500000000000006 0.3678343950886589
vt 0.13531850659156341 0.37308485959287396
vt 0.0729166666666667 0.6248411411490846
vt 0.07291666666666667 0.5934457411264997
vt 0.2502928516665728 0.7806562896261415
vt 0.25034855333116085 0.8125
vt 0.39641413576608114 0.65625
vt 0.3958333333333333 0.625238509355994
vt 0.5984368830324795 0.6252385093559938
vt 0.6010639313065395 0.6552717685506655
vt 0.37501519335327527 1
vt 0.3645833333333333 0.9974705236213232
vt 0.3645833333333334 0.3852547600924172
vt 0.3749973279197933 0.38603491782721344
vt 0.18875104166666667 0.500415625
vt 0.8929114583333333 0.500415625
vt 0.8946072916666666 0.53125
vt 0.1875 0.53125
vt 0.1455891327941959 0.875
vt 0.13541666666666666 0.8642360420620628
vt 0.13541666666666666 0.4604003665909585
vt 0.14559128500777632 0.4699416516311362
vt 0.23958333333333334 0.6287011586283738
vt 0.23958333333333334 0.5967229139178581
vt 0.3646486520035362 0.7489124842436254
vt 0.3646614797349219 0.78125
vn -0.35361777478264256 -0.8659728279314224 0.35361777478264256
vn -0.32005304517692984 -0.8917017979941211 0.32005304517692984
vn -0.24655336417303475 -0.9372421657340849 0.24655336417303475
vn 0.35360862324243947 0.8659803018182187 -0.35360862324243947
vn 0.24663181183349503 0.9372008849672812 -0.24663181183349503
vn 0.3199819074737832 0.8917528568941501 -0.31998190747378313
vn 0 0 1
vn -0.9828210051076586 0.17540111334341402 -0.057422307138106185
vn -0.9994969841709814 0.027852940934108186 -0.015165497500382081
vn 0 0 1
vn -0.697421728136468 0.1649420087372692 0.697421728136468
vn 0 0 1
vn -0.9959237976436819 0.08455334831618437 -0.03140892509317548
usemtl m_4909c81f-4dee-82bd-3ee1-a0045c979fd8
f 13/1/1 10/2/1 7/3/1
f 8/4/2 9/5/2 7/6/2 10/7/2
f 9/8/3 8/9/3 11/10/3 12/11/3
f 14/12/4 4/13/4 3/14/4
f 2/15/5 5/16/5 6/17/5 1/18/5
f 4/19/6 6/20/6 5/21/6 3/22/6
f 4/23/7 7/24/7 9/25/7 6/26/7
f 5/27/8 8/28/8 10/29/8 3/30/8
f 2/31/9 11/32/9 8/33/9 5/34/9
f 6/35/10 9/36/10 12/37/10 1/38/10
f 11/39/11 12/40/11 1/41/11 2/42/11
f 14/43/12 13/44/12 7/45/12 4/46/12
f 3/47/13 10/48/13 13/49/13 14/50/13