# Made in Blockbench 4.8.3
mtllib red_cloth_45_small.mtl

o plane
v 0.5812703960876072 0.15507807865458134 0
v 0.5812703960876072 0.15507807865458134 1
v -0.04187151455721505 0.9529114510721253 1
v -0.04187151455721505 0.9529114510721253 0
v 1.2617489101787618 -0.5695911931943178 0
v 1.2617489101787618 -0.5695911931943178 1
v 1.944085513625094 -1.033927092625673 0
v 1.944085513625094 -1.033927092625673 1
v 0 1 1
v 0.625 0.19999999999999996 1
v 0.625 0.19999999999999996 0
v 0 1 0
v 2 -1 0
v 1.3125 -0.53125 0
v 1.3125 -0.53125 1
v 2 -1 1
vt 0.15625 0.11882812499999995
vt 0.40625 0.11882812499999995
vt 0.40625 0.625
vt 0.15625 0.625
vt 0.1875 0.159209375
vt 0.4375 0.159209375
vt 0.4375 0.65625
vt 0.1875 0.65625
vt 0.5 0.59375
vt 0.25 0.59375
vt 0.25 0.18107812499999998
vt 0.5 0.18107812499999998
vt 0.15625 0.65625
vt 0.15625 0.14864999999999984
vt 0.40625 0.14864999999999984
vt 0.40625 0.65625
vt 0.5 0.20895312500000007
vt 0.5 0.625
vt 0.25 0.625
vt 0.25 0.20895312500000007
vt 0.71875 0.65625
vt 0.71875 0.15440937500000007
vt 0.96875 0.15440937500000007
vt 0.96875 0.65625
vt 0.234375 0.655875628282161
vt 0.2411596969929516 0.6261241599626336
vt 0.44749497839691016 0.6261241599626337
vt 0.4423987744650938 0.65625
vt 0.20256292001868317 0.7085575921363674
vt 0.18750000000000003 0.71875
vt 0.1875 0.30607943719208286
vt 0.20237573415976368 0.2925100432061797
vt 0.15625 0.46875
vt 0.15625 0.43604687499999994
vt 0.40625 0.43604687499999994
vt 0.40625 0.46875
vt 0.1719079825623533 0.6875
vt 0.15625000000000008 0.6860929494682863
vt 0.15625 0.1890518221890326
vt 0.17206085008405791 0.18565778410830847
vt 0.171875 0.59375
vt 0.1735720190403621 0.5621282998318842
vt 0.42209258267998895 0.5621282998318844
vt 0.42279610794584577 0.5934442649565908
vt 0.1717453019017144 0.6875
vt 0.15625 0.6818308998419478
vt 0.15625000000000006 0.17565775251178284
vt 0.171779489190375 0.17990149199892536
vt 0.15837186974357126 0.65625
vt 0.15625 0.6251910216192501
vt 0.4093365736650826 0.62519102161925
vt 0.4121711237441087 0.6561816254226789
vt 0.15625 0.84375
vt 0.15625 0.8122437499999999
vt 0.40625 0.8122437499999999
vt 0.40625 0.84375
vn -0.788103636727669 -0.6155425718637357 0
vn -0.7289843033200023 -0.6845304124091572 0
vn -0.5625974889768834 -0.826730951033591 0
vn 0.7880243737245634 0.6156440419723151 0
vn 0.5633368246415098 0.8262273428075478 0
vn 0.7285655143588785 0.6849761246109115 0
vn 0 0 -1
vn 0 0 1
vn 0.5187436370103747 -0.8549298445259988 0
vn 0 0 1
vn 0 0 -1
vn 0 0 1
vn 0 0 -1
vn -0.7472908935842293 0.6644970431582704 0
usemtl m_e054811a-c9df-8d39-b4b9-50259c132e28
f 1/1/1 2/2/1 3/3/1 4/4/1
f 5/5/2 6/6/2 2/7/2 1/8/2
f 6/9/3 5/10/3 7/11/3 8/12/3
f 9/13/4 10/14/4 11/15/4 12/16/4
f 13/17/5 14/18/5 15/19/5 16/20/5
f 10/21/6 15/22/6 14/23/6 11/24/6
f 13/25/7 7/26/7 5/27/7 14/28/7
f 15/29/8 6/30/8 8/31/8 16/32/8
f 16/33/9 8/34/9 7/35/9 13/36/9
f 10/37/10 2/38/10 6/39/10 15/40/10
f 14/41/11 5/42/11 1/43/11 11/44/11
f 9/45/12 3/46/12 2/47/12 10/48/12
f 11/49/13 1/50/13 4/51/13 12/52/13
f 12/53/14 4/54/14 3/55/14 9/56/14
o cube
v 1.9533484217303014 -1.1811197578220594 -0.00625002384185791
v 1.7722373293011011 -1.1325911868653369 -0.00625002384185791
v 1.8207659002578238 -0.9514800944361366 -0.00625002384185791
v 2.0018769926870243 -1.000008665392859 -0.00625002384185791
v 1.9533484217303014 -1.1811197578220594 0.9937499761581421
v 2.0018769926870243 -1.000008665392859 0.9937499761581421
v 1.7722373293011011 -1.1325911868653369 0.9937499761581421
v 1.8207659002578238 -0.9514800944361366 0.9937499761581421
vt 0.15625 0.7812489735437975
vt 0.20312510885404028 0.7812489735437975
vt 0.2031235995867118 0.875
vt 0.15625 0.8749991912518782
vt 0.171875 0.78125
vt 0.421875 0.78125
vt 0.421875 0.875
vt 0.171875 0.875
vt 0.15625 0.90625
vt 0.15625 0.8124997822919194
vt 0.20312510885404028 0.8124997822919193
vt 0.20312551322810124 0.906246981465343
vt 0.15625 0.78125
vt 0.40625 0.78125
vt 0.40625 0.875
vt 0.15625 0.875
vt 0.15625 0.5
vt 0.15625 0.40625
vt 0.40625 0.40625
vt 0.40625 0.5
vt 0.15625 0.5
vt 0.15625 0.40625
vt 0.40625 0.40625
vt 0.40625 0.5
vn 0 0 -1
vn 0.9659258262890682 -0.258819045102521 0
vn 0 0 1
vn -0.9659258262890682 0.258819045102521 0
vn 0.2588190451025205 0.9659258262890685 0
vn -0.2588190451025205 -0.9659258262890685 0
usemtl m_e054811a-c9df-8d39-b4b9-50259c132e28
f 17/57/15 18/58/15 19/59/15 20/60/15
f 21/61/16 17/62/16 20/63/16 22/64/16
f 23/65/17 21/66/17 22/67/17 24/68/17
f 18/69/18 23/70/18 24/71/18 19/72/18
f 24/73/19 22/74/19 20/75/19 19/76/19
f 18/77/20 17/78/20 21/79/20 23/80/20