# Made in Blockbench 4.8.3
mtllib rope_2wide_diag.mtl

o cube
v -0.013993711928767319 0.03607157437732711 1.0581878857529265
v 0.9960619001424359 2.0572594234024826 0.048132273681722904
v 0.022097086912079615 -2.6020852139652106e-18 1.0220970869120796
v 1.0423552809233958 2.041603887904197 0.0018388929007626675
v -0.05818788575292655 0.03607157437732711 1.0139937119287674
v 0.9518677263182767 2.0572594234024826 0.0039380998575637705
v -0.022097086912079615 2.6020852139652106e-18 0.9779029130879204
v 0.9981611070992367 2.041603887904197 -0.042355280923396466
v 0.9537211474503691 2.0554069895310794 0.002084678725471467
v 0.9979153212745281 2.0554069895310794 0.04627885254963049
v 0.9974201376215845 2.057651055798164 -0.04161431144574412
v 1.0416143114457437 2.057651055798164 0.002579862378414788
v 0.6995447043257013 1.4981986059192067 0.25626112185013916
v 0.7356355031665481 1.4621270315418795 0.22017032300929218
v 0.7798296769907074 1.4621270315418795 0.2643644968334513
v 0.7437388781498605 1.4981986059192067 0.3004552956742983
v 0.450414647371607 0.9112374881467498 0.5937795264525519
v 0.48650544621245395 0.8751659137694227 0.5576887276117051
v 0.44231127238829476 0.8751659137694228 0.5134945537875458
v 0.40622047354744784 0.9112374881467499 0.5495853526283927
vt 0.875 0.7455593011360983
vt 0.532876121996773 0.75
vt 0.53125 0.6919406988639019
vt 0.873373878003227 0.6875
vt 0.3766261219967731 0.75
vt 0.71875 0.7544406988639017
vt 0.717123878003227 0.8125
vt 0.375 0.8080593011360983
vt 0.59375 0.6249999999999998
vt 0.9375 0.625
vt 0.9375 0.6875
vt 0.59375 0.6874999999999998
vt 0.4375 0.6875
vt 0.09375 0.6875
vt 0.09375 0.6249999999999999
vt 0.4375 0.625
vt 0.59375 0.875
vt 0.59375 0.9375
vt 0.5625 0.9375
vt 0.5625 0.875
vt 0.4375 0.88829375
vt 0.4375 0.9375
vt 0.40625 0.9375
vt 0.40625 0.88829375
vt 0.25 0.9342874999999999
vt 0.25721250000000007 0.875
vt 0.2509625 0.88511875
vt 0.25721250000000007 0.9375
vt 0.21875 0.9227250000000002
vt 0.25 0.9227250000000002
vt 0.25 0.9375
vt 0.21875 0.9375
vt 0.15625 0.875
vt 0.125 0.9375
vt 0.15625 0.9375
vt 0.125 0.875
vt 0.34375 0.875
vt 0.3125 0.875
vt 0.3125 0.8589187500000002
vt 0.34375 0.8589187500000002
vt 0.875 0.8125
vt 0.46983875829616034 0.8102402810248797
vt 0.46875 0.75
vt 0.8747688732041591 0.7522413594151913
vt 0.5640837554880084 0.6263603260407514
vt 0.8744992353747046 0.625
vt 0.875 0.6830420731922877
vt 0.5625 0.6875
vt 0.34479679483587183 0.7517360037869547
vt 0.75 0.75
vt 0.7489532051641282 0.8107639962130454
vt 0.34375 0.8125
vt 0.375 0.8125
vt 0.03125 0.8125
vt 0.03125 0.7499999999999999
vt 0.375 0.75
vt 0.6875 0.8125
vt 0.34375 0.8125
vt 0.34375 0.75
vt 0.6875 0.75
vt 0.71875 0.75
vt 0.375 0.7499999999999998
vt 0.375 0.6874999999999998
vt 0.71875 0.6875
vt 0.3125 0.6875
vt 0.671875 0.6875
vt 0.671875 0.75
vt 0.3125 0.75
vt 0.25 0.8124999999999996
vt 0.59375 0.8125
vt 0.59375 0.875
vt 0.25 0.8749999999999996
vn 0.7071067811865478 1.2841507647342915e-17 0.7071067811865475
vn -0.707106781186548 1.1546598336887498e-16 -0.7071067811865472
vn -0.5960402124073326 0.5380261428470214 0.5960402124073328
vn 0.5953881773782871 -0.5394681051520307 -0.5953881773782873
vn -0.4081032776045266 -0.8166415551616788 0.4081032776045267
vn -0.02565949758008451 0.9993413732893657 0.025659497580084567
vn 0.7071067811865482 -1.0613428769103423e-14 0.707106781186547
vn 0.4081032776045266 0.8166415551616788 -0.4081032776045267
vn 0.7071067811865499 -8.578864660598742e-14 0.7071067811865451
vn 0.7056039762020944 0.06516177971470848 -0.7056039762020946
vn -0.7071067811865478 9.143480626097711e-17 -0.7071067811865472
vn 0.5655618933099107 -0.6002328628719175 -0.5655618933099109
vn 0.7071067811865478 -2.217793693698477e-17 0.7071067811865472
vn -0.5655618933099107 0.6002328628719175 0.5655618933099109
vn 0.7071067811865478 -1.9531182272507075e-17 0.7071067811865472
vn 0.5774527814535511 -0.5771451900372337 -0.5774527814535513
vn -0.7071067811865478 8.754914515780772e-17 -0.7071067811865472
vn -0.5774527814535511 0.5771451900372337 0.5774527814535513
usemtl m_d13e1ed7-3e69-292e-0ccb-adfe9c058d42
f 2/1/1 16/2/1 15/3/1 4/4/1
f 8/5/2 14/6/2 13/7/2 6/8/2
f 6/9/3 13/10/3 16/11/3 2/12/3
f 4/13/4 15/14/4 14/15/4 8/16/4
f 3/17/5 1/18/5 5/19/5 7/20/5
f 11/21/6 9/22/6 10/23/6 12/24/6
f 9/25/7 8/26/7 11/27/7 6/28/7
f 10/29/8 9/30/8 6/31/8 2/32/8
f 12/33/9 2/34/9 10/35/9 4/36/9
f 11/37/10 12/38/10 4/39/10 8/40/10
f 5/41/11 20/42/11 19/43/11 7/44/11
f 7/45/12 19/46/12 18/47/12 3/48/12
f 3/49/13 18/50/13 17/51/13 1/52/13
f 1/53/14 17/54/14 20/55/14 5/56/14
f 16/57/15 17/58/15 18/59/15 15/60/15
f 15/61/16 18/62/16 19/63/16 14/64/16
f 14/65/17 19/66/17 20/67/17 13/68/17
f 13/69/18 20/70/18 17/71/18 16/72/18