# Made in Blockbench 4.8.3
mtllib rope_2tall.mtl

o cube
v 0.53125 0.027887363319363066 1.0559333976001266
v 0.53125 2.021912987763875 0.06174889526483329
v 0.53125 0 1
v 0.53125 1.994025624444512 0.005815497664706792
v 0.46875 0.027887363319363066 1.0559333976001266
v 0.46875 2.021912987763875 0.06174889526483329
v 0.46875 0 1
v 0.46875 1.994025624444512 0.005815497664706792
v 0.46875000000000006 2.0665862458088853 0.03807887995080095
v 0.53125 2.0665862458088853 0.03807887995080095
v 0.46875000000000006 2.0606614143333672 -0.02740788161198937
v 0.53125 2.0606614143333672 -0.02740788161198937
vt 1 0.6875
vt 1 0.75
vt 0 0.75
vt 0 0.6875
vt 1 0.625
vt 1 0.6875
vt 0 0.6875
vt 0 0.625
vt 0.0001512398888767752 0.8213725560414509
vt 1 0.8125
vt 0.9998487601111232 0.866127443958549
vt 0 0.875
vt 0.0001512398888767752 0.7630065773476566
vt 1 0.7526755210226869
vt 0.9998487601111232 0.8151184226523434
vt 0 0.8254494789773131
vt 0.5625 0.875
vt 0.5625 0.9375
vt 0.53125 0.9375
vt 0.53125 0.875
vt 0.40625 0.875
vt 0.40625 0.9375
vt 0.375 0.9375
vt 0.375 0.875
vt 0.21875 0.9375
vt 0.21875 0.875
vt 0.25 0.875
vt 0.25 0.9375
vt 0.21875 0.9375
vt 0.1875 0.9375
vt 0.1875 0.875
vt 0.21875 0.875
vt 0.15625 0.875
vt 0.15625 0.9375
vt 0.125 0.9375
vt 0.125 0.875
vt 0.28125 0.875
vt 0.3125 0.875
vt 0.3125 0.9375
vt 0.28125 0.9375
vn 1 1.0464988015298235e-16 1.9593622145055672e-16
vn -1 5.574063022601871e-18 -2.779125305200013e-18
vn 0 0.44619781310980905 0.8949343616020251
vn 0 -0.44619781310980905 -0.8949343616020251
vn 0 -0.8949343616020251 0.44619781310980905
vn 0 0.9959322079452224 -0.09010570002699302
vn -1 6.491021040887993e-16 1.531907669776171e-16
vn 0 0.46818845043807406 0.8836286408194313
vn 1 9.223585522824997e-16 1.284682373165046e-16
vn 0 -0.44619781310980905 -0.8949343616020251
usemtl m_d13e1ed7-3e69-292e-0ccb-adfe9c058d42
f 4/1/1 2/2/1 1/3/1 3/4/1
f 7/5/2 5/6/2 6/7/2 8/8/2
f 1/9/3 2/10/3 6/11/3 5/12/3
f 4/13/4 3/14/4 7/15/4 8/16/4
f 3/17/5 1/18/5 5/19/5 7/20/5
f 11/21/6 9/22/6 10/23/6 12/24/6
f 9/25/7 11/26/7 8/27/7 6/28/7
f 10/29/8 9/30/8 6/31/8 2/32/8
f 12/33/9 10/34/9 2/35/9 4/36/9
f 11/37/10 12/38/10 4/39/10 8/40/10