# Made in Blockbench 4.12.5
mtllib rope_3tall.mtl

o cube
v 0.050000000000010876 2.9156957979366176 -0.014752039842642617
v 0.05000000000001102 2.9452568414533165 0.07421541041981983
v 0.050000000000001064 0.8307971068821185 0.7767828780000514
v 0.050000000000000884 0.8012360633654192 0.6878154277375883
v -0.043749999999999116 0.8012360633654196 0.6878154277375883
v -0.043749999999998936 0.8307971068821189 0.7767828780000514
v -0.04374999999998894 2.9452568414533173 0.07421541041981983
v -0.043749999999989124 2.9156957979366185 -0.014752039842642617
v -0.043749999999988735 2.9863562211899946 -0.03823024271953068
v -0.043749999999988645 3.0066909643462223 0.05493703960252505
v 0.0500000000000112 3.0066909643462214 0.05493703960252505
v 0.050000000000011154 2.9863562211899937 -0.03823024271953068
v 0.04999999999999913 -0.0280016047766192 0.96708039677695
v 0.04999999999999931 0.0015594387400801098 1.056047847039413
v -0.04375000000000069 0.0015594387400805643 1.056047847039413
v -0.04375000000000087 -0.02800160477661874 0.96708039677695
vt 1 0.6875
vt 1 0.75
vt 0 0.75
vt 0 0.6875
vt 1 0.625
vt 1 0.6875
vt 0 0.6875
vt 0 0.625
vt 0.0001512398888767752 0.8213725560414509
vt 1 0.8125
vt 0.9998487601111232 0.866127443958549
vt 0 0.875
vt 0.0001512398888767752 0.7630065773476566
vt 1 0.7526755210226869
vt 0.9998487601111232 0.8151184226523434
vt 0 0.8254494789773131
vt 0.5625 0.875
vt 0.5625 0.9375
vt 0.53125 0.9375
vt 0.53125 0.875
vt 0.40625 0.875
vt 0.40625 0.9375
vt 0.375 0.9375
vt 0.375 0.875
vt 0.21875 0.9375
vt 0.21875 0.875
vt 0.25 0.875
vt 0.25 0.9375
vt 0.21875 0.9375
vt 0.1875 0.9375
vt 0.1875 0.875
vt 0.21875 0.875
vt 0.15625 0.875
vt 0.15625 0.9375
vt 0.125 0.9375
vt 0.125 0.875
vt 0.28125 0.875
vt 0.3125 0.875
vt 0.3125 0.9375
vt 0.28125 0.9375
vt 0.1875003098672736 0.2500018609721155
vt 0.21875093479161523 0.2500018609721155
vt 0.21875062492434208 0.9374999999999964
vt 0.18750000000000044 0.9374999999999964
vt 0.1875003098672736 0.2500018609721155
vt 0.21875093479161523 0.2500018609721155
vt 0.21875062492434208 0.9374999999999964
vt 0.18750000000000044 0.9374999999999964
vt 0.1875003098672736 0.2500018609721155
vt 0.21875093479161523 0.2500018609721155
vt 0.21875062492434208 0.9374999999999964
vt 0.18750000000000044 0.9374999999999964
vt 0.1875003098672736 0.2500018609721155
vt 0.21875093479161523 0.2500018609721155
vt 0.21875062492434208 0.9374999999999964
vt 0.18750000000000044 0.9374999999999964
vn 1 -4.740860708686108e-15 -8.629111729218718e-17
vn -1 4.851945696760001e-15 3.6135561983700006e-16
vn 1.8728263041866276e-15 0.3153177975114644 0.9489861361329359
vn -1.872826304186626e-15 -0.3153177975114641 -0.948986136132936
vn -4.484258881163517e-15 -0.9489861361329378 0.3153177975114587
vn 4.6571004447290545e-15 0.9769997365957976 -0.213240509030865
vn -1 5.4170059845784595e-15 -2.826454641957787e-16
vn 1.7976017701571434e-15 0.2994096457634835 0.9541246585346097
vn 1 -2.764637608419567e-15 1.5060483840051787e-16
vn -1.8728263041866812e-15 -0.3153177975114757 -0.9489861361329321
vn 1 -2.4980219865774733e-15 -1.1434893218416631e-15
vn 1.890979565680295e-15 0.31916016612806736 0.9477007905225702
vn -1 2.498021986577473e-15 1.1434893218416633e-15
vn -1.890979565680295e-15 -0.31916016612806736 -0.9477007905225702
usemtl m_c267e122-b67f-30fb-c873-ecb7fe5e0e2c
f 1/1/1 2/2/1 3/3/1 4/4/1
f 5/5/2 6/6/2 7/7/2 8/8/2
f 3/9/3 2/10/3 7/11/3 6/12/3
f 1/13/4 4/14/4 5/15/4 8/16/4
f 13/17/5 14/18/5 15/19/5 16/20/5
f 9/21/6 10/22/6 11/23/6 12/24/6
f 10/25/7 9/26/7 8/27/7 7/28/7
f 11/29/8 10/30/8 7/31/8 2/32/8
f 12/33/9 11/34/9 2/35/9 1/36/9
f 9/37/10 12/38/10 1/39/10 8/40/10
f 14/41/11 13/42/11 4/43/11 3/44/11
f 15/45/12 14/46/12 3/47/12 6/48/12
f 16/49/13 15/50/13 6/51/13 5/52/13
f 13/53/14 16/54/14 5/55/14 4/56/14