# Made in Blockbench 4.8.3
mtllib rope_2wide.mtl

o cube
v 0.53125 0.05593339760012657 1.027887363319363
v 0.53125 1.0598784770971967 -0.9857149502851936
v 0.53125 0 1
v 0.53125 1.0039450794970701 -1.0136023136045567
v 0.46875 0.05593339760012657 1.027887363319363
v 0.46875 1.0598784770971967 -0.9857149502851936
v 0.46875 0 1
v 0.46875 1.0039450794970701 -1.0136023136045567
v 0.46875000000000017 1.0634417553918936 -1.000055114383903
v 0.5312499999999998 1.0634417553918936 -1.000055114383903
v 0.46875000000000017 1.0185768675820623 -1.0202746779820977
v 0.5312499999999998 1.0185768675820623 -1.0202746779820977
v 0.46875 0.7251507817841398 -0.38439125834348253
v 0.46875 0.6692173841840132 -0.4122786216628458
v 0.53125 0.6692173841840132 -0.4122786216628458
v 0.53125 0.7251507817841398 -0.38439125834348253
v 0.53125 0.40444610361146466 0.2588428140579728
v 0.53125 0.34851270601133805 0.2309554507386098
v 0.46875 0.34851270601133805 0.2309554507386098
v 0.46875 0.40444610361146466 0.2588428140579728
vt 0.875 0.7455593011360983
vt 0.532876121996773 0.75
vt 0.53125 0.6919406988639019
vt 0.873373878003227 0.6875
vt 0.3766261219967731 0.75
vt 0.71875 0.7544406988639017
vt 0.717123878003227 0.8125
vt 0.375 0.8080593011360983
vt 0.59375 0.6249999999999998
vt 0.9375 0.625
vt 0.9375 0.6875
vt 0.59375 0.6874999999999998
vt 0.4375 0.6875
vt 0.09375 0.6875
vt 0.09375 0.6249999999999999
vt 0.4375 0.625
vt 0.59375 0.875
vt 0.59375 0.9375
vt 0.5625 0.9375
vt 0.5625 0.875
vt 0.4375 0.88829375
vt 0.4375 0.9375
vt 0.40625 0.9375
vt 0.40625 0.88829375
vt 0.25 0.9342874999999999
vt 0.2509625 0.88511875
vt 0.25721250000000007 0.875
vt 0.25721250000000007 0.9375
vt 0.21875 0.9227250000000002
vt 0.25 0.9227250000000002
vt 0.25 0.9375
vt 0.21875 0.9375
vt 0.15625 0.875
vt 0.15625 0.9375
vt 0.125 0.9375
vt 0.125 0.875
vt 0.34375 0.875
vt 0.3125 0.875
vt 0.3125 0.8589187500000002
vt 0.34375 0.8589187500000002
vt 0.875 0.8125
vt 0.46983875829616034 0.8102402810248797
vt 0.46875 0.75
vt 0.8747688732041591 0.7522413594151913
vt 0.5640837554880084 0.6263603260407514
vt 0.8744992353747046 0.625
vt 0.875 0.6830420731922877
vt 0.5625 0.6875
vt 0.34479679483587183 0.7517360037869547
vt 0.75 0.75
vt 0.7489532051641282 0.8107639962130454
vt 0.34375 0.8125
vt 0.375 0.8125
vt 0.03125 0.8125
vt 0.03125 0.7499999999999999
vt 0.375 0.75
vt 0.6875 0.8125
vt 0.34375 0.8125
vt 0.34375 0.75
vt 0.6875 0.75
vt 0.71875 0.75
vt 0.375 0.7499999999999998
vt 0.375 0.6874999999999998
vt 0.71875 0.6875
vt 0.3125 0.6875
vt 0.671875 0.6875
vt 0.671875 0.75
vt 0.3125 0.75
vt 0.25 0.8124999999999996
vt 0.59375 0.8125
vt 0.59375 0.875
vt 0.25 0.8749999999999996
vn 1 1.0160939649447792e-16 4.502165068437758e-17
vn -1 9.710595026127881e-17 5.405416644600289e-17
vn 0 0.8737504737932781 0.4863744540434072
vn 0 -0.8737504737932781 -0.48637445404340723
vn 0 -0.446197813109809 0.8949343616020251
vn 0 0.4108777287952358 -0.9116904584232901
vn -1 5.930717153565741e-15 -1.2473225284707857e-14
vn 0 0.970488055527058 0.24114919464785753
vn 1 5.0828960215520504e-15 -1.0592007632018481e-14
vn 0 -0.41491331872344256 -0.9098609442908839
vn -1 5.2430942720338637e-17 1.924908353937965e-17
vn 0 -0.9108357047755667 -0.41276908666468326
vn 1 5.059620536607233e-17 2.2928997368189964e-17
vn 0 0.9108357047755667 0.41276908666468326
vn 1 5.183265880046919e-17 2.0449055440078667e-17
vn 0 -0.8949343616020251 -0.446197813109809
vn -1 4.967883668893918e-17 2.4768954282595117e-17
vn 0 0.8949343616020251 0.446197813109809
usemtl m_d13e1ed7-3e69-292e-0ccb-adfe9c058d42
f 2/1/1 16/2/1 15/3/1 4/4/1
f 8/5/2 14/6/2 13/7/2 6/8/2
f 6/9/3 13/10/3 16/11/3 2/12/3
f 4/13/4 15/14/4 14/15/4 8/16/4
f 3/17/5 1/18/5 5/19/5 7/20/5
f 11/21/6 9/22/6 10/23/6 12/24/6
f 9/25/7 11/26/7 8/27/7 6/28/7
f 10/29/8 9/30/8 6/31/8 2/32/8
f 12/33/9 10/34/9 2/35/9 4/36/9
f 11/37/10 12/38/10 4/39/10 8/40/10
f 5/41/11 20/42/11 19/43/11 7/44/11
f 7/45/12 19/46/12 18/47/12 3/48/12
f 3/49/13 18/50/13 17/51/13 1/52/13
f 1/53/14 17/54/14 20/55/14 5/56/14
f 16/57/15 17/58/15 18/59/15 15/60/15
f 15/61/16 18/62/16 19/63/16 14/64/16
f 14/65/17 19/66/17 20/67/17 13/68/17
f 13/69/18 20/70/18 17/71/18 16/72/18