# Made in Blockbench 4.12.5
mtllib rope_2wide_diag_45.mtl

o cube
v 1.0436966054661767 1.0133373809447854 0.021032341353392825
v 0.6091057261923367 0.7642455645833399 0.45562309261735323
v 0.6238580492840493 0.7053304713900794 0.44087077898771687
v 1.0747338375102393 0.9642802337099465 -0.010004876471630508
v 1.0084425879800087 0.9642802286751797 -0.07629614841387555
v 0.5575667997538185 0.7053304663553124 0.3745795070454718
v 0.5428144766621061 0.7642455595485729 0.3893318206751085
v 0.9774053559359464 1.0133373759100186 -0.045258930588852
v -0.591540475433083 0.12351457305261077 1.6562689390676173
v -0.6062927985247955 0.18242966624587115 1.6710212526972539
v -0.672584048055026 0.18242966121110438 1.604729980755009
v -0.6578317249633138 0.12351456801784383 1.5899776671253723
v 1.0143863838113854 0.977989796964919 -0.08223994327698025
v 1.0806776333416157 0.977989801999686 -0.015948671334735653
v 0.06373289280951216 0.52432187947428 0.8684132607799184
v 0.07848521590122451 0.4654067862810195 0.8536609471502816
v 0.14477646543145514 0.46540679131578633 0.9199522190925264
v 0.13002414233974272 0.5243218845090467 0.9347045327221633
v -0.7212296080294335 0.07805490134893017 1.7859580693523835
v -0.7359819311211461 0.13696999454219055 1.8007103829820204
v -0.8022731806513765 0.13696998950742378 1.7344191110397755
v -0.7875208575596642 0.07805489631416335 1.7196667974101387
v -0.8509187406257842 0.03259522964524869 1.9156471996371502
v -0.8656710637174967 0.09151032283850918 1.9303995132667868
v -0.9319623132477272 0.09151031780374214 1.864108241324542
v -0.917209990156015 0.032595224610481754 1.8493559276949052
v -0.9655606036836334 0.0019244328869921778 2.030289054257677
v -0.9631202857476512 0.05515942808257068 2.0278487292124088
v -1.0294115392890473 0.05515942612778707 1.9615574612813282
v -1.0318518572250295 0.001924430932208454 1.9639977863265963
vt 0.875 0.7455593011360983
vt 0.532876121996773 0.75
vt 0.53125 0.6919406988639019
vt 0.873373878003227 0.6875
vt 0.3766261219967731 0.75
vt 0.71875 0.7544406988639017
vt 0.717123878003227 0.8125
vt 0.375 0.8080593011360983
vt 0.59375 0.6249999999999998
vt 0.9375 0.625
vt 0.9375 0.6875
vt 0.59375 0.6874999999999998
vt 0.4375 0.6875
vt 0.09375 0.6875
vt 0.09375 0.6249999999999999
vt 0.4375 0.625
vt 0.4375 0.88829375
vt 0.4375 0.9375
vt 0.40625 0.9375
vt 0.40625 0.88829375
vt 0.2509625 0.88511875
vt 0.25721250000000007 0.875
vt 0.25360625000000003 0.93589375
vt 0.15625 0.875
vt 0.140625 0.9375
vt 0.125 0.875
vt 0.34375 0.875
vt 0.3125 0.875
vt 0.3125 0.8589187500000002
vt 0.34375 0.8589187500000002
vt 0.875 0.8125
vt 0.46983875829616034 0.8102402810248797
vt 0.46875 0.75
vt 0.8747688732041591 0.7522413594151913
vt 0.5640837554880084 0.6263603260407514
vt 0.8744992353747046 0.625
vt 0.875 0.6830420731922877
vt 0.5625 0.6875
vt 0.34479679483587183 0.7517360037869547
vt 0.75 0.75
vt 0.7489532051641282 0.8107639962130454
vt 0.34375 0.8125
vt 0.375 0.8125
vt 0.03125 0.8125
vt 0.03125 0.7499999999999999
vt 0.375 0.75
vt 0.6875 0.8125
vt 0.34375 0.8125
vt 0.34375 0.75
vt 0.6875 0.75
vt 0.71875 0.75
vt 0.375 0.7499999999999998
vt 0.375 0.6874999999999998
vt 0.71875 0.6875
vt 0.3125 0.6875
vt 0.671875 0.6875
vt 0.671875 0.75
vt 0.3125 0.75
vt 0.25 0.8124999999999996
vt 0.59375 0.8125
vt 0.59375 0.875
vt 0.25 0.8749999999999996
vt 0.2500000000000009 0.9999948962382585
vt 0.2500000000000009 0.9374950399884239
vt 0.3437549600115739 0.9374986474967211
vt 0.34374189345215717 0.9999999999999971
vt 0.28125 0.937499999999994
vt 0.28125 0.874999999999994
vt 0.34375 0.874999999999994
vt 0.34375 0.937499999999994
vt 0.24999744822343797 0.9374930922327328
vt 0.25001051446992806 0.8749932365899604
vt 0.3437524081307043 0.874996843386874
vt 0.3437524081307043 0.9374981964972267
vt 0.28125 0.937499999999994
vt 0.28125 0.874999999999994
vt 0.34375 0.874999999999994
vt 0.34375 0.937499999999994
vt 0.24999999999999778 1
vt 0.24999999999999778 0.9374986468896472
vt 0.3437418936607735 0.9374950400927333
vt 0.34375495990726446 0.9999948957355059
vt 0.25 0.9375
vt 0.25 0.875
vt 0.34375 0.875
vt 0.34375 0.9375
vt 0.343743696850615 0.8749924882118666
vt 0.343756763410033 0.9374938407151427
vt 0.2500018033984594 0.9374974482234403
vt 0.25000180339845934 0.8749975919736055
vt 0.25 0.9375
vt 0.25 0.875
vt 0.34375 0.875
vt 0.34375 0.9375
vt 0.24999999999999734 0.9374963929085139
vt 0.24999999999999734 0.8750001439585771
vt 0.3437436969770151 0.875000143958577
vt 0.34375135300626347 0.9375
vt 0.25 0.875
vt 0.25 0.8125
vt 0.3125 0.8125
vt 0.3125 0.875
vt 0.2500047296431521 0.9374996256114916
vt 0.24999707405576577 0.8750033768699543
vt 0.34374842655904186 0.8749946655999183
vt 0.34374842655904186 0.937494521849753
vt 0.25 0.9375000000000038
vt 0.25 0.8750000000000038
vt 0.3125 0.8750000000000038
vt 0.3125 0.9375000000000038
vt 0 1
vt 0 0.9375
vt 0.03125 0.9375
vt 0.03125 1
vn 0.7071066616557931 5.370418343364493e-8 0.7071069007172799
vn -0.7071066616557946 -5.37041792703086e-8 -0.7071069007172784
vn -0.26559772069917875 0.9267770965053403 0.2655975605169075
vn 0.2660601053826687 -0.9265118056215943 -0.26605994506422115
vn 0.3959588026281959 0.8285127092706963 -0.3959587316857352
vn -0.7071066616557862 -5.37041641157643e-8 -0.7071069007172867
vn 0.7071066616558032 5.3704195202009e-8 0.7071069007172699
vn 0.6028183860811575 -0.5227047736343828 -0.6028181425789515
vn -0.7071066625509641 -5.415247955609105e-8 -0.707106899822109
vn 0.2205788896122338 -0.9500999798165788 -0.22057874287875234
vn 0.7071066625509642 5.4152478889957236e-8 0.7071068998221087
vn -0.2205788896122323 0.9500999798165787 0.220578742878754
vn 0.7071066616557942 5.3704179325819736e-8 0.7071069007172787
vn 0.23603716946739906 -0.9426414910921671 -0.2360370180741878
vn -0.7071066616557943 -5.370417954786434e-8 -0.7071069007172786
vn -0.2360371694673976 0.9426414910921671 0.23603701807418925
vn 0.7071067570954476 1.0150028745270492e-7 0.7071068052776394
vn -0.17011640472722292 0.9706291064741541 0.17011627349512756
vn -0.7071067570954487 -1.0150028528777002e-7 -0.7071068052776383
vn 0.1701164047272228 -0.9706291064741542 -0.17011627349512717
vn 0.7071067570954478 1.0150028822986104e-7 0.7071068052776391
vn -0.17011640472722742 0.970629106474153 0.17011627349512973
vn -0.7071067570954489 -1.0150028412203585e-7 -0.7071068052776381
vn 0.17011640472722683 -0.9706291064741528 -0.17011627349513128
vn 0.7071067420542664 9.801850736623765e-8 0.7071068203188198
vn -0.18034392729043175 0.9669292425937165 0.1803438596309995
vn -0.707106740808451 -9.813272522363195e-8 -0.7071068215646349
vn 0.13143665820012906 -0.9825725545112538 -0.1314366006955896
vn -0.7056256428030141 0.06469252884964495 0.7056254877269322
usemtl m_2f4c3a33-9c6b-609d-7857-3c07770d2196
f 1/1/1 2/2/1 3/3/1 4/4/1
f 5/5/2 6/6/2 7/7/2 8/8/2
f 8/9/3 7/10/3 2/11/3 1/12/3
f 4/13/4 3/14/4 6/15/4 5/16/4
f 13/17/5 8/18/5 1/19/5 14/20/5
f 13/21/6 5/22/6 8/23/6
f 14/24/7 1/25/7 4/26/7
f 13/27/8 14/28/8 4/29/8 5/30/8
f 11/31/9 15/32/9 16/33/9 12/34/9
f 12/35/10 16/36/10 17/37/10 9/38/10
f 9/39/11 17/40/11 18/41/11 10/42/11
f 10/43/12 18/44/12 15/45/12 11/46/12
f 2/47/13 18/48/13 17/49/13 3/50/13
f 3/51/14 17/52/14 16/53/14 6/54/14
f 6/55/15 16/56/15 15/57/15 7/58/15
f 7/59/16 15/60/16 18/61/16 2/62/16
f 20/63/17 19/64/17 9/65/17 10/66/17
f 21/67/18 20/68/18 10/69/18 11/70/18
f 22/71/19 21/72/19 11/73/19 12/74/19
f 19/75/20 22/76/20 12/77/20 9/78/20
f 24/79/21 23/80/21 19/81/21 20/82/21
f 25/83/22 24/84/22 20/85/22 21/86/22
f 26/87/23 25/88/23 21/89/23 22/90/23
f 23/91/24 26/92/24 22/93/24 19/94/24
f 28/95/25 27/96/25 23/97/25 24/98/25
f 29/99/26 28/100/26 24/101/26 25/102/26
f 30/103/27 29/104/27 25/105/27 26/106/27
f 27/107/28 30/108/28 26/109/28 23/110/28
f 29/111/29 30/112/29 27/113/29 28/114/29