# Made in Blockbench 4.12.5
mtllib rope_3tall_right.mtl

o cube
v 1.050000000000011 2.9156957979366176 -0.014752039842642617
v 1.050000000000011 2.9452568414533165 0.07421541041981983
v 1.0500000000000012 0.8307971068821185 0.7767828780000514
v 1.050000000000001 0.8012360633654192 0.6878154277375883
v 0.9562500000000009 0.8012360633654196 0.6878154277375883
v 0.956250000000001 0.8307971068821189 0.7767828780000514
v 0.956250000000011 2.9452568414533173 0.07421541041981983
v 0.9562500000000109 2.9156957979366185 -0.014752039842642617
v 1.0499999999999992 -0.0280016047766192 0.96708039677695
v 1.0499999999999994 0.0015594387400801098 1.056047847039413
v 0.9562499999999993 0.0015594387400805643 1.056047847039413
v 0.9562499999999992 -0.02800160477661874 0.96708039677695
v 0.9562500000000113 2.9863562211899946 -0.03823024271953068
v 0.9562500000000114 3.0066909643462223 0.05493703960252505
v 1.0500000000000111 3.0066909643462214 0.05493703960252505
v 1.0500000000000111 2.9863562211899937 -0.03823024271953068
vt 1 0.75
vt 1 0.8125
vt 0 0.8125
vt 0 0.75
vt 1 0.875
vt 1 0.9375
vt 0 0.9375
vt 0 0.875
vt 0 0.9375
vt 1 0.9375
vt 1 1
vt 0 1
vt 0 0.8125
vt 1 0.8125
vt 1 0.875
vt 0 0.875
vt 0.5625 0.875
vt 0.5625 0.9375
vt 0.53125 0.9375
vt 0.53125 0.875
vt 0.40625 0.875
vt 0.40625 0.9375
vt 0.375 0.9375
vt 0.375 0.875
vt 0.21875 0.9375
vt 0.21875 0.875
vt 0.25 0.875
vt 0.25 0.9375
vt 0.21875 0.9375
vt 0.1875 0.9375
vt 0.1875 0.875
vt 0.21875 0.875
vt 0.15625 0.875
vt 0.15625 0.9375
vt 0.125 0.9375
vt 0.125 0.875
vt 0.28125 0.875
vt 0.3125 0.875
vt 0.3125 0.9375
vt 0.28125 0.9375
vt 0.1875003098672736 0.2500018609721155
vt 0.21875093479161523 0.2500018609721155
vt 0.21875062492434208 0.9374999999999964
vt 0.18750000000000044 0.9374999999999964
vt 0.1875003098672736 0.2500018609721155
vt 0.21875093479161523 0.2500018609721155
vt 0.21875062492434208 0.9374999999999964
vt 0.18750000000000044 0.9374999999999964
vt 0.1875003098672736 0.2500018609721155
vt 0.21875093479161523 0.2500018609721155
vt 0.21875062492434208 0.9374999999999964
vt 0.18750000000000044 0.9374999999999964
vt 0.1875003098672736 0.2500018609721155
vt 0.21875093479161523 0.2500018609721155
vt 0.21875062492434208 0.9374999999999964
vt 0.18750000000000044 0.9374999999999964
vn 1 -4.161148532414786e-15 1.382616816411801e-15
vn -1 4.629131374099071e-15 -2.9021458359854536e-16
vn 2.125981070062949e-15 0.3153177975114645 0.948986136132936
vn -3.188971605094418e-15 -0.31531779751146394 -0.948986136132936
vn -4.539578589578409e-15 -0.9489861361329378 0.31531779751145905
vn 9.241128034673738e-15 0.9769997365957971 -0.21324050903086733
vn -1 4.764077191549528e-15 1.518345930389382e-16
vn 2.8365779841833116e-15 0.2994096457634832 0.9541246585346098
vn 1 -3.382669281297488e-15 7.38303289559001e-16
vn -2.987290273035368e-15 -0.3153177975114744 -0.9489861361329327
vn 1 -2.6825040891710265e-15 -1.6044855100399605e-15
vn 1.547280147073089e-15 0.3191601661280673 0.9477007905225704
vn -1 2.3045394242102712e-15 4.821731108504748e-16
vn -1.5590914459057097e-15 -0.31916016612806736 -0.9477007905225702
usemtl m_01964c8a-7f8e-6bec-4d3f-c6c5faa35191
f 1/1/1 2/2/1 3/3/1 4/4/1
f 5/5/2 6/6/2 7/7/2 8/8/2
f 3/9/3 2/10/3 7/11/3 6/12/3
f 1/13/4 4/14/4 5/15/4 8/16/4
f 9/17/5 10/18/5 11/19/5 12/20/5
f 13/21/6 14/22/6 15/23/6 16/24/6
f 14/25/7 13/26/7 8/27/7 7/28/7
f 15/29/8 14/30/8 7/31/8 2/32/8
f 16/33/9 15/34/9 2/35/9 1/36/9
f 13/37/10 16/38/10 1/39/10 8/40/10
f 10/41/11 9/42/11 4/43/11 3/44/11
f 11/45/12 10/46/12 3/47/12 6/48/12
f 12/49/13 11/50/13 6/51/13 5/52/13
f 9/53/14 12/54/14 5/55/14 4/56/14