# Made in Blockbench 4.8.3
mtllib rope_2tall.mtl

o cube
v 0.046875 0.034859204149203835 1.0699167470001583
v 0.04687499999999998 2.028884828593716 0.07573224466486494
v 0.046875 -0.006971840829840766 0.9860166505999683
v 0.046875 1.9870537836146713 -0.00816785173532475
v -0.046875 0.034859204149203835 1.0699167470001583
v -0.04687499999999998 2.028884828593716 0.07573224466486494
v -0.046875 -0.006971840829840766 0.9860166505999683
v -0.046875 1.9870537836146713 -0.00816785173532475
v -0.046874999999999944 2.0536895735035263 -0.041391231012021024
v 0.046874999999999944 2.0536895735035263 -0.041391231012021024
v -0.046874999999999924 2.0732792130055326 0.051502895374831326
v 0.046874999999999924 2.0732792130055326 0.051502895374831326
vt 1 0.6875
vt 1 0.75
vt 0 0.75
vt 0 0.6875
vt 1 0.625
vt 1 0.6875
vt 0 0.6875
vt 0 0.625
vt 0.0001512398888767752 0.8213725560414509
vt 1 0.8125
vt 0.9998487601111232 0.866127443958549
vt 0 0.875
vt 0.0001512398888767752 0.7630065773476566
vt 1 0.7526755210226869
vt 0.9998487601111232 0.8151184226523434
vt 0 0.8254494789773131
vt 0.5625 0.875
vt 0.5625 0.9375
vt 0.53125 0.9375
vt 0.53125 0.875
vt 0.40625 0.875
vt 0.40625 0.9375
vt 0.375 0.9375
vt 0.375 0.875
vt 0.21875 0.9375
vt 0.21875 0.875
vt 0.25 0.875
vt 0.25 0.9375
vt 0.21875 0.9375
vt 0.1875 0.9375
vt 0.1875 0.875
vt 0.21875 0.875
vt 0.15625 0.875
vt 0.15625 0.9375
vt 0.125 0.9375
vt 0.125 0.875
vt 0.28125 0.875
vt 0.3125 0.875
vt 0.3125 0.9375
vt 0.28125 0.9375
vn 1 1.0743691166428329e-16 1.9454665879795671e-16
vn -1 8.361094533902807e-18 -4.16868795780002e-18
vn 0 0.44619781310980905 0.8949343616020251
vn 0 -0.44619781310980905 -0.8949343616020251
vn 0 -0.8949343616020251 0.44619781310980905
vn 0 0.9784796952746861 -0.20634312669715396
vn -1 8.548954069084331e-16 4.380889337951534e-17
vn 0 0.47906896774411284 0.8777772634014795
vn 1 1.2310285186206508e-15 -3.5510567923400044e-17
vn 0 -0.44619781310980905 -0.8949343616020251
usemtl m_d13e1ed7-3e69-292e-0ccb-adfe9c058d42
f 4/1/1 2/2/1 1/3/1 3/4/1
f 7/5/2 5/6/2 6/7/2 8/8/2
f 1/9/3 2/10/3 6/11/3 5/12/3
f 4/13/4 3/14/4 7/15/4 8/16/4
f 3/17/5 1/18/5 5/19/5 7/20/5
f 9/21/6 11/22/6 12/23/6 10/24/6
f 11/25/7 9/26/7 8/27/7 6/28/7
f 12/29/8 11/30/8 6/31/8 2/32/8
f 10/33/9 12/34/9 2/35/9 4/36/9
f 9/37/10 10/38/10 4/39/10 8/40/10