# Made in Blockbench 4.12.5
mtllib rope_3wide_right.mtl

o cube
v 1.0500000096731799 0.9665544477649177 -2.043010979623199
v 1.0500000109994705 1.0555527843555867 -2.013543054957659
v 1.050000007783637 0.7318967451124051 -1.036044658070142
v 1.050000006457346 0.6428984085217359 -1.0655125827356824
v 0.9562500064573458 0.6428984098728356 -1.0655125825967486
v 0.9562500077836369 0.731896746463505 -1.0360446579312077
v 0.9562500109994705 1.0555527857066866 -2.013543054818725
v 0.9562500096731801 0.9665544491160178 -2.043010979484266
v 1.0499999998513954 -0.02363781143281711 0.9588232664925823
v 1.050000001177686 0.06536052515785228 0.9882911911581223
v 0.9562500011776862 0.06536052650895213 0.9882911912970566
v 0.9562499998513956 -0.023637810081716705 0.9588232666315154
v 1.050000005101095 0.46023071567609913 -0.2042865191568426
v 1.0500000037748043 0.3712323790854299 -0.23375444382238308
v 0.9562500051010948 0.4602307170271991 -0.20428651901790862
v 0.9562500037748041 0.37123238043652984 -0.2337544436834491
v 1.0500000045155113 0.4012948663450173 -0.026289845975504322
v 1.0500000031892207 0.31229652975434846 -0.05575777064104548
v 0.9562500045155111 0.4012948676961174 -0.026289845836570347
v 0.9562500031892207 0.3122965311054483 -0.05575777050211128
vt 0.9898437478292723 0.28122854434918954
vt 0.9898437478292723 0.3749758676443108
vt 0.2500000000000002 0.37499999999999667
vt 0.25 0.2812526767048753
vt 0.7228030020650318 0.5264178125927231
vt 0.7180062672199872 0.6193143516696137
vt 0.09040697503990713 0.6193143516696138
vt 0.09114001285994128 0.5255784927509609
vt 0.8755486717613634 0.7445057662077478
vt 0.2473288897701853 0.7445394387658698
vt 0.24718224827517438 0.6507898975131907
vt 0.8745841219799186 0.650789897513192
vt 0.2784815196804412 0.5218717383485686
vt 0.9056919391422602 0.5297382234941966
vt 0.9068968062020788 0.6233932998086666
vt 0.27848151968044116 0.6156217383485685
vt 0.8281250000000014 0.6562500000000003
vt 0.8281250000000014 0.7500000000000003
vt 0.7812500000000014 0.7500000000000003
vt 0.7812500000000014 0.6562500000000003
vt 0.2500000000000009 0.75
vt 0.2500000000000009 0.6562526767048786
vt 0.6874981279026502 0.6526894116349156
vt 0.68749812790265 0.7464367349300369
vt 0.5234375000000016 0.3906249999999969
vt 0.5234375000000016 0.4843749999999969
vt 0.08593750000000139 0.48437499999999667
vt 0.08593750000000139 0.39062499999999667
vt 0.524326711042596 0.3924098429847731
vt 0.5243267110425959 0.48615716627989447
vt 0.08682858313994676 0.48259390120992884
vt 0.08682858313994671 0.3888465779148076
vt 0.5234374999999986 0.3906250000000001
vt 0.5234374999999986 0.4843750000000001
vt 0.08593749999999856 0.4843749999999999
vt 0.08593749999999856 0.3906249999999999
vt 0.40624999999999867 0.9374878361325523
vt 0.40624999999999856 0.8437419526812642
vt 0.5000003640646965 0.843752676902163
vt 0.49999732309783484 0.9374999999999991
vt 0.18750000000000142 0.6250000000000027
vt 0.23437500000000142 0.6250000000000027
vt 0.23437500000000142 0.8125000000000027
vt 0.18750000000000142 0.8125000000000027
vt 0.31250000000000033 0.6249992718706041
vt 0.35937294172564443 0.6249992718706041
vt 0.3593790236593678 0.8124939180662765
vt 0.31250536211044977 0.8124999999999998
vt 0.37499999999999856 0.6250000000000027
vt 0.42187499999999856 0.6250000000000027
vt 0.42187499999999856 0.8125000000000027
vt 0.37499999999999856 0.8125000000000027
vt 0.046875 0.937499999999999
vt 0 0.937499999999999
vt 0 0.843749999999999
vt 0.046875 0.843749999999999
vt 0.18749999999999917 0.9374999999999991
vt 0.18749999999999914 0.8437465948535059
vt 0.7218727230393573 0.8437478718904549
vt 0.7218750439967231 0.9374937552268185
vt 0.6656250000000015 0.41875000000000007
vt 0.6656250000000015 0.5125000000000001
vt 0.13125000000000142 0.5124999999999998
vt 0.13125000000000142 0.41874999999999984
vt 0.7234360112100204 0.37497187492232575
vt 0.7234383323536082 0.46872527995388524
vt 0.18906328885737428 0.46877195533672533
vt 0.18906328885737428 0.37502607188543746
vt 0.6656249999999986 0.41875000000000007
vt 0.6656249999999986 0.5125000000000001
vt 0.13124999999999853 0.5124999999999998
vt 0.13124999999999853 0.41874999999999984
vn 1 -1.4411735256569805e-8 -1.4819578342262223e-9
vn -0.9999999999999999 1.4411738420705426e-8 1.4819589444492469e-9
vn 1.4147101420891595e-8 0.949315590300472 0.3143245297657604
vn -1.4147098784111911e-8 -0.9493155903004719 -0.314324529765761
vn -3.1231075503512784e-9 -0.3143245297657587 0.9493155903004726
vn 1 -1.4411732897345878e-8 -1.4819650506758823e-9
vn 1.4159636727018036e-8 0.9505813303655851 0.31047565824134177
vn -0.9999999999999999 1.441173295285703e-8 1.4819648841424286e-9
vn -1.4159636727018032e-8 -0.9505813303655851 -0.3104756582413417
vn 1 -1.4411734194919038e-8 -1.4819610538729937e-9
vn 1.4147101448647167e-8 0.949315590300469 0.314324529765769
vn -1 1.441173101690563e-8 1.4819599991611203e-9
vn -1.4147099894334932e-8 -0.9493155903004694 -0.3143245297657677
vn 3.123111325109562e-9 0.3143245297657662 -0.9493155903004701
vn 1 -1.4411733695318677e-8 -1.481962552674077e-9
vn 1.4147099852701576e-8 0.9493155903004693 0.3143245297657686
vn -1 1.4411733605113056e-8 1.481962830229833e-9
vn -1.4147101420891595e-8 -0.9493155903004693 -0.3143245297657685
usemtl m_de24c5f8-0420-a1cd-ca9e-d18b1c6354dc
f 1/1/1 2/2/1 3/3/1 4/4/1
f 5/5/2 6/6/2 7/7/2 8/8/2
f 3/9/3 2/10/3 7/11/3 6/12/3
f 1/13/4 4/14/4 5/15/4 8/16/4
f 9/17/5 10/18/5 11/19/5 12/20/5
f 13/21/6 14/22/6 4/23/6 3/24/6
f 15/25/7 13/26/7 3/27/7 6/28/7
f 16/29/8 15/30/8 6/31/8 5/32/8
f 14/33/9 16/34/9 5/35/9 4/36/9
f 17/37/10 18/38/10 14/39/10 13/40/10
f 19/41/11 17/42/11 13/43/11 15/44/11
f 20/45/12 19/46/12 15/47/12 16/48/12
f 18/49/13 20/50/13 16/51/13 14/52/13
f 7/53/14 2/54/14 1/55/14 8/56/14
f 10/57/15 9/58/15 18/59/15 17/60/15
f 11/61/16 10/62/16 17/63/16 19/64/16
f 12/65/17 11/66/17 19/67/17 20/68/17
f 9/69/18 12/70/18 20/71/18 18/72/18