# Made in Blockbench 4.12.6
mtllib rope_45_diagonal.mtl

o cube
v 1.025460903082994 1.0632526782836413 0.04083035765325005
v 0.9591696423467553 1.0632526782836413 -0.025460903082988873
v 1.0637205853584184 0.9866925324872341 0.0025706753778257374
v 0.9974293246221798 0.9866925324872341 -0.0637205853584133
v -0.05137272519696162 0.05324859571848146 0.9850814644607224
v 0.014918535539277043 0.05324859571848143 1.0513727251969613
v -0.013113042921537116 -0.023311550077925902 0.946821782185298
v 0.05317821781470155 -0.02331155007792593 1.0131130429215371
vt 0 1
vt 0.875 1
vt 0.875 0.9375
vt 0 0.9375
vt 0 1
vt 0.03125 1
vt 0.03125 0.9375
vt 0 0.9375
vt 0 1
vt 0.875 1
vt 0.875 0.9375
vt 0 0.9375
vt 0 1
vt 0.03125 1
vt 0.03125 0.9375
vt 0 0.9375
vt 0 1
vt 0.875 1
vt 0.875 0.9375
vt 0 0.9375
vt 0 1
vt 0.875 1
vt 0.875 0.9375
vt 0 0.9375
vn -0.7071067811865457 1.942890293094024e-16 -0.7071067811865495
vn 0.5774527814535525 0.5771451900372344 -0.5774527814535493
vn 0.7071067811865457 -1.942890293094024e-16 0.7071067811865495
vn -0.5774527814535525 -0.5771451900372344 0.5774527814535493
vn -0.40810327760452797 0.8166415551616786 0.40810327760452614
vn 0.40810327760452797 -0.8166415551616786 -0.40810327760452614
usemtl m_630b7c66-7304-7ba7-6d1b-779ad490b912
f 4/4/1 7/3/1 5/2/1 2/1/1
f 3/8/2 4/7/2 2/6/2 1/5/2
f 8/12/3 3/11/3 1/10/3 6/9/3
f 7/16/4 8/15/4 6/14/4 5/13/4
f 6/20/5 1/19/5 2/18/5 5/17/5
f 7/24/6 4/23/6 3/22/6 8/21/6