# Made in Blockbench 4.12.5
mtllib rope_2wide_diag_45.mtl

o cube
v 2.0250105974597603 1.0829694309453397 -0.9614797697043251
v 1.5956040146926131 0.8187305737922973 -0.5306980390597651
v 1.612531554952966 0.7603706919713604 -0.5453210542953588
v 2.0580104935162584 1.035034762969528 -0.9922449582199935
v 1.99234029036527 1.0327415039049803 -1.0591121989359877
v 1.5468613518019771 0.7580774329068125 -0.6121882950113533
v 1.5299338115416248 0.8164373147277495 -0.5975652797757594
v 1.9593403943087715 1.0806761718807918 -1.0283470104203196
v 1.997853619319673 1.0466519584734586 -1.0650038987322794
v 2.0635238224706614 1.0489452175380065 -0.9981366580162851
v 0.32502725308332686 0.19219050963946832 0.6071803832957783
v 1.0553573433620889 0.5597948150906097 -0.1226828040723078
v 1.0722848836224417 0.5014349332696728 -0.13730581930790176
v 0.34195479334367945 0.13383062781853128 0.5925573680601841
v 1.1379550867734305 0.5037281923342204 -0.07043857859190772
v 0.40762499649466843 0.13612388688307908 0.6594246087761786
v 1.1210275465130777 0.5620880741551573 -0.05581556335631377
v 0.3906974562343156 0.1944837687040159 0.6740476240117724
v 0.26154773419705823 0.14448637964343566 0.802600079312492
v 0.2784752744574112 0.08612649782249884 0.7879770640768979
v 0.1958775310460696 0.14219312057888805 0.7357328385964979
v 0.21280507130642234 0.08383323875795119 0.7211098233609037
v 0.13239801215980093 0.09448899058285468 0.9311525346132116
v 0.14932555242015377 0.03612910876191773 0.9165295193776176
v 0.06672780900881228 0.09219573151830679 0.8642852938972173
v 0.08365534926916482 0.03383584969736995 0.8496622786616232
v 0.03543061379661682 0.054729762179805394 1.0277476458959562
v 0.034828467228455735 0.0014412904749006167 1.0301665825000286
v -0.03023959350541343 0.05243650605216076 0.9608804091559701
v -0.030841740073574514 -0.0008519656527441258 0.9632993457600423
vt 0.875 0.7455593011360983
vt 0.532876121996773 0.75
vt 0.53125 0.6919406988639019
vt 0.873373878003227 0.6875
vt 0.3766261219967731 0.75
vt 0.71875 0.7544406988639017
vt 0.717123878003227 0.8125
vt 0.375 0.8080593011360983
vt 0.59375 0.6249999999999998
vt 0.9375 0.625
vt 0.9375 0.6875
vt 0.59375 0.6874999999999998
vt 0.4375 0.6875
vt 0.09375 0.6875
vt 0.09375 0.6249999999999999
vt 0.4375 0.625
vt 0.4375 0.88829375
vt 0.4375 0.9375
vt 0.40625 0.9375
vt 0.40625 0.88829375
vt 0.2509625 0.88511875
vt 0.25721250000000007 0.875
vt 0.25360625000000003 0.93589375
vt 0.15625 0.875
vt 0.140625 0.9375
vt 0.125 0.875
vt 0.34375 0.875
vt 0.3125 0.875
vt 0.3125 0.8589187500000002
vt 0.34375 0.8589187500000002
vt 0.875 0.8125
vt 0.46983875829616034 0.8102402810248797
vt 0.46875 0.75
vt 0.8747688732041591 0.7522413594151913
vt 0.5640837554880084 0.6263603260407514
vt 0.8744992353747046 0.625
vt 0.875 0.6830420731922877
vt 0.5625 0.6875
vt 0.34479679483587183 0.7517360037869547
vt 0.75 0.75
vt 0.7489532051641282 0.8107639962130454
vt 0.34375 0.8125
vt 0.375 0.8125
vt 0.03125 0.8125
vt 0.03125 0.7499999999999999
vt 0.375 0.75
vt 0.6875 0.8125
vt 0.34375 0.8125
vt 0.34375 0.75
vt 0.6875 0.75
vt 0.71875 0.75
vt 0.375 0.7499999999999998
vt 0.375 0.6874999999999998
vt 0.71875 0.6875
vt 0.3125 0.6875
vt 0.671875 0.6875
vt 0.671875 0.75
vt 0.3125 0.75
vt 0.25 0.8124999999999996
vt 0.59375 0.8125
vt 0.59375 0.875
vt 0.25 0.8749999999999996
vt 0.2500000000000009 0.9999948962382585
vt 0.2500000000000009 0.9374950399884239
vt 0.3437549600115739 0.9374986474967211
vt 0.34374189345215717 0.9999999999999971
vt 0.28125 0.937499999999994
vt 0.28125 0.874999999999994
vt 0.34375 0.874999999999994
vt 0.34375 0.937499999999994
vt 0.24999744822343797 0.9374930922327328
vt 0.25001051446992806 0.8749932365899604
vt 0.3437524081307043 0.874996843386874
vt 0.3437524081307043 0.9374981964972267
vt 0.28125 0.937499999999994
vt 0.28125 0.874999999999994
vt 0.34375 0.874999999999994
vt 0.34375 0.937499999999994
vt 0.24999999999999778 1
vt 0.24999999999999778 0.9374986468896472
vt 0.3437418936607735 0.9374950400927333
vt 0.34375495990726446 0.9999948957355059
vt 0.25 0.9375
vt 0.25 0.875
vt 0.34375 0.875
vt 0.34375 0.9375
vt 0.343743696850615 0.8749924882118666
vt 0.343756763410033 0.9374938407151427
vt 0.2500018033984594 0.9374974482234403
vt 0.25000180339845934 0.8749975919736055
vt 0.25 0.9375
vt 0.25 0.875
vt 0.34375 0.875
vt 0.34375 0.9375
vt 0.24999999999999734 0.9374963929085139
vt 0.24999999999999734 0.8750001439585771
vt 0.3437436969770151 0.875000143958577
vt 0.34375135300626347 0.9375
vt 0.25 0.875
vt 0.25 0.8125
vt 0.3125 0.8125
vt 0.3125 0.875
vt 0.2500047296431521 0.9374996256114916
vt 0.24999707405576577 0.8750033768699543
vt 0.34374842655904186 0.8749946655999183
vt 0.34374842655904186 0.937494521849753
vt 0.25 0.9375000000000038
vt 0.25 0.8750000000000038
vt 0.3125 0.8750000000000038
vt 0.3125 0.9375000000000038
vt 0 1
vt 0 0.9375
vt 0.03125 0.9375
vt 0.03125 1
vn 0.7004821669438797 0.02446143002184769 0.7132505676372737
vn -0.7004821669438815 -0.02446143002184073 -0.7132505676372721
vn -0.3000862076122348 0.9168627669171139 0.2632696994376693
vn 0.30054306706682304 -0.9165813604431186 -0.2637280313624424
vn 0.3702410939687831 0.8419468283679888 -0.3924883062434896
vn -0.7004821669438779 -0.024461430021841035 -0.7132505676372757
vn 0.7004821669438779 0.024461430021841032 0.7132505676372756
vn 0.6259276687947646 -0.5011655095086403 -0.5975346730660042
vn -0.7004821678306337 -0.024461430501381273 -0.7132505667499481
vn 0.25551785181339576 -0.9417562278383844 -0.21864545440572203
vn 0.7004821678306341 0.024461430501379666 0.7132505667499477
vn -0.25551785181339465 0.9417562278383844 0.2186454544057228
vn 0.7004821669438821 0.024461430021840997 0.7132505676372715
vn 0.2708406441656454 -0.93375810913499 -0.23396824376950498
vn -0.7004821669438819 -0.024461430021840994 -0.7132505676372718
vn -0.2708406441656439 0.9337581091349904 0.23396824376950517
vn 0.7004822614860535 0.024461481148569393 0.7132504730341245
vn -0.20536438951166003 0.9640492654043258 0.1686252691439909
vn -0.7004822614860547 -0.024461481148567252 -0.7132504730341235
vn 0.2053643895116599 -0.9640492654043258 -0.16862526914399054
vn 0.7004822614860539 0.024461481148570878 0.7132504730341243
vn -0.20536438951166475 0.9640492654043246 0.16862526914399156
vn -0.700482261486055 -0.024461481148564657 -0.7132504730341234
vn 0.20536438951166444 -0.9640492654043242 -0.16862526914399317
vn 0.7004822464449426 0.024461477139421713 0.7132504879434743
vn -0.21554536618561904 0.9599916187533212 0.17876321500601233
vn -0.7004822451850826 -0.024461477209713756 -0.7132504891783703
vn 0.16678916395769522 -0.9773470700617466 -0.1302846093290084
vn -0.7135805945125633 0.03981317835702398 0.6994409524500325
usemtl m_4eea9631-712b-1c22-cacb-be1c371423f9
f 1/1/1 2/2/1 3/3/1 4/4/1
f 5/5/2 6/6/2 7/7/2 8/8/2
f 8/9/3 7/10/3 2/11/3 1/12/3
f 4/13/4 3/14/4 6/15/4 5/16/4
f 9/17/5 8/18/5 1/19/5 10/20/5
f 9/21/6 5/22/6 8/23/6
f 10/24/7 1/25/7 4/26/7
f 9/27/8 10/28/8 4/29/8 5/30/8
f 11/31/9 12/32/9 13/33/9 14/34/9
f 14/35/10 13/36/10 15/37/10 16/38/10
f 16/39/11 15/40/11 17/41/11 18/42/11
f 18/43/12 17/44/12 12/45/12 11/46/12
f 2/47/13 17/48/13 15/49/13 3/50/13
f 3/51/14 15/52/14 13/53/14 6/54/14
f 6/55/15 13/56/15 12/57/15 7/58/15
f 7/59/16 12/60/16 17/61/16 2/62/16
f 19/63/17 20/64/17 16/65/17 18/66/17
f 21/67/18 19/68/18 18/69/18 11/70/18
f 22/71/19 21/72/19 11/73/19 14/74/19
f 20/75/20 22/76/20 14/77/20 16/78/20
f 23/79/21 24/80/21 20/81/21 19/82/21
f 25/83/22 23/84/22 19/85/22 21/86/22
f 26/87/23 25/88/23 21/89/23 22/90/23
f 24/91/24 26/92/24 22/93/24 20/94/24
f 27/95/25 28/96/25 24/97/25 23/98/25
f 29/99/26 27/100/26 23/101/26 25/102/26
f 30/103/27 29/104/27 25/105/27 26/106/27
f 28/107/28 30/108/28 26/109/28 24/110/28
f 29/111/29 30/112/29 28/113/29 27/114/29