# Made in Blockbench 4.8.3
mtllib spike_corbel.mtl

o cuboid
v 0.6875 1 1
v 0.51875 1 0
v 0.6875 0 1
v 0.51875 0.5625 0
v 0.3125 1 1
v 0.48125 1 0
v 0.3125 0 1
v 0.48125 0.5625 0
v 0.396875 1 0.3125
v 0.396875 0.6875 0.3125
v 0.603125 0.6875 0.3125
v 0.603125 1 0.3125
v 0.3546875 1 0.5625
v 0.3546875 0.625 0.5625
v 0.6453125 0.625 0.5625
v 0.6453125 1 0.5625
vt 0.7953958333333334 0.5625
vt 0.6875 0.5625
vt 0.6875 0.45833333333333337
vt 0.7953958333333334 0.41666666666666663
vt 0.20833333333333334 0.41666666666666663
vt 0.3162291666666667 0.45833333333333337
vt 0.3162291666666667 0.5625
vt 0.20833333333333334 0.5625
vt 0.5197916666666667 0.17947500000000005
vt 0.5479166666666667 0.29166666666666663
vt 0.4791666666666667 0.29166666666666663
vt 0.5072916666666667 0.17947500000000005
vt 0.5625 0.33333333333333337
vt 0.5625 0.6666666666666667
vt 0.4375 0.6666666666666667
vt 0.4375 0.33333333333333337
vt 0.5125000000000001 0.5625
vt 0.5 0.5625
vt 0.5 0.41666666666666663
vt 0.5125000000000001 0.41666666666666663
vt 0.5072916666666667 0.7916666666666666
vt 0.4791666666666667 0.6875
vt 0.5479166666666667 0.6875
vt 0.5197916666666667 0.7916666666666666
vt 0.6041666666666666 0.45833333333333337
vt 0.6886770833333333 0.4375
vt 0.6886770833333333 0.5625
vt 0.6041666666666666 0.5625
vt 0.47239583333333335 0.6458333333333333
vt 0.4583333333333333 0.5599354166666666
vt 0.5552083333333333 0.5599354166666666
vt 0.5411458333333333 0.6458333333333333
vt 0.41784375 0.5625
vt 0.3333333333333333 0.5625
vt 0.3333333333333333 0.4375
vt 0.41784375 0.45833333333333337
vt 0.47239583333333335 0.41666666666666663
vt 0.4583333333333333 0.33333333333333337
vt 0.5552083333333333 0.33333333333333337
vt 0.5411458333333333 0.41666666666666663
vt 0.9381770833333333 0.6041666666666667
vt 0.7916666666666666 0.6041666666666667
vt 0.7916666666666666 0.47916666666666663
vt 0.9381770833333333 0.27083333333333337
vt 0.5625 0.7248625
vt 0.5484375 0.9791666666666666
vt 0.45156250000000003 0.9791666666666666
vt 0.4375 0.7248625
vt 0.0625 0.27083333333333337
vt 0.20901041666666664 0.47916666666666663
vt 0.20901041666666664 0.6041666666666667
vt 0.0625 0.6041666666666667
vt 0.5625 0.04166666666666663
vt 0.5484375 0.1875
vt 0.45156250000000003 0.1875
vt 0.4375 0.04166666666666663
vn 0.9654290825583873 0 -0.26066585229076455
vn -0.9654290825583873 0 -0.2606658522907646
vn 0 -0.9284766908852593 0.3713906763541038
vn 0 0 1
vn 0 0 -1
vn 0 1 0
vn -0.9860587707771216 0 -0.16639741756863927
vn 0 -0.9701425001453319 -0.24253562503633297
vn 0.9860587707771216 0 -0.1663974175686393
vn 0 1 0
vn -0.9953829391706532 0 -0.09598335484859868
vn 0 -0.5734623443633283 -0.8192319205190405
vn 0.9953829391706532 0 -0.09598335484859868
vn 0 1 0
usemtl m_4203d528-2d1f-14d2-cfc6-fada332af814
f 2/1/1 12/2/1 11/3/1 4/4/1
f 8/5/2 10/6/2 9/7/2 6/8/2
f 4/9/3 11/10/3 10/11/3 8/12/3
f 3/13/4 1/14/4 5/15/4 7/16/4
f 6/17/5 2/18/5 4/19/5 8/20/5
f 6/21/6 9/22/6 12/23/6 2/24/6
f 10/25/7 14/26/7 13/27/7 9/28/7
f 11/29/8 15/30/8 14/31/8 10/32/8
f 12/33/9 16/34/9 15/35/9 11/36/9
f 9/37/10 13/38/10 16/39/10 12/40/10
f 5/41/11 13/42/11 14/43/11 7/44/11
f 7/45/12 14/46/12 15/47/12 3/48/12
f 3/49/13 15/50/13 16/51/13 1/52/13
f 1/53/14 16/54/14 13/55/14 5/56/14