# Made in Blockbench 4.8.3
mtllib spike_corbel_top.mtl

o cuboid_selection_selection
v 0.6875 0 1
v 0.51875 0 0
v 0.3125 0 1
v 0.48125 0 0
v 0.396875 0 0.3125
v 0.603125 0 0.3125
v 0.3546875 0 0.5625
v 0.6453125 0 0.5625
v 0.3968750000000001 0.6070801374800827 0.290967167861493
v 0.6453125 0.29647246706805364 0.5859042687129861
v 0.3546875 0.29647246706805364 0.5859042687129861
v 0.6031249999999999 0.6070801374800827 0.290967167861493
v 0.48125 1.2584546724194565 0.0009259372218776152
v 0.51875 1.2584546724194565 0.0009259372218776152
v 0.6874999999999999 0.22144739545186365 0.9981285634255209
v 0.3125000000000001 0.22144739545186365 0.9981285634255209
v 0.46015625000000004 1.2415453275805435 0.07719906277812238
v 0.53984375 1.2415453275805435 0.07719906277812238
v 0.53984375 0 0.078125
v 0.46015625 0 0.078125
vt 0.30572916666666666 0.375
vt 0.2916666666666667 0.2322229166666666
vt 0.3885416666666666 0.2322229166666666
vt 0.3744791666666667 0.375
vt 0.6666666666666666 0.38116666666666665
vt 0.6526041666666667 0.5208333333333333
vt 0.5557291666666667 0.5208333333333333
vt 0.5416666666666666 0.38116666666666665
vt 0.7451356215480575 0.625619372555136
vt 0.6458333333333334 0.7291666666666667
vt 0.6529133754607428 0.526803467419066
vt 0.7374092092050103 0.526803467419066
vt 0.3493445541271632 0.7083333333333333
vt 0.25 0.6048284175541843
vt 0.2576967655272453 0.5059963962812646
vt 0.3421551046419055 0.5059963962812646
vt 0.2625 0.875
vt 0.25 0.875
vt 0.25 0.4555145833333334
vt 0.2625 0.4555145833333334
vt 0.34707916666666666 0.5625
vt 0.20895416666666666 0.5374916666666667
vt 0.20833333333333334 0.46367708333333335
vt 0.3548395833333333 0.46367708333333335
vt 0.29172293260505094 0.5583189884303803
vt 0.15359864395198167 0.5833333333333333
vt 0.14583333333333334 0.48450647080385956
vt 0.2923416667259162 0.48450647080385945
vt 0.3125 0.5416666666666667
vt 0.1875 0.5416666666666667
vt 0.1875 0.4678479166666666
vt 0.3125 0.4678479166666666
vt 0.38125000000000003 0.3809958333333333
vt 0.36015625 0.6041666666666667
vt 0.33359374999999997 0.6041666666666667
vt 0.3125 0.3809958333333333
vt 0.9978875 0.4819854166666666
vt 0.9169645833333334 0.4819854166666666
vt 0.9166666666666666 0.8958333333333334
vt 0.9909583333333334 0.6843458333333332
vt 0.9908279681408919 0.6842906830747955
vt 0.9166666666666669 0.8958333333333334
vt 0.9166666666666666 0.4819832275977408
vt 0.9975645626645235 0.4819253991714204
vt 0.5486979166666667 0.33333333333333337
vt 0.5416666666666666 0.30729166666666663
vt 0.5682291666666667 0.30729166666666663
vt 0.5611979166666666 0.33333333333333337
vt 0.9225083333333334 0.9166666666666666
vt 0.8961291666666668 0.9110291666666667
vt 0.8958333333333334 0.4971812499999999
vt 0.9228062499999999 0.4971812499999999
vt 0.8958333333333334 0.4971833333333333
vt 0.9228062499999999 0.4971833333333333
vt 0.9225083333333334 0.9110312500000001
vt 0.8961312499999999 0.9166666666666666
vt 0.125 1
vt 0 1
vt 0.014062499999999997 0.8541666666666666
vt 0.11093750000000001 0.8541666666666666
vt 0.096875 1
vt 0 1
vt 0.014062500000000006 0.9166666666666666
vt 0.0828125 0.9166666666666666
vt 0.11041666666666666 1
vt 0.041666666666666664 1
vt 0.06276041666666667 0.921875
vt 0.08932291666666665 0.921875
vt 0.06822916666666666 1
vt 0.041666666666666664 1
vt 0.04869791666666667 0.9739583333333334
vt 0.061197916666666664 0.9739583333333334
vn 0 0.6885774128111395 0.725162841413098
vn 0 0.9838383069311639 0.1790591684746163
vn -0.9891266587360922 -0.005213085420024516 -0.14697372798557595
vn 0.9913395639354735 0.010334850673325596 -0.1309162321401946
vn 0 0.0007357730012347917 -0.9999997293190087
vn 0.9947876626155963 -0.0008616951026771623 -0.10196452220919265
vn -0.99491773698282 0.007924150751835309 -0.10037880489349639
vn 0 0.008450628858820317 0.9999642927984432
vn 0 0.3192906547808472 0.9476568354471032
vn 0.9654290643153738 -0.00019440305978835512 -0.2606658473651509
vn -0.958696716216506 -0.00021212640426130833 -0.2844302398094777
vn 0 0.9762960071199367 0.21643961393808778
vn 0.9638097498125628 -0.00019882195540398852 -0.26659093502232056
vn -0.9654290643153738 -0.00019440305978835154 -0.2606658473651509
vn 0 -1 0
vn 0 -1 0
vn 0 -1 0
vn 0 -1 0
usemtl m_4203d528-2d1f-14d2-cfc6-fada332af814
f 9/1/1 11/2/1 10/3/1 12/4/1
f 15/5/2 10/6/2 11/7/2 16/8/2
f 11/9/3 9/10/3 5/11/3 7/12/3
f 12/13/4 10/14/4 8/15/4 6/16/4
f 13/17/5 14/18/5 2/19/5 4/20/5
f 10/21/6 15/22/6 1/23/6 8/24/6
f 16/25/7 11/26/7 7/27/7 3/28/7
f 15/29/8 16/30/8 3/31/8 1/32/8
f 12/33/9 18/34/9 17/35/9 9/36/9
f 6/37/10 19/38/10 18/39/10 12/40/10
f 9/41/11 17/42/11 20/43/11 5/44/11
f 13/45/12 17/46/12 18/47/12 14/48/12
f 14/49/13 18/50/13 19/51/13 2/52/13
f 4/53/14 20/54/14 17/55/14 13/56/14
f 1/57/15 3/58/15 7/59/15 8/60/15
f 8/61/16 7/62/16 5/63/16 6/64/16
f 6/65/17 5/66/17 20/67/17 19/68/17
f 19/69/18 20/70/18 4/71/18 2/72/18