# Made in Blockbench 4.8.3
mtllib spike_corbel_extension.mtl

o cuboid_selection
v 0.6875 0 1
v 0.51875 0 0
v 0.3125 0 1
v 0.48125 0 0
v 0.396875 0 0.3125
v 0.603125 0 0.3125
v 0.3546875 0 0.5625
v 0.6453125 0 0.5625
v 0.6875 1 1
v 0.51875 1 0
v 0.3125 1 1
v 0.48125 1 0
v 0.396875 1 0.3125
v 0.603125 1 0.3125
v 0.3546875 1 0.5625
v 0.6453125 1 0.5625
vt 0.5072916666666667 0.375
vt 0.4791666666666667 0.27083333333333337
vt 0.5479166666666667 0.27083333333333337
vt 0.5197916666666667 0.375
vt 0.47239583333333335 0.27083333333333337
vt 0.4583333333333333 0.1875
vt 0.5552083333333333 0.1875
vt 0.5411458333333333 0.27083333333333337
vt 0.5625 0.04166666666666663
vt 0.5484375 0.1875
vt 0.45156250000000003 0.1875
vt 0.4375 0.04166666666666663
vt 0.8724791666666666 0.8125
vt 0.7645833333333333 0.8125
vt 0.7645833333333333 0.47916666666666663
vt 0.8724791666666666 0.47916666666666663
vt 0.6912291666666667 0.8541666666666666
vt 0.5833333333333334 0.8541666666666666
vt 0.5833333333333334 0.5208333333333333
vt 0.6912291666666667 0.5208333333333333
vt 0.2625 1
vt 0.25 1
vt 0.25 0.6666666666666667
vt 0.2625 0.6666666666666667
vt 0.98034375 0.7708333333333334
vt 0.8958333333333334 0.7708333333333334
vt 0.8958333333333334 0.4375
vt 0.98034375 0.4375
vt 0.7720104166666667 0.8541666666666666
vt 0.6875 0.8541666666666666
vt 0.6875 0.5208333333333333
vt 0.7720104166666667 0.5208333333333333
vt 0.72984375 0.5
vt 0.5833333333333334 0.5
vt 0.5833333333333334 0.16666666666666663
vt 0.72984375 0.16666666666666663
vt 0.125 0.6875
vt 0 0.6875
vt 0 0.35416666666666663
vt 0.125 0.35416666666666663
vt 0.1881770833333333 0.35416666666666663
vt 0.041666666666666664 0.35416666666666663
vt 0.041666666666666664 0.02083333333333337
vt 0.1881770833333333 0.02083333333333337
vt 0 1
vt 0.028124999999999997 0.8958333333333334
vt 0.040625 0.8958333333333334
vt 0.06874999999999999 1
vt 0.096875 1
vt 0 1
vt 0.014062500000000006 0.9166666666666666
vt 0.0828125 0.9166666666666666
vt 0.125 1
vt 0 1
vt 0.014062499999999997 0.8541666666666666
vt 0.11093750000000001 0.8541666666666666
vn 0 1 0
vn 0 1 0
vn 0 1 0
vn -0.9654290825583874 0 -0.2606658522907646
vn 0.9654290825583874 0 -0.2606658522907646
vn 0 0 -1
vn -0.9860587707771216 0 -0.16639741756863927
vn 0.9860587707771216 0 -0.16639741756863927
vn 0.9953829391706531 0 -0.09598335484859867
vn 0 0 1
vn -0.9953829391706531 0 -0.09598335484859867
vn 0 -1 0
vn 0 -1 0
vn 0 -1 0
usemtl m_4203d528-2d1f-14d2-cfc6-fada332af814
f 12/1/1 13/2/1 14/3/1 10/4/1
f 13/5/2 15/6/2 16/7/2 14/8/2
f 9/9/3 16/10/3 15/11/3 11/12/3
f 13/13/4 12/14/4 4/15/4 5/16/4
f 10/17/5 14/18/5 6/19/5 2/20/5
f 12/21/6 10/22/6 2/23/6 4/24/6
f 15/25/7 13/26/7 5/27/7 7/28/7
f 14/29/8 16/30/8 8/31/8 6/32/8
f 16/33/9 9/34/9 1/35/9 8/36/9
f 9/37/10 11/38/10 3/39/10 1/40/10
f 11/41/11 15/42/11 7/43/11 3/44/11
f 5/45/12 4/46/12 2/47/12 6/48/12
f 8/49/13 7/50/13 5/51/13 6/52/13
f 1/53/14 3/54/14 7/55/14 8/56/14