# Made in Blockbench 4.12.5
mtllib straight_diagonal_tent_pole_3tall_2wide_top.mtl

o cuboid
v 0.06249969807942908 0.5727834580041511 0.30823430256745965
v 0.062499660375695064 0.6615566041819031 0.3962361691255166
v 0.1875002642167744 0.04411607658949915 1.1966437258296176
v 0.18750037732797648 -0.22064330654323472 0.9341981815559683
v -0.18749973578313178 0.044115827415075914 1.1966438165205133
v -0.06250033962427376 0.6615565211240055 0.3962361993560588
v -0.0625003019205397 0.5727833749462535 0.3082343327980018
v -0.18749962267192977 -0.22064355571765815 0.9341982722468642
vt 0.5684834779509501 0.9280842944449721
vt 0.4434848546773739 0.9280842691049961
vt 0.31850653150137975 0.7596029967422075
vt 0.691301460519416 0.7596029967422074
vt 0.5602949287647733 0.8315202381395493
vt 0.43528372649803604 1
vt 0.3102807202841853 1
vt 0.18749999999999978 0.8315179478821294
vt 0.625 0.9999999999999999
vt 0.5 0.9999999999999999
vt 0.5 0.9791666666666666
vt 0.625 0.9791666666666666
vt 0.75 0.9170343750000003
vt 0.75 0.979166666666667
vt 0.375 0.979166666666667
vt 0.375 0.9170343750000003
vt 0.375 0.8315197916666667
vt 0.25 1
vt 0.125 1
vt 0 0.8315197916666667
vt 0.5625 1
vt 0.4375 1
vt 0.3125 0.8315635416666667
vt 0.6875 0.8315635416666667
vn 0.9923252841283207 0.0870550977828687 -0.087817654430433
vn -0.9923254422936728 0.08705377905482595 -0.0878171744531802
vn -6.395462628912976e-7 0.7040149324642065 -0.7101851694220386
vn 6.395384615723806e-7 -0.7039965945314675 0.7102033475615893
vn -3.783985988558776e-7 0.7917902310341565 0.6107931155790265
vn 2.216893788928528e-7 -0.6193847579675597 -0.7850875884876913
usemtl m_62ae629f-8b5c-d609-4385-5f28208e8eb6
f 1/1/1 2/2/1 3/3/1 4/4/1
f 5/5/2 6/6/2 7/7/2 8/8/2
f 6/9/3 2/10/3 1/11/3 7/12/3
f 4/13/4 3/14/4 5/15/4 8/16/4
f 3/17/5 2/18/5 6/19/5 5/20/5
f 7/21/6 1/22/6 4/23/6 8/24/6