# Made in Blockbench 4.12.5
mtllib thin_diagonal_tent_pole_3tall_2wide_top.mtl

o cuboid
v 0.5090410534533086 0.7631122133918307 0.588622574788207
v 0.42093042034842687 0.7638751421211646 0.49995261133811986
v -0.152587374731894 0.08664342379304883 0.9758892448986132
v 0.023633891477870192 0.08511756633437943 1.1532291717987877
v -0.025827110881979212 -0.08714733191565506 0.8484696618399576
v 0.4843105522733837 0.6769797642668125 0.43624281980879154
v 0.572421185378266 0.6762168355374786 0.5249127832588792
v 0.15039415532778538 -0.08867318937432439 1.0258095887401324
vt 0.1875 0.9999999999999994
vt 0.0625 0.9999999999999994
vt 0 0.8330072916666661
vt 0.25 0.8330072916666661
vt 0.25 0.8330072916666661
vt 0.1875 0.9999999999999994
vt 0.0625 0.9999999999999994
vt 0 0.8330072916666661
vt 0.0625 0.96875
vt 0.1875 0.96875
vt 0.1875 0.9895833333333334
vt 0.0625 0.9895833333333334
vt 0.25 0.9583333333333334
vt 0.25 1
vt 0 1
vt 0 0.9583333333333334
vt 0.25 0.8330072916666661
vt 0.1875 0.9999999999999994
vt 0.0625 0.9999999999999994
vt 0 0.8330072916666661
vt 0.1875 0.9999999999999994
vt 0.0625 0.9999999999999994
vt 0 0.8330072916666661
vt 0.25 0.8330072916666661
vn -0.47506400099386453 0.7385302021792536 0.478421712957065
vn 0.5367817516800765 -0.6491262866402226 -0.5389809041663205
vn 0.4961804040605168 0.7188652206736517 -0.486865280269773
vn -0.49618040406051833 -0.7188652206736525 0.4868652802697702
vn -0.6725756472557828 0.050730091740342174 -0.7382875161551098
vn 0.7342889300271679 0.03867894827393455 0.6777342445236033
usemtl m_e06300d6-528d-23b2-dfe0-644aead1865d
f 1/1/1 2/2/1 3/3/1 4/4/1
f 5/5/2 6/6/2 7/7/2 8/8/2
f 6/9/3 2/10/3 1/11/3 7/12/3
f 4/13/4 3/14/4 5/15/4 8/16/4
f 3/17/5 2/18/5 6/19/5 5/20/5
f 7/21/6 1/22/6 4/23/6 8/24/6