# Made in Blockbench 4.12.5
mtllib twisting_vines_diagonal_beamtall_right.mtl

o cube
v 0.32689655063593936 0.6204196039468788 1.1821875
v 0.32689655063593936 0.6204196039468788 0.8134375
v 0.6731034493640606 0.5045803960531212 1.1821875
v 0.6731034493640606 0.5045803960531212 0.8134375
v -0.20265411402123845 -0.962240504524533 0.8134375
v -0.20265411402123845 -0.962240504524533 1.1821875
v 0.14355278470688282 -1.0780797124182906 0.8134375
v 0.14355278470688282 -1.0780797124182906 1.1821875
vt 0.3958333333333333 1
vt 0.3958333333333333 0.7
vt 0.4583333333333333 0.7
vt 0.4583333333333333 1
vt 0.4375 0.9625
vt 0.375 0.9625
vt 0.375 0.8875
vt 0.4375 0.8875
vt 0.4166666666666667 1
vt 0.4166666666666667 0.7
vt 0.4791666666666667 0.7
vt 0.4791666666666667 1
vt 0.4270833333333333 0.8875
vt 0.3645833333333333 0.8875
vt 0.3645833333333333 0.8125
vt 0.4270833333333333 0.8125
vt 0.4375 0.6875
vt 0.4375 0.9875
vt 0.375 0.9875
vt 0.375 0.6875
vt 0.4583333333333333 0.42500000000000004
vt 0.4583333333333333 0.725
vt 0.3958333333333333 0.725
vt 0.3958333333333333 0.42500000000000004
vn 0 0 -1
vn 0.31730465640509214 0.9483236552061993 0
vn 0 0 1
vn -0.31730465640509214 -0.9483236552061993 0
vn -0.9483236552061993 0.31730465640509214 0
vn 0.9483236552061993 -0.31730465640509214 0
usemtl m_53b02105-2399-be3f-d275-e7a4233b7f62
f 4/4/1 7/3/1 5/2/1 2/1/1
f 3/8/2 4/7/2 2/6/2 1/5/2
f 8/12/3 3/11/3 1/10/3 6/9/3
f 7/16/4 8/15/4 6/14/4 5/13/4
f 6/20/5 1/19/5 2/18/5 5/17/5
f 7/24/6 4/23/6 3/22/6 8/21/6
o cube
v 0.8547986110134594 2.203631327693975 1.1868750000000001
v 0.8547986110134594 2.203631327693975 0.8118750000000001
v 1.2043027183008963 2.0866888892488484 1.1868750000000001
v 1.2043027183008963 2.0866888892488484 0.8118750000000001
v 0.3252479463562816 0.6209712192225634 0.8118750000000001
v 0.3252479463562816 0.6209712192225634 1.1868750000000001
v 0.6747520536437184 0.5040287807774366 0.8118750000000001
v 0.6747520536437184 0.5040287807774366 1.1868750000000001
vt 0.3958333333333333 1
vt 0.3958333333333333 0.7
vt 0.4583333333333333 0.7
vt 0.4583333333333333 1
vt 0.4375 0.9625
vt 0.375 0.9625
vt 0.375 0.8875
vt 0.4375 0.8875
vt 0.4166666666666667 1
vt 0.4166666666666667 0.7
vt 0.4791666666666667 0.7
vt 0.4791666666666667 1
vt 0.4270833333333333 0.8875
vt 0.3645833333333333 0.8875
vt 0.3645833333333333 0.8125
vt 0.4270833333333333 0.8125
vt 0.4375 0.6875
vt 0.4375 0.9875
vt 0.375 0.9875
vt 0.375 0.6875
vt 0.4583333333333333 0.42500000000000004
vt 0.4583333333333333 0.725
vt 0.3958333333333333 0.725
vt 0.3958333333333333 0.42500000000000004
vn 0 0 -1
vn 0.31730465640509214 0.9483236552061993 0
vn 0 0 1
vn -0.31730465640509214 -0.9483236552061993 0
vn -0.9483236552061993 0.31730465640509214 0
vn 0.9483236552061993 -0.31730465640509214 0
usemtl m_53b02105-2399-be3f-d275-e7a4233b7f62
f 12/28/7 15/27/7 13/26/7 10/25/7
f 11/32/8 12/31/8 10/30/8 9/29/8
f 16/36/9 11/35/9 9/34/9 14/33/9
f 15/40/10 16/39/10 14/38/10 13/37/10
f 14/44/11 9/43/11 10/42/11 13/41/11
f 15/48/12 12/47/12 11/46/12 16/45/12