# Made in Blockbench 4.8.3
mtllib upwards_spike_small.mtl

o cuboid
v 0.1625000000000001 0.953125 1
v 0.8375000000000001 0.953125 1
v 0.1625000000000001 0.21718749999999998 1
v 0.8375000000000001 0.21718749999999998 1
v 0.4656249999999999 1.325612976320958 0.19687500000000002
v 0.5343749999999999 1.325612976320958 0.19687500000000002
v 0.4656249999999999 1.2712620236790413 0.17812499999999998
v 0.5343749999999999 1.2712620236790413 0.17812499999999998
v 0.3125 1.0726562499999999 0.59375
v 0.6875 1.0726562499999999 0.59375
v 0.6875 0.6859374999999998 0.59375
v 0.3125 0.6859374999999998 0.59375
vt 0.68125 0.6875
vt 0.34375 0.6875
vt 0.34375 0.31953125000000004
vt 0.68125 0.31953125000000004
vt 0.5765625 0.47125000000000006
vt 0.5765625 0.5
vt 0.53125 0.5
vt 0.53125 0.47125000000000006
vt 0.55625 0.13201562499999997
vt 0.48125 0.34375
vt 0.29375 0.34375
vt 0.21875 0.13201562499999997
vt 0.93125 0.34610312499999996
vt 0.85625 0.65625
vt 0.66875 0.65625
vt 0.59375 0.34610312499999996
vt 0.841528125 0.596484375
vt 0.625 0.65625
vt 0.625 0.462890625
vt 0.841528125 0.228515625
vt 0.15625 0.228515625
vt 0.37277812499999996 0.462890625
vt 0.37277812499999996 0.65625
vt 0.15625 0.596484375
vt 0.22734375 0.59375
vt 0.15625 0.3584343750000001
vt 0.34375 0.3584343750000001
vt 0.27265625 0.59375
vt 0.8670375 0.625
vt 0.65625 0.498521875
vt 0.65625 0.3051625
vt 0.8758625 0.5978249999999999
vt 0.22734375 0.625
vt 0.15625 0.2660625000000001
vt 0.34375 0.2660625000000001
vt 0.27265625 0.625
vt 0.1875 0.5978249999999999
vt 0.4071375 0.3051625
vt 0.4071375 0.498521875
vt 0.196371875 0.625
vn 2.220446049250313e-16 0 1
vn -2.0990509879660414e-16 0.3261195798230918 -0.9453285247235536
vn 6.267568782777356e-17 0.9593361193470746 0.2822662043463505
vn -1.677966838342243e-16 -0.6549305384178421 -0.7556890827898175
vn -0.9380964741393881 0 -0.3463740827591584
vn 0.9380964741393879 0 -0.34637408275915893
vn 1.193445688469927e-16 0.8432763972352706 0.5374801557880088
vn 0.9329664172261956 0 -0.35996342081955596
vn -1.8104488230046033e-16 -0.5789632128575821 -0.8153536644656885
vn -0.9383431168171104 0 -0.34570535882735615
usemtl m_c3bf865d-4d7c-8410-0900-de2111ad3ad6
f 2/1/1 1/2/1 3/3/1 4/4/1
f 7/5/2 5/6/2 6/7/2 8/8/2
f 2/9/3 10/10/3 9/11/3 1/12/3
f 3/13/4 12/14/4 11/15/4 4/16/4
f 1/17/5 9/18/5 12/19/5 3/20/5
f 4/21/6 11/22/6 10/23/6 2/24/6
f 5/25/7 9/26/7 10/27/7 6/28/7
f 6/29/8 10/30/8 11/31/8 8/32/8
f 8/33/9 11/34/9 12/35/9 7/36/9
f 7/37/10 12/38/10 9/39/10 5/40/10