# Made in Blockbench 4.8.3
mtllib wall_spike_large.mtl

o cuboid
v 1 1 1
v 1 1 0.875
v 1 0 1
v 1 0 0.875
v 0 1 1
v 0 1 0.875
v 0 0 1
v 0 0 0.875
v 0.25 1 0.5625
v 0.25 1 1
v 0.25 0 1
v 0.25 0 0.5625
v 0.75 1 0.5625
v 0.75 1 1
v 0.75 0 1
v 0.75 0 0.5625
v 0.4484375 1 0
v 0.4484375 1 1
v 0.4484375 0 1
v 0.4484375 0 0
v 0.5515625 1 0
v 0.5515625 1 1
v 0.5515625 0 1
v 0.5515625 0 0
vt 0.5208333333333334 0.6666666666666667
vt 0.4791666666666667 0.6666666666666667
vt 0.4791666666666667 0.33333333333333337
vt 0.5208333333333334 0.33333333333333337
vt 0.5208333333333334 0.33333333333333337
vt 0.5208333333333334 0.6666666666666667
vt 0.4791666666666667 0.6666666666666667
vt 0.4791666666666667 0.33333333333333337
vt 0.08333333333333333 0.45833333333333337
vt 0.16666666666666666 0.45833333333333337
vt 0.16666666666666666 0.6041666666666667
vt 0.08333333333333333 0.5
vt 0.08333333333333333 0.5
vt 0.16666666666666666 0.39583333333333337
vt 0.16666666666666666 0.5416666666666667
vt 0.08333333333333333 0.5416666666666667
vt 0.3958333333333333 0.6666666666666667
vt 0.4791666666666667 0.6666666666666667
vt 0.4791666666666667 1
vt 0.3958333333333333 1
vt 0.7375666666666666 0.33333333333333337
vt 0.6041666666666666 0.33333333333333337
vt 0.6041666666666666 0
vt 0.7375666666666666 0
vt 0.2708333333333333 0.375
vt 0.33697916666666666 0.375
vt 0.33697916666666666 0.7083333333333333
vt 0.2708333333333333 0.5208333333333333
vt 0.4791666666666667 0.6666666666666667
vt 0.5453125 0.6666666666666667
vt 0.5453125 1
vt 0.4791666666666667 1
vt 0.2708333333333333 0.47916666666666663
vt 0.33697916666666666 0.29166666666666663
vt 0.33697916666666666 0.625
vt 0.2708333333333333 0.625
vt 0.7821583333333333 0.6666666666666667
vt 0.5833333333333334 0.6666666666666667
vt 0.5833333333333334 0.33333333333333337
vt 0.7821583333333333 0.33333333333333337
vt 0.9166666666666666 0.5
vt 0.8333333333333334 0.6041666666666667
vt 0.8333333333333334 0.45833333333333337
vt 0.9166666666666666 0.45833333333333337
vt 0.7291666666666666 1
vt 0.6458333333333334 1
vt 0.6458333333333334 0.6666666666666667
vt 0.7291666666666666 0.6666666666666667
vt 0.9166666666666666 0.5416666666666667
vt 0.8333333333333334 0.5416666666666667
vt 0.8333333333333334 0.39583333333333337
vt 0.9166666666666666 0.5
vt 0.0625 0.33333333333333337
vt 0.1959 0.33333333333333337
vt 0.1959 0.6666666666666667
vt 0.0625 0.6666666666666667
vt 0.5343749999999999 0.6666666666666667
vt 0.5 0.6666666666666667
vt 0.5 0.33333333333333337
vt 0.5343749999999999 0.33333333333333337
vt 0.5822916666666664 1
vt 0.5479166666666665 1
vt 0.5479166666666665 0.6666666666666667
vt 0.5822916666666664 0.6666666666666667
vt 0.5343749999999999 0.6666666666666667
vt 0.5 0.6666666666666667
vt 0.5 0.33333333333333337
vt 0.5343749999999999 0.33333333333333337
vt 0.5 0.33333333333333337
vt 0.5343749999999999 0.33333333333333337
vt 0.5343749999999999 0.6666666666666667
vt 0.5 0.6666666666666667
vt 0.7119791666666666 0.5208333333333333
vt 0.6458333333333334 0.7083333333333333
vt 0.6458333333333334 0.375
vt 0.7119791666666666 0.375
vt 0.6494791666666666 1
vt 0.5833333333333334 1
vt 0.5833333333333334 0.6666666666666667
vt 0.6494791666666666 0.6666666666666667
vt 0.7119791666666666 0.625
vt 0.6458333333333334 0.625
vt 0.6458333333333334 0.29166666666666663
vt 0.7119791666666666 0.47916666666666663
vt 0.22916666666666666 0.33333333333333337
vt 0.4279916666666666 0.33333333333333337
vt 0.4279916666666666 0.6666666666666667
vt 0.22916666666666666 0.6666666666666667
vn 1 0 0
vn -1 0 0
vn 0 1 0
vn 0 -1 0
vn 0 0 1
vn -0.7808688094430304 0 -0.6246950475544243
vn 0 1 0
vn 0 0 1
vn 0 -1 0
vn -0.9430386845859214 0 -0.33268309150670006
vn 0 1 0
vn 0 0 1
vn 0 -1 0
vn 0.7808688094430304 0 -0.6246950475544243
vn 0 1 0
vn 0 0 1
vn 0 -1 0
vn 0 0 -1
vn 0 1 0
vn 0 0 1
vn 0 -1 0
vn 0.9430386845859214 0 -0.33268309150670006
usemtl m_8b625ff2-efaa-5b53-1f1a-6267e06fce85
f 2/1/1 1/2/1 3/3/1 4/4/1
f 7/5/2 5/6/2 6/7/2 8/8/2
f 5/9/3 10/10/3 9/11/3 6/12/3
f 8/13/4 12/14/4 11/15/4 7/16/4
f 7/17/5 11/18/5 10/19/5 5/20/5
f 6/21/6 9/22/6 12/23/6 8/24/6
f 10/25/7 18/26/7 17/27/7 9/28/7
f 11/29/8 19/30/8 18/31/8 10/32/8
f 12/33/9 20/34/9 19/35/9 11/36/9
f 9/37/10 17/38/10 20/39/10 12/40/10
f 2/41/11 13/42/11 14/43/11 1/44/11
f 1/45/12 14/46/12 15/47/12 3/48/12
f 3/49/13 15/50/13 16/51/13 4/52/13
f 4/53/14 16/54/14 13/55/14 2/56/14
f 21/57/15 17/58/15 18/59/15 22/60/15
f 22/61/16 18/62/16 19/63/16 23/64/16
f 23/65/17 19/66/17 20/67/17 24/68/17
f 24/69/18 20/70/18 17/71/18 21/72/18
f 13/73/19 21/74/19 22/75/19 14/76/19
f 14/77/20 22/78/20 23/79/20 15/80/20
f 15/81/21 23/82/21 24/83/21 16/84/21
f 16/85/22 24/86/22 21/87/22 13/88/22