# Made in Blockbench 4.12.5
mtllib wide_wooden_spike_small.mtl

o cuboid
v 0.546875 1.0069285661467005 0.4692648814049101
v 0.546875 0.9930714338532995 0.5619851185950899
v 0.6875 0.25 0.6875
v 0.6875 0.25 0.3125
v 0.3125 0.25 0.6875
v 0.453125 0.9930714338532995 0.5619851185950899
v 0.453125 1.0069285661467005 0.4692648814049101
v 0.3125 0.25 0.3125
v 0.6875 0 0.3125000000000001
v 0.6875 0 0.6875
v 0.3125 0 0.6875
v 0.3125 0 0.3125000000000001
vt 0.5308146449631093 0.99296875
vt 0.4380569199430179 0.9907019533927587
vt 0.31249999999999933 0.8646592747067682
vt 0.6873432087324138 0.8646592747067682
vt 0.6847072074147156 0.8436457958683325
vt 0.55913774794291 0.9696881275586741
vt 0.4663797974198895 0.9719546678283201
vt 0.3098577142323685 0.8436457958683325
vt 0.5 0.921875
vt 0.59375 0.921875
vt 0.59375 0.9375
vt 0.5 0.9375
vt 0.6875 0.90625
vt 0.6875 0.96875
vt 0.3125 0.96875
vt 0.3125 0.90625
vt 0.6875 0.8647645833333333
vt 0.546875 0.9903645833333333
vt 0.453125 0.9903645833333333
vt 0.3125 0.8647645833333333
vt 0.546875 0.993489583333333
vt 0.453125 0.993489583333333
vt 0.3125 0.8646572916666664
vt 0.6875 0.8646572916666664
vt 0.3125 0.9166666666666666
vt 0.6875 0.9166666666666666
vt 0.6875 0.9583333333333334
vt 0.3125 0.9583333333333334
vt 0.3125 0.9270833333333334
vt 0.6875 0.9270833333333334
vt 0.6875 0.96875
vt 0.3125 0.96875
vt 0.3125 0.9166666666666666
vt 0.6875 0.9166666666666666
vt 0.6875 0.9583333333333334
vt 0.3125 0.9583333333333334
vt 0.3125 0.90625
vt 0.6875 0.90625
vt 0.6875 0.9479166666666666
vt 0.3125 0.9479166666666666
vn 0.9812716153623254 0.19051335557570442 0.02847241176117124
vn -0.9812716153623254 0.19051335557570445 0.028472411761171244
vn 0 0.989015863361917 0.1478094111296095
vn 0 -1 0
vn 0 0.16655427733287667 0.9860322878598466
vn 0 0.20280281493780153 -0.9792195965427286
vn 1 0 0
vn 0 0 1
vn -1 0 0
vn 0 -4.440892098500626e-16 -1
usemtl m_45e72c85-44e8-c935-0176-1255fbfc97f3
f 1/1/1 2/2/1 3/3/1 4/4/1
f 5/5/2 6/6/2 7/7/2 8/8/2
f 6/9/3 2/10/3 1/11/3 7/12/3
f 9/13/4 10/14/4 11/15/4 12/16/4
f 3/17/5 2/18/5 6/19/5 5/20/5
f 7/21/6 1/22/6 4/23/6 8/24/6
f 10/25/7 9/26/7 4/27/7 3/28/7
f 11/29/8 10/30/8 3/31/8 5/32/8
f 12/33/9 11/34/9 5/35/9 8/36/9
f 9/37/10 12/38/10 8/39/10 4/40/10