# Made in Blockbench 4.12.5
mtllib wooden_spike_small.mtl

o cuboid
v 0.546875 1.0069285661467005 0.4692648814049101
v 0.546875 0.9930714338532995 0.5619851185950899
v 0.625 0.25 0.625
v 0.625 0.25 0.375
v 0.375 0.25 0.625
v 0.453125 0.9930714338532995 0.5619851185950899
v 0.453125 1.0069285661467005 0.4692648814049101
v 0.375 0.25 0.375
v 0.625 0 0.37500000000000006
v 0.625 0 0.625
v 0.375 0 0.625
v 0.375 0 0.37500000000000006
vt 0.8865065151984337 0.9304435331397491
vt 0.8727266554428363 0.9458985019204327
vt 0.12555774474726925 0.9564039911221809
vt 0.12555774474726908 0.9147424725730308
vt 0.1263590838731964 0.8938707667244477
vt 0.8735279945687634 0.9043762559261959
vt 0.887307854324361 0.9198312247068795
vt 0.1263590838731965 0.9355322852735979
vt 0.5 0.9302083333333336
vt 0.59375 0.9302083333333336
vt 0.59375 0.9458333333333336
vt 0.5 0.9458333333333336
vt 0.625 0.9250000000000003
vt 0.625 0.966666666666667
vt 0.375 0.966666666666667
vt 0.375 0.9250000000000003
vt 0.625 0.8736270833333337
vt 0.546875 0.997916666666667
vt 0.453125 0.997916666666667
vt 0.375 0.8736270833333337
vt 0.546875 1
vt 0.453125 1
vt 0.375 0.8728708333333334
vt 0.625 0.8728708333333334
vt 0.375 0.9250000000000003
vt 0.625 0.9250000000000003
vt 0.625 0.966666666666667
vt 0.375 0.966666666666667
vt 0.375 0.935416666666667
vt 0.625 0.935416666666667
vt 0.625 0.9770833333333336
vt 0.375 0.9770833333333336
vt 0.375 0.9250000000000003
vt 0.625 0.9250000000000003
vt 0.625 0.966666666666667
vt 0.375 0.966666666666667
vt 0.375 0.9145833333333336
vt 0.625 0.9145833333333336
vt 0.625 0.9562500000000003
vt 0.375 0.9562500000000003
vn 0.9942534778329664 0.10587562321926895 0.015823217908582585
vn -0.9942534778329664 0.10587562321926895 0.015823217908582585
vn 0 0.989015863361917 0.1478094111296095
vn 0 -1 0
vn 0 0.0844999615365714 0.9964234825114862
vn 0 0.12358139511167819 -0.9923344389782365
vn 1 0 0
vn 0 0 1
vn -1 0 0
vn 0 -2.220446049250313e-16 -1
usemtl m_45e72c85-44e8-c935-0176-1255fbfc97f3
f 1/1/1 2/2/1 3/3/1 4/4/1
f 5/5/2 6/6/2 7/7/2 8/8/2
f 6/9/3 2/10/3 1/11/3 7/12/3
f 9/13/4 10/14/4 11/15/4 12/16/4
f 3/17/5 2/18/5 6/19/5 5/20/5
f 7/21/6 1/22/6 4/23/6 8/24/6
f 10/25/7 9/26/7 4/27/7 3/28/7
f 11/29/8 10/30/8 3/31/8 5/32/8
f 12/33/9 11/34/9 5/35/9 8/36/9
f 9/37/10 12/38/10 8/39/10 4/40/10