# Made in Blockbench 4.12.5
mtllib wooden_catwalk_wide.mtl

o cube
v 1 0.8125 0.03125
v 0 0.8125 0.03125
v 0 0.9375 0.03125
v 1 0.9375 0.03125
v 1 0.8125 0.21875
v 1 0.9375 0.21875
v 0 0.8125 0.21875
v 0 0.9375 0.21875
vt 0.3958333333333333 0.44999999999999996
vt 0.3958333333333333 0.6500000000000001
vt 0.375 0.6500000000000001
vt 0.375 0.44999999999999996
vt 0.3645833333333333 0.48750000000000004
vt 0.3958333333333333 0.48750000000000004
vt 0.3958333333333333 0.5125
vt 0.3645833333333333 0.5125
vt 0.3958333333333333 0.725
vt 0.3958333333333333 0.925
vt 0.375 0.925
vt 0.375 0.725
vt 0.4166666666666667 0.5999999999999999
vt 0.4479166666666667 0.5999999999999999
vt 0.4479166666666667 0.625
vt 0.4166666666666667 0.625
vt 0.4375 0.23750000000000016
vt 0.4375 0.4375
vt 0.40625 0.4375
vt 0.40625 0.23750000000000016
vt 0.40625 0.36250000000000004
vt 0.40625 0.5625
vt 0.4375 0.5625
vt 0.4375 0.36250000000000004
vn 0 0 -1
vn 1 0 0
vn 0 0 1
vn -1 0 0
vn 0 1 0
vn 0 -1 0
usemtl m_baff2935-f96f-b66f-483e-7a8f3231b345
f 1/1/1 2/2/1 3/3/1 4/4/1
f 5/5/2 1/6/2 4/7/2 6/8/2
f 7/9/3 5/10/3 6/11/3 8/12/3
f 2/13/4 7/14/4 8/15/4 3/16/4
f 8/17/5 6/18/5 4/19/5 3/20/5
f 2/21/6 1/22/6 5/23/6 7/24/6
o cube
v 1 0.8125 1.78125
v 0 0.8125 1.78125
v 0 0.9375 1.78125
v 1 0.9375 1.78125
v 1 0.8125 1.96875
v 1 0.9375 1.96875
v 0 0.8125 1.96875
v 0 0.9375 1.96875
vt 0.4583333333333333 0.4125
vt 0.4583333333333333 0.6125
vt 0.4375 0.6125
vt 0.4375 0.4125
vt 0.3333333333333333 0.675
vt 0.3645833333333333 0.675
vt 0.3645833333333333 0.7
vt 0.3333333333333333 0.7
vt 0.4375 0.375
vt 0.4375 0.575
vt 0.4166666666666667 0.575
vt 0.4166666666666667 0.375
vt 0.3958333333333333 0.675
vt 0.4270833333333333 0.675
vt 0.4270833333333333 0.7
vt 0.3958333333333333 0.7
vt 0.4166666666666667 0.3375
vt 0.4166666666666667 0.5374999999999999
vt 0.3854166666666667 0.5374999999999999
vt 0.3854166666666667 0.3375
vt 0.4166666666666667 0.475
vt 0.4166666666666667 0.675
vt 0.3854166666666667 0.675
vt 0.3854166666666667 0.475
vn 0 0 -1
vn 1 0 0
vn 0 0 1
vn -1 0 0
vn 0 1 0
vn 0 -1 0
usemtl m_baff2935-f96f-b66f-483e-7a8f3231b345
f 9/25/7 10/26/7 11/27/7 12/28/7
f 13/29/8 9/30/8 12/31/8 14/32/8
f 15/33/9 13/34/9 14/35/9 16/36/9
f 10/37/10 15/38/10 16/39/10 11/40/10
f 16/41/11 14/42/11 12/43/11 11/44/11
f 10/45/12 9/46/12 13/47/12 15/48/12
o cube
v 0.4266786721093964 0.9375 -0.020029527523509616
v 0.4266786721093964 1.0125 -0.020029527523509616
v 0.3367136856683909 1.0125 2.040507429489072
v 0.3367136856683909 0.9375 2.040507429489072
v 0.08695163027292646 0.9375 2.029602582647738
v 0.08695163027292646 1.0125 2.029602582647738
v 0.17691661671393194 1.0125 -0.030934374364843586
v 0.17691661671393194 0.9375 -0.030934374364843586
vt 0.44791666666666674 0.44999999999999996
vt 0.4583333333333333 0.44999999999999996
vt 0.45833333333333326 0.8625
vt 0.4479166666666667 0.8625
vt 0.41666666666666674 0.375
vt 0.4270833333333333 0.375
vt 0.42708333333333326 0.7875
vt 0.4166666666666667 0.7875
vt 0.40625 0.4375
vt 0.40625 0.85
vt 0.3645833333333333 0.85
vt 0.3645833333333333 0.4375
vt 0.4375 0.19999999999999984
vt 0.4375 0.6125
vt 0.3958333333333333 0.6125
vt 0.3958333333333333 0.19999999999999984
vt 0.4375 0.8375
vt 0.4375 0.85
vt 0.3958333333333333 0.85
vt 0.3958333333333333 0.8375
vt 0.4375 0.8375
vt 0.4375 0.85
vt 0.3958333333333333 0.85
vt 0.3958333333333333 0.8375
vn 0.9990482215818579 0 0.043619387365336014
vn -0.9990482215818579 0 -0.043619387365335986
vn 0 1 0
vn 0 -1 0
vn -0.04361938736533589 0 0.9990482215818579
vn 0.04361938736533588 0 -0.9990482215818579
usemtl m_baff2935-f96f-b66f-483e-7a8f3231b345
f 17/49/13 18/50/13 19/51/13 20/52/13
f 21/53/14 22/54/14 23/55/14 24/56/14
f 19/57/15 18/58/15 23/59/15 22/60/15
f 17/61/16 20/62/16 21/63/16 24/64/16
f 20/65/17 19/66/17 22/67/17 21/68/17
f 24/69/18 23/70/18 18/71/18 17/72/18
o cube
v 0.3125 0.84375 0.1875
v 0.1875 0.84375 0.1875
v 0.1875 0.90625 0.1875
v 0.3125 0.90625 0.1875
v 0.3125 0.84375 1.8125
v 0.3125 0.90625 1.8125
v 0.1875 0.84375 1.8125
v 0.1875 0.90625 1.8125
vt 0.3541666666666667 0.9125
vt 0.375 0.9125
vt 0.375 0.925
vt 0.3541666666666667 0.925
vt 0.4479166666666667 0.6125
vt 0.4479166666666667 0.9125
vt 0.4375 0.9125
vt 0.4375 0.6125
vt 0.3541666666666667 0.9125
vt 0.375 0.9125
vt 0.375 0.925
vt 0.3541666666666667 0.925
vt 0.4166666666666667 0.575
vt 0.4166666666666667 0.875
vt 0.40625 0.875
vt 0.40625 0.575
vt 0.3541666666666667 0.6375
vt 0.375 0.6375
vt 0.375 0.9375
vt 0.3541666666666667 0.9375
vt 0.3645833333333333 0.6375
vt 0.3854166666666667 0.6375
vt 0.3854166666666667 0.9375
vt 0.3645833333333333 0.9375
vn 0 0 -1
vn 1 0 0
vn 0 0 1
vn -1 0 0
vn 0 1 0
vn 0 -1 0
usemtl m_baff2935-f96f-b66f-483e-7a8f3231b345
f 25/73/19 26/74/19 27/75/19 28/76/19
f 29/77/20 25/78/20 28/79/20 30/80/20
f 31/81/21 29/82/21 30/83/21 32/84/21
f 26/85/22 31/86/22 32/87/22 27/88/22
f 32/89/23 30/90/23 28/91/23 27/92/23
f 26/93/24 25/94/24 29/95/24 31/96/24
o cube
v 0.9830287992298612 0.9375 -0.06425521937833245
v 0.9830287992298612 1.003125 -0.06425521937833245
v 0.6975027537484983 1.003125 2.1045304148768778
v 0.6975027537484983 0.9375 2.1045304148768778
v 0.44964153840504584 0.9375 2.071898866821865
v 0.44964153840504584 1.003125 2.071898866821865
v 0.7242904012014043 1.003125 -0.014266362318861026
v 0.7270096968726554 0.9375 -0.03492146359748227
vt 0.3998912853562155 0.35035137844396347
vt 0.4103016064709977 0.3499151347351821
vt 0.4230253813104512 0.7871486215560366
vt 0.4126150601956689 0.7875848652648179
vt 0.4263826865004778 0.3790791590778839
vt 0.43679300761525996 0.3795154027866652
vt 0.42455393588990487 0.8000927922367126
vt 0.41365891166102425 0.8163126458987383
vt 0.4270833333333333 0.22499999999999998
vt 0.4270833333333333 0.6624999999999999
vt 0.3854166666666667 0.64583375
vt 0.3854166666666667 0.22499999999999998
vt 0.4270833333333333 0.25
vt 0.4270833333333333 0.6875
vt 0.3854166666666667 0.6875
vt 0.3854166666666667 0.25
vt 0.4270833333333333 0.8875
vt 0.4270833333333333 0.9
vt 0.3854166666666667 0.9
vt 0.3854166666666667 0.8875
vt 0.44577812499999997 0.91734375
vt 0.4501697916666667 0.9375
vt 0.40625 0.9375
vt 0.40625 0.9297475
vn 0.9914448613738104 0 0.13052619222005157
vn -0.9914448613738105 0 -0.13052619222005157
vn 0 1 0
vn 0 -1 0
vn -0.1305261922200512 0 0.9914448613738106
vn -0.18163569909047358 0.2883749003642386 -0.9401321128734144
usemtl m_baff2935-f96f-b66f-483e-7a8f3231b345
f 33/97/25 34/98/25 35/99/25 36/100/25
f 37/101/26 38/102/26 39/103/26 40/104/26
f 35/105/27 34/106/27 39/107/27 38/108/27
f 33/109/28 36/110/28 37/111/28 40/112/28
f 36/113/29 35/114/29 38/115/29 37/116/29
f 40/117/30 39/118/30 34/119/30 33/120/30