# Made in Blockbench 4.12.5
mtllib wooden_catwalk_wide_2.mtl

o cube
v 1 0.8125 0.03125
v 0 0.8125 0.03125
v 0 0.9375 0.03125
v 1 0.9375 0.03125
v 1 0.8125 0.21875
v 1 0.9375 0.21875
v 0 0.8125 0.21875
v 0 0.9375 0.21875
vt 0.3958333333333333 0.44999999999999996
vt 0.3958333333333333 0.6500000000000001
vt 0.375 0.6500000000000001
vt 0.375 0.44999999999999996
vt 0.3645833333333333 0.48750000000000004
vt 0.3958333333333333 0.48750000000000004
vt 0.3958333333333333 0.5125
vt 0.3645833333333333 0.5125
vt 0.3958333333333333 0.725
vt 0.3958333333333333 0.925
vt 0.375 0.925
vt 0.375 0.725
vt 0.4166666666666667 0.5999999999999999
vt 0.4479166666666667 0.5999999999999999
vt 0.4479166666666667 0.625
vt 0.4166666666666667 0.625
vt 0.4375 0.23750000000000016
vt 0.4375 0.4375
vt 0.40625 0.4375
vt 0.40625 0.23750000000000016
vt 0.40625 0.36250000000000004
vt 0.40625 0.5625
vt 0.4375 0.5625
vt 0.4375 0.36250000000000004
vn 0 0 -1
vn 1 0 0
vn 0 0 1
vn -1 0 0
vn 0 1 0
vn 0 -1 0
usemtl m_75d1a857-5101-2b0d-9fa2-b30438107e0c
f 1/1/1 2/2/1 3/3/1 4/4/1
f 5/5/2 1/6/2 4/7/2 6/8/2
f 7/9/3 5/10/3 6/11/3 8/12/3
f 2/13/4 7/14/4 8/15/4 3/16/4
f 8/17/5 6/18/5 4/19/5 3/20/5
f 2/21/6 1/22/6 5/23/6 7/24/6
o cube
v 1 0.8125 1.78125
v 0 0.8125 1.78125
v 0 0.9375 1.78125
v 1 0.9375 1.78125
v 1 0.8125 1.96875
v 1 0.9375 1.96875
v 0 0.8125 1.96875
v 0 0.9375 1.96875
vt 0.4583333333333333 0.4125
vt 0.4583333333333333 0.6125
vt 0.4375 0.6125
vt 0.4375 0.4125
vt 0.3333333333333333 0.675
vt 0.3645833333333333 0.675
vt 0.3645833333333333 0.7
vt 0.3333333333333333 0.7
vt 0.4375 0.375
vt 0.4375 0.575
vt 0.4166666666666667 0.575
vt 0.4166666666666667 0.375
vt 0.3958333333333333 0.675
vt 0.4270833333333333 0.675
vt 0.4270833333333333 0.7
vt 0.3958333333333333 0.7
vt 0.4166666666666667 0.3375
vt 0.4166666666666667 0.5374999999999999
vt 0.3854166666666667 0.5374999999999999
vt 0.3854166666666667 0.3375
vt 0.4166666666666667 0.475
vt 0.4166666666666667 0.675
vt 0.3854166666666667 0.675
vt 0.3854166666666667 0.475
vn 0 0 -1
vn 1 0 0
vn 0 0 1
vn -1 0 0
vn 0 1 0
vn 0 -1 0
usemtl m_75d1a857-5101-2b0d-9fa2-b30438107e0c
f 9/25/7 10/26/7 11/27/7 12/28/7
f 13/29/8 9/30/8 12/31/8 14/32/8
f 15/33/9 13/34/9 14/35/9 16/36/9
f 10/37/10 15/38/10 16/39/10 11/40/10
f 16/41/11 14/42/11 12/43/11 11/44/11
f 10/45/12 9/46/12 13/47/12 15/48/12
o cube
v 0.35202261265462365 0.9375 -0.020030581682013215
v 0.35202261265462365 1.0062500000000003 -0.020030581682013215
v 0.17226389323757865 1.0062500000000003 2.0346209831322124
v 0.17226389323757865 0.9375 2.0346209831322124
v -0.014522612654623623 0.9375 2.0182792813670263
v -0.014522612654623623 1.0062500000000003 2.0182792813670263
v 0.16523610676242137 1.0062500000000003 -0.03637228344719934
v 0.16523610676242137 0.9375 -0.03637228344719934
vt 0.44791666666666674 0.44999999999999996
vt 0.4583333333333333 0.44999999999999996
vt 0.45833333333333326 0.8625
vt 0.4479166666666667 0.8625
vt 0.41666666666666674 0.375
vt 0.4270833333333333 0.375
vt 0.42708333333333326 0.7875
vt 0.4166666666666667 0.7875
vt 0.4479166666666667 0.5625
vt 0.4479166666666667 0.975
vt 0.4166666666666667 0.975
vt 0.4166666666666667 0.5625
vt 0.40625 0.025000000000000022
vt 0.40625 0.4375
vt 0.375 0.4375
vt 0.375 0.025000000000000022
vt 0.4375 0.8375
vt 0.4375 0.85
vt 0.3958333333333333 0.85
vt 0.3958333333333333 0.8375
vt 0.4375 0.8375
vt 0.4375 0.85
vt 0.3958333333333333 0.85
vt 0.3958333333333333 0.8375
vn 0.9961946980917457 0 0.08715574274765817
vn -0.9961946980917457 0 -0.08715574274765817
vn 0 1 0
vn 0 -1 0
vn -0.08715574274765932 0 0.9961946980917455
vn 0.08715574274765932 0 -0.9961946980917455
usemtl m_75d1a857-5101-2b0d-9fa2-b30438107e0c
f 17/49/13 18/50/13 19/51/13 20/52/13
f 21/53/14 22/54/14 23/55/14 24/56/14
f 19/57/15 18/58/15 23/59/15 22/60/15
f 17/61/16 20/62/16 21/63/16 24/64/16
f 20/65/17 19/66/17 22/67/17 21/68/17
f 24/69/18 23/70/18 18/71/18 17/72/18
o cube
v 0.25 0.84375 0.1875
v 0.125 0.84375 0.1875
v 0.125 0.90625 0.1875
v 0.25 0.90625 0.1875
v 0.25 0.84375 1.8125
v 0.25 0.90625 1.8125
v 0.125 0.84375 1.8125
v 0.125 0.90625 1.8125
vt 0.3541666666666667 0.9125
vt 0.375 0.9125
vt 0.375 0.925
vt 0.3541666666666667 0.925
vt 0.4479166666666667 0.6125
vt 0.4479166666666667 0.9125
vt 0.4375 0.9125
vt 0.4375 0.6125
vt 0.3541666666666667 0.9125
vt 0.375 0.9125
vt 0.375 0.925
vt 0.3541666666666667 0.925
vt 0.4166666666666667 0.575
vt 0.4166666666666667 0.875
vt 0.40625 0.875
vt 0.40625 0.575
vt 0.3541666666666667 0.6375
vt 0.375 0.6375
vt 0.375 0.9375
vt 0.3541666666666667 0.9375
vt 0.3645833333333333 0.6375
vt 0.3854166666666667 0.6375
vt 0.3854166666666667 0.9375
vt 0.3645833333333333 0.9375
vn 0 0 -1
vn 1 0 0
vn 0 0 1
vn -1 0 0
vn 0 1 0
vn 0 -1 0
usemtl m_75d1a857-5101-2b0d-9fa2-b30438107e0c
f 25/73/19 26/74/19 27/75/19 28/76/19
f 29/77/20 25/78/20 28/79/20 30/80/20
f 31/81/21 29/82/21 30/83/21 32/84/21
f 26/85/22 31/86/22 32/87/22 27/88/22
f 32/89/23 30/90/23 28/91/23 27/92/23
f 26/93/24 25/94/24 29/95/24 31/96/24
o cube
v 0.5464529997577297 0.9375 -0.04886450478095217
v 0.5464529997577297 1.009375 -0.04886450478095217
v 0.6364179861987351 1.009375 2.01167245223163
v 0.6364179861987351 0.9375 2.01167245223163
v 0.4490964446521368 0.9375 2.01985108736263
v 0.4490964446521368 1.009375 2.01985108736263
v 0.35913145821113124 1.009375 -0.04068586964995169
v 0.35913145821113124 0.9375 -0.04068586964995169
vt 0.44791666666666674 0.44999999999999996
vt 0.4583333333333333 0.44999999999999996
vt 0.45833333333333326 0.8625
vt 0.4479166666666667 0.8625
vt 0.41666666666666674 0.375
vt 0.4270833333333333 0.375
vt 0.42708333333333326 0.7875
vt 0.4166666666666667 0.7875
vt 0.4270833333333333 0.17500000000000016
vt 0.4270833333333333 0.5875000000000001
vt 0.3958333333333333 0.5875000000000001
vt 0.3958333333333333 0.17500000000000016
vt 0.3958333333333333 0.5125
vt 0.3958333333333333 0.925
vt 0.3645833333333333 0.925
vt 0.3645833333333333 0.5125
vt 0.4375 0.8375
vt 0.4375 0.85
vt 0.3958333333333333 0.85
vt 0.3958333333333333 0.8375
vt 0.4375 0.8375
vt 0.4375 0.85
vt 0.3958333333333333 0.85
vt 0.3958333333333333 0.8375
vn 0.9990482215818577 0 -0.04361938736533598
vn -0.9990482215818577 0 0.04361938736533601
vn 0 1 0
vn 0 -1 0
vn 0.0436193873653347 0 0.9990482215818579
vn -0.04361938736533587 0 -0.9990482215818578
usemtl m_75d1a857-5101-2b0d-9fa2-b30438107e0c
f 33/97/25 34/98/25 35/99/25 36/100/25
f 37/101/26 38/102/26 39/103/26 40/104/26
f 35/105/27 34/106/27 39/107/27 38/108/27
f 33/109/28 36/110/28 37/111/28 40/112/28
f 36/113/29 35/114/29 38/115/29 37/116/29
f 40/117/30 39/118/30 34/119/30 33/120/30
o cube
v 0.8625375851561468 0.9375 -0.10755768413244421
v 0.8625375851561468 1.0031249999999998 -0.10755768413244421
v 0.9960812653886462 1.0031249999999998 2.0758621874153897
v 0.9960812653886462 0.9375 2.0758621874153897
v 0.7465475657831794 0.9375 2.0911243222991036
v 0.7465475657831794 1.0031249999999998 2.0911243222991036
v 0.6142757301243229 1.0031249999999998 -0.07150107428160762
v 0.6130038855506801 0.9375 -0.09229554924873001
vt 0.40625 0.35
vt 0.4166666666666667 0.35
vt 0.4166666666666667 0.7875
vt 0.40625 0.7875
vt 0.4383679687499999 0.8114584375
vt 0.42795130208333326 0.8114584375
vt 0.4279513020833335 0.37812468749999995
vt 0.43836796875000017 0.3739584375
vt 0.40625 0.5374999999999999
vt 0.40625 0.975
vt 0.3645833333333333 0.97083375
vt 0.3645833333333333 0.5374999999999999
vt 0.4479166666666667 0.07499999999999984
vt 0.4479166666666667 0.5125
vt 0.40625 0.5125
vt 0.40625 0.07499999999999984
vt 0.4270833333333333 0.8875
vt 0.4270833333333333 0.9
vt 0.3854166666666667 0.9
vt 0.3854166666666667 0.8875
vt 0.43735624999999995 0.92432875
vt 0.43764479166666664 0.9375
vt 0.3958333333333333 0.9375
vt 0.3958333333333333 0.9256375
vn 0.998134798421867 0 -0.06104853953485687
vn -0.998134798421867 0 0.061048539534856845
vn 0 1 0
vn 0 -1 0
vn 0.06104853953485544 0 0.998134798421867
vn -0.1370341485779738 0.3016291915021717 -0.943526084937378
usemtl m_75d1a857-5101-2b0d-9fa2-b30438107e0c
f 41/121/31 42/122/31 43/123/31 44/124/31
f 45/125/32 46/126/32 47/127/32 48/128/32
f 43/129/33 42/130/33 47/131/33 46/132/33
f 41/133/34 44/134/34 45/135/34 48/136/34
f 44/137/35 43/138/35 46/139/35 45/140/35
f 48/141/36 47/142/36 42/143/36 41/144/36