# Made in Blockbench 4.8.3
mtllib wood_nail_3.mtl

o cuboid
v 0.43125510827688696 0.4610634272803688 0.8702734239932348
v 0.5178599943073656 0.48071703853707004 0.9582411980938581
v 0.5437607477614108 -0.01882596227398261 0.999943312083455
v 0.5004583047461717 -0.02865276790233323 0.9559594250331434
v 0.4995416952538284 -0.021347232097666778 1.0440405749668566
v 0.4294218892922005 0.4756744988897017 1.0464357238606614
v 0.34281700326172193 0.45602088763300047 0.9584679497600382
v 0.4562392522385891 -0.0311740377260174 1.0000566879165451
vt 0.4375 0.8125
vt 0.4166666666666667 0.8125
vt 0.421875 0.712305
vt 0.4322916666666667 0.712305
vt 0.4322916666666667 0.712305
vt 0.4375 0.8125
vt 0.4166666666666667 0.8125
vt 0.421875 0.712305
vt 0.4166666666666667 0.5
vt 0.4375 0.5
vt 0.4375 0.525
vt 0.4166666666666667 0.525
vt 0.4375 0.5
vt 0.4375 0.5125
vt 0.4270833333333333 0.5125
vt 0.4270833333333333 0.5
vt 0.4322916666666667 0.712305
vt 0.4375 0.8125
vt 0.4166666666666667 0.8125
vt 0.421875 0.712305
vt 0.4375 0.8125
vt 0.4166666666666667 0.8125
vt 0.421875 0.712305
vt 0.4322916666666667 0.712305
vn 0.7148177600858426 -0.02128926314154096 -0.6989866501877908
vn -0.6974362998585738 -0.10181277829607142 0.709377731406348
vn -0.13932300243091242 0.9867379261700708 -0.08329085214610366
vn 0.13932300243091308 -0.9867379261700706 0.08329085214610381
vn 0.700180568609121 0.0953716784112017 0.7075672507254971
vn -0.6827991083818531 -0.21847371984881428 -0.6971761695069393
usemtl m_76417ea8-6586-1fa1-11b8-dcb6af6895fd
f 1/1/1 2/2/1 3/3/1 4/4/1
f 5/5/2 6/6/2 7/7/2 8/8/2
f 6/9/3 2/10/3 1/11/3 7/12/3
f 4/13/4 3/14/4 5/15/4 8/16/4
f 3/17/5 2/18/5 6/19/5 5/20/5
f 7/21/6 1/22/6 4/23/6 8/24/6