# Made in Blockbench 4.8.3
mtllib wooden_spike_small_2.mtl

o cuboid
v 0.515538942088885 1.128418649869368 0.5312112998247476
v 0.5141550781590875 1.1496652429260943 0.5008563541224148
v 0.625 0.125 0.625
v 0.625 0.125 0.375
v 0.48584492184091266 1.1003347570739057 0.5303936458775852
v 0.4844610579111152 1.121581350130632 0.5000387001752524
v 0.375 0.125 0.625
v 0.375 0.125 0.375
v 0.625 0 0.625
v 0.375 0 0.625
v 0.625 0 0.37500000000000006
v 0.375 0 0.37500000000000006
vt 0.4373702745396282 0.6125
vt 0.4323082475303741 0.6082460563581638
vt 0.4166666666666667 0.40637245686319856
vt 0.4583117398473647 0.40637245686319856
vt 0.41298335123185853 0.4370965970432362
vt 0.3986583733881886 0.6335788922300885
vt 0.393588514229916 0.637818549739664
vt 0.37168367150893866 0.43757549833976095
vt 0.4791666666666667 0.5147216449700033
vt 0.485548324872804 0.5175849493216499
vt 0.4855483248728039 0.525
vt 0.4791666666666667 0.5221366956483534
vt 0.4583333333333333 0.5625
vt 0.4583333333333333 0.6125
vt 0.4166666666666667 0.6125
vt 0.4166666666666667 0.5625
vt 0.45810671291091803 0.41095507762182004
vt 0.4397601585904756 0.6125
vt 0.4347838646630519 0.6069156829191517
vt 0.4166666666666667 0.41095507762182015
vt 0.43893579015642564 0.594690601080534
vt 0.43398249848542286 0.6003060176855726
vt 0.414998956843732 0.39389933547469314
vt 0.45653386046786687 0.3937692555196304
vt 0.4166666666666667 0.575
vt 0.4583333333333333 0.575
vt 0.4583333333333333 0.6
vt 0.4166666666666667 0.6
vt 0.4166666666666667 0.6375
vt 0.4583333333333333 0.6375
vt 0.4583333333333333 0.6625
vt 0.4166666666666667 0.6625
vt 0.4166666666666667 0.575
vt 0.4583333333333333 0.575
vt 0.4583333333333333 0.6
vt 0.4166666666666667 0.6
vt 0.4166666666666667 0.5125
vt 0.4583333333333333 0.5125
vt 0.4583333333333333 0.5375
vt 0.4166666666666667 0.5375
vn 0.9932368955942571 0.11140647247777784 0.032696591876542454
vn -0.9833889394907804 0.12456612422699122 0.13202073466794498
vn -0.612690540764891 0.6340828970575936 0.4717511853893687
vn 0 -1 0
vn -0.10417254329012579 0.08128562984372381 0.9912319242263014
vn -0.07963213225822953 0.11303271174514243 -0.9903950371379835
vn 1 0 0
vn 0 0 1
vn -1 0 0
vn 0 -4.440892098500626e-16 -1
usemtl m_5d1a7c59-5bee-36de-5599-c8f082c6112d
f 2/1/1 1/2/1 3/3/1 4/4/1
f 7/5/2 5/6/2 6/7/2 8/8/2
f 5/9/3 1/10/3 2/11/3 6/12/3
f 11/13/4 9/14/4 10/15/4 12/16/4
f 3/17/5 1/18/5 5/19/5 7/20/5
f 6/21/6 2/22/6 4/23/6 8/24/6
f 9/25/7 11/26/7 4/27/7 3/28/7
f 10/29/8 9/30/8 3/31/8 7/32/8
f 12/33/9 10/34/9 7/35/9 8/36/9
f 11/37/10 12/38/10 8/39/10 4/40/10