# Made in Blockbench 4.8.3
mtllib wooden_spike_small.mtl

o cuboid
v 0.546875 0.9930714338532995 0.5619851185950899
v 0.546875 1.0069285661467005 0.4692648814049101
v 0.625 0.25 0.625
v 0.625 0.25 0.375
v 0.453125 0.9930714338532995 0.5619851185950899
v 0.453125 1.0069285661467005 0.4692648814049101
v 0.375 0.25 0.625
v 0.375 0.25 0.375
v 0.625 0 0.625
v 0.375 0 0.625
v 0.625 0 0.37500000000000006
v 0.375 0 0.37500000000000006
vt 0.43131500359560815 0.5894039026539148
vt 0.4158425350621502 0.5867944862827964
vt 0.4043622704799865 0.4374639992500814
vt 0.44602251178853214 0.43707253075032493
vt 0.4083473852725219 0.4683685011137445
vt 0.39686712069035823 0.6176989881464595
vt 0.38139465215690027 0.620308404517578
vt 0.3666871439639763 0.46797703261398804
vt 0.4791666666666667 0.525
vt 0.4895833333333333 0.525
vt 0.4895833333333333 0.5375
vt 0.4791666666666667 0.5375
vt 0.4583333333333333 0.5625
vt 0.4583333333333333 0.6125
vt 0.4166666666666667 0.6125
vt 0.4166666666666667 0.5625
vt 0.4583333333333333 0.4383524999999999
vt 0.4453125 0.5875
vt 0.4296875 0.5875
vt 0.4166666666666667 0.4383524999999999
vt 0.4453125 0.5875
vt 0.4296875 0.5875
vt 0.4166666666666667 0.434945
vt 0.4583333333333333 0.434945
vt 0.4166666666666667 0.5625
vt 0.4583333333333333 0.5625
vt 0.4583333333333333 0.6125
vt 0.4166666666666667 0.6125
vt 0.4166666666666667 0.625
vt 0.4583333333333333 0.625
vt 0.4583333333333333 0.675
vt 0.4166666666666667 0.675
vt 0.4166666666666667 0.5625
vt 0.4583333333333333 0.5625
vt 0.4583333333333333 0.6125
vt 0.4166666666666667 0.6125
vt 0.4166666666666667 0.5
vt 0.4583333333333333 0.5
vt 0.4583333333333333 0.55
vt 0.4166666666666667 0.55
vn 0.9942534778329664 0.10587562321926895 0.015823217908582585
vn -0.9942534778329664 0.10587562321926895 0.015823217908582585
vn 0 0.989015863361917 0.1478094111296095
vn 0 -1 0
vn 0 0.0844999615365714 0.9964234825114862
vn 0 0.12358139511167819 -0.9923344389782365
vn 1 0 0
vn 0 0 1
vn -1 0 0
vn 0 -2.220446049250313e-16 -1
usemtl m_5d1a7c59-5bee-36de-5599-c8f082c6112d
f 2/1/1 1/2/1 3/3/1 4/4/1
f 7/5/2 5/6/2 6/7/2 8/8/2
f 5/9/3 1/10/3 2/11/3 6/12/3
f 11/13/4 9/14/4 10/15/4 12/16/4
f 3/17/5 1/18/5 5/19/5 7/20/5
f 6/21/6 2/22/6 4/23/6 8/24/6
f 9/25/7 11/26/7 4/27/7 3/28/7
f 10/29/8 9/30/8 3/31/8 7/32/8
f 12/33/9 10/34/9 7/35/9 8/36/9
f 11/37/10 12/38/10 8/39/10 4/40/10