# Made in Blockbench 4.8.3
mtllib wooden_catwalk.mtl

o cube
v 1 0.9375 0.28125
v 1 0.9375 0.15625
v 1 0.8125 0.28125
v 1 0.8125 0.15625
v 0 0.9375 0.15625
v 0 0.9375 0.28125
v 0 0.8125 0.15625
v 0 0.8125 0.28125
vt 0.375 0.44999999999999996
vt 0.375 0.65
vt 0.3958333333333333 0.65
vt 0.3958333333333333 0.44999999999999996
vt 0.3645833333333333 0.5125
vt 0.3854166666666667 0.5125
vt 0.3854166666666667 0.48750000000000004
vt 0.3645833333333333 0.48750000000000004
vt 0.375 0.725
vt 0.375 0.925
vt 0.3958333333333333 0.925
vt 0.3958333333333333 0.725
vt 0.4166666666666667 0.625
vt 0.4375 0.625
vt 0.4375 0.6
vt 0.4166666666666667 0.6
vt 0.40625 0.23750000000000004
vt 0.40625 0.4375
vt 0.4270833333333333 0.4375
vt 0.4270833333333333 0.23750000000000004
vt 0.4270833333333333 0.36250000000000004
vt 0.4270833333333333 0.5625
vt 0.40625 0.5625
vt 0.40625 0.36250000000000004
vn 0 0 -1
vn 1 0 0
vn 0 0 1
vn -1 0 0
vn 0 1 0
vn 0 -1 0
usemtl m_9fd43387-75dd-7ad9-694c-46b2ac5062d3
f 4/4/1 7/3/1 5/2/1 2/1/1
f 3/8/2 4/7/2 2/6/2 1/5/2
f 8/12/3 3/11/3 1/10/3 6/9/3
f 7/16/4 8/15/4 6/14/4 5/13/4
f 6/20/5 1/19/5 2/18/5 5/17/5
f 7/24/6 4/23/6 3/22/6 8/21/6
o cube
v 1 0.9375 0.84375
v 1 0.9375 0.71875
v 1 0.8125 0.84375
v 1 0.8125 0.71875
v 0 0.9375 0.71875
v 0 0.9375 0.84375
v 0 0.8125 0.71875
v 0 0.8125 0.84375
vt 0.4375 0.4125
vt 0.4375 0.6125
vt 0.4583333333333333 0.6125
vt 0.4583333333333333 0.4125
vt 0.3333333333333333 0.7
vt 0.3541666666666667 0.7
vt 0.3541666666666667 0.675
vt 0.3333333333333333 0.675
vt 0.4166666666666667 0.375
vt 0.4166666666666667 0.575
vt 0.4375 0.575
vt 0.4375 0.375
vt 0.3958333333333333 0.7
vt 0.4166666666666667 0.7
vt 0.4166666666666667 0.675
vt 0.3958333333333333 0.675
vt 0.3854166666666667 0.3375
vt 0.3854166666666667 0.5375
vt 0.40625 0.5375
vt 0.40625 0.3375
vt 0.3854166666666667 0.475
vt 0.3854166666666667 0.675
vt 0.40625 0.675
vt 0.40625 0.475
vn 0 0 -1
vn 1 0 0
vn 0 0 1
vn -1 0 0
vn 0 1 0
vn 0 -1 0
usemtl m_9fd43387-75dd-7ad9-694c-46b2ac5062d3
f 12/28/7 15/27/7 13/26/7 10/25/7
f 11/32/8 12/31/8 10/30/8 9/29/8
f 16/36/9 11/35/9 9/34/9 14/33/9
f 15/40/10 16/39/10 14/38/10 13/37/10
f 14/44/11 9/43/11 10/42/11 13/41/11
f 15/48/12 12/47/12 11/46/12 16/45/12
o cube
v 0.3222053109971277 1 0.909788167652825
v 0.24049680217119818 1 -0.024144361808186465
v 0.3222053109971277 0.9375 0.909788167652825
v 0.24049680217119818 0.9375 -0.024144361808186465
v 0.07315663647419132 1 0.9315771033397395
v -0.00855187235173821 1 -0.0023554261212719307
v 0.07315663647419132 0.9375 0.9315771033397395
v -0.00855187235173821 0.9375 -0.0023554261212719307
vt 0.4375 0.575
vt 0.4479166666666667 0.575
vt 0.4479166666666667 0.7625
vt 0.4375 0.7625
vt 0.40625 0.5
vt 0.4166666666666667 0.5
vt 0.4166666666666667 0.6875
vt 0.40625 0.6875
vt 0.4375 0.32499999999999996
vt 0.4375 0.5125
vt 0.3958333333333333 0.5125
vt 0.3958333333333333 0.32499999999999996
vt 0.4270833333333333 0.32499999999999996
vt 0.4270833333333333 0.5125
vt 0.40625 0.5125
vt 0.40625 0.32499999999999996
vt 0.4270833333333333 0.85
vt 0.4270833333333333 0.8625
vt 0.40625 0.8625
vt 0.40625 0.85
vt 0.4270833333333333 0.85
vt 0.4270833333333333 0.8625
vt 0.40625 0.8625
vt 0.40625 0.85
vn 0.9961946980917455 0 -0.08715574274765818
vn -0.9961946980917455 0 0.08715574274765818
vn 0 1 0
vn 0 -1 0
vn 0.08715574274765818 0 0.9961946980917455
vn -0.08715574274765818 0 -0.9961946980917455
usemtl m_9fd43387-75dd-7ad9-694c-46b2ac5062d3
f 20/49/13 18/50/13 17/51/13 19/52/13
f 23/53/14 21/54/14 22/55/14 24/56/14
f 17/57/15 18/58/15 22/59/15 21/60/15
f 20/61/16 19/62/16 23/63/16 24/64/16
f 19/65/17 17/66/17 21/67/17 23/68/17
f 24/69/18 22/70/18 18/71/18 20/72/18
o cube
v 0.8273107094643878 1 0.9285406115861513
v 0.9901058760271351 1 0.005283343137206242
v 0.8273107094643878 0.9375 0.9285406115861513
v 0.9901058760271351 0.9375 0.005283343137206242
v 0.5811087712113359 1 0.8851285671694187
v 0.743903937774083 1 -0.038128701279526334
v 0.5811087712113359 0.9375 0.8851285671694187
v 0.743903937774083 0.9375 -0.038128701279526334
vt 0.4270833333333333 0.6125
vt 0.4375 0.6125
vt 0.4375 0.8
vt 0.4270833333333333 0.8
vt 0.41666666666666674 0.55
vt 0.4270833333333333 0.55
vt 0.42708333333333326 0.7375
vt 0.4166666666666667 0.7375
vt 0.4166666666666667 0.32499999999999996
vt 0.4166666666666667 0.5125
vt 0.375 0.5125
vt 0.375 0.32499999999999996
vt 0.40625 0.3375
vt 0.40625 0.525
vt 0.3854166666666667 0.525
vt 0.3854166666666667 0.3375
vt 0.40625 0.8625
vt 0.40625 0.875
vt 0.3854166666666667 0.875
vt 0.3854166666666667 0.8625
vt 0.40625 0.8625
vt 0.40625 0.875
vt 0.3854166666666667 0.875
vt 0.3854166666666667 0.8625
vn 0.984807753012208 0 0.17364817766693033
vn -0.984807753012208 0 -0.17364817766693033
vn 0 1 0
vn 0 -1 0
vn -0.17364817766693033 0 0.984807753012208
vn 0.17364817766693033 0 -0.984807753012208
usemtl m_9fd43387-75dd-7ad9-694c-46b2ac5062d3
f 28/73/19 26/74/19 25/75/19 27/76/19
f 31/77/20 29/78/20 30/79/20 32/80/20
f 25/81/21 26/82/21 30/83/21 29/84/21
f 28/85/22 27/86/22 31/87/22 32/88/22
f 27/89/23 25/90/23 29/91/23 31/92/23
f 32/93/24 30/94/24 26/95/24 28/96/24
o cube
v 0.593613225214897 1 0.9686246690005906
v 0.593613225214897 1 0.031124669000590632
v 0.593613225214897 0.9375 0.9686246690005906
v 0.593613225214897 0.9375 0.031124669000590632
v 0.343613225214897 1 0.9686246690005906
v 0.343613225214897 1 0.09362466900059063
v 0.343613225214897 0.9375 0.9686246690005906
v 0.343613225214897 0.9375 0.09362466900059063
vt 0.4075520833333333 0.5015625
vt 0.41796875 0.5015625
vt 0.41796875 0.6890625
vt 0.4075520833333333 0.6890625
vt 0.4075520833333333 0.5015625
vt 0.41796875 0.5015625
vt 0.41796875 0.6765625
vt 0.4075520833333333 0.6890625
vt 0.4270833333333333 0.375
vt 0.4270833333333333 0.5625
vt 0.3854166666666667 0.55
vt 0.3854166666666667 0.375
vt 0.4166666666666667 0.375
vt 0.4166666666666667 0.5625
vt 0.3958333333333333 0.5625
vt 0.3958333333333333 0.375
vt 0.4166666666666667 0.9
vt 0.4166666666666667 0.9125
vt 0.3958333333333333 0.9125
vt 0.3958333333333333 0.9
vt 0.42488333333333334 0.90822875
vt 0.42954270833333336 0.925
vt 0.40625 0.925
vt 0.40625 0.9156825
vn 1 0 0
vn -1 0 0
vn 0 1 0
vn 0 -1 0
vn 0 0 1
vn -0.24253562503633297 0 -0.9701425001453319
usemtl m_9fd43387-75dd-7ad9-694c-46b2ac5062d3
f 36/97/25 34/98/25 33/99/25 35/100/25
f 39/101/26 37/102/26 38/103/26 40/104/26
f 33/105/27 34/106/27 38/107/27 37/108/27
f 36/109/28 35/110/28 39/111/28 40/112/28
f 35/113/29 33/114/29 37/115/29 39/116/29
f 40/117/30 38/118/30 34/119/30 36/120/30