# Made in Blockbench 4.8.3
mtllib wooden_catwalk_2.mtl

o cube
v 0.3857854964543939 1 0.9165781802094821
v 0.4266786721093964 1 -0.020029527523509616
v 0.3857854964543939 0.9375 0.9165781802094821
v 0.4266786721093964 0.9375 -0.020029527523509616
v 0.13602344105892944 1 0.9056733333681481
v 0.17691661671393194 1 -0.030934374364843586
v 0.13602344105892944 0.9375 0.9056733333681481
v 0.17691661671393194 0.9375 -0.030934374364843586
vt 0.4375 0.575
vt 0.4479166666666667 0.575
vt 0.4479166666666667 0.7625
vt 0.4375 0.7625
vt 0.40625 0.5
vt 0.4166666666666667 0.5
vt 0.4166666666666667 0.6875
vt 0.40625 0.6875
vt 0.4375 0.3125
vt 0.4375 0.5
vt 0.3958333333333333 0.5
vt 0.3958333333333333 0.3125
vt 0.4270833333333333 0.32499999999999996
vt 0.4270833333333333 0.5125
vt 0.40625 0.5125
vt 0.40625 0.32499999999999996
vt 0.4270833333333333 0.85
vt 0.4270833333333333 0.8625
vt 0.40625 0.8625
vt 0.40625 0.85
vt 0.4270833333333333 0.85
vt 0.4270833333333333 0.8625
vt 0.40625 0.8625
vt 0.40625 0.85
vn 0.9990482215818578 0 0.043619387365336
vn -0.9990482215818578 0 -0.043619387365336
vn 0 1 0
vn 0 -1 0
vn -0.043619387365336 0 0.9990482215818578
vn 0.043619387365336 0 -0.9990482215818578
usemtl m_6064681d-3998-0087-00da-39601c31576b
f 4/1/1 2/2/1 1/3/1 3/4/1
f 7/5/2 5/6/2 6/7/2 8/8/2
f 1/9/3 2/10/3 6/11/3 5/12/3
f 4/13/4 3/14/4 7/15/4 8/16/4
f 3/17/5 1/18/5 5/19/5 7/20/5
f 8/21/6 6/22/6 2/23/6 4/24/6
o cube
v 0.6992212645994245 1 0.9848793009241357
v 1.0187211765727147 1 -0.02844495924585544
v 0.6992212645994245 0.9375 0.9848793009241357
v 1.0187211765727147 0.9375 -0.02844495924585544
v 0.46079202691236776 1 0.9097028510480674
v 0.7589919447541053 1 -0.03606645844392442
v 0.46079202691236776 0.9375 0.9097028510480674
v 0.780291938885658 0.9375 -0.10362140912192375
vt 0.40625 0.5
vt 0.4166666666666667 0.5
vt 0.4166666666666667 0.6875
vt 0.40625 0.6875
vt 0.40625 0.5125
vt 0.4166666666666667 0.5125
vt 0.4166666666666667 0.6875
vt 0.40625 0.7
vt 0.4270833333333333 0.35
vt 0.4270833333333333 0.5625
vt 0.3854166666666667 0.5483337500000001
vt 0.3854166666666667 0.35
vt 0.4166666666666667 0.375
vt 0.4166666666666667 0.5625
vt 0.3958333333333333 0.5625
vt 0.3958333333333333 0.375
vt 0.4166666666666667 0.9
vt 0.4166666666666667 0.9125
vt 0.3958333333333333 0.9125
vt 0.3958333333333333 0.9
vt 0.42488333333333334 0.90822875
vt 0.42954270833333336 0.925
vt 0.40625 0.925
vt 0.40625 0.9156825
vn 0.9537169507482269 0 0.30070579950427306
vn -0.9537169507482269 0 -0.30070579950427306
vn 0 1 0
vn 0 -1 0
vn -0.30070579950427306 0 0.9537169507482269
vn 0.01982486932154859 0.7370001835328323 -0.6756017347734944
usemtl m_6064681d-3998-0087-00da-39601c31576b
f 12/25/7 10/26/7 9/27/7 11/28/7
f 15/29/8 13/30/8 14/31/8 16/32/8
f 9/33/9 10/34/9 14/35/9 13/36/9
f 12/37/10 11/38/10 15/39/10 16/40/10
f 11/41/11 9/42/11 13/43/11 15/44/11
f 16/45/12 14/46/12 10/47/12 12/48/12
o cube
v 0.5625 0.90625 1
v 0.5625 0.90625 -0.0625
v 0.5625 0.84375 1
v 0.5625 0.84375 -0.0625
v 0.5 0.90625 -0.0625
v 0.5 0.90625 1
v 0.5 0.84375 -0.0625
v 0.5 0.84375 1
vt 0.5416666666666666 0.925
vt 0.5520833333333334 0.925
vt 0.5520833333333334 0.9125
vt 0.5416666666666666 0.9125
vt 0.5208333333333334 0.925
vt 0.6875 0.925
vt 0.6875 0.9125
vt 0.5208333333333334 0.9125
vt 0.5416666666666666 0.925
vt 0.5520833333333334 0.925
vt 0.5520833333333334 0.9125
vt 0.5416666666666666 0.9125
vt 0.5208333333333334 0.875
vt 0.6875 0.875
vt 0.6875 0.8625
vt 0.5208333333333334 0.8625
vt 0.5416666666666666 0.9375
vt 0.5520833333333334 0.9375
vt 0.5520833333333334 0.7375
vt 0.5416666666666666 0.7375
vt 0.5520833333333334 0.9375
vt 0.5625 0.9375
vt 0.5625 0.7375
vt 0.5520833333333334 0.7375
vn 0 0 -1
vn 1 0 0
vn 0 0 1
vn -1 0 0
vn 0 1 0
vn 0 -1 0
usemtl m_6064681d-3998-0087-00da-39601c31576b
f 20/52/13 23/51/13 21/50/13 18/49/13
f 19/56/14 20/55/14 18/54/14 17/53/14
f 24/60/15 19/59/15 17/58/15 22/57/15
f 23/64/16 24/63/16 22/62/16 21/61/16
f 22/68/17 17/67/17 18/66/17 21/65/17
f 23/72/18 20/71/18 19/70/18 24/69/18
o cube
v 1 0.9375 0.84375
v 1 0.9375 0.71875
v 1 0.8125 0.84375
v 1 0.8125 0.71875
v 0 0.9375 0.71875
v 0 0.9375 0.84375
v 0 0.8125 0.71875
v 0 0.8125 0.84375
vt 0.4375 0.4125
vt 0.4375 0.6125
vt 0.4583333333333333 0.6125
vt 0.4583333333333333 0.4125
vt 0.3333333333333333 0.7
vt 0.3541666666666667 0.7
vt 0.3541666666666667 0.675
vt 0.3333333333333333 0.675
vt 0.4166666666666667 0.375
vt 0.4166666666666667 0.575
vt 0.4375 0.575
vt 0.4375 0.375
vt 0.3958333333333333 0.7
vt 0.4166666666666667 0.7
vt 0.4166666666666667 0.675
vt 0.3958333333333333 0.675
vt 0.3854166666666667 0.3375
vt 0.3854166666666667 0.5375
vt 0.40625 0.5375
vt 0.40625 0.3375
vt 0.3854166666666667 0.475
vt 0.3854166666666667 0.675
vt 0.40625 0.675
vt 0.40625 0.475
vn 0 0 -1
vn 1 0 0
vn 0 0 1
vn -1 0 0
vn 0 1 0
vn 0 -1 0
usemtl m_6064681d-3998-0087-00da-39601c31576b
f 28/76/19 31/75/19 29/74/19 26/73/19
f 27/80/20 28/79/20 26/78/20 25/77/20
f 32/84/21 27/83/21 25/82/21 30/81/21
f 31/88/22 32/87/22 30/86/22 29/85/22
f 30/92/23 25/91/23 26/90/23 29/89/23
f 31/96/24 28/95/24 27/94/24 32/93/24
o cube
v 1 0.9375 0.28125
v 1 0.9375 0.15625
v 1 0.8125 0.28125
v 1 0.8125 0.15625
v 0 0.9375 0.15625
v 0 0.9375 0.28125
v 0 0.8125 0.15625
v 0 0.8125 0.28125
vt 0.375 0.44999999999999996
vt 0.375 0.65
vt 0.3958333333333333 0.65
vt 0.3958333333333333 0.44999999999999996
vt 0.3645833333333333 0.5125
vt 0.3854166666666667 0.5125
vt 0.3854166666666667 0.48750000000000004
vt 0.3645833333333333 0.48750000000000004
vt 0.375 0.725
vt 0.375 0.925
vt 0.3958333333333333 0.925
vt 0.3958333333333333 0.725
vt 0.4166666666666667 0.625
vt 0.4375 0.625
vt 0.4375 0.6
vt 0.4166666666666667 0.6
vt 0.40625 0.23750000000000004
vt 0.40625 0.4375
vt 0.4270833333333333 0.4375
vt 0.4270833333333333 0.23750000000000004
vt 0.4270833333333333 0.36250000000000004
vt 0.4270833333333333 0.5625
vt 0.40625 0.5625
vt 0.40625 0.36250000000000004
vn 0 0 -1
vn 1 0 0
vn 0 0 1
vn -1 0 0
vn 0 1 0
vn 0 -1 0
usemtl m_6064681d-3998-0087-00da-39601c31576b
f 36/100/25 39/99/25 37/98/25 34/97/25
f 35/104/26 36/103/26 34/102/26 33/101/26
f 40/108/27 35/107/27 33/106/27 38/105/27
f 39/112/28 40/111/28 38/110/28 37/109/28
f 38/116/29 33/115/29 34/114/29 37/113/29
f 39/120/30 36/119/30 35/118/30 40/117/30